<?xml version="1.0" encoding="utf-8" ?>
<svg baseProfile="full" height="200mm" version="1.1" viewBox="0,0,200,200" width="200mm" xmlns="http://www.w3.org/2000/svg" xmlns:ev="http://www.w3.org/2001/xml-events" xmlns:xlink="http://www.w3.org/1999/xlink"><defs /><rect fill="#1a1a1a" height="200" width="200" x="0" y="0" /><text alignment-baseline="middle" fill="#e1ed5e" style="dominant-baseline: central; font-size:9.0px; font-family:Arial;" text-anchor="middle" x="100.0" y="100.0">2023</text><line stroke="#e1ed5e" stroke-width="0.3" x1="100.0" x2="100.0" y1="15.0" y2="10.0" /><path d="M 100.0 14.0 a86.0,86.0 0 0,1 42.46469731375804,11.215312516191453" fill="none" id="id85" stroke="none" /><text fill="#e1ed5e" style="font-size:6.75px; font-family:Arial;" text-anchor="middle"><textPath startOffset="22.20632615414155" xlink:href="#id85">January</textPath></text><line stroke="#e1ed5e" stroke-width="0.3" x1="143.23703022742887" x2="145.7803849466894" y1="26.81831364943548" y2="22.513508569990506" /><path d="M 143.74570117128098 25.957352633546492 a86.0,86.0 0 0,1 28.547481713284135,27.462654790039103" fill="none" id="id86" stroke="none" /><text fill="#e1ed5e" style="font-size:6.75px; font-family:Arial;" text-anchor="middle"><textPath startOffset="19.985693538727396" xlink:href="#id86">February</textPath></text><path d="M 114.68862486808459 84.99185889309783 l 13.311656591546658 -13.601220147343083 a40.03137910682668,40.03137910682668 0 0,0 0.48831458081422946,0.48621760281835036 l -13.543806972528209 13.370066693874614" fill="#ff990e" stroke="none" /><path d="M 114.94478906791727 85.2469230424477 l 13.777549001034883 -13.600810274068476 a40.35982687389337,40.35982687389337 0 0,0 0.483810034995933,0.49860876916603053 l -14.009623299733924 13.36163730935233" fill="#ff9e0e" stroke="none" /><path d="M 115.68641384162765 86.03803664274999 l 14.581606413867933 -12.978610439308742 a40.52095219358647,40.52095219358647 0 0,0 0.45925315798317234,0.5250057495104246 l -14.802851435428952 12.72568913359537" fill="#ffa00e" stroke="none" /><path d="M 115.9244219780498 86.31012108654704 l 14.473899181308306 -12.442896041737692 a40.08715325595121,40.08715325595121 0 0,0 0.44532892333946517,0.5271289812608261 l -14.685938718134889 12.19190811084776" fill="#ff990e" stroke="none" /><path d="M 116.82858285166822 87.43820079747576 l 12.087577413228528 -9.022846525362187 a36.083808774345854,36.083808774345854 0 0,0 0.36725995323745564,0.5009421634808526 l -12.24109997897961 8.813441918209842" fill="#ff5b08" stroke="none" /><path d="M 117.04232023915458 87.72973835380427 l 15.102721132652336 -10.873774067536633 a39.60997442455243,39.60997442455243 0 0,0 0.39362389487119276,0.5567530844125385 l -15.287657647327412 10.612194482792303" fill="#ff920d" stroke="none" /><path d="M 117.2510076193507 88.02491185347247 l 12.564082275592423 -8.72157708409304 a36.29451111548298,36.29451111548298 0 0,0 0.351841642553645,0.5162841954691086 l -12.7123483838148 8.504014865353524" fill="#ff5e08" stroke="none" /><line stroke="#e1ed5e" stroke-width="0.3" x1="172.23445277983987" x2="176.4835382374775" y1="55.19839476539836" y2="52.563006222186495" /><path d="M 173.08426987136738 54.67131705675599 a86.0,86.0 0 0,1 12.851231095245387,41.99856678651699" fill="none" id="id87" stroke="none" /><text fill="#e1ed5e" style="font-size:6.75px; font-family:Arial;" text-anchor="middle"><textPath startOffset="22.20632615414155" xlink:href="#id87">March</textPath></text><path d="M 118.03404312379186 89.2402003453031 l 12.43188807904125 -7.417339758028316 a35.4764902616565,35.4764902616565 0 0,0 0.30837571814347814,0.5271140637649224 l -12.557723471655056 7.202246281909498" fill="#ff5107" stroke="none" /><path d="M 118.21658344932153 89.55222093294921 l 12.692116916343144 -7.279325116262125 a35.63141845366909,35.63141845366909 0 0,0 0.3005635004275844,0.5346689294840389 l -12.815538058063161 7.059772676843292" fill="#ff5407" stroke="none" /><path d="M 119.196687751892 91.48605970444005 l 13.120065561690504 -5.8188921083563345 a35.35254770804643,35.35254770804643 0 0,0 0.24192807316076745,0.5584033483715207 l -13.218284344693954 5.592189615398211" fill="#ff4f07" stroke="none" /><path d="M 119.47837535516314 92.15188598940014 l 17.31325985729432 -6.97575823330516 a39.665748573676964,39.665748573676964 0 0,0 0.24971751477194457,0.6355038371032017 l -17.430770921947964 6.676705391306173" fill="#ff930d" stroke="none" /><path d="M 119.61058180528143 92.48833698450437 l 29.508466444559318 -11.302961749757696 a52.59915404288806,52.59915404288806 0 0,0 0.3165853199865351,0.8482912612455329 l -29.69865635304748 10.79334735148283" fill="#b3ff20" stroke="none" /><path d="M 119.7369772167798 92.82701384747503 l 29.541397337253738 -10.73619489443438 a52.43183159551446,52.43183159551446 0 0,0 0.3009759888732455,0.8508996504072073 l -29.721826406936792 10.226097617600558" fill="#b5ff20" stroke="none" /><path d="M 119.85752413597 93.16781622104841 l 17.867083737135307 -6.147352451905383 a39.895042297855596,39.895042297855596 0 0,0 0.21783207214103922,0.6512901695122318 l -17.970253103048115 5.838889179470837" fill="#ff970d" stroke="none" /><path d="M 119.97218684219823 93.5106431181261 l 29.722527516783096 -9.657434612027364 a52.25211489277986,52.25211489277986 0 0,0 0.270577664576355,0.8578051387215944 l -29.88436066512766 9.144379306879351" fill="#b7ff1f" stroke="none" /><path d="M 120.08093135843002 93.85539295169968 l 18.287356139715236 -5.59578713881215 a40.12433602203423,40.12433602203423 0 0,0 0.19640691073207697,0.6621864638830811 l -18.380968947559012 5.2801712881825384" fill="#ff9a0e" stroke="none" /><path d="M 120.18372546131832 94.20196356495316 l 18.559656267204765 -5.331501534017108 a40.310249852449346,40.310249852449346 0 0,0 0.18583645083297173,0.668552589522189 l -18.648679488604103 5.011237641075968" fill="#ff9d0e" stroke="none" /><path d="M 120.28053869075195 94.5502522615342 l 31.474135247294274 -8.457669690121472 a53.59069447176864,53.59069447176864 0 0,0 0.23172531598354687,0.8929321691900624 l -31.615056895148122 7.91464109538256" fill="#a6ff21" stroke="none" /><path d="M 120.67395015179393 96.31383870115 l 31.72473169073238 -5.656513502071599 a53.22506393861892,53.22506393861892 0 0,0 0.15305535865334777,0.9033413907391423 l -31.81739891090595 5.109586323016619" fill="#abff21" stroke="none" /><path d="M 120.73433829027371 96.67025291283417 l 30.911826788057095 -4.964159635361531 a52.30788904190439,52.30788904190439 0 0,0 0.13511403367401617,0.8902326653558623 l -30.99269671517041 4.431327857613587" fill="#b7ff1f" stroke="none" /><path d="M 120.83666639777658 97.38593545837742 l 31.113574259123393 -3.9033542929205893 a52.35746606334841,52.35746606334841 0 0,0 0.10448966287340501,0.8952036207375843 l -31.176154275000385 3.367206933858152" fill="#b6ff1f" stroke="none" /><path d="M 120.87857604477298 97.74499172005257 l 18.878208833715647 -2.038956925956794 a39.98799921306315,39.98799921306315 0 0,0 0.0680231557193997,0.6849838950052672 l -18.910509115117275 1.7136975002470918" fill="#ff980e" stroke="none" /><path d="M 120.96714384426684 98.82574320788733 l 10.036014356305579 -0.5620631074582181 a31.051741097776905,31.051741097776905 0 0,0 0.02529444039288619,0.5339256585916848 l -10.04420240493196 0.3892263422435336" fill="#ff0801" stroke="none" /><line stroke="#e1ed5e" stroke-width="0.3" x1="184.98032266829074" x2="189.97916517819016" y1="98.17113171792111" y2="98.06355123074" /><path d="M 185.9800911702706 98.14961562048488 a86.0,86.0 0 0,1 -9.607161424134198,41.387399972396054" fill="none" id="id88" stroke="none" /><text fill="#e1ed5e" style="font-size:6.75px; font-family:Arial;" text-anchor="middle"><textPath startOffset="21.466115282336823" xlink:href="#id88">April</textPath></text><path d="M 120.9904718944345 100.63252640178507 l 9.570218102567768 0.2883887342390125 a30.574562266378123,30.574562266378123 0 0,0 -0.020379936225589368,0.5259155977715615 l -9.563836033490976 -0.45308157902458024" fill="#ff0000" stroke="none" /><path d="M 120.9764740272857 100.99374915477107 l 31.37185826390438 1.4862248818748045 a52.40704308479245,52.40704308479245 0 0,0 -0.05044464666372041,0.9007230529776029 l -31.34162726635313 -2.0260196511878306" fill="#b5ff1f" stroke="none" /><path d="M 120.95626037817324 101.35467743843564 l 31.27978506574864 2.0220219802107433 a52.34507180798741,52.34507180798741 0 0,0 -0.0658636635299708,0.8986573599421446 l -31.240344843554332 -2.560152476649658" fill="#b6ff1f" stroke="none" /><path d="M 120.92983693683757 101.71520430193887 l 31.320638335639387 2.566732544304155 a52.42563446783396,52.42563446783396 0 0,0 -0.08144797571159798,0.8987716250271325 l -31.271815763650714 -3.105485557879858" fill="#b5ff1f" stroke="none" /><path d="M 120.89721153311464 102.0752229133903 l 31.321150120998215 3.110384766016919 a52.47521148927798,52.47521148927798 0 0,0 -0.09699842563139671,0.8980849532914266 l -31.262969393865767 -3.649066041193137" fill="#b5ff20" stroke="none" /><path d="M 120.8583938346157 102.4346265915055 l 31.078309208432426 3.6275121957046963 a52.28929765886288,52.28929765886288 0 0,0 -0.11204473700910225,0.8931067957626572 l -31.011262962176474 -4.1619367457547485" fill="#b7ff1f" stroke="none" /><path d="M 120.5718875245553 104.21870165774334 l 19.541876630398434 4.007476087824847 a40.94855400354122,40.94855400354122 0 0,0 -0.14754341435819052,0.6892737121496441 l -19.4699991773158 -4.343263619390661" fill="#ffa70f" stroke="none" /><path d="M 120.49622156327973 104.57218783832717 l 26.927752823053716 6.006899544432189 a48.5896124336022,48.5896124336022 0 0,0 -0.1891279724750675,0.8147583554836765 l -26.820364284648097 -6.46952655726443" fill="#e9ff1a" stroke="none" /><path d="M 120.41448212921028 104.9243191809786 l 30.922940223067993 7.45913742552523 a52.80985638402518,52.80985638402518 0 0,0 -0.22076704210572193,0.8818545923475873 l -30.78996186666721 -7.990319857270213" fill="#b0ff20" stroke="none" /><path d="M 120.32669344350535 105.2749913415812 l 18.253234747763162 4.736906940516903 a39.857859531772576,39.857859531772576 0 0,0 -0.17805440359880076,0.662606673655105 l -18.168992267822585 -5.050404547347556" fill="#ff960d" stroke="none" /><path d="M 119.54520255179757 107.68017299344265 l 17.770638125739225 6.9828682843193395 a40.093350383631716,40.093350383631716 0 0,0 -0.257928896309096,0.6401583680443471 l -17.647806615172737 -7.287726020206501" fill="#ff9a0e" stroke="none" /><line stroke="#e1ed5e" stroke-width="0.3" x1="174.80103733775053" x2="179.2010983576182" y1="140.37084112569926" y2="142.7455964860345" /><path d="M 175.68104954172406 140.8457921977663 a86.0,86.0 0 0,1 -30.038265399797805,32.042727171017184" fill="none" id="id89" stroke="none" /><text fill="#e1ed5e" style="font-size:6.75px; font-family:Arial;" text-anchor="middle"><textPath startOffset="22.206326154141568" xlink:href="#id89">May</textPath></text><path d="M 117.14729908036423 112.12312394758627 l 15.36273854258877 10.861441364805799 a39.81447963800905,39.81447963800905 0 0,0 -0.4004582216951241,0.5562014448686698 l -15.173500528518044 -11.1242764151256" fill="#ff950d" stroke="none" /><path d="M 116.93607887273984 112.41649034213515 l 10.26560279498553 7.52610795674176 a33.728900255754475,33.728900255754475 0 0,0 -0.34730926986056826,0.4652775234479544 l -10.13453225842987 -7.701698359699029" fill="#ff3505" stroke="none" /><path d="M 116.71984013943494 112.70617746262583 l 24.81332167850234 18.856787269194946 a52.1653551052528,52.1653551052528 0 0,0 -0.5494581393657404,0.7102487128327788 l -24.485056721918532 -19.281113976140976" fill="#b9ff1f" stroke="none" /><path d="M 116.27256486870786 113.27417163493432 l 24.480878133190824 19.970015835597632 a52.59295691520755,52.59295691520755 0 0,0 -0.5782821013879977,0.69657804386026 l -24.133500031909282 -20.38845513657166" fill="#b3ff20" stroke="none" /><path d="M 116.0416608686014 113.55231037782055 l 24.090894794504973 20.352461394667163 a52.53718276608302,52.53718276608302 0 0,0 -0.5895609830893551,0.6857926162723647 l -23.73699130184484 -20.764131110101054" fill="#b4ff20" stroke="none" /><path d="M 115.80600337817218 113.82643327865902 l 23.615717618636356 20.658045944280143 a52.37605744638993,52.37605744638993 0 0,0 -0.599434376073813,0.6734708760791197 l -23.256624392914205 -21.06149099010013" fill="#b6ff1f" stroke="none" /><path d="M 115.07121518719521 114.62390073753431 l 25.061862358797452 24.31802498209892 a55.92081447963801,55.92081447963801 0 0,0 -0.6762673853159155,0.6850552909157415 l -24.639554348426 -24.745820766995326" fill="#88ff25" stroke="none" /><path d="M 114.81725581225074 114.88116024355365 l 28.190098825963158 28.31167816944434 a60.95288215620696,60.95288215620696 0 0,0 -0.7498657146613653,0.7339014276080728 l -27.698583158926 -28.792729699974984" fill="#4cff2c" stroke="none" /><path d="M 111.1453310114006 117.79835938074945 l 16.648927477781776 26.58724036553819 a52.36986031870943,52.36986031870943 0 0,0 -0.7681431559429579,0.47185626489936633 l -16.188805121906512 -26.869885097265936" fill="#b6ff1f" stroke="none" /><line stroke="#e1ed5e" stroke-width="0.3" x1="143.8653032363475" x2="146.44561519142675" y1="172.8068346515853" y2="177.08958963109032" /><path d="M 144.38136562736335 173.6633856474863 a86.0,86.0 0 0,1 -40.68145358897372,12.25698825130547" fill="none" id="id90" stroke="none" /><text fill="#e1ed5e" style="font-size:6.75px; font-family:Arial;" text-anchor="middle"><textPath startOffset="21.466115282336833" xlink:href="#id90">June</textPath></text><path d="M 110.5260780823613 118.17145234162733 l 15.761160787891363 27.208916736597597 a52.44422585087547,52.44422585087547 0 0,0 -0.7850431935278968,0.44576801365394186 l -15.290468827442266 -27.476187916046168" fill="#b5ff20" stroke="none" /><line stroke="#e1ed5e" stroke-width="0.3" x1="102.19456741930631" x2="102.32365962044197" y1="184.97166512339345" y2="189.96999836594603" /><path d="M 102.22038585953345 185.97133177190398 a86.0,86.0 0 0,1 -42.740103519485714,-10.115201625700543" fill="none" id="id91" stroke="none" /><text fill="#e1ed5e" style="font-size:6.75px; font-family:Arial;" text-anchor="middle"><textPath startOffset="22.20632615414155" xlink:href="#id91">July</textPath></text><line stroke="#e1ed5e" stroke-width="0.3" x1="58.666819895761336" x2="56.23545636021788" y1="174.27360380694188" y2="178.64263932499728" /><path d="M 58.180547188652646 175.14741091055294 a86.0,86.0 0 0,1 -31.652253787137756,-30.449443065178592" fill="none" id="id92" stroke="none" /><text fill="#e1ed5e" style="font-size:6.75px; font-family:Arial;" text-anchor="middle"><textPath startOffset="22.20632615414155" xlink:href="#id92">August</textPath></text><line stroke="#e1ed5e" stroke-width="0.3" x1="26.63291911575756" x2="22.317208475507996" y1="142.92168965132927" y2="145.44649492493687" /><path d="M 25.769776987707644 143.4266507060508 a86.0,86.0 0 0,1 -11.730757126820373,-40.83630448921669" fill="none" id="id93" stroke="none" /><text fill="#e1ed5e" style="font-size:6.75px; font-family:Arial;" text-anchor="middle"><textPath startOffset="21.46611528233685" xlink:href="#id93">September</textPath></text><path d="M 81.18737489456691 109.33194174019688 l -16.78257889840376 8.324943895518935 a39.7339169781625,39.7339169781625 0 0,0 -0.2986604474735275,-0.6153289820979487 l 16.923392602492004 -8.034825957455702" fill="#ff940d" stroke="none" /><path d="M 81.02952815118164 109.00673069616217 l -17.16971389740092 8.151773473872524 a40.00659059610466,40.00659059610466 0 0,0 -0.2900008848773437,-0.6246361063359192 l 17.30748939911809 -7.855017300257777" fill="#ff980e" stroke="none" /><path d="M 80.87730276802145 108.67885076344099 l -20.890878955179392 9.481341390790448 a43.94176667322448,43.94176667322448 0 0,0 -0.3066694123151893,-0.691458566410326 l 21.050989452225863 -9.120334487887426" fill="#ffd313" stroke="none" /><path d="M 80.45479744820244 107.68017299344265 l -26.71651924648623 10.498099932803376 a49.70509541609286,49.70509541609286 0 0,0 -0.30605491288815506,-0.7990128009896278 l 26.89326843896789 -10.03666356498059" fill="#daff1c" stroke="none" /><path d="M 80.32549172779594 107.34259656027581 l -15.409053203156471 5.750713536584301 a37.44717686405666,37.44717686405666 0 0,0 -0.22018180174083138,-0.6058457540697529 l 15.505759265902528 -5.484619985508431" fill="#ff700a" stroke="none" /><path d="M 80.20201598880116 107.00284435728193 l -19.601289501545963 6.933270554401201 a41.79136336808971,41.79136336808971 0 0,0 -0.23404988187955392,-0.6802585130631945 l 19.717730214368746 -6.594839338248709" fill="#ffb310" stroke="none" /><path d="M 80.0844068197444 106.66101706037122 l -18.113277055345595 6.0582100865819735 a40.09954751131222,40.09954751131222 0 0,0 -0.2133061994169357,-0.6564889783229274 l 18.214875505778778 -5.745522208281243" fill="#ff9a0e" stroke="none" /><path d="M 79.97269907076064 106.31721596034903 l -18.752693049914363 5.915166115144836 a40.66348613023805,40.66348613023805 0 0,0 -0.20481467472130865,-0.6693462074870096 l 18.851734497141802 -5.591492935105778" fill="#ffa20f" stroke="none" /><path d="M 79.86692584326677 105.97154293290107 l -18.394254649590614 5.455802750421522 a40.18630729883927,40.18630729883927 0 0,0 -0.19099473165627892,-0.6648777170503236 l 18.485442018132996 -5.138367557866602" fill="#ff9b0e" stroke="none" /><path d="M 79.76711848015287 105.62410040840567 l -18.855628518496122 5.241267683379434 a40.57052921503049,40.57052921503049 0 0,0 -0.181238066166392,-0.6744542664206585 l 18.94305466100429 -4.915922483783237" fill="#ffa10e" stroke="none" /><path d="M 79.50377843672027 104.57218783832718 l -18.895395287335987 4.215084046901662 a40.35982687389337,40.35982687389337 0 0,0 -0.1454221474918234,-0.6793638595560684 l 18.96515147355225 -3.88920636792943" fill="#ff9e0e" stroke="none" /><path d="M 79.4281124754447 104.21870165774334 l -19.056213340422698 3.9078805342287066 a40.45278378910092,40.45278378910092 0 0,0 -0.13401442283469642,-0.6833366548129293 l 19.12065769623306 -3.5792801523478226" fill="#ff9f0e" stroke="none" /><path d="M 79.35854240842038 103.8639653848113 l -31.071830171546623 5.8164727802249905 a52.61154829824906,52.61154829824906 0 0,0 -0.1589709482651193,-0.8915935016305115 l 31.16734756215093 -5.280760527861265" fill="#b3ff20" stroke="none" /><path d="M 79.29508885075956 103.50808413554451 l -19.73545042653352 3.3438260154855683 a41.01672240802675,41.01672240802675 0 0,0 -0.1119526938227632,-0.6971295313015491 l 19.790084874717575 -3.0036172544908055" fill="#ffa80f" stroke="none" /><path d="M 79.18660465613746 102.79330883721812 l -29.727572338469816 3.9896561397213413 a50.994097973637615,50.994097973637615 0 0,0 -0.10926940219676443,-0.8709846466320117 l 29.79184324991343 -3.477353738801921" fill="#c8ff1d" stroke="none" /><path d="M 79.1416061653843 102.43462659150553 l -31.521493653472458 3.6792414248769916 a52.73549085185914,52.73549085185914 0 0,0 -0.09747954209911927,-0.9025394942556952 l 31.580155497072628 -3.136105608736514" fill="#b1ff20" stroke="none" /><path d="M 79.10278846688536 102.07522291339032 l -39.04814384055143 3.8777232404842032 a60.24021247294905,60.24021247294905 0 0,0 -0.09358863106117736,-1.03274274514526 l 39.10910706788968 -3.2049991067903774" fill="#54ff2b" stroke="none" /><path d="M 79.04373962182676 101.35467743843564 l -31.360179926534475 2.027218952480957 a52.42563446783396,52.42563446783396 0 0,0 -0.05046254188720586,-0.901042584214335 l 31.39042881930921 -1.4871046519311846" fill="#b5ff1f" stroke="none" /><path d="M 79.0235259727143 100.99374915477108 l -19.57336539669803 0.9272776394017759 a40.59531772575251,40.59531772575251 0 0,0 -0.02705942211373211,-0.6982834489160865 l 19.586426951662965 -0.5902169434716926" fill="#ffa10e" stroke="none" /><path d="M 79.0095281055655 100.63252640178507 l -19.549261056119015 0.5890969872222207 a40.55813495966949,40.55813495966949 0 0,0 -0.015021839587110331,-0.6980058584277603 l 19.55650495839113 -0.2525013130043316" fill="#ffa10e" stroke="none" /><line stroke="#e1ed5e" stroke-width="0.3" x1="15.007084014347285" x2="10.007500721073583" y1="101.09737516637583" y2="101.16192664675087" /><path d="M 14.007167355692545 101.11028546245083 a86.0,86.0 0 0,1 10.666146001902534,-42.60595125391555" fill="none" id="id94" stroke="none" /><text fill="#e1ed5e" style="font-size:6.75px; font-family:Arial;" text-anchor="middle"><textPath startOffset="22.20632615414155" xlink:href="#id94">October</textPath></text><path d="M 79.00175016825051 100.2711162175752 l -31.367245912349784 0.4049941845462378 a52.36986031870943,52.36986031870943 0 0,0 -0.003879615887912612,-0.9014861015719479 l 31.369569825527197 0.13500139522938542" fill="#b6ff1f" stroke="none" /><path d="M 79.05617556472873 98.46500227214037 l -18.832136451191687 -1.3802296114858261 a39.882648042494594,39.882648042494594 0 0,0 0.056074084290475106,-0.6842458587910115 l 18.805587883081714 1.7041893874846161" fill="#ff960d" stroke="none" /><path d="M 79.08570108090925 98.10471618934814 l -18.84879074333165 -1.7081044927397493 a39.926027936258116,39.926027936258116 0 0,0 0.06791773704641788,-0.6839223433547876 l 18.816595880603003 2.0323023667989673" fill="#ff970d" stroke="none" /><path d="M 79.12142395522702 97.74499172005258 l -19.198596189901433 -2.0735606335774666 a40.310249852449346,40.310249852449346 0 0,0 0.08044706388825162,-0.689221315200536 l 19.16005877300959 2.4037256871028645" fill="#ff9d0e" stroke="none" /><path d="M 79.16333360222342 97.38593545837743 l -18.852612387049877 -2.3651549925087876 a40.000393468424164,40.000393468424164 0 0,0 0.09158947415346304,-0.6824479661872846 l 18.80910691383858 2.689321300760732" fill="#ff980e" stroke="none" /><path d="M 79.21141760316559 97.0276538004421 l -19.330559649545123 -2.763878479679408 a40.52714932126697,40.52714932126697 0 0,0 0.10468376220876743,-0.6897351971256686 l 19.280119993897053 3.096212789197168" fill="#ffa00e" stroke="none" /><path d="M 79.26566170972629 96.67025291283419 l -18.796740279673678 -3.0185863815974936 a40.037576234507185,40.037576234507185 0 0,0 0.11513308085924036,-0.6795219605412771 l 18.741995337294213 3.3416941304545986" fill="#ff990e" stroke="none" /><path d="M 79.32604984820605 96.31383870115002 l -18.766398977056312 -3.346045294686961 a40.062364745229196,40.062364745229196 0 0,0 0.1268913899756191,-0.6778588791747852 l 18.706021863170832 3.668582251324319" fill="#ff990e" stroke="none" /><path d="M 79.3925641242962 95.95851677861259 l -18.9857608117098 -3.723444014510574 a40.347432618532366,40.347432618532366 0 0,0 0.1395266173704826,-0.6803813381680527 l 18.918854898424325 4.049701008842029" fill="#ff9d0e" stroke="none" /><path d="M 79.46518482838121 95.60439243477599 l -19.336984619113395 -4.1392043303058665 a40.77503442848712,40.77503442848712 0 0,0 0.15282019427176669,-0.685062965891536 l 19.26287003783959 4.471445465747362" fill="#ffa40f" stroke="none" /><path d="M 79.54389044137918 95.25157060432595 l -18.550548300307444 -4.306095868455544 a40.043773362187686,40.043773362187686 0 0,0 0.1616380254715823,-0.670093968550324 l 18.473677474575048 4.624775068665264" fill="#ff990e" stroke="none" /><path d="M 79.62865764111835 94.90015583598534 l -18.918536613240377 -4.736142903055512 a40.50236081054496,40.50236081054496 0 0,0 0.17513156807189492,-0.6748533724437761 l 18.834208713298175 5.061092701048152" fill="#ffa00e" stroke="none" /><path d="M 79.71946130924805 94.55025226153421 l -19.3967812010802 -5.212266108705771 a41.0848908125123,41.0848908125123 0 0,0 0.1894076647851319,-0.6814001462030939 l 19.304186765728705 5.545377558327807" fill="#ffa90f" stroke="none" /><path d="M 79.81627453868168 94.20196356495316 l -19.131455690071146 -5.495758320687724 a40.90517410977769,40.90517410977769 0 0,0 0.20022907981447757,-0.6750729179269163 l 19.03402071314496 5.8242606253611795" fill="#ffa60f" stroke="none" /><path d="M 79.91906864156998 93.8553929516997 l -19.928833019398045 -6.098066152892169 a41.84094038953374,41.84094038953374 0 0,0 0.2166653724449175,-0.6868884398025747 l 19.82091216318492 6.440204759121158" fill="#ffb410" stroke="none" /><path d="M 80.14247586403 93.16781622104843 l -18.066323109737013 -6.215902790824617 a40.10574463899272,40.10574463899272 0 0,0 0.23022018847900327,-0.6508634746141398 l 17.9566498404482 6.525963891865368" fill="#ff9a0e" stroke="none" /><path d="M 80.38941819471856 92.48833698450439 l -19.033799987479043 -7.290731750333982 a41.38235294117647,41.38235294117647 0 0,0 0.2605244752331381,-0.6630063727054074 l 18.905481962364213 7.617287127935152" fill="#ffad10" stroke="none" /><path d="M 80.803312248108 91.48605970444005 l -20.053986221236784 -8.894161512772635 a42.937831988982886,42.937831988982886 0 0,0 0.305467267322425,-0.6730566323242881 l 19.897916636951006 9.238040153938993" fill="#ffc412" stroke="none" /><path d="M 80.95270993114464 91.15688171328213 l -22.905087654117334 -10.634184640480623 a46.253295298052336,46.253295298052336 0 0,0 0.3414854497038503,-0.7192554467236715 l 22.718644010571733 11.026882502844826" fill="#fff417" stroke="none" /><line stroke="#e1ed5e" stroke-width="0.3" x1="26.266209847984243" x2="21.928928074336255" y1="57.711370442889674" y2="55.22380399835377" /><path d="M 25.398753493254645 57.213857153982495 a86.0,86.0 0 0,1 29.58750427330803,-30.492523968695096" fill="none" id="id95" stroke="none" /><text fill="#e1ed5e" style="font-size:6.75px; font-family:Arial;" text-anchor="middle"><textPath startOffset="21.46611528233685" xlink:href="#id95">November</textPath></text><path d="M 82.15384107792192 88.93136811851018 l -26.895632583627606 -16.681340650826826 a52.64873106433208,52.64873106433208 0 0,0 0.4842991397284231,-0.7660449343603962 l 26.604505847653222 17.141833232901437" fill="#b2ff20" stroke="none" /><path d="M 82.34701348167596 88.62581576622439 l -21.113777599478862 -13.604043487947825 a46.116958489081256,46.116958489081256 0 0,0 0.43570284434727824,-0.6636053237948638 l 20.87647811977366 13.965466875720356" fill="#fff316" stroke="none" /><path d="M 82.7489923806493 88.02491185347247 l -20.739899185884745 -14.396963144487446 a46.24709817037183,46.24709817037183 0 0,0 0.45958027423084535,-0.6500437055451477 l 20.48900629185002 14.751833350364379" fill="#fff417" stroke="none" /><path d="M 82.95767976084542 87.72973835380427 l -17.49662564785131 -12.59735597101563 a42.559807200472164,42.559807200472164 0 0,0 0.4331724763310655,-0.5908467709065583 l 17.27719055900661 12.89666518559369" fill="#ffbf11" stroke="none" /><path d="M 83.39014120810768 87.1503855733568 l -15.42530757960412 -11.933229372608553 a40.50236081054496,40.50236081054496 0 0,0 0.4313422724566211,-0.5477608825263225 l 15.217611226553526 12.196982649087923" fill="#ffa00e" stroke="none" /><path d="M 83.6137871275137 86.86637796730984 l -15.415870540277295 -12.35588836520251 a40.75644304544561,40.75644304544561 0 0,0 0.4434718425469974,-0.5436440422617095 l 15.200900205653905 12.619416577072302" fill="#ffa40f" stroke="none" /><path d="M 83.84228863543731 86.58626213691792 l -24.484511466760598 -20.32644420428678 a52.82225063938619,52.82225063938619 0 0,0 0.5868033545662745,-0.6945900845006765 l 24.1309974987072 20.744893238416573" fill="#b0ff20" stroke="none" /><path d="M 84.07557802195018 86.31012108654704 l -14.89213847583313 -12.802447258528165 a40.63869761951604,40.63869761951604 0 0,0 0.4605876517640256,-0.5265313065925143 l 14.669558960491262 13.056894121323623" fill="#ffa20f" stroke="none" /><path d="M 84.31358615837235 86.03803664274999 l -14.39644315781881 -12.813802687698471 a40.27306708636632,40.27306708636632 0 0,0 0.4653578971620684,-0.5138598130427636 l 14.173741620040698 13.059715288010791" fill="#ff9c0e" stroke="none" /><path d="M 85.05521093208273 85.24692304244772 l -44.43303655103282 -43.86304849911646 a83.43606138107417,83.43606138107417 0 0,0 1.0177777095654192,-1.0134070486318545 l 43.67142304130009 44.62139139839842" fill="#4cd8ff" stroke="none" /><path d="M 85.57189188830299 84.74124197986013 l -43.28432433509105 -45.776274060419595 a84.0,84.0 0 0,0 1.0591684648205755,-0.98438165570141 l 42.48994798647562 46.514560302195655" fill="#4dd2ff" stroke="none" /><path d="M 85.83668400450813 84.49514656593479 l -13.111446668657685 -14.35335192484633 a40.44038953373992,40.44038953373992 0 0,0 0.5180009734245198,-0.4650663884835559 l 12.862434707637194 14.576917322099163" fill="#ff9f0e" stroke="none" /><path d="M 86.10567301691215 84.25364557470407 l -13.005942904885298 -14.739554270225868 a40.65728900255755,40.65728900255755 0 0,0 0.5287503693718477,-0.4585271099266031 l 12.750298736866677 14.961246373572152" fill="#ffa20f" stroke="none" /><path d="M 87.22198572758235 83.33499621200491 l -20.087098769182226 -26.19746464056163 a54.012099154042886,54.012099154042886 0 0,0 0.7426762559196712,-0.5593683586652003 l 19.633176359504166 26.539349588732684" fill="#a1ff22" stroke="none" /><line stroke="#e1ed5e" stroke-width="0.3" x1="56.762969772571076" x2="54.21961505331055" y1="26.818313649435495" y2="22.513508569990535" /><path d="M 56.25429882871897 25.957352633546506 a86.0,86.0 0 0,1 42.265352541879196,-11.944610805530505" fill="none" id="id96" stroke="none" /><text fill="#e1ed5e" style="font-size:6.75px; font-family:Arial;" text-anchor="middle"><textPath startOffset="22.20632615414155" xlink:href="#id96">December</textPath></text><path d="M 89.63071344664047 81.73862282372117 l -15.553929830039287 -27.392065764418245 a52.5,52.5 0 0,0 0.7896897773198861,-0.43946150609953855 l 15.080115963647355 27.655742668077966" fill="#b4ff20" stroke="none" /><path d="M 90.26544431104013 81.39251694778311 l -14.475435603974665 -27.66961649619937 a52.22732638205784,52.22732638205784 0 0,0 0.8001711678431327,-0.40987875098602505 l 13.997003948542767 27.9146877724979" fill="#b8ff1f" stroke="none" /><path d="M 90.91171255644093 81.06846463323043 l -13.54929023161334 -28.224114697890958 a52.30788904190439,52.30788904190439 0 0,0 0.8150610007349316,-0.38268206861988274 l 13.061451019578799 28.453161749150848" fill="#b7ff1f" stroke="none" /><path d="M 92.23578459929587 80.48803036053334 l -9.3161419887654 -23.41206036417611 a46.1975211489278,46.1975211489278 0 0,0 0.7413972553558172,-0.28765061678061254 l 8.911761568409906 23.568953684847273" fill="#fff417" stroke="none" /><path d="M 98.19473922651362 79.07773832637324 l -2.2124477647911487 -25.641398602372206 a46.73667125713162,46.73667125713162 0 0,0 0.8021121351246497,-0.06225933926677582 l 1.770745440304165 25.675683203827447" fill="#fffb17" stroke="none" /><path d="M 99.27714615592234 79.0124445844662 l -1.9209026753647485 -55.77206468135408 a76.80513476293527,76.80513476293527 0 0,0 1.3216823801710802,-0.03413515653697876 l 0.9605936599987892 55.79686663003341" fill="#43ffdc" stroke="none" /><path d="M 99.63851952072746 79.00311137660856 l -0.3321808614365607 -19.294996411540705 a40.29785559708833,40.29785559708833 0 0,0 0.6936613407090917,-0.005970562156183987 l 4.726611417476411e-15 19.29785559708833" fill="#ff9d0e" stroke="none" /></svg>