<?xml version="1.0" encoding="utf-8" ?>
<svg baseProfile="full" height="200mm" version="1.1" viewBox="0,0,200,200" width="200mm" xmlns="http://www.w3.org/2000/svg" xmlns:ev="http://www.w3.org/2001/xml-events" xmlns:xlink="http://www.w3.org/1999/xlink"><defs /><rect fill="#1a1a1a" height="200" width="200" x="0" y="0" /><text alignment-baseline="middle" fill="#e1ed5e" style="dominant-baseline: central; font-size:9.0px; font-family:Arial;" text-anchor="middle" x="100.0" y="100.0">2024</text><line stroke="#e1ed5e" stroke-width="0.3" x1="100.0" x2="100.0" y1="15.0" y2="10.0" /><path d="M 100.0 14.0 a86.0,86.0 0 0,1 42.35913384403234,11.155469271406648" fill="none" id="id97" stroke="none" /><text fill="#e1ed5e" style="font-size:6.75px; font-family:Arial;" text-anchor="middle"><textPath startOffset="22.145653131862478" xlink:href="#id97">January</textPath></text><path d="M 100.72087961077811 79.0123766808444 l 1.1005748859926165 -32.04203697314081 a53.06093258886585,53.06093258886585 0 0,0 0.9100562398573837,0.03908173067047051 l -1.6504568864508367 32.01842267404451" fill="#86ff25" stroke="none" /><path d="M 101.08105385017728 79.02784411241856 l 0.6968559746306309 -13.518819741264055 a34.53676827925222,34.53676827925222 0 0,0 0.5918214821133967,0.035602510741558804 l -0.92882180887649 13.504865252697805" fill="#ff8f0d" stroke="none" /><path d="M 101.80034050326958 79.07731436759882 l 1.2276845252191566 -14.267555126530336 a35.32027718244464,35.32027718244464 0 0,0 0.6036410905781784,0.05716543888102904 l -1.472425179182348 14.244377932144122" fill="#ff9a0e" stroke="none" /><path d="M 102.87502721639298 79.19773525538626 l 2.196175717742715 -15.890433469876212 a37.041479471787035,37.041479471787035 0 0,0 0.6291317037492788,0.0924606951110741 l -2.468632527099676 15.850391701466256" fill="#ffb110" stroke="none" /><line stroke="#e1ed5e" stroke-width="0.3" x1="143.13028292997686" x2="145.6673583964461" y1="26.7553504044142" y2="22.446841604673864" /><path d="M 143.63769802327073 25.89364864446614 a86.0,86.0 0 0,1 29.32050498858742,28.57503671076993" fill="none" id="id98" stroke="none" /><text fill="#e1ed5e" style="font-size:6.75px; font-family:Arial;" text-anchor="middle"><textPath startOffset="20.669276256404974" xlink:href="#id98">February</textPath></text><path d="M 114.39649973595853 84.71141617570332 l 4.0554593898852636 -4.3067573344531285 a26.915649550207853,26.915649550207853 0 0,0 0.3336611494631448,0.31963983346513836 l -4.12879302521372 4.23650537068241" fill="#ff2103" stroke="none" /><path d="M 114.65682725009322 84.96080404539774 l 11.147741168077042 -11.438564500842507 a36.9722537855612,36.9722537855612 0 0,0 0.45072360476710704,0.44687128941307386 l -11.342456692974112 11.245513201200772" fill="#ffb110" stroke="none" /><path d="M 115.6541949942343 86.00192230759917 l 11.908668242500811 -10.648804574936658 a36.97540040766238,36.97540040766238 0 0,0 0.41903505727260376,0.47678497397171926 l -12.089714363732003 10.442807323153641" fill="#ffb110" stroke="none" /><path d="M 115.8921839302757 86.27271002978787 l 12.446905057952955 -10.7513401375072 a37.44739372283853,37.44739372283853 0 0,0 0.4160324065727557,0.4900851288441029 l -12.629632028032823 10.536088226213543" fill="#ffb711" stroke="none" /><path d="M 116.35404254752997 86.82634096563983 l 25.05121406620976 -20.17948476933972 a53.16791774030578,53.16791774030578 0 0,0 0.5664499053045035,0.7156909508937815 l -25.393930402155824 19.74647387453126" fill="#85ff25" stroke="none" /><path d="M 117.01052211995028 87.68569379921539 l 12.886945839411684 -9.329154974809589 a36.90932134353771,36.90932134353771 0 0,0 0.3671333310557569,0.516419007496588 l -13.045194268997403 9.106558740603496" fill="#ffb010" stroke="none" /><path d="M 117.62189284568427 88.57770195909679 l 13.305224548857257 -8.62428580340674 a36.85582876781775,36.85582876781775 0 0,0 0.3395690870018243,0.5338590056930748 l -13.451311327484971 8.394613123034995" fill="#ffaf10" stroke="none" /><line stroke="#e1ed5e" stroke-width="0.3" x1="172.87174338648825" x2="177.1583165268699" y1="56.24261187166439" y2="53.66864786411523" /><path d="M 173.72905801456457 55.72781907015455 a86.0,86.0 0 0,1 12.242430191666344,42.057860355516425" fill="none" id="id99" stroke="none" /><text fill="#e1ed5e" style="font-size:6.75px; font-family:Arial;" text-anchor="middle"><textPath startOffset="22.145653131862474" xlink:href="#id99">March</textPath></text><path d="M 119.31412917781788 91.75594674310238 l 6.036910396428648 -2.576798071353664 a27.563853703049777,27.563853703049777 0 0,0 0.18201876826620753,0.4367787822329341 l -6.080255009231339 2.4727867796794523" fill="#ff2b04" stroke="none" /><path d="M 119.71291397450082 92.76114493625339 l 9.091692450181762 -3.3385954007690843 a30.68530282741477,30.68530282741477 0 0,0 0.177331577775484,0.4960279839415777 l -9.14766419800119 3.1820324604465897" fill="#ff5908" stroke="none" /><line stroke="#e1ed5e" stroke-width="0.3" x1="184.99686870605535" x2="189.99668451229388" y1="99.2704041080226" y2="99.22748670261217" /><path d="M 185.99683186730306 99.26182062694052 a86.0,86.0 0 0,1 -10.086455211305974,41.156179273409016" fill="none" id="id100" stroke="none" /><text fill="#e1ed5e" style="font-size:6.75px; font-family:Arial;" text-anchor="middle"><textPath startOffset="21.40746469413373" xlink:href="#id100">April</textPath></text><path d="M 119.58574465831526 107.57618678355244 l 9.531942257517755 3.6871600346495574 a31.220228584614418,31.220228584614418 0 0,0 -0.19764088361424373,0.49818413528877614 l -9.467242698937387 -3.8502451871518977" fill="#ff6008" stroke="none" /><path d="M 118.5362547648365 109.86951160357373 l 8.504572155280707 4.528205650755324 a30.63495687379598,30.63495687379598 0 0,0 -0.2511404900075007,0.4620702150708978 l -8.425586315657867 -4.673530699300825" fill="#ff5808" stroke="none" /><line stroke="#e1ed5e" stroke-width="0.3" x1="174.33088141563837" x2="178.70328620479359" y1="141.23008692659167" y2="143.65538615756765" /><path d="M 175.20536237346943 141.71514677278685 a86.0,86.0 0 0,1 -30.301960400862466,31.631185727798858" fill="none" id="id101" stroke="none" /><text fill="#e1ed5e" style="font-size:6.75px; font-family:Arial;" text-anchor="middle"><textPath startOffset="22.145653131862474" xlink:href="#id101">May</textPath></text><path d="M 118.36410011445183 110.18625677009912 l 21.028194194728094 11.663984847830472 a45.04648609717468,45.04648609717468 0 0,0 -0.3808929978041225,0.6730014306577403 l -20.824867831902594 -12.023243048587334" fill="#e5ff1a" stroke="none" /><path d="M 118.18653347947321 110.5 l 18.211540397880793 10.514437751074214 a42.02887550214844,42.02887550214844 0 0,0 -0.3661041077631432,0.6217248129846796 l -18.028362579987885 -10.825513732352443" fill="#fff316" stroke="none" /><path d="M 117.81537515405839 111.11811171558189 l 11.216989521351826 7.00023106628161 a34.22210606913478,34.22210606913478 0 0,0 -0.3153034323657066,0.4957093661869918 l -11.09516839736023 -7.191754107147274" fill="#ff8b0c" stroke="none" /><path d="M 117.01052211995028 112.31430620078461 l 14.538595543513498 10.524821988986133 a38.948332465098716,38.948332465098716 0 0,0 -0.3967128407077256,0.5382171593271334 l -14.355780683221944 -10.772845457582145" fill="#ffcb12" stroke="none" /><path d="M 116.79662413953412 112.60449989151573 l 25.555504392958557 19.177326924314357 a52.95080081532475,52.95080081532475 0 0,0 -0.5518180026638051,0.7223474790827831 l -25.222534412940448 -19.613195316638016" fill="#87ff25" stroke="none" /><path d="M 116.57777611688842 112.89097897827486 l 14.419619092684592 11.2127830227579 a39.26614129731733,39.26614129731733 0 0,0 -0.418340664161028,0.5285597630561738 l -14.225011997882001 -11.458662729728756" fill="#ffcf13" stroke="none" /><path d="M 116.1254893667686 113.45245675266167 l 7.5386362975822525 6.288998520334087 a30.817460955664096,30.817460955664096 0 0,0 -0.34237529427922225,0.4033172357704916 l -7.429566439795916 -6.417482538554135" fill="#ff5a08" stroke="none" /><path d="M 115.6541949942343 113.99807769240083 l 23.86424870971109 21.339558350483657 a53.013733257348235,53.013733257348235 0 0,0 -0.6124406464375228,0.6731795542449223 l -23.49441036243169 -21.74607548028625" fill="#86ff25" stroke="none" /><path d="M 115.16444852881244 114.52719865689866 l 10.388626610393315 9.952069292515583 a35.38635624656931,35.38635624656931 0 0,0 -0.42398449003887717,0.4350454377748224 l -10.216255319203631 -10.128937422358144" fill="#ff9b0e" stroke="none" /><path d="M 114.39649973595853 115.28858382429668 l 6.840351981556473 7.26421675933557 a30.97793868282399,30.97793868282399 0 0,0 -0.39027811054936395,0.3612355926106135 l -6.714644099693142 -7.380570098078563" fill="#ff5d08" stroke="none" /><path d="M 114.13192950727249 115.5334660781643 l 11.019554681426397 12.112420936739463 a37.37502141451152,37.37502141451152 0 0,0 -0.47828454177640145,0.42768498650529796 l -10.810005112826618 -12.299801453128147" fill="#ffb610" stroke="none" /><path d="M 113.86319453409587 115.77377054828091 l 16.823641700381007 19.142215981722682 a46.48449239741137,46.48449239741137 0 0,0 -0.6039011142295884,0.5216353991832958 l -16.49256110638856 -19.428195513370696" fill="#d3ff1c" stroke="none" /><path d="M 112.45986205192187 116.90419585922612 l 5.576654653592962 7.565803065135836 a30.3989602162079,30.3989602162079 0 0,0 -0.42271779276280846,0.3060150828936604 l -5.445955850456186 -7.660418919402574" fill="#ff5407" stroke="none" /><path d="M 111.8722381534696 117.32195027204791 l 12.544986475758414 18.30351017959449 a43.18997905748179,43.18997905748179 0 0,0 -0.6151563358621663,0.41390463632306296 l -12.228933851799244 -18.516164489974674" fill="#fcff18" stroke="none" /><path d="M 111.5731344415666 117.5232005979908 l 8.739907347287039 13.233333668388028 a36.858975389918925,36.858975389918925 0 0,0 -0.530969982654084,0.3441683277590425 l -8.511451732375946 -13.381415837850964" fill="#ffaf10" stroke="none" /><line stroke="#e1ed5e" stroke-width="0.3" x1="143.1302829299769" x2="145.66735839644613" y1="173.24464959558577" y2="177.55315839532614" /><path d="M 143.63769802327073 174.10635135553383 a86.0,86.0 0 0,1 -40.68552437913181,11.842963189579606" fill="none" id="id102" stroke="none" /><text fill="#e1ed5e" style="font-size:6.75px; font-family:Arial;" text-anchor="middle"><textPath startOffset="21.407464694133747" xlink:href="#id102">June</textPath></text><path d="M 110.65571695917076 118.09573695890943 l 4.877746036170173 8.283479146556417 a30.612930519087758,30.612930519087758 0 0,0 -0.45512321375835607,0.2627655099778355 l -4.734830354551418 -8.365991553810423" fill="#ff5808" stroke="none" /><path d="M 110.34350942703117 118.27599006163325 l 11.255102466367397 19.88668761498242 a43.85076969872841,43.85076969872841 0 0,0 -0.6582957143501315,0.365145535868061 l -10.912062563861172 -20.076966066283624" fill="#f4ff19" stroke="none" /><path d="M 109.71004243097381 118.62028667847754 l 4.421576280022806 8.47895552362937 a30.562584565468967,30.562584565468967 0 0,0 -0.46727685419279563,0.23859489123024485 l -4.275372204116428 -8.553608366532451" fill="#ff5708" stroke="none" /><path d="M 109.3889696526874 118.78422872680471 l 5.718785129889202 11.441401122064637 a33.791018841273896,33.791018841273896 0 0,0 -0.5210892913685169,0.2548908845257268 l -5.521535589258616 -11.537885756687587" fill="#ff850c" stroke="none" /><path d="M 109.06512990194946 118.94263497670748 l 4.567294708036975 9.543889323283361 a31.58045388275686,31.58045388275686 0 0,0 -0.4910178387514537,0.22982114147980373 l -4.402788155414015 -9.620886696333699" fill="#ff6509" stroke="none" /><path d="M 108.4095320186766 119.2426549942271 l 5.113392912476899 11.700443668707678 a33.76899248656567,33.76899248656567 0 0,0 -0.5331720693037344,0.22757945201476973 l -4.9117857680027335 -11.786497770381851" fill="#ff840c" stroke="none" /><path d="M 108.07796709384702 119.3841803445677 l 24.233901281541076 58.15254103370309 a84.0,84.0 0 0,0 -1.3357821552382365,0.5432509736828348 l -23.232064665112397 -58.55997926396521" fill="#4dd2ff" stroke="none" /><path d="M 107.74402155503746 119.51999308798841 l 4.918755821396303 12.398477839037218 a34.338531086878234,34.338531086878234 0 0,0 -0.5497888865065084,0.2126701521111788 l -4.705194672396265 -12.481087879286438" fill="#ff8c0c" stroke="none" /><path d="M 107.06938296918513 119.77432235084164 l 4.722227080722934 13.208909591561262 a35.027641327035425,35.027641327035425 0 0,0 -0.5679385567015626,0.19755851153329973 l -4.49478275197635 -13.288026535663153" fill="#ff960d" stroke="none" /><path d="M 106.72888874123015 119.89276391827305 l 5.064444540865232 14.97213039224675 a36.80548281419895,36.80548281419895 0 0,0 -0.6002400473219155,0.19731082583696832 l -4.806681755895582 -15.056862139485737" fill="#ffae10" stroke="none" /><path d="M 106.38641147887787 120.00534299687104 l 4.806681755895582 15.056862139485737 a36.80548281419895,36.80548281419895 0 0,0 -0.603538703273898,0.1869778330496502 l -4.54750241975006 -15.137156560342031" fill="#ffae10" stroke="none" /><path d="M 106.0420521117495 120.11202640906438 l 5.582301397606785 18.581665807499306 a40.40207187584129,40.40207187584129 0 0,0 -0.6659415551838636,0.19384588117780446 l -5.262499830041315 -18.674755382979626" fill="#ffde14" stroke="none" /><path d="M 105.69591212413111 120.21278271476187 l 4.34160503331498 15.406824624264896 a37.00686662867412,37.00686662867412 0 0,0 -0.6129369765039054,0.16705869855580696 l -4.076486655876379 -15.479083816964845" fill="#ffb110" stroke="none" /><path d="M 104.9986988182912 120.39639698878246 l 3.0783931664123814 12.56089462320637 a33.932616835826735,33.932616835826735 0 0,0 -0.5669459136741164,0.13379769191340377 l -2.8623150989983857 -12.611888458765998" fill="#ff870c" stroke="none" /><path d="M 104.64783097203109 120.47920084513623 l 3.5030279678739378 15.434987578489778 a36.82750916890718,36.82750916890718 0 0,0 -0.6177158491234515,0.13462829426019557 l -3.2375497021313504 -15.492847330883691" fill="#ffaf10" stroke="none" /><path d="M 104.29559338865022 120.5559693870025 l 3.33795879826107 15.973341204366367 a37.31838221669038,37.31838221669038 0 0,0 -0.6281990127570963,0.12565739629086276 l -3.063263299973015 -16.028287997320092" fill="#ffb510" stroke="none" /><path d="M 103.94208987418118 120.62667999033965 l 3.588967954229857 18.778996890034104 a40.11887588673559,40.11887588673559 0 0,0 -0.6775605621905307,0.12347410516098593 l -3.2660726584882696 -18.837839169126454" fill="#ffda14" stroke="none" /><path d="M 102.875027216393 120.80226474461374 l 2.6015506393582393 18.823524465394748 a40.002450868992135,40.002450868992135 0 0,0 -0.6810363506852054,0.08817379041894191 l -2.2780364667822584 -18.865409852014086" fill="#ffd914" stroke="none" /><path d="M 102.15924093988457 120.88869738790638 l 1.631606279634492 15.784310681565117 a36.86841525622245,36.86841525622245 0 0,0 -0.6300995396552762,0.05967108151737638 l -1.3604071765942005 -15.809993518587676" fill="#ffaf10" stroke="none" /><path d="M 101.80034050326958 120.92268563240118 l 1.3569002772692498 15.769238032618679 a36.82750916890718,36.82750916890718 0 0,0 -0.6303308876430727,0.04879159719472065 l -1.0860003948509414 -15.790207396808452" fill="#ffaf10" stroke="none" /><path d="M 101.44090949804482 120.95050786540614 l 1.0905343925232809 15.856130727888562 a36.893588233031835,36.893588233031835 0 0,0 -0.6322079093217016,0.038032057914065 l -0.8181821310691143 -15.87251476362732" fill="#ffaf10" stroke="none" /><path d="M 101.08105385017728 120.97215588758144 l 0.49016415137896274 9.509053588346127 a30.521678478153703,30.521678478153703 0 0,0 -0.5234820157645257,0.02248057016141102 l -0.3268563750136075 -9.516066726933369" fill="#ff5608" stroke="none" /><path d="M 100.72087961077811 120.9876233191556 l 1.0844805040107794 31.573466602250832 a52.592085895790866,52.592085895790866 0 0,0 -0.9025470258138498,0.023246409830258916 l -0.5423201641261858 -31.587430729431134" fill="#8bff24" stroke="none" /><line stroke="#e1ed5e" stroke-width="0.3" x1="101.45913802915013" x2="101.54496967792366" y1="184.9874750549273" y2="189.98673829345242" /><path d="M 101.47630435890484 185.9873277026323 a86.0,86.0 0 0,1 -42.54439059252881,-10.42667462771756" fill="none" id="id103" stroke="none" /><text fill="#e1ed5e" style="font-size:6.75px; font-family:Arial;" text-anchor="middle"><textPath startOffset="22.145653131862474" xlink:href="#id103">July</textPath></text><path d="M 100.0 121.0 l 1.938696194286189e-15 15.830655791008354 a36.830655791008354,36.830655791008354 0 0,0 -0.6322471823905674,-0.005427081656169045 l 0.27175425754171334 -15.82832310754662" fill="#ffaf10" stroke="none" /><path d="M 99.63950707515114 120.99690560180557 l -0.2930905588195859 17.071055691025236 a38.07357152097224,38.07357152097224 0 0,0 -0.65339086961589,-0.016829031064326132 l 0.5860947425062198 -17.063508942610863" fill="#ffbf11" stroke="none" /><path d="M 99.27912038922189 120.98762331915562 l -0.7395854592591388 21.532223687809907 a42.54492152674104,42.54492152674104 0 0,0 -0.7296945119614742,-0.03133622202587425 l 1.1091057318214517 -21.516354897358205" fill="#fffa17" stroke="none" /><path d="M 98.55909050195518 120.95050786540614 l -1.8902452200636224 27.483750647924055 a48.54867649578178,48.54867649578178 0 0,0 -0.8309475997719387,-0.06432059950225728 l 2.361761814610797 -27.447252281426746" fill="#baff1f" stroke="none" /><path d="M 98.19965949673042 120.92268563240118 l -1.8216993185684422 21.170907442201578 a42.24913904923065,42.24913904923065 0 0,0 -0.722058783398861,-0.06837971750955914 l 2.1848576653523186 -21.136515969186835" fill="#fff617" stroke="none" /><path d="M 97.48249496171623 120.84855314841334 l -3.9552469452888523 32.75511861941276 a53.99305645389674,53.99305645389674 0 0,0 -0.9192245307700231,-0.1190120190244158 l 4.51694929794967 -32.68239500418795" fill="#7cff26" stroke="none" /><path d="M 96.76829788921471 120.74984581791261 l -3.8365977858396794 24.63370997464047 a45.93068690760468,45.93068690760468 0 0,0 -0.7780275539648144,-0.12802413793070083 l 4.258902842857557 -24.564219838214104" fill="#daff1c" stroke="none" /><path d="M 96.41257539226777 120.69131181640829 l -2.7581005284238453 15.907990911255402 a37.14531800112579,37.14531800112579 0 0,0 -0.627340671723809,-0.11432236820537443 l 3.0307759336987115 -15.858300369118663" fill="#ffb310" stroke="none" /><path d="M 96.05791012581884 120.62667999033965 l -6.04265012701965 31.61769884546559 a53.189944095014,53.189944095014 0 0,0 -0.8953729605713958,-0.17909966849652897 l 6.584519573122003 -31.5093097803062" fill="#84ff25" stroke="none" /><path d="M 95.70440661134978 120.55596938700252 l -0.7627229417546012 3.6499053851087813 a24.72874718989165,24.72874718989165 0 0,0 -0.41478067381922645,-0.0903995173308515 l 0.8252660321929641 -3.636274409644211" fill="#ff0000" stroke="none" /><path d="M 94.6519064749342 120.30758222061772 l -4.034014905775843 15.317811663967177 a36.84009565731188,36.84009565731188 0 0,0 -0.6101747838551448,-0.166305850666458 l 4.296371090565683 -15.246305319156574" fill="#ffaf10" stroke="none" /><path d="M 94.30408787586889 120.21278271476187 l -6.232042451988599 22.11532011133915 a43.97663458277539,43.97663458277539 0 0,0 -0.7248605595228798,-0.210996344646127 l 6.610763023893086 -22.00508007239051" fill="#f2ff19" stroke="none" /><path d="M 93.61358852112213 120.00534299687104 l -7.846862512113031 24.58018505749215 a46.80230122962999,46.80230122962999 0 0,0 -0.7632725712813964,-0.2509028546998466 l 8.267657821042171 -24.441861281390285" fill="#cfff1d" stroke="none" /><path d="M 93.27111125876986 119.89276391827306 l -8.104321166528898 23.958985485343305 a46.29254844923974,46.29254844923974 0 0,0 -0.7505878830615385,-0.26109342851059153 l 8.514414821635459 -23.816333624264125" fill="#d5ff1c" stroke="none" /><path d="M 91.59046798132341 119.24265499422711 l -10.317876799237418 23.609321312972497 a46.76545428482524,46.76545428482524 0 0,0 -0.7328516292620713,-0.32779521227252034 l 10.721641831355123 -23.428722349790124" fill="#d0ff1d" stroke="none" /><path d="M 91.26138138417905 119.09545874513695 l -15.930004252446656 34.80993419963712 a59.281804482887615,59.281804482887615 0 0,0 -0.9217227726536434,-0.4314127981130541 l 16.525215738971788 -34.53134516995354" fill="#43ff2d" stroke="none" /><path d="M 90.93487009805054 118.94263497670748 l -7.340314470935687 15.338434103109401 a38.0043458347464,38.0043458347464 0 0,0 -0.5860627562896374,-0.28667266208049863 l 7.602537476487394 -15.210167690931682" fill="#ffbe11" stroke="none" /><path d="M 90.28995756902619 118.62028667847754 l -7.3547443552205625 14.103692060528616 a36.906174721436535,36.906174721436535 0 0,0 -0.5592360744236369,-0.2977617105334279 l 7.595769245430762 -13.975359882272615" fill="#ffb010" stroke="none" /><line stroke="#e1ed5e" stroke-width="0.3" x1="58.13341422392154" x2="55.67067388415222" y1="173.97424548756322" y2="178.32567169271397" /><path d="M 57.64086615596768 174.84453072859336 a86.0,86.0 0 0,1 -31.369924170532247,-30.572349798747897" fill="none" id="id104" stroke="none" /><text fill="#e1ed5e" style="font-size:6.75px; font-family:Arial;" text-anchor="middle"><textPath startOffset="22.145653131862474" xlink:href="#id104">August</textPath></text><path d="M 88.4268655584334 117.5232005979908 l -14.079227728695129 21.31774524873857 a46.54742483943487,46.54742483943487 0 0,0 -0.66297654995241,-0.4460802105113296 l 14.443100566744544 -21.072915364170118" fill="#d2ff1c" stroke="none" /><path d="M 87.83215693770417 117.11559508785305 l -18.379873092885425 25.853593279711212 a52.72109740193902,52.72109740193902 0 0,0 -0.7331219807281236,-0.5307237772921617 l 18.820976083987503 -25.534268731045987" fill="#8aff24" stroke="none" /><path d="M 87.54013794807813 116.9041958592261 l -5.638264832223217 7.649389105025184 a30.502798745546656,30.502798745546656 0 0,0 -0.4188281356254669,-0.31429644113006533 l 5.76874595675945 -7.551473636631104" fill="#ff5608" stroke="none" /><path d="M 86.96720088162412 116.46651593811092 l -24.638774247327763 31.130286376246918 a60.70093105051727,60.70093105051727 0 0,0 -0.8115114110071947,-0.6536961488287154 l 25.16953642869022 -30.702741933624793" fill="#34ff2f" stroke="none" /><path d="M 86.68645165197938 116.24036423190432 l -30.901854961450887 37.69523848163706 a69.74274965824188,69.74274965824188 0 0,0 -0.9193611005487257,-0.766963728288359 l 31.544390396161507 -37.15921256943684" fill="#3aff97" stroke="none" /><path d="M 86.40962598614128 116.0094264158162 l -21.377812877499338 25.18300981594835 a54.03323881812874,54.03323881812874 0 0,0 -0.7019703011647319,-0.6063452271155699 l 21.806962658426933 -24.812320456368056" fill="#7bff26" stroke="none" /><path d="M 86.13680546590413 115.77377054828092 l -35.181331974132945 40.02989763852901 a74.29276521654003,74.29276521654003 0 0,0 -0.9507173460802137,-0.8501373132789971 l 35.86331434703653 -39.42006479536663" fill="#40ffca" stroke="none" /><path d="M 85.86807049272751 115.53346607816431 l -22.282623734175623 24.492506825001804 a54.111904370658095,54.111904370658095 0 0,0 -0.6817332816181785,-0.6310021477788581 l 22.69978678710777 -24.10638693109057" fill="#7aff26" stroke="none" /><path d="M 85.60350026404147 115.28858382429668 l -42.91443983191585 45.57364794750912 a83.59877421587925,83.59877421587925 0 0,0 -1.0363362417298425,-0.9927866767029868 l 43.690448559511005 -44.830249140500555" fill="#4cd6ff" stroke="none" /><path d="M 85.34317274990678 115.03919595460226 l -9.081192412297465 9.318103424403825 a34.01134532079813,34.01134532079813 0 0,0 -0.4146275813987768,-0.4110837772111673 l 9.239811913826205 -9.160839636963997" fill="#ff880c" stroke="none" /><path d="M 85.08716467003676 114.78537596483092 l -8.256218023535945 8.185652481545445 a32.62626520430318,32.62626520430318 0 0,0 -0.3909142359312744,-0.40111244373004995 l 8.395519060618028 -8.042717345747658" fill="#ff740a" stroke="none" /><path d="M 84.58840730492382 114.26474011684316 l -17.250818148443702 15.967099738438442 a44.506148149961014,44.506148149961014 0 0,0 -0.514156850850117,-0.565148446107521 l 17.522372700135698 -15.668613716773248" fill="#ebff1a" stroke="none" /><path d="M 84.3458050057657 113.99807769240083 l -21.590295897480956 19.306175723898594 a49.96324046136472,49.96324046136472 0 0,0 -0.5662237351705328,-0.6442586703666303 l 21.91853069661008 -18.932704775720662" fill="#a9ff21" stroke="none" /><path d="M 84.1078160697243 113.72728997021213 l -19.6713726011272 16.99166313405952 a46.99383611692848,46.99383611692848 0 0,0 -0.5220913070350112,-0.6150222469073235 l 19.96015847166932 -16.651474104702647" fill="#cdff1d" stroke="none" /><path d="M 83.8745106332314 113.45245675266167 l -19.956123368266447 16.648107877930542 a46.988581258019515,46.988581258019515 0 0,0 -0.5113995098087839,-0.6238242495695567 l 20.238969697313863 -16.30308134666249" fill="#cdff1d" stroke="none" /><path d="M 83.64595745247003 113.17365903436017 l -7.7090988363233155 6.209904324068474 a30.899147265410583,30.899147265410583 0 0,0 -0.3291988813248733,-0.4159320324749909 l 7.814564148289751 -6.076652347678802" fill="#ff5c08" stroke="none" /><line stroke="#e1ed5e" stroke-width="0.3" x1="26.387840678322732" x2="22.057713659400548" y1="142.50000000000003" y2="145.00000000000006" /><path d="M 25.521815274538298 143.00000000000003 a86.0,86.0 0 0,1 -11.493303480769221,-40.785679425670985" fill="none" id="id105" stroke="none" /><text fill="#e1ed5e" style="font-size:6.75px; font-family:Arial;" text-anchor="middle"><textPath startOffset="21.40746469413373" xlink:href="#id105">September</textPath></text><line stroke="#e1ed5e" stroke-width="0.3" x1="15.003131293944662" x2="10.003315487706104" y1="100.72959589197737" y2="100.7725132973878" /><path d="M 14.003168132696942 100.73817937305945 a86.0,86.0 0 0,1 10.791469493833604,-42.45332614584628" fill="none" id="id106" stroke="none" /><text fill="#e1ed5e" style="font-size:6.75px; font-family:Arial;" text-anchor="middle"><textPath startOffset="22.145653131862435" xlink:href="#id106">October</textPath></text><line stroke="#e1ed5e" stroke-width="0.3" x1="26.387840678322718" x2="22.05771365940052" y1="57.49999999999999" y2="54.99999999999999" /><path d="M 25.521815274538284 56.99999999999999 a86.0,86.0 0 0,1 29.574782752854787,-30.34633250058573" fill="none" id="id107" stroke="none" /><text fill="#e1ed5e" style="font-size:6.75px; font-family:Arial;" text-anchor="middle"><textPath startOffset="21.40746469413373" xlink:href="#id107">November</textPath></text><line stroke="#e1ed5e" stroke-width="0.3" x1="56.869717070023135" x2="54.33264160355391" y1="26.7553504044142" y2="22.446841604673864" /><path d="M 56.362301976729285 25.89364864446614 a86.0,86.0 0 0,1 42.16139366436587,-11.88097634709845" fill="none" id="id108" stroke="none" /><text fill="#e1ed5e" style="font-size:6.75px; font-family:Arial;" text-anchor="middle"><textPath startOffset="22.145653131862474" xlink:href="#id108">December</textPath></text></svg>