<?xml version="1.0" encoding="utf-8" ?>
<svg baseProfile="full" height="200mm" version="1.1" viewBox="0,0,200,200" width="200mm" xmlns="http://www.w3.org/2000/svg" xmlns:ev="http://www.w3.org/2001/xml-events" xmlns:xlink="http://www.w3.org/1999/xlink"><defs /><rect fill="#1a1a1a" height="200" width="200" x="0" y="0" /><text alignment-baseline="middle" fill="#e1ed5e" style="dominant-baseline: central; font-size:9.0px; font-family:Arial;" text-anchor="middle" x="100.0" y="100.0">2024</text><line stroke="#e1ed5e" stroke-width="0.3" x1="100.0" x2="100.0" y1="15.0" y2="10.0" /><path d="M 100.0 14.0 a86.0,86.0 0 0,1 42.35913384403234,11.155469271406648" fill="none" id="id97" stroke="none" /><text fill="#e1ed5e" style="font-size:6.75px; font-family:Arial;" text-anchor="middle"><textPath startOffset="22.145653131862478" xlink:href="#id97">January</textPath></text><path d="M 100.72087961077811 79.0123766808444 l 0.6504469730894679 -18.937053921599365 a39.94822135437422,39.94822135437422 0 0,0 0.6851581067457697,0.029423637157549674 l -0.9754308404360739 18.923097716015985" fill="#ffdb14" stroke="none" /><path d="M 101.08105385017728 79.02784411241856 l 0.4118464496570801 -7.989711097683851 a29.000318801307085,29.000318801307085 0 0,0 0.49694897669569016,0.02989521640484308 l -0.5489397784852327 7.9814639034543164" fill="#ff4306" stroke="none" /><path d="M 101.80034050326958 79.07731436759882 l 0.725569603214568 -8.432218619152682 a29.46337769984857,29.46337769984857 0 0,0 0.5035437676489488,0.04768611832883674 l -0.8702129342485297 8.418520745318661" fill="#ff4a06" stroke="none" /><path d="M 102.87502721639298 79.19773525538626 l 1.297954247511261 -9.391350359806315 a30.48061953720677,30.48061953720677 0 0,0 0.5176986549736023,0.07608387434883307 l -1.4589780080925454 9.3676854121586" fill="#ff5908" stroke="none" /><line stroke="#e1ed5e" stroke-width="0.3" x1="143.13028292997686" x2="145.6673583964461" y1="26.7553504044142" y2="22.446841604673864" /><path d="M 143.63769802327073 25.89364864446614 a86.0,86.0 0 0,1 29.32050498858742,28.57503671076993" fill="none" id="id98" stroke="none" /><text fill="#e1ed5e" style="font-size:6.75px; font-family:Arial;" text-anchor="middle"><textPath startOffset="20.669276256404974" xlink:href="#id98">February</textPath></text><path d="M 114.39649973595853 84.71141617570332 l 2.3968030873783044 -2.5453218201498147 a24.49618766770277,24.49618766770277 0 0,0 0.3036681733957077,0.2909072408611006 l -2.440143746639324 2.503802448983134" fill="#ff0000" stroke="none" /><path d="M 114.65682725009322 84.96080404539774 l 6.588388115926175 -6.760266612254462 a30.43970670279748,30.43970670279748 0 0,0 0.3710862316566806,0.36791457352126966 l -6.703466267712818 6.646172028504533" fill="#ff5808" stroke="none" /><path d="M 115.6541949942343 86.00192230759917 l 7.038101005616884 -6.293513318307076 a30.44156637708881,30.44156637708881 0 0,0 0.3449883806436819,0.39253344852895533 l -7.145100450219156 6.171767591966823" fill="#ff5808" stroke="none" /><path d="M 115.8921839302757 86.27271002978787 l 7.356202492278025 -6.35411250801863 a30.7205175207885,30.7205175207885 0 0,0 0.3412982737845223,0.40204850833586736 l -7.46419532956966 6.22689721723321" fill="#ff5c08" stroke="none" /><path d="M 116.35404254752997 86.82634096563983 l 14.80543175114006 -11.926207797194907 a40.01145028027948,40.01145028027948 0 0,0 0.4262811707816529,0.5385923337754508 l -15.007979352563273 11.670295519504778" fill="#ffdb14" stroke="none" /><path d="M 117.01052211995028 87.68569379921539 l 7.61626947906703 -5.51359175289064 a30.402513216970856,30.402513216970856 0 0,0 0.3024107608461203,0.4253786070672065 l -7.709795338443111 5.38203591911393" fill="#ff5808" stroke="none" /><path d="M 117.62189284568427 88.57770195909679 l 7.863474938622161 -5.097009451405942 a30.370898754018224,30.370898754018224 0 0,0 0.27982055230113473,0.4399243851757574 l -7.949813182549186 4.961271391551513" fill="#ff5708" stroke="none" /><line stroke="#e1ed5e" stroke-width="0.3" x1="172.87174338648825" x2="177.1583165268699" y1="56.24261187166439" y2="53.66864786411523" /><path d="M 173.72905801456457 55.72781907015455 a86.0,86.0 0 0,1 12.242430191666344,42.057860355516425" fill="none" id="id99" stroke="none" /><text fill="#e1ed5e" style="font-size:6.75px; font-family:Arial;" text-anchor="middle"><textPath startOffset="22.145653131862474" xlink:href="#id99">March</textPath></text><path d="M 119.31412917781788 91.75594674310238 l 3.567853622816264 -1.5229045538896784 a24.87928057171701,24.87928057171701 0 0,0 0.16429110580108275,0.3942388458455543 l -3.59347057315383 1.4614331986028462" fill="#ff0600" stroke="none" /><path d="M 119.71291397450082 92.76114493625339 l 5.3732498440099485 -1.973131769985925 a26.72407746871762,26.72407746871762 0 0,0 0.15443949987314565,0.43199476779038026 l -5.406329513927037 1.880602045814628" fill="#ff2203" stroke="none" /><line stroke="#e1ed5e" stroke-width="0.3" x1="184.99686870605535" x2="189.99668451229388" y1="99.2704041080226" y2="99.22748670261217" /><path d="M 185.99683186730306 99.26182062694052 a86.0,86.0 0 0,1 -10.086455211305974,41.156179273409016" fill="none" id="id100" stroke="none" /><text fill="#e1ed5e" style="font-size:6.75px; font-family:Arial;" text-anchor="middle"><textPath startOffset="21.40746469413373" xlink:href="#id100">April</textPath></text><path d="M 119.58574465831526 107.57618678355244 l 5.633440366462812 2.179135753830341 a27.040222098243937,27.040222098243937 0 0,0 -0.171179188330992,0.43148337711623086 l -5.595202503165695 -2.275520148160136" fill="#ff2603" stroke="none" /><path d="M 118.5362547648365 109.86951160357373 l 5.026257900510023 2.67619922691947 a26.69432268005632,26.69432268005632 0 0,0 -0.21883579944002018,0.40263322297986254 l -4.9795767514546645 -2.7620872833739356" fill="#ff2103" stroke="none" /><line stroke="#e1ed5e" stroke-width="0.3" x1="174.33088141563837" x2="178.70328620479359" y1="141.23008692659167" y2="143.65538615756765" /><path d="M 175.20536237346943 141.71514677278685 a86.0,86.0 0 0,1 -30.301960400862466,31.631185727798858" fill="none" id="id101" stroke="none" /><text fill="#e1ed5e" style="font-size:6.75px; font-family:Arial;" text-anchor="middle"><textPath startOffset="22.145653131862474" xlink:href="#id101">May</textPath></text><path d="M 118.36410011445183 110.18625677009912 l 12.427800631814677 6.893491515200397 a35.211630934353494,35.211630934353494 0 0,0 -0.29773384843439477,0.5260671818772243 l -12.307633418358904 -7.105815467176743" fill="#ff9b0e" stroke="none" /><path d="M 118.18653347947321 110.5 l 10.76313977164258 6.214101644483407 a33.42820328896682,33.42820328896682 0 0,0 -0.291185581175175,0.4944967760839652 l -10.654880480337638 -6.397949588860922" fill="#ff820c" stroke="none" /><path d="M 117.81537515405839 111.11811171558189 l 6.629314346709999 4.137182454316224 a28.81435137217396,28.81435137217396 0 0,0 -0.26547939132337733,0.41737769811519826 l -6.557317263760733 -4.250373827110095" fill="#ff4006" stroke="none" /><path d="M 117.01052211995028 112.31430620078461 l 8.59240528255505 6.220238797169345 a31.607582157753512,31.607582157753512 0 0,0 -0.32194276139912886,0.43677718673550825 l -8.484360501572093 -6.366822293173731" fill="#ff6909" stroke="none" /><path d="M 116.79662413953412 112.60449989151573 l 15.103470640421289 11.333925940548047 a39.88313275417762,39.88313275417762 0 0,0 -0.41563546381750227,0.5440801642147457 l -14.906683199249482 -11.59152701800367" fill="#ffda14" stroke="none" /><path d="M 116.57777611688842 112.89097897827486 l 8.522089420094867 6.626828278462805 a31.795409261177973,31.795409261177973 0 0,0 -0.33874763824836646,0.42799657491454285 l -8.407075351204938 -6.7721447972920314" fill="#ff6b09" stroke="none" /><path d="M 116.1254893667686 113.45245675266167 l 4.455383475847971 3.7168393567567666 a26.802183788953535,26.802183788953535 0 0,0 -0.2977664375163973,0.3507681146712587 l -4.390922474824459 -3.7927742538775817" fill="#ff2303" stroke="none" /><path d="M 115.6541949942343 113.99807769240083 l 14.103927443597831 12.611818889197597 a39.92032624000425,39.92032624000425 0 0,0 -0.4611791870936793,0.506916713318487 l -13.885350555662272 -12.852073178073756" fill="#ffda14" stroke="none" /><path d="M 115.16444852881244 114.52719865689866 l 6.13974643551185 5.881738198537113 a29.502430859966523,29.502430859966523 0 0,0 -0.35348576202396764,0.3627075322325651 l -6.037873872337075 -5.986268422837416" fill="#ff4a06" stroke="none" /><path d="M 114.39649973595853 115.28858382429668 l 4.042692867062025 4.2931997296250355 a26.89702717781143,26.89702717781143 0 0,0 -0.338864411019429,0.31364783988767164 l -3.9683986847286286 -4.361965315645087" fill="#ff2403" stroke="none" /><path d="M 114.13192950727249 115.5334660781643 l 6.512629061913521 7.1585201837328984 a30.677745012087883,30.677745012087883 0 0,0 -0.39258014204488995,0.35104758378582607 l -6.388783893045253 -7.269263297402111" fill="#ff5b08" stroke="none" /><path d="M 113.86319453409587 115.77377054828091 l 9.942882542231649 11.313175143285875 a36.06150208549188,36.06150208549188 0 0,0 -0.4684913218807983,0.40467164564676106 l -9.747211740587995 -11.482190921397354" fill="#ffa70f" stroke="none" /><path d="M 112.45986205192187 116.90419585922612 l 3.2958394613223727 4.471439213579909 a26.554847108206477,26.554847108206477 0 0,0 -0.3692628391529627,0.26731781880860594 l -3.2185956117954424 -4.527357803761592" fill="#ff1f03" stroke="none" /><path d="M 111.8722381534696 117.32195027204791 l 7.414169253231635 10.81749451559752 a34.11442310246805,34.11442310246805 0 0,0 -0.4858928847322637,0.32693041755833196 l -7.2273800804023685 -10.943174607212974" fill="#ff8c0c" stroke="none" /><path d="M 111.5731344415666 117.5232005979908 l 5.165342541864427 7.820986956941774 a30.372758428309556,30.372758428309556 0 0,0 -0.43753313393098314,0.2836036912887083 l -5.030323775676434 -7.908504489934377" fill="#ff5708" stroke="none" /><line stroke="#e1ed5e" stroke-width="0.3" x1="143.1302829299769" x2="145.66735839644613" y1="173.24464959558577" y2="177.55315839532614" /><path d="M 143.63769802327073 174.10635135553383 a86.0,86.0 0 0,1 -40.68552437913181,11.842963189579606" fill="none" id="id102" stroke="none" /><text fill="#e1ed5e" style="font-size:6.75px; font-family:Arial;" text-anchor="middle"><textPath startOffset="21.407464694133747" xlink:href="#id102">June</textPath></text><path d="M 110.65571695917076 118.09573695890943 l 2.882779886317816 4.8955904828483385 a26.681304960017002,26.681304960017002 0 0,0 -0.3966716369443341,0.22901847636970166 l -2.7983157815130832 -4.944355856494211" fill="#ff2103" stroke="none" /><path d="M 110.34350942703117 118.27599006163325 l 6.651839347086094 11.753162759365296 a34.50495470364762,34.50495470364762 0 0,0 -0.5179946432255056,0.2873228967684902 l -6.449100515704494 -11.865618571566928" fill="#ff910d" stroke="none" /><path d="M 109.71004243097381 118.62028667847754 l 5.2221477190250924 10.014156817217218 a32.293987938683884,32.293987938683884 0 0,0 -0.4937485918772046,0.2521115491105027 l -5.049471905434305 -10.102326318000557" fill="#ff720a" stroke="none" /><path d="M 109.3889696526874 118.78422872680471 l 6.755621538964017 13.515768489389712 a36.110076777981455,36.110076777981455 0 0,0 -0.5568513458528119,0.2723838974333989 l -6.522609943849136 -13.629746136920334" fill="#ffa70f" stroke="none" /><path d="M 109.06512990194946 118.94263497670748 l 2.6993011160442975 5.640501160656321 a27.253117611115538,27.253117611115538 0 0,0 -0.42373573724840186,0.19832972070391117 l -2.602076664924389 -5.686007112930766" fill="#ff2904" stroke="none" /><path d="M 108.4095320186766 119.2426549942271 l 6.040939883621588 13.822852658534723 a36.085231529449274,36.085231529449274 0 0,0 -0.5697427180723541,0.2431892873488968 l -5.802762090378803 -13.924516595543023" fill="#ffa70f" stroke="none" /><path d="M 108.07796709384702 119.3841803445677 l 14.322394537024822 34.368533004202135 a58.233413033660106,58.233413033660106 0 0,0 -0.9260375472497727,0.3766114087072683 l -13.730302528584609 -34.6093316694887" fill="#4dff2c" stroke="none" /><path d="M 107.74402155503746 119.51999308798841 l 5.810831288838022 14.647090763816474 a36.75763396296591,36.75763396296591 0 0,0 -0.5885207668313824,0.2276524754763955 l -5.55853825951311 -14.744683127430909" fill="#ffb010" stroke="none" /><path d="M 107.06938296918513 119.77432235084164 l 5.5789422088690515 15.605294280387461 a37.57256183417019,37.57256183417019 0 0,0 -0.6092019254293551,0.21191205314536538 l -5.3102345113946745 -15.698764766101418" fill="#ffbb11" stroke="none" /><path d="M 106.72888874123015 119.89276391827305 l 5.983814609709377 17.69008463942896 a39.674719056348124,39.674719056348124 0 0,0 -0.6470328174768274,0.212692538809401 l -5.679259054584815 -17.790198099640378" fill="#ffd714" stroke="none" /><path d="M 106.38641147887787 120.00534299687104 l 5.6788348886833475 17.788869405995364 a39.67332430062963,39.67332430062963 0 0,0 -0.6505657546687441,0.20154693378308303 l -5.372628501142979 -17.883732927585093" fill="#ffd714" stroke="none" /><path d="M 106.0420521117495 120.11202640906438 l 6.59606874415112 21.956167594185004 a43.92556255147313,43.92556255147313 0 0,0 -0.7240187465570412,0.2107513051604801 l -6.218189985212472 -22.066162593648002" fill="#f1ff19" stroke="none" /><path d="M 105.69591212413111 120.21278271476187 l 2.5659170386418135 9.105534361466985 a30.460163120002125,30.460163120002125 0 0,0 -0.5045052982714193,0.13750516247928712 l -2.4092303394356995 -9.148240018090414" fill="#ff5808" stroke="none" /><path d="M 104.9986988182912 120.39639698878246 l 3.6368950165311804 14.839772760914743 a36.27893520363433,36.27893520363433 0 0,0 -0.6061481837861742,0.14304932091760206 l -3.381614679005127 -14.90001822547857" fill="#ffaa0f" stroke="none" /><path d="M 104.64783097203109 120.47920084513623 l 4.138632880522836 18.23558010059775 a39.69932254722244,39.69932254722244 0 0,0 -0.6658854017090992,0.14512662404902135 l -3.8249850621946013 -18.303938182780488" fill="#ffd714" stroke="none" /><path d="M 104.29559338865022 120.5559693870025 l 3.9438601305113483 18.872798417935268 a40.28047076326346,40.28047076326346 0 0,0 -0.6780613323467191,0.1356312566844918 l -3.6193023126336707 -18.937719071282622" fill="#ffdf14" stroke="none" /><path d="M 103.94208987418118 120.62667999033965 l 4.240775889992782 22.189531437762632 a43.59113732366302,43.59113732366302 0 0,0 -0.7362029682718763,0.13416070503033484 l -3.859238188169848 -22.25906031672433" fill="#f5ff19" stroke="none" /><path d="M 102.875027216393 120.80226474461374 l 3.074030742968555 22.242155129418638 a43.45357721633325,43.45357721633325 0 0,0 -0.7397913130009924,0.09578079660604584 l -2.691761608076787 -22.29164752222508" fill="#f7ff19" stroke="none" /><path d="M 102.15924093988457 120.88869738790638 l 1.927658367059455 18.648346070598016 a39.747711272282885,39.747711272282885 0 0,0 -0.6793081395270799,0.0643311870872246 l -1.6072506641473598 -18.67868901319042" fill="#ffd814" stroke="none" /><path d="M 101.80034050326958 120.92268563240118 l 1.6031979330303054 18.63159013441678 a39.700438351797246,39.700438351797246 0 0,0 -0.6795032602214411,0.0525978498201053 l -1.2831256780336286 -18.656365751231938" fill="#ffd714" stroke="none" /><path d="M 101.44090949804482 120.95050786540614 l 1.2884517464562166 18.733805617185027 a39.77806115671741,39.77806115671741 0 0,0 -0.6816361889745223,0.041005540476732695 l -0.9666712053492292 -18.75316313548645" fill="#ffd814" stroke="none" /><path d="M 101.08105385017728 120.97215588758144 l 0.578964969719467 11.231765740822576 a32.246677824712414,32.246677824712414 0 0,0 -0.5530677456507567,0.02375110870228641 l -0.3860714634678808 -11.240049417950694" fill="#ff720a" stroke="none" /><path d="M 100.72087961077811 120.9876233191556 l 1.2815771585072124 37.311720646600754 a58.33372386493451,58.33372386493451 0 0,0 -1.0010808295998148,0.02578429109232103 l -0.640883014836654 -37.32822265504312" fill="#4cff2c" stroke="none" /><line stroke="#e1ed5e" stroke-width="0.3" x1="101.45913802915013" x2="101.54496967792366" y1="184.9874750549273" y2="189.98673829345242" /><path d="M 101.47630435890484 185.9873277026323 a86.0,86.0 0 0,1 -42.54439059252881,-10.42667462771756" fill="none" id="id103" stroke="none" /><text fill="#e1ed5e" style="font-size:6.75px; font-family:Arial;" text-anchor="middle"><textPath startOffset="22.145653131862474" xlink:href="#id103">July</textPath></text><path d="M 100.0 121.0 l 2.2905804662984104e-15 18.7040089264366 a39.7040089264366,39.7040089264366 0 0,0 -0.6815721098150507,-0.005850476834942523 l 0.32107918496619625 -18.70125284779609" fill="#ffd714" stroke="none" /><path d="M 99.63950707515114 120.99690560180557 l -0.3462916303721699 20.16975139434002 a41.17272389150129,41.17272389150129 0 0,0 -0.7065762625684978,-0.018198898125208095 l 0.6924812070114117 -20.160834778864764" fill="#ffea16" stroke="none" /><path d="M 99.27912038922189 120.98762331915562 l -0.873918184153082 25.443174403237556 a46.45817858186552,46.45817858186552 0 0,0 -0.7968113873616104,-0.03421850944169717 l 1.310555332115531 -25.424423325370032" fill="#d2ff1c" stroke="none" /><path d="M 98.55909050195518 120.95050786540614 l -2.233656630028832 32.476877180373734 a53.55359846975372,53.55359846975372 0 0,0 -0.9166106538755694,-0.0709514616608965 l 2.7908362786796377 -32.433747951717784" fill="#7fff26" stroke="none" /><path d="M 98.19965949673042 120.92268563240118 l -2.152596494374498 25.016434204203666 a46.10887595972477,46.10887595972477 0 0,0 -0.7880236054176853,-0.07462665473810871 l 2.581719663177199 -24.975795793960373" fill="#d6ff1c" stroke="none" /><path d="M 97.48249496171623 120.84855314841334 l -3.9810167740964597 32.968529769480284 a54.2080178528732,54.2080178528732 0 0,0 -0.9228842197019975,-0.11948583902618483 l 4.546378815689251 -32.8953323342537" fill="#78ff26" stroke="none" /><path d="M 96.76829788921471 120.74984581791261 l -4.533509437774589 29.108382710749254 a50.459305013150555,50.459305013150555 0 0,0 -0.8547385701659517,-0.14064690645463254 l 5.032525510993604 -29.026269805798954" fill="#a2ff22" stroke="none" /><path d="M 96.41257539226777 120.69131181640829 l -3.2585829115578697 18.79464029915473 a40.0750325443001,40.0750325443001 0 0,0 -0.6768200997749643,-0.12333916824276443 l 3.580737744883891 -18.7359329569806" fill="#ffdc14" stroke="none" /><path d="M 96.05791012581884 120.62667999033965 l -7.140749696454628 37.36341980546015 a59.03965622592386,59.03965622592386 0 0,0 -0.9938440937575304,-0.19879665297868204 l 7.781090275743116 -37.2353337558186" fill="#44ff2d" stroke="none" /><path d="M 95.70440661134978 120.55596938700252 l -0.8996465170211339 4.30513425965135 a25.39812969899843,25.39812969899843 0 0,0 -0.4260083727413784,-0.09284654205346676 l 0.9734173063816487 -4.289056259464164" fill="#ff0e01" stroke="none" /><path d="M 94.6519064749342 120.30758222061772 l -4.7659946798537725 18.097258092165877 a39.714311522010576,39.714311522010576 0 0,0 -0.6577798188775625,-0.17928081465200552 l 5.07595589966603 -18.012776783369727" fill="#ffd714" stroke="none" /><path d="M 94.30408787586889 120.21278271476187 l -7.36413146022895 26.1327046212561 a48.150482186976966,48.150482186976966 0 0,0 -0.793657490858089,-0.23102212870058628 l 7.811648963468645 -26.002438798252996" fill="#bdff1f" stroke="none" /><path d="M 93.61358852112213 120.00534299687104 l -9.272464550199723 29.045863137159788 a51.49001089237799,51.49001089237799 0 0,0 -0.8397218080433085,-0.2760332372982756 l 9.769709095890775 -28.88240897845949" fill="#96ff23" stroke="none" /><path d="M 93.27111125876986 119.89276391827306 l -9.576553646117944 28.31137921268032 a50.88719747084296,50.88719747084296 0 0,0 -0.8250855721727235,-0.2870075919351571 l 10.06114499033569 -28.142813188176568" fill="#9dff22" stroke="none" /><path d="M 91.59046798132341 119.24265499422711 l -9.851603332428928 22.542396371747298 a45.60109189447677,45.60109189447677 0 0,0 -0.7146051503628971,-0.31963379434676176 l 10.23712188564746 -22.36995882649068" fill="#dcff1b" stroke="none" /><path d="M 91.26138138417905 119.09545874513695 l -18.825983811110056 41.13817217641507 a66.24120772561834,66.24120772561834 0 0,0 -1.0299286632951163,-0.48205861856897825 l 19.529401188276662 -40.80893732627556" fill="#36ff6f" stroke="none" /><path d="M 90.93487009805054 118.94263497670748 l -8.672968286653969 18.123168029099705 a41.09153051194177,41.09153051194177 0 0,0 -0.6336700475441568,-0.3099597738648719 l 8.982798583460196 -17.971614505137612" fill="#ffe915" stroke="none" /><path d="M 90.28995756902619 118.62028667847754 l -8.689483203923029 16.663229794829583 a39.79282697059058,39.79282697059058 0 0,0 -0.6029772663577175,-0.3210514315058923 l 8.974249286067309 -16.511607895601117" fill="#ffd814" stroke="none" /><line stroke="#e1ed5e" stroke-width="0.3" x1="58.13341422392154" x2="55.67067388415222" y1="173.97424548756322" y2="178.32567169271397" /><path d="M 57.64086615596768 174.84453072859336 a86.0,86.0 0 0,1 -31.369924170532247,-30.572349798747897" fill="none" id="id104" stroke="none" /><text fill="#e1ed5e" style="font-size:6.75px; font-family:Arial;" text-anchor="middle"><textPath startOffset="22.145653131862474" xlink:href="#id104">August</textPath></text><path d="M 88.4268655584334 117.5232005979908 l -16.637558078649796 25.191383470478193 a51.18963630084217,51.18963630084217 0 0,0 -0.7290957251688646,-0.49056814240199564 l 17.067550091915667 -24.90206565401908" fill="#9aff23" stroke="none" /><path d="M 87.83215693770417 117.11559508785305 l -32.57634687461776 45.82271152683684 a77.22223107781409,77.22223107781409 0 0,0 -1.0738265664767774,-0.7773676229857521 l 33.358154451468494 -45.25674313247802" fill="#44ffe9" stroke="none" /><path d="M 87.54013794807813 116.9041958592261 l -9.984175744801352 13.545451914295 a37.82744879254005,37.82744879254005 0 0,0 -0.5194015141171412,-0.38976857932621345 l 10.215230247829258 -13.372064307704772" fill="#ffbf11" stroke="none" /><path d="M 86.96720088162412 116.46651593811092 l -29.124416029355036 36.797748233482466 a67.92873196780107,67.92873196780107 0 0,0 -0.9081399605097166,-0.7315332683318241 l 29.751806760220013 -36.29236667135723" fill="#38ff83" stroke="none" /><path d="M 86.68645165197938 116.24036423190432 l -36.52796581647047 44.558178931932055 a78.61704258654126,78.61704258654126 0 0,0 -1.0363435790591486,-0.8645546724877778 l 37.287483729691516 -43.92456207553241" fill="#46fff7" stroke="none" /><path d="M 86.40962598614128 116.0094264158162 l -25.270576147447166 29.768675159732876 a60.048380755027765,60.048380755027765 0 0,0 -0.7801157369992565,-0.6738453933768924 l 25.777871364209282 -29.33048563389126" fill="#3aff2e" stroke="none" /><path d="M 86.13680546590413 115.77377054828092 l -41.58958360228758 47.321311644842766 a84.0,84.0 0 0,0 -1.0749398927065164,-0.9612178804664708 l 42.39578852181747 -46.600398234492914" fill="#4dd2ff" stroke="none" /><path d="M 85.86807049272751 115.53346607816431 l -26.34210782556066 28.954590958376986 a60.14428415823171,60.14428415823171 0 0,0 -0.7577327149476715,-0.7013460886629781 l 26.8352703118223 -28.49812712358163" fill="#39ff2e" stroke="none" /><path d="M 85.60350026404147 115.28858382429668 l -25.362715291585367 26.93432472190831 a57.996285964772454,57.996285964772454 0 0,0 -0.7189537597263603,-0.6887414384258499 l 25.82134153717704 -26.494971153176877" fill="#4fff2b" stroke="none" /><path d="M 85.34317274990678 115.03919595460226 l -5.367044252781138 5.507060214145876 a28.689790388140594,28.689790388140594 0 0,0 -0.3497532451972253,-0.3467639191837976 l 5.460789418108326 -5.414116284733419" fill="#ff3f05" stroke="none" /><path d="M 85.08716467003676 114.78537596483092 l -4.879478980416868 4.83777428246645 a27.871198958582397,27.871198958582397 0 0,0 -0.33394102503481643,-0.34265291028434697 l 4.961806806602494 -4.753298680114366" fill="#ff3304" stroke="none" /><path d="M 84.58840730492382 114.26474011684316 l -10.195346623643871 9.436660627157535 a34.89228766504609,34.89228766504609 0 0,0 -0.40309281954412846,-0.4430696201476311 l 10.35583714402988 -9.26025343145223" fill="#ff970d" stroke="none" /><path d="M 84.3458050057657 113.99807769240083 l -12.760006423330884 11.410076425846638 a38.11746499827316,38.11746499827316 0 0,0 -0.43197785426355323,-0.49151150107094677 l 12.95399534155303 -11.189352646964391" fill="#ffc212" stroke="none" /><path d="M 84.1078160697243 113.72728997021213 l -11.62591017455228 10.042184311099264 a36.36252756302967,36.36252756302967 0 0,0 -0.4039797792893953,-0.4758871642102005 l 11.796584517348787 -9.84113036443951" fill="#ffab0f" stroke="none" /><path d="M 83.8745106332314 113.45245675266167 l -11.794199744783189 9.839140902347912 a36.35942190696315,36.35942190696315 0 0,0 -0.3957172155943366,-0.4827106603058607 l 11.961363779616155 -9.635227960343556" fill="#ffab0f" stroke="none" /><path d="M 83.64595745247003 113.17365903436017 l -4.556127953811658 3.6700941682151322 a26.850460933556494,26.850460933556494 0 0,0 -0.286064260170662,-0.36143284774354417 l 4.618458644623882 -3.5913413765569073" fill="#ff2303" stroke="none" /><path d="M 83.4222238831116 112.89097897827486 l -15.79409622468599 12.281584754052803 a41.00726866980155,41.00726866980155 0 0,0 -0.42735046011843975,-0.5594154704290961 l 16.002598662158725 -12.008648370382838" fill="#ffe815" stroke="none" /><path d="M 83.20337586046588 112.60449989151573 l -16.132511713737845 12.10613754623939 a41.169692622406416,41.169692622406416 0 0,0 -0.4193387669660576,-0.5689135737315187 l 16.33795250028773 -11.827417663238991" fill="#ffea16" stroke="none" /><path d="M 82.98947788004972 112.3143062007846 l -23.06983992862979 16.700785013003728 a49.4804096596796,49.4804096596796 0 0,0 -0.4921766903075884,-0.6923081518931861 l 23.35313171746734 -16.302299634401038" fill="#aeff20" stroke="none" /><path d="M 82.78059297857968 112.02048342749411 l -4.377489433548662 3.0558275975790252 a26.338585584867566,26.338585584867566 0 0,0 -0.25562257428399743,-0.3729609752535371 l 4.429301744647984 -2.980231887255437" fill="#ff1c02" stroke="none" /><path d="M 82.576782715395 111.72311816256416 l -24.11670563751405 16.226795847295435 a50.06758322042454,50.06758322042454 0 0,0 -0.47367643753338357,-0.7172064988398712 l 24.391706513968156 -15.810409470116502" fill="#a7ff21" stroke="none" /><path d="M 82.37810715431573 111.42229804090323 l -16.138647031105663 10.460876023960905 a40.23241677957546,40.23241677957546 0 0,0 -0.37067908904673996,-0.5827690961416762 l 16.31584381177829 -10.182293253140557" fill="#ffde14" stroke="none" /><path d="M 82.18462484594161 111.11811171558189 l -7.963775446225624 4.969984876730167 a30.387356871496507,30.387356871496507 0 0,0 -0.2723749542258016,-0.44490401795536066 l 8.04791836490683 -4.832543742650249" fill="#ff5708" stroke="none" /><path d="M 81.99639281039703 110.81064883170644 l -5.772209356972618 3.4660458698164462 a27.73289498153609,27.73289498153609 0 0,0 -0.2415750279206246,-0.4102472107548387 l 5.830858095023013 -3.366447490768049" fill="#ff3104" stroke="none" /><line stroke="#e1ed5e" stroke-width="0.3" x1="26.387840678322732" x2="22.057713659400548" y1="142.50000000000003" y2="145.00000000000006" /><path d="M 25.521815274538298 143.00000000000003 a86.0,86.0 0 0,1 -11.493303480769221,-40.785679425670985" fill="none" id="id105" stroke="none" /><text fill="#e1ed5e" style="font-size:6.75px; font-family:Arial;" text-anchor="middle"><textPath startOffset="21.40746469413373" xlink:href="#id105">September</textPath></text><path d="M 81.81346652052679 110.50000000000001 l -26.768152475074967 15.454600037193497 a51.909200074386966,51.909200074386966 0 0,0 -0.4389210467448053,-0.7755314329956707 l 27.029506886841148 -14.992811834098704" fill="#92ff23" stroke="none" /><path d="M 81.63589988554817 110.18625677009913 l -17.109676103020718 9.49044891676689 a40.56552163863872,40.56552163863872 0 0,0 -0.3325496759700776,-0.611853947934327 l 17.270071128606123 -9.195340135357977" fill="#ffe315" stroke="none" /><path d="M 81.4637452351635 109.86951160357371 l -32.44930432834365 17.277426840508113 a57.762301745437156,57.762301745437156 0 0,0 -0.45850045801898,-0.8792350838028723 l 32.741112855337576 -16.717845513600736" fill="#52ff2b" stroke="none" /><path d="M 81.29705330413844 109.54985784667822 l -4.444465280017597 2.2693756400458898 a25.99032438032996,25.99032438032996 0 0,0 -0.19948203520365193,-0.39909769812509355 l 4.482767228432985 -2.1927460857570433" fill="#ff1702" stroke="none" /><path d="M 81.1358732173502 109.22738970284198 l -30.457070943805572 14.89807962190349 a54.90554448606572,54.90554448606572 0 0,0 -0.40687817023983863,-0.8502188873417523 l 30.708328372005322 -14.373048232496632" fill="#70ff27" stroke="none" /><line stroke="#e1ed5e" stroke-width="0.3" x1="15.003131293944662" x2="10.003315487706104" y1="100.72959589197737" y2="100.7725132973878" /><path d="M 14.003168132696942 100.73817937305945 a86.0,86.0 0 0,1 10.791469493833604,-42.45332614584628" fill="none" id="id106" stroke="none" /><text fill="#e1ed5e" style="font-size:6.75px; font-family:Arial;" text-anchor="middle"><textPath startOffset="22.145653131862435" xlink:href="#id106">October</textPath></text><line stroke="#e1ed5e" stroke-width="0.3" x1="26.387840678322718" x2="22.05771365940052" y1="57.49999999999999" y2="54.99999999999999" /><path d="M 25.521815274538284 56.99999999999999 a86.0,86.0 0 0,1 29.574782752854787,-30.34633250058573" fill="none" id="id107" stroke="none" /><text fill="#e1ed5e" style="font-size:6.75px; font-family:Arial;" text-anchor="middle"><textPath startOffset="21.40746469413373" xlink:href="#id107">November</textPath></text><line stroke="#e1ed5e" stroke-width="0.3" x1="56.869717070023135" x2="54.33264160355391" y1="26.7553504044142" y2="22.446841604673864" /><path d="M 56.362301976729285 25.89364864446614 a86.0,86.0 0 0,1 42.16139366436587,-11.88097634709845" fill="none" id="id108" stroke="none" /><text fill="#e1ed5e" style="font-size:6.75px; font-family:Arial;" text-anchor="middle"><textPath startOffset="22.145653131862474" xlink:href="#id108">December</textPath></text></svg>