<?xml version="1.0" encoding="utf-8" ?>
<svg baseProfile="full" height="200mm" version="1.1" viewBox="0,0,200,200" width="200mm" xmlns="http://www.w3.org/2000/svg" xmlns:ev="http://www.w3.org/2001/xml-events" xmlns:xlink="http://www.w3.org/1999/xlink"><defs /><rect fill="#1a1a1a" height="200" width="200" x="0" y="0" /><text alignment-baseline="middle" fill="#e1ed5e" style="dominant-baseline: central; font-size:9.0px; font-family:Arial;" text-anchor="middle" x="100.0" y="100.0">2024</text><line stroke="#e1ed5e" stroke-width="0.3" x1="100.0" x2="100.0" y1="15.0" y2="10.0" /><path d="M 100.0 14.0 a86.0,86.0 0 0,1 42.35913384403234,11.155469271406648" fill="none" id="id97" stroke="none" /><text fill="#e1ed5e" style="font-size:6.75px; font-family:Arial;" text-anchor="middle"><textPath startOffset="22.145653131862478" xlink:href="#id97">January</textPath></text><path d="M 100.72087961077811 79.0123766808444 l 0.7288604261883679 -21.21997605199173 a42.232489754335596,42.232489754335596 0 0,0 0.7243359464381333,0.031106102165808686 l -1.0930221332273373 21.20433738140009" fill="#fdff18" stroke="none" /><path d="M 101.08105385017728 79.02784411241856 l 0.4614958501466292 -8.952896203237136 a29.964782699298432,29.964782699298432 0 0,0 0.5134760138793343,0.030889441921557414 l -0.6151162161584259 8.943654783490887" fill="#ff5e08" stroke="none" /><path d="M 101.80034050326958 79.07731436759882 l 0.8130393285042683 -9.448749415002277 a30.483664822061172,30.483664822061172 0 0,0 0.520980981631556,0.04933744062239266 l -0.9751198735208373 9.433400218874702" fill="#ff6609" stroke="none" /><path d="M 102.87502721639298 79.19773525538626 l 1.4544267636770682 -10.523507540085355 a31.62353840098173,31.62353840098173 0 0,0 0.5371105818800749,0.0789367591176685 l -1.634862451164825 10.496989707668803" fill="#ff760a" stroke="none" /><line stroke="#e1ed5e" stroke-width="0.3" x1="143.13028292997686" x2="145.6673583964461" y1="26.7553504044142" y2="22.446841604673864" /><path d="M 143.63769802327073 25.89364864446614 a86.0,86.0 0 0,1 29.32050498858742,28.57503671076993" fill="none" id="id98" stroke="none" /><text fill="#e1ed5e" style="font-size:6.75px; font-family:Arial;" text-anchor="middle"><textPath startOffset="20.669276256404974" xlink:href="#id98">February</textPath></text><path d="M 114.39649973595853 84.71141617570332 l 2.6857453290290874 -2.8521684677987866 a24.917664220056032,24.917664220056032 0 0,0 0.30889302783095446,0.2959125332190782 l -2.7343108427253537 2.8056438042741285" fill="#ff1602" stroke="none" /><path d="M 114.65682725009322 84.96080404539774 l 7.382639275358457 -7.575238271540148 a31.57769339415129,31.57769339415129 0 0,0 0.3849592691695923,0.3816690387764766 l -7.511590464658012 7.447389222535012" fill="#ff750a" stroke="none" /><path d="M 115.6541949942343 86.00192230759917 l 7.886566485420647 -7.05221638224538 a31.579777258098126,31.579777258098126 0 0,0 0.35788750428949917,0.40721028337842713 l -8.006465053668737 6.915793821055654" fill="#ff750a" stroke="none" /><path d="M 115.8921839302757 86.27271002978787 l 8.24301611887463 -7.120120997175086 a31.892356850123875,31.892356850123875 0 0,0 0.35431715408119485,0.4173847165898388 l -8.364027836462936 6.977569498135695" fill="#ff790b" stroke="none" /><path d="M 116.35404254752997 86.82634096563983 l 16.590273677166365 -13.36395011047099 a42.303341128528096,42.303341128528096 0 0,0 0.45069892887968177,0.5694433734670867 l -16.817239036687607 13.077186793089226" fill="#fcff18" stroke="none" /><path d="M 117.01052211995028 87.68569379921539 l 8.534435008762346 -6.178272789483464 a31.536016115214522,31.536016115214522 0 0,0 0.31368560090400754,0.4412380815955288 l -8.639235708196313 6.0308574811784315" fill="#ff740a" stroke="none" /><path d="M 117.62189284568427 88.57770195909679 l 8.81144187336753 -5.711470165496307 a31.500590428118272,31.500590428118272 0 0,0 0.2902289024371295,0.4562880403705475 l -8.908188467430548 5.559368450447087" fill="#ff740a" stroke="none" /><line stroke="#e1ed5e" stroke-width="0.3" x1="172.87174338648825" x2="177.1583165268699" y1="56.24261187166439" y2="53.66864786411523" /><path d="M 173.72905801456457 55.72781907015455 a86.0,86.0 0 0,1 12.242430191666344,42.057860355516425" fill="none" id="id99" stroke="none" /><text fill="#e1ed5e" style="font-size:6.75px; font-family:Arial;" text-anchor="middle"><textPath startOffset="22.145653131862474" xlink:href="#id99">March</textPath></text><path d="M 119.31412917781788 91.75594674310238 l 3.9979697341844407 -1.706495545547816 a25.346940193104725,25.346940193104725 0 0,0 0.1673793107077651,0.4016494134000701 l -4.026674889428689 1.637613622706468" fill="#ff1c02" stroke="none" /><path d="M 119.71291397450082 92.76114493625339 l 6.021012216752966 -2.2109990857009296 a27.414133228368335,27.414133228368335 0 0,0 0.15842735938035554,0.4431495205784483 l -6.058079746177264 2.1073146087415644" fill="#ff3a05" stroke="none" /><line stroke="#e1ed5e" stroke-width="0.3" x1="184.99686870605535" x2="189.99668451229388" y1="99.2704041080226" y2="99.22748670261217" /><path d="M 185.99683186730306 99.26182062694052 a86.0,86.0 0 0,1 -10.086455211305974,41.156179273409016" fill="none" id="id100" stroke="none" /><text fill="#e1ed5e" style="font-size:6.75px; font-family:Arial;" text-anchor="middle"><textPath startOffset="21.40746469413373" xlink:href="#id100">April</textPath></text><path d="M 119.58574465831526 107.57618678355244 l 6.312569534922053 2.441837505546553 a27.768390099330848,27.768390099330848 0 0,0 -0.17578888446964736,0.4431028226620335 l -6.269721975486281 -2.5498413454221507" fill="#ff3f05" stroke="none" /><path d="M 118.5362547648365 109.86951160357373 l 5.632189289924619 2.9988235625615056 a27.380791405218922,27.380791405218922 0 0,0 -0.2244633605533712,0.4129873015830104 l -5.579880579755909 -3.0950656976191193" fill="#ff3a05" stroke="none" /><line stroke="#e1ed5e" stroke-width="0.3" x1="174.33088141563837" x2="178.70328620479359" y1="141.23008692659167" y2="143.65538615756765" /><path d="M 175.20536237346943 141.71514677278685 a86.0,86.0 0 0,1 -30.301960400862466,31.631185727798858" fill="none" id="id101" stroke="none" /><text fill="#e1ed5e" style="font-size:6.75px; font-family:Arial;" text-anchor="middle"><textPath startOffset="22.145653131862474" xlink:href="#id101">May</textPath></text><path d="M 118.36410011445183 110.18625677009912 l 13.9260115579669 7.724523860615711 a36.924888281738404,36.924888281738404 0 0,0 -0.3122203885309442,0.5516635101543649 l -13.791357804414577 -7.962444140869199" fill="#ffbd11" stroke="none" /><path d="M 118.18653347947321 110.5 l 12.060670532177785 6.963231378360228 a34.92646275672046,34.92646275672046 0 0,0 -0.30423658335132386,0.5166602310006698 l -11.939360238696695 -7.169242777654447" fill="#ffa30f" stroke="none" /><path d="M 117.81537515405839 111.11811171558189 l 7.428499293539028 4.635932968600645 a29.7563963046146,29.7563963046146 0 0,0 -0.2741588688529367,0.4310232784145648 l -7.347822733060202 -4.762769921693882" fill="#ff5b08" stroke="none" /><path d="M 117.01052211995028 112.31430620078461 l 9.62824709058157 6.970108384338149 a32.88635995276575,32.88635995276575 0 0,0 -0.3349679036731366,0.45444829378120394 l -9.507177167324606 -7.13436298738823" fill="#ff870c" stroke="none" /><path d="M 116.79662413953412 112.60449989151573 l 16.92424210326333 12.700266790662706 a42.15955451619625,42.15955451619625 0 0,0 -0.43935881626156925,0.5751347940938738 l -16.703731309647456 -12.988922497997457" fill="#feff18" stroke="none" /><path d="M 116.57777611688842 112.89097897827486 l 9.549454427073421 7.425713521851021 a33.09683021139642,33.09683021139642 0 0,0 -0.3526129503640914,0.4455149438287504 l -9.420575046067768 -7.588548409594454" fill="#ff8a0c" stroke="none" /><path d="M 116.1254893667686 113.45245675266167 l 4.992494136170721 4.164916172600605 a27.501655514135543,27.501655514135543 0 0,0 -0.30553741638106496,0.3599223082339887 l -4.920262156282542 -4.250005263284151" fill="#ff3b05" stroke="none" /><path d="M 115.6541949942343 113.99807769240083 l 15.80420079233202 14.132213802041461 a42.20123179513302,42.20123179513302 0 0,0 -0.4875293267049539,0.5358801326163256 l -15.559273764785187 -14.401431510215458" fill="#fdff18" stroke="none" /><path d="M 115.16444852881244 114.52719865689866 l 6.879912412260775 6.590800461030817 a30.527425964944776,30.527425964944776 0 0,0 -0.36576682379388875,0.3753089835109952 l -6.765758787316079 -6.707932136609549" fill="#ff6609" stroke="none" /><path d="M 114.39649973595853 115.28858382429668 l 4.5300523608251275 4.8107586230797645 a27.6079325754243,27.6079325754243 0 0,0 -0.34782081119183716,0.32193775017596193 l -4.446801778319323 -4.887814119388106" fill="#ff3d05" stroke="none" /><path d="M 114.13192950727249 115.5334660781643 l 7.2977472262295 8.021502578775053 a31.84442797934659,31.84442797934659 0 0,0 -0.4075100713740276,0.36439801865445376 l -7.158972128032095 -8.145596127312892" fill="#ff790b" stroke="none" /><path d="M 113.86319453409587 115.77377054828091 l 11.141528682730964 12.677014418736956 a37.877214105443514,37.877214105443514 0 0,0 -0.4920800598752764,0.4250470357065678 l -10.922269143092834 -12.866405586908241" fill="#ffca12" stroke="none" /><path d="M 112.45986205192187 116.90419585922612 l 3.6931633996510977 5.010485444194626 a27.224501609206047,27.224501609206047 0 0,0 -0.37857483109488743,0.27405898285421815 l -3.6066075581822425 -5.073145198421921" fill="#ff3705" stroke="none" /><path d="M 111.8722381534696 117.32195027204791 l 8.307970957380116 12.121577913537699 a35.6954085531038,35.6954085531038 0 0,0 -0.5084109141013011,0.3420815526655412 l -8.09866375518181 -12.262409140260361" fill="#ffad10" stroke="none" /><path d="M 111.5731344415666 117.5232005979908 l 5.788041027526421 8.763831830248469 a31.50267429206511,31.50267429206511 0 0,0 -0.4538100759846396,0.29415420847545365 l -5.636745319284771 -8.861899880427817" fill="#ff740a" stroke="none" /><line stroke="#e1ed5e" stroke-width="0.3" x1="143.1302829299769" x2="145.66735839644613" y1="173.24464959558577" y2="177.55315839532614" /><path d="M 143.63769802327073 174.10635135553383 a86.0,86.0 0 0,1 -40.68552437913181,11.842963189579606" fill="none" id="id102" stroke="none" /><text fill="#e1ed5e" style="font-size:6.75px; font-family:Arial;" text-anchor="middle"><textPath startOffset="21.407464694133747" xlink:href="#id102">June</textPath></text><path d="M 110.65571695917076 118.09573695890943 l 3.2303081780347513 5.485769499125269 a27.36620435759105,27.36620435759105 0 0,0 -0.4068540536434052,0.23489729739191134 l -3.1356616565309476 -5.540413693793352" fill="#ff3905" stroke="none" /><path d="M 110.34350942703117 118.27599006163325 l 7.453739754411701 13.17004394249667 a36.133019981939846,36.133019981939846 0 0,0 -0.5424354547037384,0.3008798028970373 l -7.226560111551868 -13.296056660826853" fill="#ffb310" stroke="none" /><path d="M 109.71004243097381 118.62028667847754 l 5.851694249615185 11.221395298445238 a33.655514135543775,33.655514135543775 0 0,0 -0.5145652108646116,0.26274066308975524 l -5.658201817036991 -11.320193913207829" fill="#ff910d" stroke="none" /><path d="M 109.3889696526874 118.78422872680471 l 7.570033219878413 15.145137403975431 a37.93164463173493,37.93164463173493 0 0,0 -0.5849416353628955,0.2861242656551388 l -7.3089313352534475 -15.272855419727792" fill="#ffca12" stroke="none" /><path d="M 108.4095320186766 119.2426549942271 l 6.7691944160206186 15.48924154721655 a37.90380420940517,37.90380420940517 0 0,0 -0.59845580921172,0.25544519857035375 l -6.502303531638467 -15.603161395446307" fill="#ffca12" stroke="none" /><path d="M 107.74402155503746 119.51999308798841 l 6.511345497657698 16.412844179792287 a38.6572668966635,38.6572668966635 0 0,0 -0.6189354946118548,0.23941754556465125 l -6.228637740552314 -16.52220161349498" fill="#ffd413" stroke="none" /><path d="M 107.06938296918513 119.77432235084164 l 6.251501450952656 17.486562180424844 a39.57043691680752,39.57043691680752 0 0,0 -0.6415954937061689,0.22318021773201885 l -5.950400185201465 -17.591300830725455" fill="#ffdf14" stroke="none" /><path d="M 106.72888874123015 119.89276391827305 l 6.705182508497986 19.82268065352193 a41.92601588367408,41.92601588367408 0 0,0 -0.6837479591037291,0.22476153511753977 l -6.363911811746522 -19.93486311004149" fill="#fffd17" stroke="none" /><path d="M 106.38641147887787 120.00534299687104 l 6.363436511295434 19.933374238148087 a41.924452985713955,41.924452985713955 0 0,0 -0.6874799093982761,0.2129830332788515 l -6.020315969025533 -20.039673859233584" fill="#fffd17" stroke="none" /><path d="M 106.0420521117495 120.11202640906438 l 7.391245827764777 24.603053488204534 a46.6893120933571,46.6893120933571 0 0,0 -0.7695732338050439,0.2240115524801628 l -6.967812581578126 -24.726308734987214" fill="#c7ff1e" stroke="none" /><path d="M 105.69591212413111 120.21278271476187 l 2.875246505438384 10.203235513341058 a31.60061589756651,31.60061589756651 0 0,0 -0.523394378623447,0.14265346532524162 l -2.699670725880242 -10.251089472810442" fill="#ff750a" stroke="none" /><path d="M 104.9986988182912 120.39639698878246 l 4.075334287683212 16.628754604983172 a38.12085947810785,38.12085947810785 0 0,0 -0.6369230410794484,0.15031210344322282 l -3.789279092863884 -16.69626285207262" fill="#ffcd13" stroke="none" /><path d="M 104.64783097203109 120.47920084513623 l 4.637558248303441 20.43393732894752 a41.95358540369075,41.95358540369075 0 0,0 -0.7036966446075584,0.15336740845256375 l -4.286099187076747 -20.510536195533803" fill="#fffd18" stroke="none" /><path d="M 104.29559338865022 120.5559693870025 l 4.419305023280396 21.147974342823783 a42.60479288707773,42.60479288707773 0 0,0 -0.717187810419409,0.14345764809995687 l -4.055620727330028 -21.2207213875866" fill="#f8ff18" stroke="none" /><path d="M 103.94208987418118 120.62667999033965 l 4.7520149227050705 24.86455008596571 a46.31457083979717,46.31457083979717 0 0,0 -0.7821985527316715,0.14254263271244327 l -4.324481636422342 -24.942460892609517" fill="#ccff1d" stroke="none" /><path d="M 102.875027216393 120.80226474461374 l 3.444614934241571 24.92351773116178 a46.16042742364954,46.16042742364954 0 0,0 -0.7858750740455223,0.10174726210229829 l -3.0162620383052734 -24.978976589464473" fill="#cdff1d" stroke="none" /><path d="M 102.15924093988457 120.88869738790638 l 2.160043719301424 20.8964635505417 a42.00780754358749,42.00780754358749 0 0,0 -0.7179343080300857,0.06798912540393524 l -1.8010098478863232 -20.93046443145082" fill="#fffe18" stroke="none" /><path d="M 101.80034050326958 120.92268563240118 l 1.7964685471325157 20.877687632916572 a41.95483572205886,41.95483572205886 0 0,0 -0.7180889894104505,0.05558462929254134 l -1.4378105629468294 -20.905450029204168" fill="#fffd18" stroke="none" /><path d="M 101.44090949804482 120.95050786540614 l 1.4437787058716205 20.992225517503307 a42.041816203199886,42.041816203199886 0 0,0 -0.72042785749192,0.04333915092652881 l -1.0832064962472352 -21.013916646254525" fill="#ffff18" stroke="none" /><path d="M 101.08105385017728 120.97215588758144 l 0.6487610397716819 12.58579085366553 a33.60250063673621,33.60250063673621 0 0,0 -0.5763216718450764,0.024749732348556673 l -0.4326136073257759 -12.59507315443992" fill="#ff910d" stroke="none" /><path d="M 100.72087961077811 120.9876233191556 l 1.4360753644622801 41.80976734065318 a62.834423116997385,62.834423116997385 0 0,0 -1.0783185480672062,0.027773660738991894 l -0.7181435023243301 -41.82825871874222" fill="#32ff4a" stroke="none" /><line stroke="#e1ed5e" stroke-width="0.3" x1="101.45913802915013" x2="101.54496967792366" y1="184.9874750549273" y2="189.98673829345242" /><path d="M 101.47630435890484 185.9873277026323 a86.0,86.0 0 0,1 -42.54439059252881,-10.42667462771756" fill="none" id="id103" stroke="none" /><text fill="#e1ed5e" style="font-size:6.75px; font-family:Arial;" text-anchor="middle"><textPath startOffset="22.145653131862474" xlink:href="#id103">July</textPath></text><path d="M 100.0 121.0 l 2.5667172328517717e-15 20.958836740836787 a41.95883674083679,41.95883674083679 0 0,0 -0.7202792276171301,-0.0061827308881635505 l 0.35978630276827545 -20.95574840814306" fill="#fffe18" stroke="none" /><path d="M 99.63950707515114 120.99690560180557 l -0.388038188723814 22.601279128975214 a43.604609970131285,43.604609970131285 0 0,0 -0.7483105180177816,-0.019273824503985636 l 0.7759620208123394 -22.591287587121183" fill="#ecff1a" stroke="none" /><path d="M 99.27912038922189 120.98762331915562 l -0.9792718030958792 28.510430067875703 a49.52724304799834,49.52724304799834 0 0,0 -0.8494493854452476,-0.036479011566774806 l 1.4685469491419656 -28.4894184878831" fill="#a6ff21" stroke="none" /><path d="M 98.55909050195518 120.95050786540614 l -2.5029310469208017 36.392068104371916 a57.47803838940471,57.47803838940471 0 0,0 -0.9837804341262525,-0.07615082746367947 l 3.1272804758222903 -36.343739509913185" fill="#50ff2b" stroke="none" /><path d="M 98.19965949673042 120.92268563240118 l -2.41209885388394 28.032244979455324 a49.135830882863694,49.135830882863694 0 0,0 -0.83975576939523,-0.07952574445251032 l 2.8929541866641855 -27.98670747949763" fill="#abff21" stroke="none" /><path d="M 97.48249496171623 120.84855314841334 l -3.6842053229108997 30.51050516933157 a51.73213781286901,51.73213781286901 0 0,0 -0.8807326947191688,-0.11402848021422812 l 4.207415839520863 -30.442765092916943" fill="#8dff24" stroke="none" /><path d="M 96.76829788921471 120.74984581791261 l -5.080038431496973 32.61749090389357 a54.01071800689991,54.01071800689991 0 0,0 -0.914896546252919,-0.15054587852694815 l 5.639212480802956 -32.52547902687095" fill="#74ff27" stroke="none" /><path d="M 96.41257539226777 120.69131181640829 l -3.6514154542179975 21.0603940140325 a42.374588436870496,42.374588436870496 0 0,0 -0.7156568904108079,-0.1304165252181793 l 4.012407078179862 -20.994609314882954" fill="#fbff18" stroke="none" /><path d="M 96.05791012581884 120.62667999033965 l -8.00158980268864 41.86769899768105 a63.625457871217215,63.625457871217215 0 0,0 -1.0710391889132025,-0.21423783398454563 l 8.7191254771328 -41.724171767033646" fill="#33ff53" stroke="none" /><path d="M 95.70440661134978 120.55596938700252 l -0.5051165308842364 2.417165454523603 a23.469378777003403,23.469378777003403 0 0,0 -0.39365701256484786,-0.08579571367704752 l 0.5465359600682207 -2.408138282712837" fill="#ff0000" stroke="none" /><path d="M 94.6519064749342 120.30758222061772 l -5.34055050955231 20.278940162094656 a41.970381347102276,41.970381347102276 0 0,0 -0.6951466305897961,-0.1894653053470055 l 5.687878541076801 -20.184274362603507" fill="#fffe18" stroke="none" /><path d="M 94.30408787586889 120.21278271476187 l -8.251900949151407 29.28308534857853 a51.4235592396212,51.4235592396212 0 0,0 -0.8476071504045806,-0.24672608832380735 l 8.753368111937595 -29.137115565952207" fill="#91ff24" stroke="none" /><path d="M 93.61358852112213 120.00534299687104 l -10.390289667695182 32.54743439669653 a55.16567876079557,55.16567876079557 0 0,0 -0.8996662208476803,-0.29573815643440166 l 10.947478626190605 -32.36427531886011" fill="#68ff28" stroke="none" /><path d="M 93.27111125876986 119.89276391827306 l -10.731037672098154 31.72440609712294 a54.490194262427934,54.490194262427934 0 0,0 -0.8835046012620087,-0.30732876276590304 l 11.274048045405184 -31.535518901788446" fill="#6fff27" stroke="none" /><path d="M 91.59046798132341 119.24265499422711 l -8.416196823774696 19.257905372586062 a42.01664312672208,42.01664312672208 0 0,0 -0.6584340052381971,-0.2945091556006055 l 8.745544231868527 -19.1105924660756" fill="#fffe18" stroke="none" /><path d="M 91.26138138417905 119.09545874513695 l -21.09551608612624 46.09750978268922 a71.69517932806964,71.69517932806964 0 0,0 -1.1147278672201042,-0.5217489277686898 l 21.88373266721783 -45.72858462335001" fill="#3dffb0" stroke="none" /><path d="M 90.93487009805054 118.94263497670748 l -9.718522221271549 20.30797362440197 a43.513628470212325,43.513628470212325 0 0,0 -0.6710210760712609,-0.328230033601387 l 10.065703546604878 -20.138149840703363" fill="#edff19" stroke="none" /><path d="M 90.28995756902619 118.62028667847754 l -9.737028064387426 18.672035188737283 a42.058362082937784,42.058362082937784 0 0,0 -0.6373067240232951,-0.33932993409841966 l 10.056123604197284 -18.50213478691629" fill="#ffff18" stroke="none" /><line stroke="#e1ed5e" stroke-width="0.3" x1="58.13341422392154" x2="55.67067388415222" y1="173.97424548756322" y2="178.32567169271397" /><path d="M 57.64086615596768 174.84453072859336 a86.0,86.0 0 0,1 -31.369924170532247,-30.572349798747897" fill="none" id="id104" stroke="none" /><text fill="#e1ed5e" style="font-size:6.75px; font-family:Arial;" text-anchor="middle"><textPath startOffset="22.145653131862474" xlink:href="#id104">August</textPath></text><path d="M 88.4268655584334 117.5232005979908 l -18.64326866545421 28.228284936675106 a54.82909305610225,54.82909305610225 0 0,0 -0.780932631112137,-0.5254463261282387 l 19.125097584663354 -27.904088936489746" fill="#6cff28" stroke="none" /><path d="M 87.83215693770417 117.11559508785305 l -36.503529186887484 51.346785263559134 a84.0,84.0 0 0,0 -1.1680759585041844,-0.8455969145077384 l 37.37958615576562 -50.712587577678335" fill="#4dd2ff" stroke="none" /><path d="M 87.54013794807813 116.9041958592261 l -11.187799912314338 15.178399260240871 a39.85605130936118,39.85605130936118 0 0,0 -0.547255869946354,-0.4106710072254717 l 11.446708771171458 -14.984109225751386" fill="#ffe315" stroke="none" /><path d="M 86.96720088162412 116.46651593811092 l -16.31713364281399 20.616165318994465 a47.29211141725902,47.29211141725902 0 0,0 -0.6322487546985046,-0.5092948422440597 l 16.668633167867757 -20.333022182956995" fill="#c0ff1e" stroke="none" /><path d="M 86.68645165197938 116.24036423190432 l -20.464885637382537 24.96383293374775 a53.28009446849892,53.28009446849892 0 0,0 -0.702347506055213,-0.5859232694059231 l 20.890407477599645 -24.608847480429954" fill="#7cff26" stroke="none" /><path d="M 86.40962598614128 116.0094264158162 l -14.157548026199349 16.677555976214688 a42.87640371390863,42.87640371390863 0 0,0 -0.5570267984345755,-0.48114648161875906 l 14.441754304396786 -16.432065362131205" fill="#f5ff19" stroke="none" /><path d="M 86.13680546590413 115.77377054828092 l -30.211316350472647 34.37493219198795 a66.76417374794508,66.76417374794508 0 0,0 -0.8543746876816107,-0.7639871140606543 l 30.79695606497763 -33.85124954804392" fill="#37ff78" stroke="none" /><path d="M 85.86807049272751 115.53346607816431 l -25.094265838657854 27.582994025029066 a58.28999513765079,58.28999513765079 0 0,0 -0.7343713020798098,-0.6797231136781284 l 25.564066912051633 -27.148153165218563" fill="#47ff2c" stroke="none" /><path d="M 85.60350026404147 115.28858382429668 l -5.306047044482206 5.634838085858288 a28.739866632707404,28.739866632707404 0 0,0 -0.35627514462167215,-0.3413035292777415 l 5.401994674969193 -5.542922426274964" fill="#ff4d07" stroke="none" /><line stroke="#e1ed5e" stroke-width="0.3" x1="26.387840678322732" x2="22.057713659400548" y1="142.50000000000003" y2="145.00000000000006" /><path d="M 25.521815274538298 143.00000000000003 a86.0,86.0 0 0,1 -11.493303480769221,-40.785679425670985" fill="none" id="id105" stroke="none" /><text fill="#e1ed5e" style="font-size:6.75px; font-family:Arial;" text-anchor="middle"><textPath startOffset="21.40746469413373" xlink:href="#id105">September</textPath></text><line stroke="#e1ed5e" stroke-width="0.3" x1="15.003131293944662" x2="10.003315487706104" y1="100.72959589197737" y2="100.7725132973878" /><path d="M 14.003168132696942 100.73817937305945 a86.0,86.0 0 0,1 10.791469493833604,-42.45332614584628" fill="none" id="id106" stroke="none" /><text fill="#e1ed5e" style="font-size:6.75px; font-family:Arial;" text-anchor="middle"><textPath startOffset="22.145653131862435" xlink:href="#id106">October</textPath></text><line stroke="#e1ed5e" stroke-width="0.3" x1="26.387840678322718" x2="22.05771365940052" y1="57.49999999999999" y2="54.99999999999999" /><path d="M 25.521815274538284 56.99999999999999 a86.0,86.0 0 0,1 29.574782752854787,-30.34633250058573" fill="none" id="id107" stroke="none" /><text fill="#e1ed5e" style="font-size:6.75px; font-family:Arial;" text-anchor="middle"><textPath startOffset="21.40746469413373" xlink:href="#id107">November</textPath></text><line stroke="#e1ed5e" stroke-width="0.3" x1="56.869717070023135" x2="54.33264160355391" y1="26.7553504044142" y2="22.446841604673864" /><path d="M 56.362301976729285 25.89364864446614 a86.0,86.0 0 0,1 42.16139366436587,-11.88097634709845" fill="none" id="id108" stroke="none" /><text fill="#e1ed5e" style="font-size:6.75px; font-family:Arial;" text-anchor="middle"><textPath startOffset="22.145653131862474" xlink:href="#id108">December</textPath></text></svg>