<?xml version="1.0" encoding="utf-8" ?>
<svg baseProfile="full" height="200mm" version="1.1" viewBox="0,0,200,200" width="200mm" xmlns="http://www.w3.org/2000/svg" xmlns:ev="http://www.w3.org/2001/xml-events" xmlns:xlink="http://www.w3.org/1999/xlink"><defs /><rect fill="#1a1a1a" height="200" width="200" x="0" y="0" /><text alignment-baseline="middle" fill="#e1ed5e" style="dominant-baseline: central; font-size:9.0px; font-family:Arial;" text-anchor="middle" x="100.0" y="100.0">2020</text><line stroke="#e1ed5e" stroke-width="0.3" x1="100.0" x2="100.0" y1="15.0" y2="10.0" /><path d="M 100.0 14.0 a86.0,86.0 0 0,1 42.35913384403234,11.155469271406648" fill="none" id="id49" stroke="none" /><text fill="#e1ed5e" style="font-size:6.75px; font-family:Arial;" text-anchor="middle"><textPath startOffset="22.145653131862478" xlink:href="#id49">January</textPath></text><path d="M 109.3889696526874 81.21577127319529 l 11.254644044850581 -22.51682727686017 a46.17289262663798,46.17289262663798 0 0,0 0.7059456627216794,0.36046088544768257 l -11.63951692928584 22.320308439739655" fill="#ffd513" stroke="none" /><path d="M 109.71004243097381 81.37971332152246 l 11.314772697778597 -21.69756855669258 a45.470565225894774,45.470565225894774 0 0,0 0.6890115432088791,0.3668598380292182 l -11.685573056774036 21.50013825094079" fill="#ffca12" stroke="none" /><path d="M 110.02825361518725 81.54914285379988 l 16.20446535667457 -29.814391109310648 a54.93350283590847,54.93350283590847 0 0,0 0.8246717159030235,0.4574314993314437 l -16.713881260733697 29.53182669454606" fill="#aaff21" stroke="none" /><path d="M 110.34350942703115 81.72400993836675 l 12.356376995952727 -21.832534186672397 a46.08664189321338,46.08664189321338 0 0,0 0.6851712728610369,0.3955838188273182 l -12.72934073667416 21.61720347056891" fill="#ffd313" stroke="none" /><line stroke="#e1ed5e" stroke-width="0.3" x1="143.13028292997686" x2="145.6673583964461" y1="26.7553504044142" y2="22.446841604673864" /><path d="M 143.63769802327073 25.89364864446614 a86.0,86.0 0 0,1 29.32050498858742,28.57503671076993" fill="none" id="id50" stroke="none" /><text fill="#e1ed5e" style="font-size:6.75px; font-family:Arial;" text-anchor="middle"><textPath startOffset="20.669276256404974" xlink:href="#id50">February</textPath></text><path d="M 110.65571695917076 81.90426304109057 l 17.99988800632854 -30.567744986133537 a56.47369450420497,56.47369450420497 0 0,0 0.8311509089253432,0.49908223990437817 l -18.52197167181132 30.25424874569324" fill="#95ff23" stroke="none" /><path d="M 110.96478420261332 82.08984904055464 l 23.926089839342225 -39.081469637107716 a66.82378251515743,66.82378251515743 0 0,0 0.9731957020519022,0.6073460953233046 l -24.59344967018384 38.66498774494287" fill="#33ff51" stroke="none" /><path d="M 111.27062007382361 82.28071324371311 l 13.5234215045781 -21.26106478580483 a46.19753569333072,46.19753569333072 0 0,0 0.6654961095977276,0.4313665379453535 l -13.886403246432835 21.025784406155584" fill="#ffd513" stroke="none" /><path d="M 111.5731344415666 82.4767994020092 l 13.859241577491161 -20.984658177488292 a46.14824955994524,46.14824955994524 0 0,0 0.6572910829145506,0.4422547745539239 l -14.217428948502713 20.743653728877252" fill="#ffd413" stroke="none" /><line stroke="#e1ed5e" stroke-width="0.3" x1="172.87174338648825" x2="177.1583165268699" y1="56.24261187166439" y2="53.66864786411523" /><path d="M 173.72905801456457 55.72781907015455 a86.0,86.0 0 0,1 12.242430191666344,42.057860355516425" fill="none" id="id51" stroke="none" /><text fill="#e1ed5e" style="font-size:6.75px; font-family:Arial;" text-anchor="middle"><textPath startOffset="22.145653131862474" xlink:href="#id51">March</textPath></text><line stroke="#e1ed5e" stroke-width="0.3" x1="184.99686870605535" x2="189.99668451229388" y1="99.2704041080226" y2="99.22748670261217" /><path d="M 185.99683186730306 99.26182062694052 a86.0,86.0 0 0,1 -10.086455211305974,41.156179273409016" fill="none" id="id52" stroke="none" /><text fill="#e1ed5e" style="font-size:6.75px; font-family:Arial;" text-anchor="middle"><textPath startOffset="21.40746469413373" xlink:href="#id52">April</textPath></text><line stroke="#e1ed5e" stroke-width="0.3" x1="174.33088141563837" x2="178.70328620479359" y1="141.23008692659167" y2="143.65538615756765" /><path d="M 175.20536237346943 141.71514677278685 a86.0,86.0 0 0,1 -30.301960400862466,31.631185727798858" fill="none" id="id53" stroke="none" /><text fill="#e1ed5e" style="font-size:6.75px; font-family:Arial;" text-anchor="middle"><textPath startOffset="22.145653131862474" xlink:href="#id53">May</textPath></text><line stroke="#e1ed5e" stroke-width="0.3" x1="143.1302829299769" x2="145.66735839644613" y1="173.24464959558577" y2="177.55315839532614" /><path d="M 143.63769802327073 174.10635135553383 a86.0,86.0 0 0,1 -40.68552437913181,11.842963189579606" fill="none" id="id54" stroke="none" /><text fill="#e1ed5e" style="font-size:6.75px; font-family:Arial;" text-anchor="middle"><textPath startOffset="21.407464694133747" xlink:href="#id54">June</textPath></text><line stroke="#e1ed5e" stroke-width="0.3" x1="101.45913802915013" x2="101.54496967792366" y1="184.9874750549273" y2="189.98673829345242" /><path d="M 101.47630435890484 185.9873277026323 a86.0,86.0 0 0,1 -42.54439059252881,-10.42667462771756" fill="none" id="id55" stroke="none" /><text fill="#e1ed5e" style="font-size:6.75px; font-family:Arial;" text-anchor="middle"><textPath startOffset="22.145653131862474" xlink:href="#id55">July</textPath></text><line stroke="#e1ed5e" stroke-width="0.3" x1="58.13341422392154" x2="55.67067388415222" y1="173.97424548756322" y2="178.32567169271397" /><path d="M 57.64086615596768 174.84453072859336 a86.0,86.0 0 0,1 -31.369924170532247,-30.572349798747897" fill="none" id="id56" stroke="none" /><text fill="#e1ed5e" style="font-size:6.75px; font-family:Arial;" text-anchor="middle"><textPath startOffset="22.145653131862474" xlink:href="#id56">August</textPath></text><path d="M 82.98947788004972 112.3143062007846 l -20.10122719513781 14.551738326841502 a45.8155681595932,45.8155681595932 0 0,0 -0.4557228781338332,-0.6410312998348295 l 20.348065171801604 -14.204529800297168" fill="#ffcf13" stroke="none" /><line stroke="#e1ed5e" stroke-width="0.3" x1="26.387840678322732" x2="22.057713659400534" y1="142.50000000000003" y2="145.00000000000006" /><path d="M 25.521815274538284 143.00000000000003 a86.0,86.0 0 0,1 -11.493303480769212,-40.785679425670985" fill="none" id="id57" stroke="none" /><text fill="#e1ed5e" style="font-size:6.75px; font-family:Arial;" text-anchor="middle"><textPath startOffset="21.40746469413373" xlink:href="#id57">September</textPath></text><path d="M 81.1358732173502 109.22738970284198 l -11.156878425725212 5.457388316329772 a33.420105613142965,33.420105613142965 0 0,0 -0.24766007783692473,-0.5175143107170452 l 11.24891776152205 -5.265061503547623" fill="#ff0000" stroke="none" /><path d="M 80.9802524753101 108.90220220490708 l -11.628345543160693 5.442652863786334 a33.839037746919615,33.839037746919615 0 0,0 -0.24173244554257636,-0.5282290192711087 l 11.720062453558326 -5.242234862300536" fill="#ff0701" stroke="none" /><path d="M 79.17382384314188 102.69636545807758 l -25.64882285541475 3.320753625956294 a46.86289849403481,46.86289849403481 0 0,0 -0.09644365260654493,-0.79869179470057 l 25.702048594280956 -2.879968154332325" fill="#ffdf14" stroke="none" /><path d="M 79.0935383218832 101.97986365728391 l -37.437817939534014 3.545400282826424 a58.60531977312732,58.60531977312732 0 0,0 -0.08625133927751547,-1.0023713035393464 l 37.49316290150927 -2.902207931911416" fill="#79ff26" stroke="none" /><line stroke="#e1ed5e" stroke-width="0.3" x1="15.003131293944662" x2="10.003315487706104" y1="100.72959589197737" y2="100.7725132973878" /><path d="M 14.003168132696942 100.73817937305945 a86.0,86.0 0 0,1 10.791469493833604,-42.45332614584628" fill="none" id="id58" stroke="none" /><text fill="#e1ed5e" style="font-size:6.75px; font-family:Arial;" text-anchor="middle"><textPath startOffset="22.145653131862435" xlink:href="#id58">October</textPath></text><path d="M 79.00077361379809 100.18025310272382 l -31.012156941562804 0.2662020689746872 a52.01329943281831,52.01329943281831 0 0,0 0.0,-0.892910343396998 l 31.012156941562804 0.26620206897467574" fill="#d3ff1c" stroke="none" /><path d="M 79.00077361379809 99.81974689727619 l -25.09803881206334 -0.2154364777518532 a46.09896342655975,46.09896342655975 0 0,0 0.013585075637898004,-0.7912625494158725 l 25.090642304826776 0.6462459431367781" fill="#ffd313" stroke="none" /><path d="M 79.00696218219943 99.45929381324524 l -37.67907452649244 -0.9704793029236152 a58.691570506551926,58.691570506551926 0 0,0 0.03458697884119047,-1.0069621512572775 l 37.6568628606544 1.6171477187450314" fill="#78ff26" stroke="none" /><path d="M 79.01933749520258 99.09900007780938 l -37.41065911524313 -1.606574670567555 a58.44513983962449,58.44513983962449 0 0,0 0.05164994759104324,-1.0019951848717756 l 37.37756757819552 2.2485416488160426" fill="#7bff26" stroke="none" /><path d="M 79.03789590574601 98.7389718711861 l -39.0625714473014 -2.3499072973477295 a60.13318990807745,60.13318990807745 0 0,0 0.0708312819445143,-1.029871294143659 l 39.01647620419182 3.0201220156457134" fill="#65ff29" stroke="none" /><path d="M 79.06263194458094 98.37931529534042 l -37.456308547412114 -2.8993551718210897 a58.56835517308821,58.56835517308821 0 0,0 0.08619693728343106,-1.0017390699047122 l 37.40101798743094 3.5419152891014827" fill="#79ff26" stroke="none" /><path d="M 79.0935383218832 98.0201363427161 l -44.85914161365528 -4.248207350686823 a66.05984744768239,66.05984744768239 0 0,0 0.11660383323389802,-1.1280363120675987 l 44.779605387939725 5.017648185037335" fill="#32ff46" stroke="none" /><path d="M 79.13060592940154 97.66154086499901 l -30.012253980268046 -3.3629356580602967 a51.200078231957754,51.200078231957754 0 0,0 0.10536955069176114,-0.8726110352967814 l 29.950102343316615 3.8776403702805142" fill="#deff1b" stroke="none" /><path d="M 79.2786578344484 96.59031103205396 l -62.16402649665483 -10.229066903838117 a84.0,84.0 0 0,0 0.24634073003106272,-1.4208278683176294 l 61.97927094913153 11.29468780507634" fill="#4dd2ff" stroke="none" /><line stroke="#e1ed5e" stroke-width="0.3" x1="26.387840678322718" x2="22.05771365940052" y1="57.49999999999999" y2="54.99999999999999" /><path d="M 25.521815274538284 56.99999999999999 a86.0,86.0 0 0,1 29.574782752854787,-30.34633250058573" fill="none" id="id59" stroke="none" /><text fill="#e1ed5e" style="font-size:6.75px; font-family:Arial;" text-anchor="middle"><textPath startOffset="21.40746469413373" xlink:href="#id59">November</textPath></text><line stroke="#e1ed5e" stroke-width="0.3" x1="56.869717070023135" x2="54.33264160355391" y1="26.7553504044142" y2="22.446841604673864" /><path d="M 56.362301976729285 25.89364864446614 a86.0,86.0 0 0,1 42.16139366436587,-11.88097634709845" fill="none" id="id60" stroke="none" /><text fill="#e1ed5e" style="font-size:6.75px; font-family:Arial;" text-anchor="middle"><textPath startOffset="22.145653131862474" xlink:href="#id60">December</textPath></text></svg>