<?xml version="1.0" encoding="utf-8" ?>
<svg baseProfile="full" height="200mm" version="1.1" viewBox="0,0,200,200" width="200mm" xmlns="http://www.w3.org/2000/svg" xmlns:ev="http://www.w3.org/2001/xml-events" xmlns:xlink="http://www.w3.org/1999/xlink"><defs /><rect fill="#1a1a1a" height="200" width="200" x="0" y="0" /><text alignment-baseline="middle" fill="#e1ed5e" style="dominant-baseline: central; font-size:9.0px; font-family:Arial;" text-anchor="middle" x="100.0" y="100.0">2025</text><line stroke="#e1ed5e" stroke-width="0.3" x1="100.0" x2="100.0" y1="15.0" y2="10.0" /><path d="M 100.0 14.0 a86.0,86.0 0 0,1 42.46469731375804,11.215312516191453" fill="none" id="id109" stroke="none" /><text fill="#e1ed5e" style="font-size:6.75px; font-family:Arial;" text-anchor="middle"><textPath startOffset="22.20632615414155" xlink:href="#id109">January</textPath></text><path d="M 100.0 79.0 l 0.0 -14.287817357847956 a35.287817357847956,35.287817357847956 0 0,0 0.6074217681426821,0.0052282709283002745 l -0.24594128887015376 14.285700463528215" fill="#ff750a" stroke="none" /><path d="M 100.72285384407766 79.0124445844662 l 0.6463378896216078 -18.765968233732305 a39.77709552665189,39.77709552665189 0 0,0 0.6840887004940781,0.029458298462081867 l -0.9692674225050175 18.75206220874603" fill="#ffb710" stroke="none" /><path d="M 101.08401301168833 79.027996857942 l 2.3342080262984837 -45.15906869559197 a66.21935440232679,66.21935440232679 0 0,0 1.1378312461761535,0.06863708805169629 l -3.1112013213142493 45.11219833815997" fill="#35ff62" stroke="none" /><path d="M 101.44485096284872 79.0497635885617 l 0.7743712000538304 -11.228327438942632 a32.25499834880418,32.25499834880418 0 0,0 0.553572278429072,0.04296786294853841 l -0.9675336678452436 11.213334313805628" fill="#ff4706" stroke="none" /><path d="M 102.16513564639614 79.11191278185805 l 4.5981318065534085 -44.36035145219147 a65.59802234485723,65.59802234485723 0 0,0 1.1221425623897983,0.12608579172211354 l -5.361041072452932 44.27462970699876" fill="#34ff5a" stroke="none" /><path d="M 102.88285421437855 79.19881850522331 l 1.9222344911968194 -13.869847572408036 a35.002416117262754,35.002416117262754 0 0,0 0.5960928458798633,0.08784859033679751 l -2.1606963175053386 13.834704497910268" fill="#ff710a" stroke="none" /><path d="M 103.59715602781102 79.31037775812273 l 4.691668533104035 -26.984887195202948 a48.389704097750794,48.389704097750794 0 0,0 0.8194102316927206,0.14974198230345384 l -5.155473885899656 26.900129731548756" fill="#d3ff1c" stroke="none" /><path d="M 103.95276090670814 79.375362276772 l 3.151287767220864 -16.44272701904901 a37.7419797638989,37.7419797638989 0 0,0 0.6370012095970373,0.12777645004891763 l -3.4338553862850265 16.386046612922883" fill="#ff990e" stroke="none" /><path d="M 104.66035177308747 79.52364482259891 l 2.474858677094355 -10.873875568514046 a32.15195477712835,32.15195477712835 0 0,0 0.5385855289736138,0.12746579370751723 l -2.6616678930304927 10.82966386266566" fill="#ff4606" stroke="none" /><path d="M 105.01212808612495 79.60689891045804 l 5.060667353796241 -20.59059528271176 a42.20337162250878,42.20337162250878 0 0,0 0.7039745688994038,0.1794587922600886 l -5.41435081138067 20.500433494282802" fill="#ffd914" stroke="none" /><path d="M 105.36241919743992 79.69619591428918 l 2.7612246090655965 -10.454864014711227 a31.81335021664485,31.81335021664485 0 0,0 0.5282563034004464,0.1443924027168096 l -2.940778801689754 10.405785071168124" fill="#ff4106" stroke="none" /><path d="M 105.71112130821622 79.79150937346287 l 5.970604631133812 -21.126658183471882 a42.954129581073715,42.954129581073715 0 0,0 0.7097858644670518,0.2072059574478723 l -6.33338071332429 21.020753897105305" fill="#ffe315" stroke="none" /><path d="M 106.0581310904928 79.89281104454417 l 18.174393271478365 -60.321566866367476 a84.0,84.0 0 0,0 1.380858509157127,0.4290394604699177 l -19.21003715334621 59.99978727101504" fill="#4dd2ff" stroke="none" /><path d="M 106.74666289553966 80.11325718540242 l 3.6671740605028336 -10.809514055578136 a32.41462919712095,32.41462919712095 0 0,0 0.5268426798377819,0.1838050661682103 l -3.8526987444038894 10.744788136237718" fill="#ff4a06" stroke="none" /><path d="M 107.08798089147638 80.2323363322302 l 7.905713118956452 -22.048236357033247 a44.422745918761166,44.422745918761166 0 0,0 0.717570502540854,0.2642872719123784 l -8.284065947269882 21.908885817314545" fill="#fff717" stroke="none" /><path d="M 107.4271985657038 80.35727306442388 l 7.910516273055114 -20.92095824508613 a43.36655453123943,43.36655453123943 0 0,0 0.6959647120470315,0.2700234958137154 l -8.269464150101813 20.781692045381867" fill="#ffe915" stroke="none" /><path d="M 110.05341064243156 81.56283822128135 l 3.2166090012286985 -5.89900707768089 a27.71899233288108,27.71899233288108 0 0,0 0.4169410453882898,0.2320272403460915 l -3.317674135689024 5.842764439774619" fill="#ff0000" stroke="none" /><path d="M 110.36928655335952 81.73862282372117 l 6.748960184044962 -11.885611110689508 a34.668072835640366,34.668072835640366 0 0,0 0.5163945934342047,0.2991290794817615 l -6.952551509944494 11.767677873817696" fill="#ff6c0a" stroke="none" /><line stroke="#e1ed5e" stroke-width="0.3" x1="143.23703022742887" x2="145.7803849466894" y1="26.81831364943548" y2="22.513508569990506" /><path d="M 143.74570117128098 25.957352633546492 a86.0,86.0 0 0,1 28.547481713284135,27.462654790039103" fill="none" id="id110" stroke="none" /><text fill="#e1ed5e" style="font-size:6.75px; font-family:Arial;" text-anchor="middle"><textPath startOffset="19.985693538727396" xlink:href="#id110">February</textPath></text><path d="M 110.99172775467656 82.1063720568725 l 27.350425172143478 -44.5242406871353 a73.25374403679581,73.25374403679581 0 0,0 1.068740199518989,0.6692450148923765 l -28.11278452403473 44.04685133091998" fill="#3effb8" stroke="none" /><path d="M 111.2981086023043 82.29822771554956 l 5.650099452505146 -8.852523675719086 a31.501942641833743,31.501942641833743 0 0,0 0.4545774939203757,0.2956698469414415 l -5.801643972209803 8.753954904618116" fill="#ff3c05" stroke="none" /><path d="M 111.60114157652 82.49532879139004 l 5.787346392491552 -8.73238164560769 a31.476061639339044,31.476061639339044 0 0,0 0.4490514431293479,0.30320153892338486 l -5.936802530027441 8.631468194385635" fill="#ff3b05" stroke="none" /><path d="M 112.19680574252982 82.90503203632743 l 14.71702259994753 -20.627288421055475 a46.3392143093028,46.3392143093028 0 0,0 0.6453390600591018,0.4688662721159404 l -15.06990697636042 20.37090291412286" fill="#eeff19" stroke="none" /><path d="M 112.48926042617603 83.11751280151076 l 9.737350110155814 -13.162563912701325 a37.37281514962221,37.37281514962221 0 0,0 0.513883053301447,0.3870460618336845 l -9.962479317215644 12.993001261361794" fill="#ff940d" stroke="none" /><path d="M 112.77801427241765 83.33499621200491 l 9.729119251046871 -12.688654568381182 a36.98930005212209,36.98930005212209 0 0,0 0.5019403010616372,0.391772366623737 l -9.946092107267939 12.51930381253422" fill="#ff8f0d" stroke="none" /><path d="M 113.06298171725822 83.55741782278167 l 16.19969971239941 -20.39081884463469 a47.04257598484879,47.04257598484879 0 0,0 0.629690868195842,0.5091662233497625 l -16.548293979159745 20.108946524020798" fill="#e4ff1a" stroke="none" /><path d="M 113.6212207817346 84.01681056812373 l 17.871101497921032 -20.970014742040238 a48.55209224415417,48.55209224415417 0 0,0 0.6314227371691832,0.5475635755301419 l -18.22941803373698 20.659286173090425" fill="#d1ff1d" stroke="none" /><path d="M 113.89432698308785 84.25364557470407 l 16.305544130362996 -18.478971834081552 a45.6443334142353,45.6443334142353 0 0,0 0.5846582936635478,0.5249119887429763 l -16.621213411622534 18.19556083656928" fill="#f7ff19" stroke="none" /><path d="M 114.16331599549186 84.49514656593476 l 7.087603217185971 -7.758935062682788 a31.50881499842838,31.50881499842838 0 0,0 0.3972993239309772,0.3692464223493242 l -7.2201104249117956 7.635784054258823" fill="#ff3c05" stroke="none" /><path d="M 114.42810811169701 84.74124197986012 l 10.073349129823686 -10.65328840305505 a35.661681912044976,35.661681912044976 0 0,0 0.4424031285262691,0.4255914591267316 l -10.255235501962375 10.478313857166016" fill="#ff7b0b" stroke="none" /><path d="M 114.68862486808459 84.99185889309783 l 13.131677269487481 -13.417325801476998 a39.774066676481006,39.774066676481006 0 0,0 0.4851758078224913,0.48309230871533754 l -13.360688877477294 13.189297642111542" fill="#ffb710" stroke="none" /><path d="M 114.94478906791727 85.2469230424477 l 18.12761712646273 -17.895075621901594 a46.4724210509563,46.4724210509563 0 0,0 0.5570842443219818,0.5741242828613642 l -18.43296563448782 17.580387143490114" fill="#ecff1a" stroke="none" /><path d="M 115.68641384162765 86.03803664274999 l 7.355637580811543 -6.547012173041433 a30.847272343862528,30.847272343862528 0 0,0 0.34961437163187153,0.399669663730287 l -7.467243816021263 6.419426953108198" fill="#ff3204" stroke="none" /><path d="M 115.9244219780498 86.31012108654704 l 17.898841722691333 -15.387244586488423 a44.60372493862724,44.60372493862724 0 0,0 0.4955036012915104,0.5865199740479495 l -18.16105593746996 15.076865662811366" fill="#fff917" stroke="none" /><path d="M 116.15771136456269 86.58626213691792 l 25.282308799465696 -20.98875609037744 a53.85913907047622,53.85913907047622 0 0,0 0.5860425949081056,0.7184189269009155 l -25.63984988645021 20.550452993868422" fill="#8fff24" stroke="none" /><path d="M 116.38621287248628 86.86637796730983 l 29.425330869060126 -23.584532730560607 a58.71047972212164,58.71047972212164 0 0,0 0.6252552007725393,0.7940106093213548 l -29.82694015042663 23.07452972728621" fill="#57ff2a" stroke="none" /><path d="M 116.82858285166822 87.43820079747576 l 11.145145518234576 -8.319362439309458 a34.90776977157795,34.90776977157795 0 0,0 0.35529026256918456,0.4846155188611398 l -11.286698393317387 8.126284476776824" fill="#ff700a" stroke="none" /><path d="M 117.04232023915458 87.72973835380427 l 20.787561549882916 -14.966789476085726 a46.61498589520676,46.61498589520676 0 0,0 0.4632361563976023,0.6552146916034418 l -21.0421103260844 14.606748284150491" fill="#eaff1a" stroke="none" /><line stroke="#e1ed5e" stroke-width="0.3" x1="172.23445277983987" x2="176.4835382374775" y1="55.19839476539836" y2="52.563006222186495" /><path d="M 173.08426987136738 54.67131705675599 a86.0,86.0 0 0,1 12.851231095245387,41.99856678651699" fill="none" id="id111" stroke="none" /><text fill="#e1ed5e" style="font-size:6.75px; font-family:Arial;" text-anchor="middle"><textPath startOffset="22.20632615414155" xlink:href="#id111">March</textPath></text><line stroke="#e1ed5e" stroke-width="0.3" x1="184.98032266829074" x2="189.97916517819016" y1="98.17113171792111" y2="98.06355123074" /><path d="M 185.9800911702706 98.14961562048488 a86.0,86.0 0 0,1 -9.607161424134198,41.387399972396054" fill="none" id="id112" stroke="none" /><text fill="#e1ed5e" style="font-size:6.75px; font-family:Arial;" text-anchor="middle"><textPath startOffset="21.466115282336823" xlink:href="#id112">April</textPath></text><line stroke="#e1ed5e" stroke-width="0.3" x1="174.80103733775053" x2="179.2010983576182" y1="140.37084112569926" y2="142.7455964860345" /><path d="M 175.68104954172406 140.8457921977663 a86.0,86.0 0 0,1 -30.038265399797805,32.042727171017184" fill="none" id="id113" stroke="none" /><text fill="#e1ed5e" style="font-size:6.75px; font-family:Arial;" text-anchor="middle"><textPath startOffset="22.206326154141568" xlink:href="#id113">May</textPath></text><line stroke="#e1ed5e" stroke-width="0.3" x1="143.8653032363475" x2="146.44561519142675" y1="172.8068346515853" y2="177.08958963109032" /><path d="M 144.38136562736335 173.6633856474863 a86.0,86.0 0 0,1 -40.68145358897372,12.25698825130547" fill="none" id="id114" stroke="none" /><text fill="#e1ed5e" style="font-size:6.75px; font-family:Arial;" text-anchor="middle"><textPath startOffset="21.466115282336833" xlink:href="#id114">June</textPath></text><line stroke="#e1ed5e" stroke-width="0.3" x1="102.19456741930631" x2="102.32365962044197" y1="184.97166512339345" y2="189.96999836594603" /><path d="M 102.22038585953345 185.97133177190398 a86.0,86.0 0 0,1 -42.740103519485714,-10.115201625700543" fill="none" id="id115" stroke="none" /><text fill="#e1ed5e" style="font-size:6.75px; font-family:Arial;" text-anchor="middle"><textPath startOffset="22.20632615414155" xlink:href="#id115">July</textPath></text><line stroke="#e1ed5e" stroke-width="0.3" x1="58.666819895761336" x2="56.23545636021788" y1="174.27360380694188" y2="178.64263932499728" /><path d="M 58.180547188652646 175.14741091055294 a86.0,86.0 0 0,1 -31.652253787137756,-30.449443065178592" fill="none" id="id116" stroke="none" /><text fill="#e1ed5e" style="font-size:6.75px; font-family:Arial;" text-anchor="middle"><textPath startOffset="22.20632615414155" xlink:href="#id116">August</textPath></text><line stroke="#e1ed5e" stroke-width="0.3" x1="26.63291911575756" x2="22.317208475507996" y1="142.92168965132927" y2="145.44649492493687" /><path d="M 25.769776987707644 143.4266507060508 a86.0,86.0 0 0,1 -11.730757126820373,-40.83630448921669" fill="none" id="id117" stroke="none" /><text fill="#e1ed5e" style="font-size:6.75px; font-family:Arial;" text-anchor="middle"><textPath startOffset="21.46611528233685" xlink:href="#id117">September</textPath></text><line stroke="#e1ed5e" stroke-width="0.3" x1="15.007084014347285" x2="10.007500721073583" y1="101.09737516637583" y2="101.16192664675087" /><path d="M 14.007167355692545 101.11028546245083 a86.0,86.0 0 0,1 10.666146001902534,-42.60595125391555" fill="none" id="id118" stroke="none" /><text fill="#e1ed5e" style="font-size:6.75px; font-family:Arial;" text-anchor="middle"><textPath startOffset="22.20632615414155" xlink:href="#id118">October</textPath></text><line stroke="#e1ed5e" stroke-width="0.3" x1="26.266209847984243" x2="21.928928074336255" y1="57.711370442889674" y2="55.22380399835377" /><path d="M 25.398753493254645 57.213857153982495 a86.0,86.0 0 0,1 29.58750427330803,-30.492523968695096" fill="none" id="id119" stroke="none" /><text fill="#e1ed5e" style="font-size:6.75px; font-family:Arial;" text-anchor="middle"><textPath startOffset="21.46611528233685" xlink:href="#id119">November</textPath></text><line stroke="#e1ed5e" stroke-width="0.3" x1="56.762969772571076" x2="54.21961505331055" y1="26.818313649435495" y2="22.513508569990535" /><path d="M 56.25429882871897 25.957352633546506 a86.0,86.0 0 0,1 42.265352541879196,-11.944610805530505" fill="none" id="id120" stroke="none" /><text fill="#e1ed5e" style="font-size:6.75px; font-family:Arial;" text-anchor="middle"><textPath startOffset="22.20632615414155" xlink:href="#id120">December</textPath></text></svg>