<?xml version="1.0" encoding="utf-8" ?>
<svg baseProfile="full" height="200mm" version="1.1" viewBox="0,0,200,200" width="200mm" xmlns="http://www.w3.org/2000/svg" xmlns:ev="http://www.w3.org/2001/xml-events" xmlns:xlink="http://www.w3.org/1999/xlink"><defs /><rect fill="#1a1a1a" height="200" width="200" x="0" y="0" /><text alignment-baseline="middle" fill="#e1ed5e" style="dominant-baseline: central; font-size:9.0px; font-family:Arial;" text-anchor="middle" x="100.0" y="100.0">2021</text><line stroke="#e1ed5e" stroke-width="0.3" x1="100.0" x2="100.0" y1="15.0" y2="10.0" /><path d="M 100.0 14.0 a86.0,86.0 0 0,1 42.46469731375804,11.215312516191453" fill="none" id="id61" stroke="none" /><text fill="#e1ed5e" style="font-size:6.75px; font-family:Arial;" text-anchor="middle"><textPath startOffset="22.20632615414155" xlink:href="#id61">January</textPath></text><line stroke="#e1ed5e" stroke-width="0.3" x1="143.23703022742887" x2="145.7803849466894" y1="26.81831364943548" y2="22.513508569990506" /><path d="M 143.74570117128098 25.957352633546492 a86.0,86.0 0 0,1 28.547481713284135,27.462654790039103" fill="none" id="id62" stroke="none" /><text fill="#e1ed5e" style="font-size:6.75px; font-family:Arial;" text-anchor="middle"><textPath startOffset="19.985693538727396" xlink:href="#id62">February</textPath></text><line stroke="#e1ed5e" stroke-width="0.3" x1="172.23445277983987" x2="176.4835382374775" y1="55.19839476539836" y2="52.563006222186495" /><path d="M 173.08426987136738 54.67131705675599 a86.0,86.0 0 0,1 12.851231095245387,41.99856678651699" fill="none" id="id63" stroke="none" /><text fill="#e1ed5e" style="font-size:6.75px; font-family:Arial;" text-anchor="middle"><textPath startOffset="22.20632615414155" xlink:href="#id63">March</textPath></text><path d="M 118.89224826269711 90.83032412892265 l 36.14537574611947 -17.543776432614923 a61.17800740885163,61.17800740885163 0 0,0 0.4516737507538466,0.9513401102552244 l -36.44200769071507 16.91899390671916" fill="#5eff2a" stroke="none" /><path d="M 120.45610955862082 95.25157060432595 l 24.33674800676629 -5.649233022500113 a45.983817508286215,45.983817508286215 0 0,0 0.17234212118933825,0.7725759363978076 l -24.430384514957666 5.229478916552341" fill="#ffc512" stroke="none" /><path d="M 120.53481517161879 95.60439243477599 l 60.367311982388024 -12.922006408354015 a82.73484109962956,82.73484109962956 0 0,0 0.2861077339531405,1.3951629198490814 l -60.580799012256165 11.880967832341522" fill="#4be0ff" stroke="none" /><line stroke="#e1ed5e" stroke-width="0.3" x1="184.98032266829074" x2="189.97916517819016" y1="98.17113171792111" y2="98.06355123074" /><path d="M 185.9800911702706 98.14961562048488 a86.0,86.0 0 0,1 -9.607161424134198,41.387399972396054" fill="none" id="id64" stroke="none" /><text fill="#e1ed5e" style="font-size:6.75px; font-family:Arial;" text-anchor="middle"><textPath startOffset="21.466115282336823" xlink:href="#id64">April</textPath></text><line stroke="#e1ed5e" stroke-width="0.3" x1="174.80103733775053" x2="179.2010983576182" y1="140.37084112569926" y2="142.7455964860345" /><path d="M 175.68104954172406 140.8457921977663 a86.0,86.0 0 0,1 -30.038265399797805,32.042727171017184" fill="none" id="id65" stroke="none" /><text fill="#e1ed5e" style="font-size:6.75px; font-family:Arial;" text-anchor="middle"><textPath startOffset="22.206326154141568" xlink:href="#id65">May</textPath></text><path d="M 116.93607887273984 112.41649034213515 l 40.822917353028394 29.928849697761112 a71.6186391109378,71.6186391109378 0 0,0 -0.7374630382081204,0.9879522541671013 l -40.30169304812519 -30.627114831437527" fill="#3aff90" stroke="none" /><path d="M 116.71984013943494 112.70617746262583 l 29.69083719827907 22.563436211658416 a58.2914798206278,58.2914798206278 0 0,0 -0.6139846643139715,0.7936579445914644 l -29.29804571674703 -23.071172150363132" fill="#84ff25" stroke="none" /><path d="M 116.498646956653 112.99209946851258 l 29.510350395853898 23.238354557249824 a58.561707935270036,58.561707935270036 0 0,0 -0.6304644382685561,0.7866013250790186 l -29.10596804553049 -23.742883715907094" fill="#80ff25" stroke="none" /><path d="M 116.27256486870786 113.27417163493432 l 47.875415065081214 39.053860396014606 a82.78397348410996,82.78397348410996 0 0,0 -0.91024526772323,1.0964490626665382 l -47.196073797464436 -39.872170715794915" fill="#4be0ff" stroke="none" /><path d="M 115.56566222782051 114.09645910891815 l 46.69698668346154 42.289377326754476 a84.0,84.0 0 0,0 -0.9798143680171028,1.0633949807946608 l -45.96212590744871 -43.08692356235047" fill="#4dd2ff" stroke="none" /><path d="M 115.32070863581623 114.36230785411682 l 9.830464441503459 9.215510849658504 a34.47455644375122,34.47455644375122 0 0,0 -0.409579808420573,0.4294427916504757 l -9.670378081703921 -9.383360757891486" fill="#ff0000" stroke="none" /><path d="M 115.07121518719521 114.62390073753431 l 26.869017678243893 26.07154383778783 a58.43887697406902,58.43887697406902 0 0,0 -0.7067190794662391,0.7159026963177955 l -26.416257973722118 -26.53018702808629" fill="#82ff25" stroke="none" /><path d="M 114.81725581225074 114.88116024355365 l 26.338257211988687 26.451849861664776 a58.32832910898811,58.32832910898811 0 0,0 -0.7175774572927346,0.7023005719955233 l -25.879029802320158 -26.901300536582873" fill="#84ff25" stroke="none" /><path d="M 114.55890576462653 115.13401014063108 l 25.708717003357865 26.72426005921148 a58.08266718658608,58.08266718658608 0 0,0 -0.7264873958533833,0.6869391778362952 l -25.244893773113674 -27.162833873793698" fill="#87ff25" stroke="none" /><path d="M 114.29624159901734 115.38237550388516 l 25.403771872381366 27.333782480485343 a58.31604601286801,58.31604601286801 0 0,0 -0.741170426387884,0.677041611524137 l -24.92950189652662 -27.767016858596065" fill="#84ff25" stroke="none" /><path d="M 113.75828350139079 115.86535959552629 l 25.051395909434312 28.888008044963925 a59.237278221875606,59.237278221875606 0 0,0 -0.7761057291642192,0.6614141396479636 l -24.550424703693047 -29.314946574834835" fill="#77ff26" stroke="none" /><path d="M 113.48314897796784 116.09983520530334 l 24.440014827094362 29.183109359271814 a59.065314876194186,59.065314876194186 0 0,0 -0.7850901785171155,0.646075768252358 l -23.934054520032554 -29.59948024638135" fill="#7aff26" stroke="none" /><path d="M 113.20401910651253 116.32954008644616 l 39.21045330693943 48.49195263339081 a83.36127900175472,83.36127900175472 0 0,0 -1.1235612104259567,0.8926249777452983 l -38.36993460379612 -49.15971152514123" fill="#4cd9ff" stroke="none" /><path d="M 112.92097659922987 116.55440617244103 l 38.10541860790625 48.82081258809575 a82.93137063755118,82.93137063755118 0 0,0 -1.1328870353605547,0.8686494699330457 l -37.259402844052204 -49.46950139985617" fill="#4bdeff" stroke="none" /><path d="M 112.63410532772338 116.77436683061366 l 22.472400644340095 29.836722284205194 a58.35289530122831,58.35289530122831 0 0,0 -0.8075346854347089,0.5973948548568555 l -21.95548098848682 -30.21912708780182" fill="#83ff25" stroke="none" /><path d="M 112.34349029814194 116.9893568818739 l 21.991580102246253 30.268813255325338 a58.41431078182882,58.41431078182882 0 0,0 -0.8185588250302133,0.5840199875742881 l -21.467293949367157 -30.642877504743844" fill="#82ff25" stroke="none" /><path d="M 111.7513745106137 117.40417183066458 l 34.66300350381649 51.33704730476203 a82.94365373367128,82.94365373367128 0 0,0 -1.1901438785193619,0.7887624661205053 l -33.77418492655716 -51.926107791973855" fill="#4bdeff" stroke="none" /><path d="M 111.45004920935366 117.60387380957326 l 33.90143250014522 52.121744525673535 a83.1770325599532,83.1770325599532 0 0,0 -1.2069312129882253,0.770320604103007 l -32.99921948511006 -52.697579558600346" fill="#4cdbff" stroke="none" /><line stroke="#e1ed5e" stroke-width="0.3" x1="143.8653032363475" x2="146.44561519142675" y1="172.8068346515853" y2="177.08958963109032" /><path d="M 144.38136562736335 173.6633856474863 a86.0,86.0 0 0,1 -40.68145358897372,12.25698825130547" fill="none" id="id66" stroke="none" /><text fill="#e1ed5e" style="font-size:6.75px; font-family:Arial;" text-anchor="middle"><textPath startOffset="21.466115282336833" xlink:href="#id66">June</textPath></text><path d="M 110.5260780823613 118.17145234162733 l 18.89522341670899 32.619333536627565 a58.69682199259115,58.69682199259115 0 0,0 -0.878638970056094,0.498914138266369 l -18.3309356797317 -32.93975084068856" fill="#7fff26" stroke="none" /><path d="M 110.21172684928248 118.3499491758327 l 18.18758525408375 32.68215748123059 a58.40202768570872,58.40202768570872 0 0,0 -0.8826414918123568,0.48128651653317095 l -17.62232095040274 -32.990384649523534" fill="#83ff25" stroke="none" /><path d="M 109.2508944713604 118.85261126421891 l 16.43841922635575 33.50023378087174 a58.31604601286801,58.31604601286801 0 0,0 -0.9049743165671057,0.43444266715086105 l -15.859332241788413 -33.77823072452216" fill="#84ff25" stroke="none" /><path d="M 108.59647513512805 119.15986991738527 l 15.315771063521174 34.13587274421264 a58.41431078182882,58.41431078182882 0 0,0 -0.9209414573323897,0.40371367091987076 l -14.72590893153103 -34.394450968426966" fill="#82ff25" stroke="none" /><path d="M 106.2309692047433 120.05430185196036 l 11.050281904142155 35.565203674289606 a58.2423474361474,58.2423474361474 0 0,0 -0.9599587616665047,0.28922770022832006 l -10.436448168035403 -35.75014674362365" fill="#85ff25" stroke="none" /><path d="M 105.53697534728816 120.25689768951611 l 16.40041518346689 60.000543907024515 a83.2015987521934,83.2015987521934 0 0,0 -1.3847501874883137,0.3657251103142659 l -15.36517455316708 -60.27396036664236" fill="#4cdbff" stroke="none" /><path d="M 104.83641907484287 120.43548508189849 l 8.565808320505477 36.193399587437305 a58.19321505166699,58.19321505166699 0 0,0 -0.9767588451314586,0.2223071330981422 l -7.941529325981156 -36.33548345411313" fill="#85ff25" stroke="none" /><path d="M 104.48393922423573 120.51570834832081 l 6.685257018469606 30.58756516662298 a52.30961201013843,52.30961201013843 0 0,0 -0.8813136846906349,0.1846878514793741 l -6.157751872349594 -30.698108998828896" fill="#d8ff1c" stroke="none" /><line stroke="#e1ed5e" stroke-width="0.3" x1="102.19456741930631" x2="102.32365962044197" y1="184.97166512339345" y2="189.96999836594603" /><path d="M 102.22038585953345 185.97133177190398 a86.0,86.0 0 0,1 -42.740103519485714,-10.115201625700543" fill="none" id="id67" stroke="none" /><text fill="#e1ed5e" style="font-size:6.75px; font-family:Arial;" text-anchor="middle"><textPath startOffset="22.20632615414155" xlink:href="#id67">July</textPath></text><line stroke="#e1ed5e" stroke-width="0.3" x1="58.666819895761336" x2="56.23545636021788" y1="174.27360380694188" y2="178.64263932499728" /><path d="M 58.180547188652646 175.14741091055294 a86.0,86.0 0 0,1 -31.652253787137756,-30.449443065178592" fill="none" id="id68" stroke="none" /><text fill="#e1ed5e" style="font-size:6.75px; font-family:Arial;" text-anchor="middle"><textPath startOffset="22.20632615414155" xlink:href="#id68">August</textPath></text><line stroke="#e1ed5e" stroke-width="0.3" x1="26.63291911575756" x2="22.317208475507996" y1="142.92168965132927" y2="145.44649492493687" /><path d="M 25.769776987707644 143.4266507060508 a86.0,86.0 0 0,1 -11.730757126820373,-40.83630448921669" fill="none" id="id69" stroke="none" /><text fill="#e1ed5e" style="font-size:6.75px; font-family:Arial;" text-anchor="middle"><textPath startOffset="21.46611528233685" xlink:href="#id69">September</textPath></text><line stroke="#e1ed5e" stroke-width="0.3" x1="15.007084014347285" x2="10.007500721073583" y1="101.09737516637583" y2="101.16192664675087" /><path d="M 14.007167355692545 101.11028546245083 a86.0,86.0 0 0,1 10.666146001902534,-42.60595125391555" fill="none" id="id70" stroke="none" /><text fill="#e1ed5e" style="font-size:6.75px; font-family:Arial;" text-anchor="middle"><textPath startOffset="22.20632615414155" xlink:href="#id70">October</textPath></text><line stroke="#e1ed5e" stroke-width="0.3" x1="26.266209847984243" x2="21.928928074336255" y1="57.711370442889674" y2="55.22380399835377" /><path d="M 25.398753493254645 57.213857153982495 a86.0,86.0 0 0,1 29.58750427330803,-30.492523968695096" fill="none" id="id71" stroke="none" /><text fill="#e1ed5e" style="font-size:6.75px; font-family:Arial;" text-anchor="middle"><textPath startOffset="21.46611528233685" xlink:href="#id71">November</textPath></text><path d="M 84.5562425177563 85.77008943001954 l -30.008283694295326 -27.649695601564687 a61.804445310976796,61.804445310976796 0 0,0 0.7276227870649118,-0.77617725720917 l 29.527893585259957 28.162142275651906" fill="#56ff2a" stroke="none" /><line stroke="#e1ed5e" stroke-width="0.3" x1="56.76296977257108" x2="54.21961505331056" y1="26.818313649435495" y2="22.513508569990535" /><path d="M 56.25429882871898 25.957352633546506 a86.0,86.0 0 0,1 42.26535254187918,-11.944610805530505" fill="none" id="id72" stroke="none" /><text fill="#e1ed5e" style="font-size:6.75px; font-family:Arial;" text-anchor="middle"><textPath startOffset="22.20632615414155" xlink:href="#id72">December</textPath></text></svg>