<?xml version="1.0" encoding="utf-8" ?>
<svg baseProfile="full" height="200mm" version="1.1" viewBox="0,0,200,200" width="200mm" xmlns="http://www.w3.org/2000/svg" xmlns:ev="http://www.w3.org/2001/xml-events" xmlns:xlink="http://www.w3.org/1999/xlink"><defs /><rect fill="#1a1a1a" height="200" width="200" x="0" y="0" /><text alignment-baseline="middle" fill="#e1ed5e" style="dominant-baseline: central; font-size:9.0px; font-family:Arial;" text-anchor="middle" x="100.0" y="100.0">2016</text><line stroke="#e1ed5e" stroke-width="0.3" x1="100.0" x2="100.0" y1="15.0" y2="10.0" /><path d="M 100.0 14.0 a86.0,86.0 0 0,1 42.35913384403234,11.155469271406648" fill="none" id="id1" stroke="none" /><text fill="#e1ed5e" style="font-size:6.75px; font-family:Arial;" text-anchor="middle"><textPath startOffset="22.145653131862478" xlink:href="#id1">January</textPath></text><path d="M 107.06938296918511 80.22567764915836 l 6.844247291495865 -19.144577791421405 a41.331221797986814,41.331221797986814 0 0,0 0.6660444681822977,0.24458075439371565 l -7.171880911332287 19.024266188018967" fill="#ffd814" stroke="none" /><path d="M 107.40779381753099 80.34994680014964 l 7.6134944441892625 -20.195698550766032 a42.5831308573412,42.5831308573412 0 0,0 0.6817918925764741,0.2637317506065882 l -7.959058599259262 20.062026912021405" fill="#ffe915" stroke="none" /><path d="M 107.74402155503746 80.48000691201159 l 8.075984992054865 -20.35675780383935 a42.90020826102048,42.90020826102048 0 0,0 0.6822063410842302,0.2774473798689925 l -8.424245794329535 20.215123167391063" fill="#ffed16" stroke="none" /><path d="M 109.71004243097381 81.37971332152246 l 5.381641878395501 -10.320007897903166 a32.638927455744536,32.638927455744536 0 0,0 0.49457484557852593,0.263333248231603 l -5.558005539760587 10.22610418194899" fill="#ff5c08" stroke="none" /><line stroke="#e1ed5e" stroke-width="0.3" x1="143.13028292997686" x2="145.6673583964461" y1="26.7553504044142" y2="22.446841604673864" /><path d="M 143.63769802327073 25.89364864446614 a86.0,86.0 0 0,1 29.32050498858742,28.57503671076993" fill="none" id="id2" stroke="none" /><text fill="#e1ed5e" style="font-size:6.75px; font-family:Arial;" text-anchor="middle"><textPath startOffset="20.669276256404974" xlink:href="#id2">February</textPath></text><path d="M 110.96478420261332 82.08984904055464 l 5.70027960411805 -9.310978340683539 a31.917303019784796,31.917303019784796 0 0,0 0.46483124646374385,0.29008907656372207 l -5.859274979371506 9.211753467278271" fill="#ff5207" stroke="none" /><path d="M 112.45986205192187 83.09580414077388 l 12.26740670262978 -16.64309321579135 a41.67563346060396,41.67563346060396 0 0,0 0.5722402068388385,0.4294197194092312 l -12.551299898379385 16.430054469118105" fill="#ffdd14" stroke="none" /><path d="M 112.7482090630111 83.31218511350987 l 9.879751400707406 -12.932911727806603 a37.274817771607076,37.274817771607076 0 0,0 0.5051448787301676,0.392803713042062 l -10.1003062240728 12.761406963143749" fill="#ffa00e" stroke="none" /><path d="M 114.39649973595853 84.71141617570332 l 19.807055129609722 -21.034406155347433 a49.892311697327315,49.892311697327315 0 0,0 0.6184924513618205,0.5925017775393544 l -20.165220066836852 20.6912922475025" fill="#b8ff1f" stroke="none" /><path d="M 114.91283532996326 85.21462403516908 l 21.60834123045178 -21.423655663029038 a51.42849704963554,51.42849704963554 0 0,0 0.6161946978411826,0.6322700437750941 l -21.972922729443777 21.0495629271862" fill="#a5ff21" stroke="none" /><path d="M 115.16444852881244 85.47280134310134 l 8.057264694716984 -7.7186773148377705 a32.15784449843804,32.15784449843804 0 0,0 0.37845826987645087,0.4019095675424765 l -8.188578798329695 7.579226287350799" fill="#ff5507" stroke="none" /><path d="M 115.41159269507618 85.73525988315684 l 15.51858049580562 -14.363766427963203 a42.1457827143353,42.1457827143353 0 0,0 0.48688875172935236,0.5351760285059153 l -15.76286694837685 14.095252823899617" fill="#ffe315" stroke="none" /><path d="M 115.6541949942343 86.00192230759917 l 5.701202394203521 -5.098050336255318 a28.64812565081569,28.64812565081569 0 0,0 0.32466366396277363,0.36940765190286246 l -5.787877122124884 4.9994304065411574" fill="#ff2003" stroke="none" /><path d="M 116.35404254752997 86.82634096563983 l 21.58495202602663 -17.387309433583674 a48.71693856299896,48.71693856299896 0 0,0 0.5190292644245534,0.655776520252082 l -21.880247721092744 17.014212969416914" fill="#c6ff1e" stroke="none" /><path d="M 116.57777611688842 87.10902102172516 l 17.262522856877904 -13.423442184944308 a42.86740715029504,42.86740715029504 0 0,0 0.4467355852757105,0.5847912215308481 l -17.49041041950792 13.12513005017258" fill="#ffed16" stroke="none" /><path d="M 116.7966241395341 87.39550010848427 l 17.123111800698254 -12.849502319118955 a42.40819160013884,42.40819160013884 0 0,0 0.4319536445891364,0.5860280779846183 l -17.341167464871216 12.553667931865462" fill="#ffe715" stroke="none" /><path d="M 117.21940702142032 87.97951657250589 l 18.46857608336994 -12.892500448093303 a43.52342936480389,43.52342936480389 0 0,0 0.42240579016858537,0.6163026716059491 l -18.687171610353847 12.573563041417305" fill="#fff517" stroke="none" /><path d="M 117.42321728460499 88.27688183743584 l 26.611076659695634 -17.905119991261 a53.07401943769524,53.07401943769524 0 0,0 0.5021195519293563,0.7602729992515546 l -26.914520650545715 17.44566711367039" fill="#91ff24" stroke="none" /><line stroke="#e1ed5e" stroke-width="0.3" x1="172.87174338648825" x2="177.1583165268699" y1="56.24261187166439" y2="53.66864786411523" /><path d="M 173.72905801456457 55.72781907015455 a86.0,86.0 0 0,1 12.242430191666344,42.057860355516425" fill="none" id="id3" stroke="none" /><text fill="#e1ed5e" style="font-size:6.75px; font-family:Arial;" text-anchor="middle"><textPath startOffset="22.145653131862474" xlink:href="#id3">March</textPath></text><path d="M 118.70294669586156 90.45014215332178 l 14.840311054057443 -7.577568565604447 a37.662964248524816,37.662964248524816 0 0,0 0.2890723736324037,0.5783383891710869 l -14.968203340901583 7.3216983202696095" fill="#ffa50f" stroke="none" /><path d="M 118.8641267826498 90.77261029715802 l 25.035400469788804 -12.246068909689788 a48.87001041305102,48.87001041305102 0 0,0 0.36215177542789656,0.7567579242986856 l -25.241931503176612 11.814498483325998" fill="#c4ff1e" stroke="none" /><path d="M 119.0197475246899 91.09779779509293 l 19.61225788232299 -9.179526969881188 a42.654199930579665,42.654199930579665 0 0,0 0.304704410893597,0.6658341281934127 l -19.766946758071636 8.841503859473091" fill="#ffea16" stroke="none" /><path d="M 119.16976305983485 91.42560881287824 l 25.45100440953429 -11.383910548677795 a48.88094411662617,48.88094411662617 0 0,0 0.3360358164506064,0.7689157098518411 l -25.642674108001867 10.945332769050104" fill="#c4ff1e" stroke="none" /><path d="M 119.83427380445688 93.10060997987247 l 51.9178123317808 -18.059710166361235 a75.96919472405415,75.96919472405415 0 0,0 0.4178833096207633,1.2353977518957546 l -52.220181062973936 17.16581073999132" fill="#42ffd9" stroke="none" /><path d="M 120.16314734710363 94.1308016681162 l 19.206080217733135 -5.590610038969843 a41.00321069073239,41.00321069073239 0 0,0 0.19092170338683007,0.6775137716294951 l -19.299220413194547 5.260088343437335" fill="#ffd413" stroke="none" /><path d="M 120.43855184770803 95.1765574152323 l 21.144430330473377 -4.990027984692866 a42.72526900381812,42.72526900381812 0 0,0 0.1623339239776947,0.7152732216648378 l -21.226975116008738 4.626320429089002" fill="#ffeb16" stroke="none" /><path d="M 120.51834098615036 95.52812308129327 l 10.923292428846969 -2.380680744209111 a32.179711905588334,32.179711905588334 0 0,0 0.11300026766335529,0.5407471873265396 l -10.96255040733469 2.192817105597167" fill="#ff5607" stroke="none" /><path d="M 120.7213421655516 96.59031103205396 l 54.09953329876355 -8.902057617024697 a75.82705657757722,75.82705657757722 0 0,0 0.20032247402244419,1.2862139848707739 l -54.24437726492426 7.972055450222482" fill="#42ffd7" stroke="none" /><path d="M 120.77682067341334 96.94652285012252 l 11.174482344135363 -1.6422640901545171 a32.29451579312739,32.29451579312739 0 0,0 0.07590054474214886,0.5491785319401321 l -11.201027405432725 1.4501972500142994" fill="#ff5708" stroke="none" /><path d="M 120.82617615685814 97.30363454192243 l 22.505065227469135 -2.913731260798333 a43.692901770218675,43.692901770218675 0 0,0 0.08991981237001428,0.7446650389107365 l -22.551767126098813 2.5269725449641833" fill="#fff817" stroke="none" /><path d="M 120.86939407059847 97.66154086499901 l 28.67459091581535 -3.2130477215902093 a49.8540437348143,49.8540437348143 0 0,0 0.08799857744590243,0.8513064109149221 l -28.725521885742918 2.720336788392356" fill="#b8ff1f" stroke="none" /><path d="M 120.9064616781168 98.02013634271609 l 17.6935717412941 -1.6755996398377324 a38.772735161402295,38.772735161402295 0 0,0 0.05706308485423196,0.6631595431263485 l -17.719728448846073 1.3716190493357219" fill="#ffb510" stroke="none" /><path d="M 120.93736805541906 98.37931529534042 l 17.8123877486401 -1.3787914651581477 a38.865671641791046,38.865671641791046 0 0,0 0.04578013157510158,0.6656330657442174 l -17.833431841380264 1.0728149752595961" fill="#ffb610" stroke="none" /><path d="M 120.96210409425399 98.7389718711861 l 54.8099722811577 -3.297231827266641 a75.90905935439083,75.90905935439083 0 0,0 0.06708340416496085,1.3014001193247924 l -54.85849727477923 2.355859914565118" fill="#42ffd8" stroke="none" /><path d="M 120.98066250479742 99.09900007780936 l 17.36311856197961 -0.7456470199524603 a38.37912183269698,38.37912183269698 0 0,0 0.0226168402602726,0.6584646270405302 l -17.37336008923673 0.4474761283478101" fill="#ffaf10" stroke="none" /><line stroke="#e1ed5e" stroke-width="0.3" x1="184.99686870605535" x2="189.99668451229388" y1="99.2704041080226" y2="99.22748670261217" /><path d="M 185.99683186730306 99.26182062694052 a86.0,86.0 0 0,1 -10.086455211305974,41.156179273409016" fill="none" id="id4" stroke="none" /><text fill="#e1ed5e" style="font-size:6.75px; font-family:Arial;" text-anchor="middle"><textPath startOffset="21.40746469413373" xlink:href="#id4">April</textPath></text><path d="M 120.99922638620191 100.18025310272382 l 16.7826167144151 0.14405858001444238 a37.78323498785144,37.78323498785144 0 0,0 -0.011134482578376452,0.6485277893350644 l -16.777670800238056 -0.4321332853185778" fill="#ffa70f" stroke="none" /><path d="M 120.99303781780057 100.54070618675476 l 17.176618672686708 0.44240876734732565 a38.182315168344324,38.182315168344324 0 0,0 -0.022500861971111584,0.655088045694914 l -17.16649312371875 -0.7372030776063503" fill="#ffad10" stroke="none" /><path d="M 120.86939407059847 102.33845913500097 l 17.575275030818997 1.969346225718893 a38.68526553280111,38.68526553280111 0 0,0 -0.07961411756279071,0.6593191020993543 l -17.538878826996545 -2.270759004741656" fill="#ffb410" stroke="none" /><path d="M 120.82617615685814 102.69636545807757 l 27.98630371096017 3.6233873207036864 a49.21988892745574,49.21988892745574 0 0,0 -0.11567959110063973,0.8369998954803629 l -27.91997960330432 -4.103275524384134" fill="#c0ff1e" stroke="none" /><path d="M 120.77682067341334 103.0534771498775 l 27.892935841580854 4.099301022713867 a49.19255466851787,49.19255466851787 0 0,0 -0.12995854909124158,0.8344271111385362 l -27.818455800351344 -4.577516315783853" fill="#c0ff1e" stroke="none" /><path d="M 120.7213421655516 103.40968896794604 l 54.304517072355445 8.93578761896375 a76.03479694550504,76.03479694550504 0 0,0 -0.22298175461094438,1.286099505500561 l -54.143120500252266 -9.8666801573849" fill="#42ffda" stroke="none" /><path d="M 120.35273937422433 105.17358676015961 l 61.05821812267298 15.520760280478825 a84.0,84.0 0 0,0 -0.3672420767810789,1.394477982508787 l -60.78278656508717 -16.566618767360417" fill="#4dd2ff" stroke="none" /><path d="M 120.26092885502905 105.52220625578681 l 27.131781854460986 7.39488779410812 a49.12148559527942,49.12148559527942 0 0,0 -0.22872252062110632,0.811655536555927 l -27.0008408417653 -7.859551254567056" fill="#c1ff1e" stroke="none" /><path d="M 120.16314734710363 105.8691983318838 l 26.706897006784963 7.773988488187633 a48.81534189517529,48.81534189517529 0 0,0 -0.2411098524594558,0.8025762821079225 l -26.56951083432188 -8.231302373886278" fill="#c5ff1e" stroke="none" /><path d="M 120.05942366710727 106.21446072829308 l 26.4755149233514 8.202182200393757 a48.71693856299896,48.71693856299896 0 0,0 -0.2543378764674479,0.796709775537535 l -26.3308123311067 -8.655461009622675" fill="#c6ff1e" stroke="none" /><path d="M 119.71291397450082 107.23885506374661 l 25.95145938104409 9.529735349887174 a48.6458694897605,48.6458694897605 0 0,0 -0.29458390277451474,0.7814188007824477 l -25.784044794455134 -9.97382243086378" fill="#c7ff1e" stroke="none" /><path d="M 119.58574465831526 107.57618678355244 l 58.074010324074344 22.464274765184587 a83.26744186046511,83.26744186046511 0 0,0 -0.5271278120529251,1.3287064317462165 l -57.679823837055295 -23.457882214144366" fill="#4cd9ff" stroke="none" /><path d="M 118.70294669586154 109.54985784667822 l 15.366148847311443 7.8460650895825585 a38.25338424158278,38.25338424158278 0 0,0 -0.30364430892727046,0.5822779993709021 l -15.229196469409224 -8.108689332057963" fill="#ffae10" stroke="none" /><line stroke="#e1ed5e" stroke-width="0.3" x1="174.33088141563837" x2="178.70328620479359" y1="141.23008692659167" y2="143.65538615756765" /><path d="M 175.20536237346943 141.71514677278685 a86.0,86.0 0 0,1 -30.301960400862466,31.631185727798858" fill="none" id="id5" stroke="none" /><text fill="#e1ed5e" style="font-size:6.75px; font-family:Arial;" text-anchor="middle"><textPath startOffset="22.145653131862474" xlink:href="#id5">May</textPath></text><path d="M 118.00360718960297 110.81064883170644 l 18.31137451139678 10.995454265570222 a42.358989934050676,42.358989934050676 0 0,0 -0.379681852328542,0.6201817715797181 l -18.119924694612834 -11.308173153274497" fill="#ffe615" stroke="none" /><path d="M 117.423217284605 111.72311816256416 l 41.1798133617482 27.70761622646302 a70.63354737938215,70.63354737938215 0 0,0 -0.6855162800504484,1.0001887394958366 l -40.69810734488244 -28.410439701028903" fill="#3bff9c" stroke="none" /><path d="M 117.21940702142032 112.02048342749411 l 50.14308059916896 35.00376456610964 a82.15220409580007,82.15220409580007 0 0,0 -0.817159764671322,1.149437544731182 l -49.53480573596768 -35.85937933755032" fill="#4be4ff" stroke="none" /><path d="M 117.01052211995028 112.31430620078461 l 22.3097042104242 16.15050537301792 a48.541999305796594,48.541999305796594 0 0,0 -0.4944302674701481,0.6707896159055575 l -22.029171923370225 -16.531101298192358" fill="#c8ff1d" stroke="none" /><path d="M 116.57777611688842 112.89097897827486 l 13.658971210504639 10.621298628837184 a38.302585907670945,38.302585907670945 0 0,0 -0.40807496479911626,0.5155893872663381 l -13.474629815063961 -10.854207960018206" fill="#ffae10" stroke="none" /><path d="M 115.89218393027572 113.72728997021213 l 21.20704655326102 18.318141718320202 a49.02308226310309,49.02308226310309 0 0,0 -0.5555691042507924,0.6321356562235848 l -20.88946638505164 -18.67948965235508" fill="#c2ff1e" stroke="none" /><path d="M 115.41159269507618 114.26474011684316 l 21.031126928390147 19.466097108423767 a49.65723707046165,49.65723707046165 0 0,0 -0.5844045930828633,0.6206174259382552 l -20.693866501571023 -19.82425599430652" fill="#baff1f" stroke="none" /><path d="M 115.16444852881244 114.52719865689866 l 12.11155712072108 11.602597747144678 a37.772301284276296,37.772301284276296 0 0,0 -0.4525718835253445,0.4643786219038477 l -11.91059843604493 -11.808799061116263" fill="#ffa70f" stroke="none" /><path d="M 114.91283532996324 114.78537596483092 l 39.1908380742743 38.85587565905107 a76.18786879555711,76.18786879555711 0 0,0 -0.9287957142733687,0.9208573370661126 l -38.51805043987097 -39.522913006345846" fill="#43ffdb" stroke="none" /><path d="M 114.65682725009322 115.03919595460226 l 19.814188799826642 20.331103243383257 a49.389361332870536,49.389361332870536 0 0,0 -0.6122576028802887,0.5865289337320255 l -19.46225871108104 -20.66824430742086" fill="#beff1f" stroke="none" /><path d="M 113.59037401385872 116.0094264158162 l 36.108128389129334 42.53528444979696 a76.79468934397778,76.79468934397778 0 0,0 -1.0123210004989083,0.8445141830602191 l -35.37263305446853 -43.14886081676905" fill="#43ffe2" stroke="none" /><path d="M 112.7482090630111 116.68781488649013 l 18.292640148034675 23.94565315541485 a51.13328705310656,51.13328705310656 0 0,0 -0.7021014518538612,0.5268700186542643 l -17.878885707270047 -24.25614220133313" fill="#a8ff21" stroke="none" /><path d="M 112.45986205192187 116.90419585922612 l 17.07770922510465 23.169192432877168 a49.78297466157584,49.78297466157584 0 0,0 -0.6922654267262731,0.5011467829624183 l -16.67746278800441 -23.458939987212663" fill="#b9ff1f" stroke="none" /><path d="M 112.16784306229584 117.11559508785304 l 16.19281857023334 22.77722720125947 a48.946546338077056,48.946546338077056 0 0,0 -0.6889923508393655,0.48097017072842957 l -15.799431128220213 -23.051842187793024" fill="#c3ff1e" stroke="none" /><path d="M 111.5731344415666 117.5232005979908 l 15.883434079123337 24.049543618346263 a49.82124262408885,49.82124262408885 0 0,0 -0.7176972244093505,0.4652026698902741 l -15.468251222456976 -24.318660129940433" fill="#b8ff1f" stroke="none" /><line stroke="#e1ed5e" stroke-width="0.3" x1="143.1302829299769" x2="145.66735839644613" y1="173.24464959558577" y2="177.55315839532614" /><path d="M 143.63769802327073 174.10635135553383 a86.0,86.0 0 0,1 -40.68552437913181,11.842963189579606" fill="none" id="id6" stroke="none" /><text fill="#e1ed5e" style="font-size:6.75px; font-family:Arial;" text-anchor="middle"><textPath startOffset="21.407464694133747" xlink:href="#id6">June</textPath></text><path d="M 110.65571695917076 118.09573695890943 l 14.174951491156524 24.07216657237778 a48.93561263450191,48.93561263450191 0 0,0 -0.7275269930646353,0.4200379052885878 l -13.75963203023149 -24.311951374942538" fill="#c3ff1e" stroke="none" /><path d="M 110.34350942703117 118.27599006163325 l 14.128530188380555 24.963759073253133 a49.68457132939952,49.68457132939952 0 0,0 -0.745873803360299,0.4137236255393385 l -13.697912196864163 -25.202615614225614" fill="#baff1f" stroke="none" /><path d="M 110.02825361518725 118.45085714620011 l 13.862381125471451 25.505219918341535 a50.028982992016665,50.028982992016665 0 0,0 -0.758084853470666,0.4036374851739505 l -13.42250745621423 -25.739427871238053" fill="#b6ff1f" stroke="none" /><path d="M 107.407793817531 119.65005319985036 l 19.429067002332033 51.537908535706116 a76.07853175980563,76.07853175980563 0 0,0 -1.2259904987497268,0.45020069287876346 l -18.54148735192818 -51.8638400775936" fill="#42ffda" stroke="none" /><path d="M 106.72888874123015 119.89276391827305 l 9.056322837250914 26.773409265221712 a49.263623741756334,49.263623741756334 0 0,0 -0.8034129044108949,0.26409777948783514 l -8.595387195192284 -26.924927966111568" fill="#bfff1e" stroke="none" /><path d="M 106.38641147887787 120.00534299687104 l 8.488983949449091 26.591621314306703 a48.91374522735161,48.91374522735161 0 0,0 -0.8020907785890193,0.24848977352430163 l -8.031252537988449 -26.73342767563765" fill="#c4ff1e" stroke="none" /><path d="M 106.0420521117495 120.11202640906438 l 8.089450020147785 26.927148166040823 a49.11601874349184,49.11601874349184 0 0,0 -0.8095722914160493,0.2356546951982146 l -7.626017716350129 -27.062046555541556" fill="#c1ff1e" stroke="none" /><path d="M 105.3480935250658 120.30758222061773 l 6.188548000412401 23.498924758064685 a45.30015619576536,45.30015619576536 0 0,0 -0.7536968948030066,0.19158680335014083 l -5.784245812383997 -23.601696793250095" fill="#f1ff19" stroke="none" /><path d="M 104.9986988182912 120.39639698878246 l 6.700355835312756 27.3397383101113 a49.14881985421729,49.14881985421729 0 0,0 -0.8211781223083755,0.19379580091267457 l -6.230045559264501 -27.4507302546702" fill="#c1ff1e" stroke="none" /><path d="M 103.58742460773223 120.69131181640829 l 4.96461711594183 28.63459222909401 a50.0617841027421,50.0617841027421 0 0,0 -0.8480048972688301,0.13953888314187216 l -4.472334715619927 -28.715597110731554" fill="#b5ff1f" stroke="none" /><path d="M 103.2317021107853 120.74984581791261 l 4.752486608076932 30.514373227713047 a51.882245748004166,51.882245748004166 0 0,0 -0.881194977285976,0.12950531604542856 l -4.2279665251832705 -30.591459617057357" fill="#9fff22" stroke="none" /><path d="M 102.875027216393 120.80226474461374 l 4.084265060705453 29.551707404900334 a50.83261020479,50.83261020479 0 0,0 -0.8654183580663676,0.11204573273082176 l -3.5763688807483103 -29.61746473383155" fill="#acff20" stroke="none" /><path d="M 102.51750503828377 120.84855314841334 l 4.375923587457663 36.23892468898539 a57.50216938562999,57.50216938562999 0 0,0 -0.9809982319495643,0.10992289805645042 l -3.7531894539073 -36.308703347548814" fill="#5fff29" stroke="none" /><path d="M 101.08105385017728 120.97215588758144 l 0.29296521816241317 5.683446966063592 a26.690992710864283,26.690992710864283 0 0,0 -0.4577813332592545,0.01965910016199709 l -0.19535812430232907 -5.68763863465142" fill="#ff0100" stroke="none" /><line stroke="#e1ed5e" stroke-width="0.3" x1="101.45913802915013" x2="101.54496967792366" y1="184.9874750549273" y2="189.98673829345242" /><path d="M 101.47630435890484 185.9873277026323 a86.0,86.0 0 0,1 -42.54439059252881,-10.42667462771756" fill="none" id="id7" stroke="none" /><text fill="#e1ed5e" style="font-size:6.75px; font-family:Arial;" text-anchor="middle"><textPath startOffset="22.145653131862474" xlink:href="#id7">July</textPath></text><path d="M 100.36049292484886 120.99690560180557 l 0.5215010022696337 30.37481892465295 a51.37929538354738,51.37929538354738 0 0,0 -0.8819939271184822,0.007570857088866046 l -3.720390685181326e-15 -30.37929538354738" fill="#a5ff21" stroke="none" /><path d="M 100.0 121.0 l 6.743835769629567e-15 55.06759805623048 a76.06759805623048,76.06759805623048 0 0,0 -1.3058014718817803,-0.011208735146676196 l 0.9453085470329214 -55.05948371927824" fill="#42ffda" stroke="none" /><path d="M 97.48249496171623 120.84855314841334 l -0.8762333138282021 7.256468819705477 a28.309180839986116,28.309180839986116 0 0,0 -0.481959999733297,-0.06239937114082195 l 1.0006711354522932 -7.240357852364258" fill="#ff1b02" stroke="none" /><path d="M 96.05791012581884 120.62667999033965 l -10.657394136594442 55.76398950876708 a77.77325581395348,77.77325581395348 0 0,0 -1.3091961553301144,-0.2618758972427746 l 11.613086777455514 -55.57282421486145" fill="#45ffec" stroke="none" /><path d="M 95.00130118170881 120.39639698878247 l -7.248200039365302 29.575129614938817 a51.450364456785834,51.450364456785834 0 0,0 -0.8560230953726707,-0.2175977233914599 l 7.754828427963352 -29.44634665971209" fill="#a5ff21" stroke="none" /><path d="M 94.6519064749342 120.30758222061772 l -7.752043929425483 29.435773465220276 a51.43943075321069,51.43943075321069 0 0,0 -0.8519805114904049,-0.232211076995756 l 8.256205841850583 -29.298361894080372" fill="#a5ff21" stroke="none" /><path d="M 91.26138138417905 119.09545874513695 l -11.774841189384569 25.730153019306375 a49.29642485248178,49.29642485248178 0 0,0 -0.7664685276248225,-0.3587459721931721 l 12.214798430880881 -25.524230815542676" fill="#bfff1e" stroke="none" /><line stroke="#e1ed5e" stroke-width="0.3" x1="58.13341422392154" x2="55.67067388415222" y1="173.97424548756322" y2="178.32567169271397" /><path d="M 57.64086615596768 174.84453072859336 a86.0,86.0 0 0,1 -31.369924170532247,-30.572349798747897" fill="none" id="id8" stroke="none" /><text fill="#e1ed5e" style="font-size:6.75px; font-family:Arial;" text-anchor="middle"><textPath startOffset="22.145653131862474" xlink:href="#id8">August</textPath></text><path d="M 89.34428304082925 118.09573695890944 l -14.091732597862045 23.93084269817596 a48.771607080874695,48.771607080874695 0 0,0 -0.7177955313690574,-0.4310155926463616 l 14.500460885788529 -23.68541310499368" fill="#c5ff1e" stroke="none" /><path d="M 82.18462484594161 111.11811171558189 l -20.33679799996859 12.691666055057256 a44.972145088510935,44.972145088510935 0 0,0 -0.4031046863246328,-0.6584412106180195 l 20.551670650748626 -12.340687728314679" fill="#f6ff19" stroke="none" /><path d="M 81.99639281039703 110.81064883170644 l -23.59341164329956 14.167165798024195 a48.520131898646305,48.520131898646305 0 0,0 -0.4226479862968364,-0.7177486804074716 l 23.833133339726167 -13.760065949323165" fill="#c8ff1d" stroke="none" /><line stroke="#e1ed5e" stroke-width="0.3" x1="26.387840678322732" x2="22.057713659400548" y1="142.50000000000003" y2="145.00000000000006" /><path d="M 25.521815274538298 143.00000000000003 a86.0,86.0 0 0,1 -11.493303480769221,-40.785679425670985" fill="none" id="id9" stroke="none" /><text fill="#e1ed5e" style="font-size:6.75px; font-family:Arial;" text-anchor="middle"><textPath startOffset="21.40746469413373" xlink:href="#id9">September</textPath></text><path d="M 81.81346652052679 110.50000000000001 l -32.67705329971991 18.86610551891706 a58.732211037834084,58.732211037834084 0 0,0 -0.49661338470678384,-0.8774682662014328 l 32.99610004944807 -18.302380482616503" fill="#51ff2b" stroke="none" /><path d="M 81.63589988554817 110.18625677009913 l -9.135837031946576 5.0674947989394585 a31.447153766053454,31.447153766053454 0 0,0 -0.2577987505803763,-0.47432066458947003 l 9.22148113214228 -4.909919300875401" fill="#ff4b06" stroke="none" /><path d="M 81.4637452351635 109.86951160357371 l -22.592870047456906 12.029430751804618 a46.595800069420335,46.595800069420335 0 0,0 -0.36986399482042237,-0.7092629784638893 l 22.79604211125228 -11.639821530236226" fill="#e1ff1b" stroke="none" /><path d="M 81.1358732173502 109.22738970284198 l -24.838967355078815 12.149983629896226 a48.651336341548074,48.651336341548074 0 0,0 -0.3605312887006482,-0.7533717302903363 l 25.043877901739375 -11.721799397540785" fill="#c7ff1e" stroke="none" /><path d="M 80.83023694016515 108.57439118712176 l -5.125133633057198 2.292407084998452 a26.61445678583825,26.61445678583825 0 0,0 -0.18296313373326817,-0.4186554556511385 l 5.163730648807434 -2.2040895595714645" fill="#ff0000" stroke="none" /><path d="M 80.41425534168474 107.57618678355246 l -25.809538214263767 9.983683833306813 a48.67320374869837,48.67320374869837 0 0,0 -0.2947494303467907,-0.7818578823337721 l 25.977118328424993 -9.539157670778895" fill="#c7ff1e" stroke="none" /><line stroke="#e1ed5e" stroke-width="0.3" x1="15.003131293944662" x2="10.003315487706104" y1="100.72959589197737" y2="100.7725132973878" /><path d="M 14.003168132696942 100.73817937305945 a86.0,86.0 0 0,1 10.791469493833604,-42.45332614584628" fill="none" id="id10" stroke="none" /><text fill="#e1ed5e" style="font-size:6.75px; font-family:Arial;" text-anchor="middle"><textPath startOffset="22.145653131862435" xlink:href="#id10">October</textPath></text><line stroke="#e1ed5e" stroke-width="0.3" x1="26.387840678322718" x2="22.05771365940052" y1="57.49999999999999" y2="54.99999999999999" /><path d="M 25.521815274538284 56.99999999999999 a86.0,86.0 0 0,1 29.574782752854787,-30.34633250058573" fill="none" id="id11" stroke="none" /><text fill="#e1ed5e" style="font-size:6.75px; font-family:Arial;" text-anchor="middle"><textPath startOffset="21.40746469413373" xlink:href="#id11">November</textPath></text><line stroke="#e1ed5e" stroke-width="0.3" x1="56.869717070023135" x2="54.33264160355391" y1="26.7553504044142" y2="22.446841604673864" /><path d="M 56.362301976729285 25.89364864446614 a86.0,86.0 0 0,1 42.16139366436587,-11.88097634709845" fill="none" id="id12" stroke="none" /><text fill="#e1ed5e" style="font-size:6.75px; font-family:Arial;" text-anchor="middle"><textPath startOffset="22.145653131862474" xlink:href="#id12">December</textPath></text></svg>