<?xml version="1.0" encoding="utf-8" ?>
<svg baseProfile="full" height="200mm" version="1.1" viewBox="0,0,200,200" width="200mm" xmlns="http://www.w3.org/2000/svg" xmlns:ev="http://www.w3.org/2001/xml-events" xmlns:xlink="http://www.w3.org/1999/xlink"><defs /><rect fill="#1a1a1a" height="200" width="200" x="0" y="0" /><text alignment-baseline="middle" fill="#e1ed5e" style="dominant-baseline: central; font-size:9.0px; font-family:Arial;" text-anchor="middle" x="100.0" y="100.0">2019</text><line stroke="#e1ed5e" stroke-width="0.3" x1="100.0" x2="100.0" y1="15.0" y2="10.0" /><path d="M 100.0 14.0 a86.0,86.0 0 0,1 42.46469731375804,11.215312516191453" fill="none" id="id37" stroke="none" /><text fill="#e1ed5e" style="font-size:6.75px; font-family:Arial;" text-anchor="middle"><textPath startOffset="22.20632615414155" xlink:href="#id37">January</textPath></text><path d="M 102.52436894288641 79.15227682838746 l 1.543033740183808 -12.74327999893219 a33.836360007982435,33.836360007982435 0 0,0 0.5776112716079924,0.07499052060921178 l -1.7621597402996463 12.71483115515884" fill="#ff5107" stroke="none" /><path d="M 102.88285421437855 79.19881850522331 l 2.697605949156071 -19.464526048494886 a40.65056874875275,40.65056874875275 0 0,0 0.6922811594176889,0.1020242473834766 l -3.0322560890024155 19.41520731695044" fill="#ffb711" stroke="none" /><path d="M 104.307194497241 79.44645832069477 l 6.580698677085835 -31.4024975247976 a53.08461384953103,53.08461384953103 0 0,0 0.8927246484029657,0.1951150308560383 l -7.1202660496423285 31.28456899584569" fill="#a0ff22" stroke="none" /><path d="M 104.66035177308747 79.52364482259891 l 9.826636766003245 -43.175647336743154 a65.27978447415686,65.27978447415686 0 0,0 1.0935181856285714,0.2588004243826959 l -10.568378638594341 43.00010100021959" fill="#33ff51" stroke="none" /><path d="M 105.01212808612495 79.60689891045804 l 7.797254938213342 -31.72508871353509 a53.66922769906206,53.66922769906206 0 0,0 0.8952311149581375,0.22821434435509755 l -8.342194941856505 31.586171373011126" fill="#98ff23" stroke="none" /><path d="M 105.36241919743992 79.69619591428918 l 8.103020986432874 -30.680583623428937 a52.732588305727404,52.732588305727404 0 0,0 0.8756173737573432,0.2393393048858007 l -8.629936249413928 30.536557777716844" fill="#a4ff21" stroke="none" /><path d="M 105.71112130821622 79.79150937346287 l 8.739349070325671 -30.923709064914515 a53.13490321293155,53.13490321293155 0 0,0 0.8780157712002927,0.25631688039109124 l -9.270355059249392 30.76869385560472" fill="#9fff22" stroke="none" /><path d="M 106.40334571778207 80.00007090966166 l 9.702774702677962 -30.30522083076014 a52.82059469167831,52.82059469167831 0 0,0 0.8635341665249592,0.2846936378839726 l -10.222991691445337 30.133713468616932" fill="#a3ff22" stroke="none" /><path d="M 106.74666289553966 80.11325718540242 l 6.224271116759093 -18.346919184171746 a40.37397725004989,40.37397725004989 0 0,0 0.6562078572848576,0.22893803642764982 l -6.539160978107224 18.23706029457189" fill="#ffb310" stroke="none" /><path d="M 107.08798089147638 80.2323363322302 l 10.70198831069852 -29.84676577735905 a52.707443624027135,52.707443624027135 0 0,0 0.8513950686007394,0.3135759889842055 l -11.214165705071835 29.65812652056852" fill="#a4ff21" stroke="none" /><path d="M 107.4271985657038 80.35727306442388 l 11.303096440242907 -29.893321814149562 a52.95889044102974,52.95889044102974 0 0,0 0.8499065543602491,0.3297505390012293 l -11.815986159602822 29.694328571257785" fill="#a1ff22" stroke="none" /><path d="M 108.43124777332544 80.76684994638697 l 7.75570477173091 -17.692118374003048 a40.31740171622431,40.31740171622431 0 0,0 0.633209524903281,0.2841026562094814 l -8.05909641510097 17.555995387277036" fill="#ffb210" stroke="none" /><line stroke="#e1ed5e" stroke-width="0.3" x1="143.23703022742887" x2="145.7803849466894" y1="26.81831364943548" y2="22.513508569990506" /><path d="M 143.74570117128098 25.957352633546492 a86.0,86.0 0 0,1 28.547481713284135,27.462654790039103" fill="none" id="id38" stroke="none" /><text fill="#e1ed5e" style="font-size:6.75px; font-family:Arial;" text-anchor="middle"><textPath startOffset="19.985693538727396" xlink:href="#id38">February</textPath></text><path d="M 116.82858285166822 87.43820079747576 l 15.394576689692093 -11.491376480616871 a40.21053681899821,40.21053681899821 0 0,0 0.4092616709103482,0.5582324591841984 l -15.590100973116067 11.22468157776118" fill="#ffb110" stroke="none" /><line stroke="#e1ed5e" stroke-width="0.3" x1="172.23445277983987" x2="176.4835382374775" y1="55.19839476539836" y2="52.563006222186495" /><path d="M 173.08426987136738 54.67131705675599 a86.0,86.0 0 0,1 12.851231095245387,41.99856678651699" fill="none" id="id39" stroke="none" /><text fill="#e1ed5e" style="font-size:6.75px; font-family:Arial;" text-anchor="middle"><textPath startOffset="22.20632615414155" xlink:href="#id39">March</textPath></text><path d="M 118.89224826269711 90.83032412892265 l 22.694449893694923 -11.01513947434645 a46.226401915785274,46.226401915785274 0 0,0 0.3412868973914405,0.7188372449165874 l -22.88069498492812 10.622859813789322" fill="#f9ff18" stroke="none" /><path d="M 119.34039704204932 91.81776055985345 l 17.68077406697824 -7.4801115296969325 a40.19796447814807,40.19796447814807 0 0,0 0.2641165394906395,0.6395791499125756 l -17.806912293355076 7.174657809331054" fill="#ffb110" stroke="none" /><path d="M 119.47837535516314 92.15188598940014 l 22.70468777679262 -9.148041096769852 a45.47834763520255,45.47834763520255 0 0,0 0.286310995147433,0.728630253217112 l -22.858792321821756 8.755861838656955" fill="#fffb17" stroke="none" /><path d="M 119.61058180528143 92.48833698450437 l 22.365690484371058 -8.566983463092708 a44.95030931949711,44.95030931949711 0 0,0 0.2705482306389079,0.724934749994686 l -22.50984330351159 8.180725576068689" fill="#fff417" stroke="none" /><path d="M 120.53481517161879 95.60439243477599 l 18.852607702461032 -4.03552037593556 a40.279684693673914,40.279684693673914 0 0,0 0.13929233632269153,0.6792389005758067 l -18.91927933469872 3.7104058191963416" fill="#ffb210" stroke="none" /><path d="M 120.6074358757038 95.95851677861258 l 19.48679602814257 -3.8217058959378036 a40.85801237277988,40.85801237277988 0 0,0 0.12941148168845076,0.691321309874026 l -19.549693233740882 3.485706508601215" fill="#ffba11" stroke="none" /><path d="M 120.73433829027371 96.67025291283417 l 19.08543910674267 -3.0649488005492698 a40.32997405707444,40.32997405707444 0 0,0 0.10417444811153413,0.68637945358108 l -19.135369448293503 2.735970234576107" fill="#ffb210" stroke="none" /><path d="M 120.78858239683441 97.02765380044208 l 31.618475501391636 -4.520801548579252 a52.94003192975454,52.94003192975454 0 0,0 0.12121754977088092,0.9032115433781934 l -31.69160905022035 3.9758716631363935" fill="#a1ff22" stroke="none" /><path d="M 120.83666639777658 97.38593545837742 l 31.978523833985385 -4.011866565026627 a53.22919576930752,53.22919576930752 0 0,0 0.10622937164735889,0.9101083830905774 l -32.042843558636335 3.4608144436111967" fill="#9eff22" stroke="none" /><path d="M 120.91429891909075 98.10471618934814 l 31.753339887535926 -2.8775332730870855 a52.88345639592896,52.88345639592896 0 0,0 0.0743529213094783,0.907293969019191 l -31.798167292664896 2.330525386860126" fill="#a2ff22" stroke="none" /><path d="M 120.96714384426684 98.82574320788733 l 38.76264629281343 -2.170887032953854 a59.82338854520056,59.82338854520056 0 0,0 0.04873153910733144,1.028645769897561 l -38.794271440154255 1.5033301564332928" fill="#50ff2b" stroke="none" /><line stroke="#e1ed5e" stroke-width="0.3" x1="184.98032266829074" x2="189.97916517819016" y1="98.17113171792111" y2="98.06355123074" /><path d="M 185.9800911702706 98.14961562048488 a86.0,86.0 0 0,1 -9.607161424134198,41.387399972396054" fill="none" id="id40" stroke="none" /><text fill="#e1ed5e" style="font-size:6.75px; font-family:Arial;" text-anchor="middle"><textPath startOffset="21.466115282336823" xlink:href="#id40">April</textPath></text><path d="M 120.99513854157772 99.54816195383933 l 19.35063806710769 -0.4164466206731275 a40.35511873877469,40.35511873877469 0 0,0 0.008968431043695489,0.6946148678919924 l -19.3549395052691 0.08329549472067234" fill="#ffb310" stroke="none" /><path d="M 120.9764740272857 100.99374915477107 l 18.97552519770228 0.8989552820948383 a39.996807024546,39.996807024546 0 0,0 -0.03849911537206553,0.6874275672110797 l -18.957239731442684 -1.2254545656413411" fill="#ffae10" stroke="none" /><path d="M 120.5718875245553 104.21870165774334 l 31.258102496899618 6.410136583926913 a52.908601077629214,52.908601077629214 0 0,0 -0.19063715048970387,0.8905933007126055 l -31.14313130768547 -6.947243704055687" fill="#a2ff22" stroke="none" /><path d="M 120.41448212921028 104.9243191809786 l 7.577516815073066 1.82782551918184 a28.794851327080423,28.794851327080423 0 0,0 -0.12037438824159585,0.48083584424276443 l -7.544931112536409 -1.9579892028220003" fill="#ff0000" stroke="none" /><path d="M 120.02730092923936 106.31721596034902 l 11.564357461335877 3.6477478310257205 a33.12602274995011,33.12602274995011 0 0,0 -0.17621111591340566,0.5423220505139728 l -11.499854094406224 -3.8462687815174887" fill="#ff4606" stroke="none" /><path d="M 119.41010516605496 108.01547362559984 l 34.454776581931526 14.228225483877576 a58.276990620634606,58.276990620634606 0 0,0 -0.3908693784752983,0.923899749767777 l -34.20475622226392 -14.819199759311518" fill="#61ff29" stroke="none" /><line stroke="#e1ed5e" stroke-width="0.3" x1="174.80103733775053" x2="179.2010983576182" y1="140.37084112569926" y2="142.7455964860345" /><path d="M 175.68104954172406 140.8457921977663 a86.0,86.0 0 0,1 -30.038265399797805,32.042727171017184" fill="none" id="id41" stroke="none" /><text fill="#e1ed5e" style="font-size:6.75px; font-family:Arial;" text-anchor="middle"><textPath startOffset="22.206326154141568" xlink:href="#id41">May</textPath></text><path d="M 116.71984013943494 112.70617746262583 l 25.4901653851952 19.371152010722408 a53.01546597485532,53.01546597485532 0 0,0 -0.558412364554545,0.7218232559310112 l -25.15294620342259 -19.807053260766672" fill="#a1ff22" stroke="none" /><path d="M 116.0416608686014 113.55231037782055 l 24.30258800319048 20.531303977893575 a52.81430852125324,52.81430852125324 0 0,0 -0.5926708288034785,0.6894100694106652 l -23.94557466481622 -20.946591146465767" fill="#a3ff22" stroke="none" /><path d="M 115.80600337817218 113.82643327865902 l 24.082785031399833 21.066617058982565 a52.99660746358012,52.99660746358012 0 0,0 -0.606536457263455,0.6814501395843149 l -23.716589724488045 -21.478041368307746" fill="#a1ff22" stroke="none" /><path d="M 111.45004920935366 117.60387380957326 l 10.433231827960261 16.040568312614553 a40.13510277389743,40.13510277389743 0 0,0 -0.5823760091392032,0.3716999231998369 l -10.155574016774127 -16.2177826646382" fill="#ffb010" stroke="none" /><path d="M 111.1453310114006 117.79835938074945 l 33.4359930342018 53.39507814224836 a84.0,84.0 0 0,0 -1.2320832002707651,0.7568461326864875 l -32.51193063399873 -53.96271274176323" fill="#4dd2ff" stroke="none" /><line stroke="#e1ed5e" stroke-width="0.3" x1="143.8653032363475" x2="146.44561519142675" y1="172.8068346515853" y2="177.08958963109032" /><path d="M 144.38136562736335 173.6633856474863 a86.0,86.0 0 0,1 -40.68145358897372,12.25698825130547" fill="none" id="id42" stroke="none" /><text fill="#e1ed5e" style="font-size:6.75px; font-family:Arial;" text-anchor="middle"><textPath startOffset="21.466115282336833" xlink:href="#id42">June</textPath></text><path d="M 110.5260780823613 118.17145234162733 l 9.600766289250107 16.574061649851863 a40.15396128517262,40.15396128517262 0 0,0 -0.6010689163329759,0.34130261762896974 l -9.314048605995932 -16.736867433275464" fill="#ffb010" stroke="none" /><path d="M 110.21172684928248 118.3499491758327 l 9.283480674896502 16.681938429556144 a40.09109958092197,40.09109958092197 0 0,0 -0.6059047835279506,0.33038759827183306 l -8.994953079499902 -16.839266679587748" fill="#ffaf10" stroke="none" /><line stroke="#e1ed5e" stroke-width="0.3" x1="102.19456741930631" x2="102.32365962044197" y1="184.97166512339345" y2="189.96999836594603" /><path d="M 102.22038585953345 185.97133177190398 a86.0,86.0 0 0,1 -42.740103519485714,-10.115201625700543" fill="none" id="id43" stroke="none" /><text fill="#e1ed5e" style="font-size:6.75px; font-family:Arial;" text-anchor="middle"><textPath startOffset="22.20632615414155" xlink:href="#id43">July</textPath></text><line stroke="#e1ed5e" stroke-width="0.3" x1="58.666819895761336" x2="56.23545636021788" y1="174.27360380694188" y2="178.64263932499728" /><path d="M 58.180547188652646 175.14741091055294 a86.0,86.0 0 0,1 -31.652253787137756,-30.449443065178592" fill="none" id="id44" stroke="none" /><text fill="#e1ed5e" style="font-size:6.75px; font-family:Arial;" text-anchor="middle"><textPath startOffset="22.20632615414155" xlink:href="#id44">August</textPath></text><line stroke="#e1ed5e" stroke-width="0.3" x1="26.63291911575756" x2="22.317208475507996" y1="142.92168965132927" y2="145.44649492493687" /><path d="M 25.769776987707644 143.4266507060508 a86.0,86.0 0 0,1 -11.730757126820373,-40.83630448921669" fill="none" id="id45" stroke="none" /><text fill="#e1ed5e" style="font-size:6.75px; font-family:Arial;" text-anchor="middle"><textPath startOffset="21.46611528233685" xlink:href="#id45">September</textPath></text><line stroke="#e1ed5e" stroke-width="0.3" x1="15.007084014347285" x2="10.007500721073583" y1="101.09737516637583" y2="101.16192664675087" /><path d="M 14.007167355692545 101.11028546245083 a86.0,86.0 0 0,1 10.666146001902534,-42.60595125391555" fill="none" id="id46" stroke="none" /><text fill="#e1ed5e" style="font-size:6.75px; font-family:Arial;" text-anchor="middle"><textPath startOffset="22.20632615414155" xlink:href="#id46">October</textPath></text><line stroke="#e1ed5e" stroke-width="0.3" x1="26.266209847984243" x2="21.928928074336255" y1="57.711370442889674" y2="55.22380399835377" /><path d="M 25.398753493254645 57.213857153982495 a86.0,86.0 0 0,1 29.58750427330803,-30.492523968695096" fill="none" id="id47" stroke="none" /><text fill="#e1ed5e" style="font-size:6.75px; font-family:Arial;" text-anchor="middle"><textPath startOffset="21.46611528233685" xlink:href="#id47">November</textPath></text><line stroke="#e1ed5e" stroke-width="0.3" x1="56.76296977257108" x2="54.21961505331056" y1="26.818313649435495" y2="22.513508569990535" /><path d="M 56.25429882871898 25.957352633546506 a86.0,86.0 0 0,1 42.26535254187918,-11.944610805530505" fill="none" id="id48" stroke="none" /><text fill="#e1ed5e" style="font-size:6.75px; font-family:Arial;" text-anchor="middle"><textPath startOffset="22.20632615414155" xlink:href="#id48">December</textPath></text></svg>