<?xml version="1.0" encoding="utf-8" ?>
<svg baseProfile="full" height="200mm" version="1.1" viewBox="0,0,200,200" width="200mm" xmlns="http://www.w3.org/2000/svg" xmlns:ev="http://www.w3.org/2001/xml-events" xmlns:xlink="http://www.w3.org/1999/xlink"><defs /><rect fill="#1a1a1a" height="200" width="200" x="0" y="0" /><text alignment-baseline="middle" fill="#e1ed5e" style="dominant-baseline: central; font-size:9.0px; font-family:Arial;" text-anchor="middle" x="100.0" y="100.0">2022</text><line stroke="#e1ed5e" stroke-width="0.3" x1="100.0" x2="100.0" y1="15.0" y2="10.0" /><path d="M 100.0 14.0 a86.0,86.0 0 0,1 42.46469731375804,11.215312516191453" fill="none" id="id73" stroke="none" /><text fill="#e1ed5e" style="font-size:6.75px; font-family:Arial;" text-anchor="middle"><textPath startOffset="22.20632615414155" xlink:href="#id73">January</textPath></text><line stroke="#e1ed5e" stroke-width="0.3" x1="143.23703022742887" x2="145.7803849466894" y1="26.81831364943548" y2="22.513508569990506" /><path d="M 143.74570117128098 25.957352633546492 a86.0,86.0 0 0,1 28.547481713284135,27.462654790039103" fill="none" id="id74" stroke="none" /><text fill="#e1ed5e" style="font-size:6.75px; font-family:Arial;" text-anchor="middle"><textPath startOffset="19.985693538727396" xlink:href="#id74">February</textPath></text><path d="M 115.68641384162765 86.03803664274999 l 8.541369067698463 -7.602392946403394 a32.434656272147414,32.434656272147414 0 0,0 0.36760533784889826,0.4202364481693238 l -8.67096626912521 7.454240942031122" fill="#ff6609" stroke="none" /><path d="M 115.9244219780498 86.31012108654704 l 13.790255999276445 -11.855182880473548 a39.18561304039688,39.18561304039688 0 0,0 0.43531369649168605,0.5152741116382178 l -13.992280309255248 11.616049819206223" fill="#ffc512" stroke="none" /><path d="M 116.15771136456269 86.58626213691792 l 13.580035370116864 -11.273814126030492 a38.64982282069454,38.64982282069454 0 0,0 0.42054965692896795,0.515544153043744 l -13.77208351912224 11.038385803378647" fill="#ffbe11" stroke="none" /><path d="M 116.82858285166822 87.43820079747576 l 10.937982518260037 -8.164724343469159 a34.64925584691708,34.64925584691708 0 0,0 0.3526591153841434,0.4810266370576864 l -11.076904246157806 7.975235262739979" fill="#ff860c" stroke="none" /><path d="M 117.2510076193507 88.02491185347247 l 9.807766344608877 -6.808232254531809 a32.93919206236711,32.93919206236711 0 0,0 0.3193149345017429,0.4685552649879067 l -9.923505744779355 6.638398966273496" fill="#ff6e0a" stroke="none" /><path d="M 117.45458315368197 88.32363383020206 l 10.509860983251734 -7.030645427257496 a33.644649184975194,33.644649184975194 0 0,0 0.3178672190714918,0.4841335822622751 l -10.62932483768115 6.8486937810175466" fill="#ff780b" stroke="none" /><path d="M 117.65298651832404 88.62581576622439 l 3.8809046194075956 -2.5005470937754746 a25.616725726435153,25.616725726435153 0 0,0 0.23564021356588313,0.3727262287415367 l -3.9233724292194343 2.4333732173197316" fill="#ff0000" stroke="none" /><line stroke="#e1ed5e" stroke-width="0.3" x1="172.23445277983987" x2="176.4835382374775" y1="55.19839476539836" y2="52.563006222186495" /><path d="M 173.08426987136738 54.67131705675599 a86.0,86.0 0 0,1 12.851231095245387,41.99856678651699" fill="none" id="id75" stroke="none" /><text fill="#e1ed5e" style="font-size:6.75px; font-family:Arial;" text-anchor="middle"><textPath startOffset="22.20632615414155" xlink:href="#id75">March</textPath></text><path d="M 117.84615892207809 88.93136811851018 l 13.652121857187163 -8.467385721389164 a37.064776754075126,37.064776754075126 0 0,0 0.3316136186732728,0.5450855971687345 l -13.79585127414666 8.231132351013349" fill="#ffa80f" stroke="none" /><path d="M 118.56541770881063 90.18545643968196 l 16.33388344700037 -8.634850726987118 a39.47583274273565,39.47583274273565 0 0,0 0.31240528666627027,0.6034675772336366 l -16.480098166826757 8.352410427493135" fill="#ffc912" stroke="none" /><path d="M 118.73160827565052 90.50648371742162 l 16.71507298360848 -8.471499894680688 a39.7392629340893,39.7392629340893 0 0,0 0.30398641347491495,0.6128180600630432 l -16.858419410036802 8.182522246118696" fill="#ffcd13" stroke="none" /><path d="M 119.04729006885535 91.15688171328212 l 8.966130449138006 -4.1627208830886016 a30.88532955350815,30.88532955350815 0 0,0 0.21972365119607537,0.4841319399368897 l -9.036456417297428 4.007766934309649" fill="#ff5007" stroke="none" /><path d="M 119.7369772167798 92.82701384747503 l 16.269367966574478 -5.912757047485322 a38.31048901488306,38.31048901488306 0 0,0 0.21991482968637083,0.6217288375728217 l -16.36873587707066 5.631830583485886" fill="#ffb911" stroke="none" /><path d="M 119.97218684219823 93.5106431181261 l 14.395261529777175 -4.677304003448443 a36.13607370659107,36.13607370659107 0 0,0 0.18712380255903288,0.5932335903023772 l -14.473640816104414 4.4288202467196465" fill="#ff9b0e" stroke="none" /><path d="M 120.08093135843002 93.85539295169968 l 13.030546245059192 -3.9872446586986303 a34.62693125442948,34.62693125442948 0 0,0 0.16949734924161122,0.5714607999968274 l -13.097249491412505 3.7623544719552733" fill="#ff860c" stroke="none" /><path d="M 120.45610955862082 95.25157060432595 l 17.13615981452149 -3.9777771408127087 a38.59177888022679,38.59177888022679 0 0,0 0.14463760064047948,0.648382003087841 l -17.20209180216401 3.6822169681749037" fill="#ffbd11" stroke="none" /><path d="M 120.83666639777658 97.38593545837742 l 22.399047195001778 -2.810073066430279 a43.574627923458536,43.574627923458536 0 0,0 0.08696177496533831,0.7450353812420242 l -22.444099322970704 2.424093946863402" fill="#ffff18" stroke="none" /><path d="M 120.87857604477298 97.74499172005257 l 17.876263444146172 -1.9307409659847554 a38.980226789510986,38.980226789510986 0 0,0 0.06630884487999637,0.6677210188036955 l -17.906849414708397 1.622744416476625" fill="#ffc212" stroke="none" /><path d="M 120.91429891909075 98.10471618934814 l 13.45125887248396 -1.2189724012519967 a34.50637845499646,34.50637845499646 0 0,0 0.04851517311445885,0.5920079964236628 l -13.470248529417914 0.9872504876205651" fill="#ff840c" stroke="none" /><path d="M 120.98425023603335 99.18683210126433 l 18.122896766569983 -0.7022866062362052 a39.13649893692417,39.13649893692417 0 0,0 0.020291912302931075,0.6733897805324043 l -18.13230037332856 0.39022667827880175" fill="#ffc412" stroke="none" /><line stroke="#e1ed5e" stroke-width="0.3" x1="184.98032266829074" x2="189.97916517819016" y1="98.17113171792111" y2="98.06355123074" /><path d="M 185.9800911702706 98.14961562048488 a86.0,86.0 0 0,1 -9.607161424134198,41.387399972396054" fill="none" id="id76" stroke="none" /><text fill="#e1ed5e" style="font-size:6.75px; font-family:Arial;" text-anchor="middle"><textPath startOffset="21.466115282336823" xlink:href="#id76">April</textPath></text><path d="M 120.99513854157772 99.54816195383933 l 18.10998094893992 -0.38974634017161464 a39.11417434443657,39.11417434443657 0 0,0 0.008692646345805641,0.6732550391150234 l -18.114006602403443 0.07795504299612856" fill="#ffc412" stroke="none" /><path d="M 120.99980553446 99.90962569577887 l 15.886032903956481 -0.06836678407202992 a36.88618001417434,36.88618001417434 0 0,0 -0.0027325681060919433,0.6349525933522238 l -15.884856038560885 -0.2050952874838786" fill="#ffa60f" stroke="none" /><path d="M 120.99824983174949 100.27111621757518 l 24.568398757785427 0.3172117389049421 a45.57044649184975,45.57044649184975 0 0,0 -0.016878289344277583,0.7842677838641016 l -24.559298405756145 -0.7400693385591585" fill="#e5ff1a" stroke="none" /><path d="M 120.9904718944345 100.63252640178507 l 32.141753065283616 0.9685588544981028 a53.15634301913536,53.15634301913536 0 0,0 -0.03543216322370139,0.9143466935257091 l -32.120318769208716 -1.521682795037818" fill="#8aff24" stroke="none" /><path d="M 120.95626037817324 101.35467743843564 l 18.089812289592494 1.1693813749217654 a39.12756909992913,39.12756909992913 0 0,0 -0.049232620319954824,0.6717399887668257 l -18.0670031106082 -1.4805945001853613" fill="#ffc412" stroke="none" /><path d="M 120.92983693683757 101.71520430193887 l 17.902353082260287 1.4671013975974647 a38.962367115520905,38.962367115520905 0 0,0 -0.06053156938784158,0.6679608241805083 l -17.87444691659537 -1.7750436103265435" fill="#ffc212" stroke="none" /><path d="M 120.70491114924044 103.5080841355445 l 25.54583970213514 4.328294593599872 a46.9099220411056,46.9099220411056 0 0,0 -0.1417429258618789,0.7949696028093333 l -25.467550333934074 -4.767382947142424" fill="#d5ff1c" stroke="none" /><path d="M 120.64145759157962 103.86396538481128 l 27.407349963022273 5.130502585715049 a48.88341601700921,48.88341601700921 0 0,0 -0.16194392993722975,0.8257486098124273 l -27.31497610010938 -5.601514922595421" fill="#bdff1f" stroke="none" /><path d="M 120.5718875245553 104.21870165774334 l 37.57613445573094 7.705782978385472 a59.35811481218994,59.35811481218994 0 0,0 -0.21387565794139168,0.9991558710294068 l -37.437924759065105 -8.351452668831048" fill="#46ff2d" stroke="none" /><path d="M 120.49622156327973 104.57218783832717 l 44.34504974371394 9.892257287629466 a66.43501063075833,66.43501063075833 0 0,0 -0.25858857958837583,1.1139928329748234 l -44.168200598195014 -10.654118777952855" fill="#36ff6d" stroke="none" /><path d="M 120.41448212921028 104.9243191809786 l 34.80155585655736 8.394725271386202 a56.79971651311127,56.79971651311127 0 0,0 -0.2374463076713889,0.9484799672032447 l -34.6518982345909 -8.992533077986842" fill="#61ff29" stroke="none" /><path d="M 120.32669344350535 105.2749913415812 l 14.974909875637005 3.8861470585213786 a36.470942593905036,36.470942593905036 0 0,0 -0.16292425154108783,0.6063017492936351 l -14.90579754775414 -4.143339740990562" fill="#ffa00e" stroke="none" /><path d="M 120.13307415673323 105.97154293290107 l 13.021575815332913 3.862246690691369 a34.58228206945429,34.58228206945429 0 0,0 -0.17418474231378459,0.5692458161431893 l -12.953164300512995 -4.085819479386616" fill="#ff850c" stroke="none" /><path d="M 120.02730092923936 106.31721596034902 l 34.5971268710283 10.912979378703566 a57.27746279234585,57.27746279234585 0 0,0 -0.30468268743017257,0.9377168911661623 l -34.40415193258188 -11.506895169847525" fill="#5cff2a" stroke="none" /><path d="M 119.9155931802556 106.66101706037122 l 34.12891871712122 11.414840008488744 a56.987243090007084,56.987243090007084 0 0,0 -0.31915344317389743,0.9276092982785746 l -33.9273744430041 -12.000622009856619" fill="#5fff29" stroke="none" /><path d="M 119.79798401119884 107.00284435728193 l 34.03260823470076 12.037844782840047 a57.098866052445075,57.098866052445075 0 0,0 -0.3357297467423442,0.9237840728461928 l -33.82035422695319 -12.62187665269237" fill="#5eff2a" stroke="none" /><path d="M 119.67450827220406 107.3425965602758 l 50.46072146440771 18.83212097234732 a74.8603118355776,74.8603118355776 0 0,0 -0.4609460262740045,1.2033846216768036 l -50.1290811585402 -19.697929160857264" fill="#41ffce" stroke="none" /><path d="M 119.12269723197855 108.67885076344098 l 33.144201524115324 15.042521209830808 a57.39801559177888,57.39801559177888 0 0,0 -0.41606832933770826,0.8961741662171948 l -32.880358577937784 -15.610815443326832" fill="#5bff2a" stroke="none" /><path d="M 118.97047184881838 109.00673069616215 l 32.573819415533066 15.46527790975313 a57.0586817859674,57.0586817859674 0 0,0 -0.42888224294153676,0.8836244511837895 l -32.30278391597682 -16.023691316902195" fill="#5eff29" stroke="none" /><path d="M 118.64920377521936 109.65438752849418 l 55.94761132565807 28.96316258548255 a84.0,84.0 0 0,0 -0.6757899671004277,1.2783399396554627 l -55.44076885033275 -29.921917540224147" fill="#4dd2ff" stroke="none" /><line stroke="#e1ed5e" stroke-width="0.3" x1="174.80103733775053" x2="179.2010983576182" y1="140.37084112569926" y2="142.7455964860345" /><path d="M 175.68104954172406 140.8457921977663 a86.0,86.0 0 0,1 -30.038265399797805,32.042727171017184" fill="none" id="id77" stroke="none" /><text fill="#e1ed5e" style="font-size:6.75px; font-family:Arial;" text-anchor="middle"><textPath startOffset="22.206326154141568" xlink:href="#id77">May</textPath></text><path d="M 118.48025628344425 109.97397251340804 l 30.482599910764105 16.45175310255556 a55.6388377037562,55.6388377037562 0 0,0 -0.4621298022016197,0.8388998256709009 l -30.194893699110978 -16.974023446624265" fill="#6eff28" stroke="none" /><path d="M 118.30583269289576 110.29060199501023 l 31.45593334315737 17.682915377109733 a57.08547129695251,57.08547129695251 0 0,0 -0.48889086006940047,0.8524224232642459 l -31.14689048693559 -18.22175764623229" fill="#5eff2a" stroke="none" /><path d="M 117.55443506779139 111.5257021239791 l 30.463352024800834 20.001299943852036 a57.44266477675408,57.44266477675408 0 0,0 -0.5497998684314536,0.8218762054792826 l -30.11454905095866 -20.522713063537125" fill="#5aff2a" stroke="none" /><path d="M 117.35343817320211 111.8261652097733 l 29.74558863622013 20.271270854966467 a56.99617292700213,56.99617292700213 0 0,0 -0.5594828277334396,0.8059767415510913 l -29.392244901324556 -20.780288858704576" fill="#5fff29" stroke="none" /><path d="M 117.14729908036423 112.12312394758627 l 21.039772429365417 14.875098859288528 a46.767044649184975,46.767044649184975 0 0,0 -0.47038785146572876,0.6533275844017792 l -20.780604785524087 -15.235060049141438" fill="#d6ff1c" stroke="none" /><path d="M 116.27256486870786 113.27417163493432 l 17.489259123597066 14.26667702649036 a43.57016300496102,43.57016300496102 0 0,0 -0.47907261538742146,0.5770738269308553 l -17.2410905083161 -14.565612110534985" fill="#ffff18" stroke="none" /><path d="M 116.0416608686014 113.55231037782055 l 21.906928651812922 18.507403874572944 a49.67817150956768,49.67817150956768 0 0,0 -0.5574777727170019,0.6484725944073251 l -21.58510836952514 -18.881753568141797" fill="#b3ff20" stroke="none" /><path d="M 115.80600337817218 113.82643327865902 l 27.02255276340521 23.638203400502597 a56.90240963855422,56.90240963855422 0 0,0 -0.651237647157708,0.7316724003045678 l -26.611656266599166 -24.099849970548032" fill="#60ff29" stroke="none" /><path d="M 114.81725581225074 114.88116024355365 l 11.234231231712146 11.28268265666456 a36.9218993621545,36.9218993621545 0 0,0 -0.45422735517089274,0.4445570692201866 l -11.038353924165458 -11.474389828807318" fill="#ffa60f" stroke="none" /><path d="M 114.55890576462653 115.13401014063108 l 13.313505391989802 13.839414092456611 a40.20361445783132,40.20361445783132 0 0,0 -0.5028594688590441,0.47548501471172383 l -13.07331008873995 -14.066533743914256" fill="#ffd313" stroke="none" /><path d="M 113.75828350139079 115.86535959552629 l 15.237469615608356 17.57108252298294 a44.257760453579024,44.257760453579024 0 0,0 -0.5798494204839366,0.4941602557009377 l -14.932754718547372 -17.830767168906824" fill="#f6ff19" stroke="none" /><path d="M 113.48314897796784 116.09983520530334 l 14.918421108719624 17.813651823188923 a44.235435861091425,44.235435861091425 0 0,0 -0.5879729297940957,0.48386169222728165 l -14.609578050380836 -18.067808634273383" fill="#f6ff19" stroke="none" /><path d="M 112.92097659922987 116.55440617244103 l 14.323877814681344 18.351808741978925 a44.28008504606662,44.28008504606662 0 0,0 -0.6048897285514936,0.46380365003203716 l -14.005859357636357 -18.595651733838334" fill="#f6ff19" stroke="none" /><path d="M 112.63410532772338 116.77436683061366 l 13.855432022763392 18.395928585181842 a44.03004961020552,44.03004961020552 0 0,0 -0.6093235319019981,0.45076298203279036 l -13.536723520442829 -18.6317015159544" fill="#f9ff18" stroke="none" /><path d="M 112.34349029814194 116.9893568818739 l 15.431549883715364 21.23970626479486 a47.2537207654146,47.2537207654146 0 0,0 -0.6621656513676764,0.4724376106623698 l -15.063656904498803 -21.50218813730145" fill="#d0ff1d" stroke="none" /><path d="M 112.04921762599082 117.19931262002967 l 16.99272725298309 24.25578467937424 a50.615804394046776,50.615804394046776 0 0,0 -0.717884231811507,0.4937673206578677 l -16.5726861365487 -24.5446927893972" fill="#a8ff21" stroke="none" /><path d="M 111.7513745106137 117.40417183066458 l 14.616344625178636 21.64728672063525 a47.119773210489015,47.119773210489015 0 0,0 -0.6761133265692938,0.4480910455172827 l -14.241556599869376 -21.895675787243853" fill="#d2ff1c" stroke="none" /><path d="M 111.45004920935366 117.60387380957326 l 14.22208096691229 21.865732982748476 a47.08405386250886,47.08405386250886 0 0,0 -0.6832080021575697,0.4360556718447897 l -13.84359116270779 -22.107303083417076" fill="#d3ff1c" stroke="none" /><path d="M 111.1453310114006 117.79835938074945 l 11.84833204613813 18.921005720144706 a43.32459248759745,43.32459248759745 0 0,0 -0.6354702686017358,0.39035774136257356 l -11.520882577604086 -19.122151928335658" fill="#fffc17" stroke="none" /><line stroke="#e1ed5e" stroke-width="0.3" x1="143.8653032363475" x2="146.44561519142675" y1="172.8068346515853" y2="177.08958963109032" /><path d="M 144.38136562736335 173.6633856474863 a86.0,86.0 0 0,1 -40.68145358897372,12.25698825130547" fill="none" id="id78" stroke="none" /><text fill="#e1ed5e" style="font-size:6.75px; font-family:Arial;" text-anchor="middle"><textPath startOffset="21.466115282336833" xlink:href="#id78">June</textPath></text><path d="M 110.8373102113329 117.98757091392108 l 11.636091403380126 19.313373447619014 a43.547838412473425,43.547838412473425 0 0,0 -0.6454041172012431,0.3813161286098433 l -11.301919415150502 -19.51080814852261" fill="#ffff18" stroke="none" /><path d="M 110.5260780823613 118.17145234162733 l 11.270587361326323 19.456718779397992 a43.48532955350815,43.48532955350815 0 0,0 -0.6509365221896839,0.3696187456989756 l -10.93400207221544 -19.647840690891595" fill="#fffe18" stroke="none" /><path d="M 110.21172684928248 118.3499491758327 l 10.855840024042335 19.507387500885223 a43.32459248759745,43.32459248759745 0 0,0 -0.6547732066976331,0.35703455898462655 l -10.518444005476052 -19.69136271162962" fill="#fffc17" stroke="none" /><path d="M 109.89434966115114 118.52300852407294 l 10.907626433678665 20.41994313195991 a44.15060240963855,44.15060240963855 0 0,0 -0.6734209338448978,0.35230200474875806 l -10.554514597307271 -20.604674555653386" fill="#f7ff18" stroke="none" /><path d="M 106.57524785965236 119.94407469862006 l 4.547685603284722 13.79406272032836 a35.5243798724309,35.5243798724309 0 0,0 -0.5823945580456658,0.18646434607225115 l -4.309569700148116 -13.870299913060318" fill="#ff930d" stroke="none" /><path d="M 106.2309692047433 120.05430185196036 l 6.5815992223596185 21.182800482042317 a43.18171509567682,43.18171509567682 0 0,0 -0.7117272495811982,0.21443758191116072 l -6.215996998338174 -21.292953433059203" fill="#fffa17" stroke="none" /><path d="M 105.88484417918355 120.15858648285463 l 6.28356218310272 21.52439857907072 a43.42282069454288,43.42282069454288 0 0,0 -0.719306948219704,0.20328332852979225 l -5.912124066778411 -21.62937070093903" fill="#fffd17" stroke="none" /><path d="M 105.18746579009965 120.34920634021253 l 5.653639186403436 22.177894762564723 a43.8871722182849,43.8871722182849 0 0,0 -0.7336403642446626,0.1803109521499564 l -5.271045537415563 -22.27192697302871" fill="#fbff18" stroke="none" /><path d="M 104.48393922423573 120.51570834832081 l 4.8106216850801164 22.010403471075865 a43.529978738483344,43.529978738483344 0 0,0 -0.7333941981653828,0.15368988488377913 l -4.431036025485356 -22.089949336686185" fill="#ffff18" stroke="none" /><path d="M 103.06178313531738 120.77559828337769 l 2.0766310846908085 14.090891252439729 a35.243090007087176,35.243090007087176 0 0,0 -0.6009306137984306,0.08328350738023892 l -1.8337718797055476 -14.12454932531257" fill="#ff8f0d" stroke="none" /><path d="M 102.70371172650421 120.8252237178851 l 2.934035007528875 22.599278920500105 a43.788944011339474,43.788944011339474 0 0,0 -0.7483167228194393,0.09061073379466514 l -2.5445908616580555 -22.64643518302012" fill="#fcff18" stroke="none" /><path d="M 102.34483914955558 120.86867818915974 l 2.5565560224495507 22.752923122752186 a43.89610205527994,43.89610205527994 0 0,0 -0.7516003540548798,0.0779064498062269 l -2.1645230717890684 -22.793558941014172" fill="#fbff18" stroke="none" /><line stroke="#e1ed5e" stroke-width="0.3" x1="102.19456741930631" x2="102.32365962044197" y1="184.97166512339345" y2="189.96999836594603" /><path d="M 102.22038585953345 185.97133177190398 a86.0,86.0 0 0,1 -42.740103519485714,-10.115201625700543" fill="none" id="id79" stroke="none" /><text fill="#e1ed5e" style="font-size:6.75px; font-family:Arial;" text-anchor="middle"><textPath startOffset="22.20632615414155" xlink:href="#id79">July</textPath></text><path d="M 98.37488393609728 120.93702456842531 l -0.8765952064042234 11.293528985845864 a32.32749822820695,32.32749822820695 0 0,0 -0.5544253419089988,-0.04783815140008165 l 1.070864866054764 -11.276766582167118" fill="#ff6509" stroke="none" /><path d="M 97.65516085044442 120.86867818915974 l -2.49274183156157 22.184987444181157 a43.32459248759745,43.32459248759745 0 0,0 -0.7403813405367864,-0.08964986951134674 l 2.8742505951497455 -22.138792045944463" fill="#fffc17" stroke="none" /><path d="M 96.93821686468263 120.77559828337769 l -3.3174018832552687 22.510088345590233 a43.75322466335932,43.75322466335932 0 0,0 -0.7441467952967267,-0.11622042527354959 l 3.7043845421605126 -22.449649612969576" fill="#fdff18" stroke="none" /><path d="M 96.22490169976321 120.6578951692458 l -4.096690657209484 22.417696019241088 a43.788944011339474,43.788944011339474 0 0,0 -0.7403092022729687,-0.1418820205663622 l 4.481967474054147 -22.343856800326257" fill="#fcff18" stroke="none" /><path d="M 95.86986931433489 120.58985236759428 l -4.444207951839351 22.155615060041384 a43.59695251594614,43.59695251594614 0 0,0 -0.7345225740856821,-0.15392634702887523 l 4.824921987354419 -22.075832732285967" fill="#ffff18" stroke="none" /><path d="M 95.51606077576429 120.51570834832081 l -4.843989057053507 22.163071747232756 a43.68625088589653,43.68625088589653 0 0,0 -0.7332630088498443,-0.1668882735148236 l 5.224772215296214 -22.076406740140246" fill="#fdff18" stroke="none" /><path d="M 95.16358092515715 120.4354850818985 l -5.218602439013636 22.050337375755117 a43.65946137491141,43.65946137491141 0 0,0 -0.7298338335973011,-0.17937539952926515 l 5.5973895573541474 -21.95724071791182" fill="#feff18" stroke="none" /><path d="M 94.81253420990036 120.34920634021253 l -5.560992738557559 21.8144645713717 a43.51211906449326,43.51211906449326 0 0,0 -0.7241857841221332,-0.1912640476088226 l 5.935668965491181 -21.715509174459296" fill="#fffe18" stroke="none" /><path d="M 94.11515582081647 120.15858648285463 l -6.346122539366174 21.738699640192497 a43.64606661941885,43.64606661941885 0 0,0 -0.7193807582966231,-0.2167435213044289 l 6.719378272103043 -21.626240749782344" fill="#feff18" stroke="none" /><path d="M 93.76903079525671 120.05430185196036 l -6.812114170968817 21.924710160761197 a43.95861091424521,43.95861091424521 0 0,0 -0.7206672112965262,-0.23073488313670493 l 7.188502727356283 -21.804202430964786" fill="#faff18" stroke="none" /><path d="M 93.42475214034765 119.94407469862007 l -7.187104729937506 21.799962018201082 a43.954145995747695,43.954145995747695 0 0,0 -0.7165159303447846,-0.2430811061614268 l 7.561290393219516 -21.673017925141533" fill="#faff18" stroke="none" /><path d="M 92.7421414339146 119.70592522655815 l -7.876139643082893 21.384629841889325 a43.788944011339474,43.788944011339474 0 0,0 -0.7050640938902165,-0.26659491037297217 l 8.243073957733392 -21.24588668140972" fill="#fcff18" stroke="none" /><path d="M 92.40401165467489 119.57807347666478 l -8.348050408997631 21.51645537935087 a44.07916371367824,44.07916371367824 0 0,0 -0.7050124798630962,-0.2805390155368906 l 8.717183964902585 -21.36956951940791" fill="#f8ff18" stroke="none" /><path d="M 92.06813273071674 119.44442032107085 l -8.676709518170595 21.270349231447806 a43.972005669737776,43.972005669737776 0 0,0 -0.6983770892379502,-0.2919216799415232 l 9.041558066906006 -21.117842508486312" fill="#faff18" stroke="none" /><path d="M 91.7346041902142 119.30500536409082 l -4.110438157141525 9.600511880923124 a31.443444365698085,31.443444365698085 0 0,0 -0.4957273498586717,-0.2173123020941253 l 4.27508618165794 -9.528335025534545" fill="#ff5808" stroke="none" /><path d="M 91.40352486487194 119.15986991738527 l -4.439582870990654 9.894966129552552 a31.845287030474843,31.845287030474843 0 0,0 -0.49819980826112875,-0.22869909681515316 l 4.609250675019203 -9.817079962403325" fill="#ff5e08" stroke="none" /><path d="M 90.10565033884886 118.52300852407294 l -6.534057416201721 12.23227451646432 a34.868036853295536,34.868036853295536 0 0,0 -0.5269675948647405,-0.2873447491546567 l 6.743647822935102 -12.117989115549898" fill="#ff890c" stroke="none" /><line stroke="#e1ed5e" stroke-width="0.3" x1="58.666819895761336" x2="56.23545636021788" y1="174.27360380694188" y2="178.64263932499728" /><path d="M 58.180547188652646 175.14741091055294 a86.0,86.0 0 0,1 -31.652253787137756,-30.449443065178592" fill="none" id="id80" stroke="none" /><text fill="#e1ed5e" style="font-size:6.75px; font-family:Arial;" text-anchor="middle"><textPath startOffset="22.20632615414155" xlink:href="#id80">August</textPath></text><path d="M 83.72743513129214 113.27417163493432 l -17.73490450396806 14.467059631610208 a43.8871722182849,43.8871722182849 0 0,0 -0.4724811204341786,-0.5894928450350305 l 17.9813035364571 -14.159638952996918" fill="#fbff18" stroke="none" /><path d="M 83.50135304334701 112.99209946851258 l -17.98831926159813 14.165163587781542 a43.89610205527994,43.89610205527994 0 0,0 -0.46235802501561224,-0.5976600738216672 l 18.22948410383181 -13.853425519846622" fill="#fbff18" stroke="none" /><path d="M 83.28015986056508 112.70617746262583 l -17.977086800522123 13.661617171190398 a43.579092841956054,43.579092841956054 0 0,0 -0.44873751593913636,-0.60115723423728 l 18.209585583156343 -13.350147057443813" fill="#ffff18" stroke="none" /><path d="M 83.06392112726016 112.41649034213515 l -18.87214515351442 13.83589494325945 a44.400637845499645,44.400637845499645 0 0,0 -0.44658628306580456,-0.6202692876382796 l 19.107511228955833 -13.508992050170031" fill="#f4ff19" stroke="none" /><path d="M 82.85270091963577 112.12312394758628 l -14.769037967658857 10.441695629696392 a39.08738483345145,39.08738483345145 0 0,0 -0.38368752623677377,-0.5527304983120163 l 14.946586401057765 -10.185923869197365" fill="#ffc412" stroke="none" /><path d="M 82.6465618267979 111.8261652097733 l -18.695224214801208 12.740576708275254 a43.623742026931254,43.623742026931254 0 0,0 -0.4175350798941234,-0.6241582925381373 l 18.911762400106063 -12.416881501531293" fill="#feff18" stroke="none" /><path d="M 82.44556493220864 111.52570212397912 l -11.335113954829703 7.442287175873402 a34.55995747696669,34.55995747696669 0 0,0 -0.32222245694696117,-0.5000964088039723 l 11.46154127515371 -7.246069167147982" fill="#ff850c" stroke="none" /><path d="M 82.24976979558568 111.22182372390057 l -19.066087099794714 12.053717956019629 a43.55676824946846,43.55676824946846 0 0,0 -0.3951954539672291,-0.6371809047671282 l 19.2707471934299 -11.723740719887237" fill="#ffff18" stroke="none" /><path d="M 82.05923443525364 110.91462005526583 l -19.30507750315692 11.74462624373502 a43.59695251594614,43.59695251594614 0 0,0 -0.38452330320139577,-0.6444831739046172 l 19.504381682056547 -11.410580975944292" fill="#ffff18" stroke="none" /><line stroke="#e1ed5e" stroke-width="0.3" x1="26.63291911575756" x2="22.317208475507996" y1="142.92168965132927" y2="145.44649492493687" /><path d="M 25.769776987707644 143.4266507060508 a86.0,86.0 0 0,1 -11.730757126820373,-40.83630448921669" fill="none" id="id81" stroke="none" /><text fill="#e1ed5e" style="font-size:6.75px; font-family:Arial;" text-anchor="middle"><textPath startOffset="21.46611528233685" xlink:href="#id81">September</textPath></text><path d="M 81.87401531095188 110.60418214915194 l -19.450427652507287 11.379016436591748 a43.53444365698087,43.53444365698087 0 0,0 -0.372837275729753,-0.6500732167823291 l 19.643416924389417 -11.042523373951111" fill="#ffff18" stroke="none" /><path d="M 81.69416730710424 110.29060199501025 l -19.627848533722176 11.033771621722895 a43.51658398299079,43.51658398299079 0 0,0 -0.3614437536532323,-0.6561254013158092 l 19.814868696826924 -10.694275702009262" fill="#fffe18" stroke="none" /><path d="M 81.51974371655577 109.97397251340807 l -19.83844379343231 10.706999408971797 a43.543373493975906,43.543373493975906 0 0,0 -0.3503116064397242,-0.6626575410081649 l 20.019807908096922 -10.363926852877507" fill="#ffff18" stroke="none" /><path d="M 81.18737489456691 109.33194174019688 l -20.17124062509548 10.005878567500966 a43.51658398299079,43.51658398299079 0 0,0 -0.32709290785557993,-0.673908271901562 l 20.340486789565777 -9.65718133963412" fill="#fffe18" stroke="none" /><path d="M 81.02952815118164 109.00673069616217 l -20.396954530008745 9.68399088529243 a43.579092841956054,43.579092841956054 0 0,0 -0.315897338363787,-0.6804147632890618 l 20.560626485212357 -9.33145605472454" fill="#ffff18" stroke="none" /><path d="M 80.87730276802145 108.67885076344099 l -20.621613117064882 9.35913488423233 a43.64606661941885,43.64606661941885 0 0,0 -0.3046057228327772,-0.686805491425599 l 20.77965992462894 -9.002781056314033" fill="#feff18" stroke="none" /><path d="M 80.73074385275274 108.34839909993369 l -20.70181813863368 8.969056127278156 a43.56123316796598,43.56123316796598 0 0,0 -0.29216937856005515,-0.690602105476768 l 20.85313849838604 -8.611379496135228" fill="#ffff18" stroke="none" /><path d="M 80.32549172779594 107.34259656027581 l -21.195761888431882 7.910333827976796 a43.623742026931254,43.623742026931254 0 0,0 -0.2564987516425136,-0.7057744026898441 l 21.328784901079622 -7.544311628280835" fill="#feff18" stroke="none" /><path d="M 79.86692584326677 105.97154293290107 l -21.56564725760921 6.3964493187715705 a43.49425939050319,43.49425939050319 0 0,0 -0.20671654001704426,-0.7196073944616362 l 21.67255643451236 -6.024284448805338" fill="#fffe18" stroke="none" /><path d="M 79.76711848015287 105.62410040840567 l -13.236692367803599 3.679381351523229 a34.73855421686747,34.73855421686747 0 0,0 -0.15518526648523648,-0.5775021069276929 l 13.298065710630608 -3.450988311419997" fill="#ff880c" stroke="none" /><path d="M 79.35854240842038 103.8639653848113 l -22.20675593481068 4.156980477777141 a43.59248759744862,43.59248759744862 0 0,0 -0.13171897263537652,-0.738749949753662 l 22.275021349785245 -3.774111777290266" fill="#ffff18" stroke="none" /><path d="M 79.18660465613746 102.79330883721812 l -22.294376841044542 2.9920673115318723 a43.49425939050319,43.49425939050319 0 0,0 -0.09319885852374986,-0.7428866016091262 l 22.342577208815143 -2.6078629556353374" fill="#fffe18" stroke="none" /><path d="M 79.1416061653843 102.43462659150553 l -22.440143048154944 2.6192510034765397 a43.59248759744862,43.59248759744862 0 0,0 -0.08057904954175693,-0.7460619228911929 l 22.481904399197756 -2.232592758700565" fill="#ffff18" stroke="none" /><path d="M 79.07016306316243 101.71520430193888 l -22.43690386297697 1.8387087364371015 a43.51211906449326,43.51211906449326 0 0,0 -0.05474952026148063,-0.7470137052714887 l 22.465229941902784 -1.452221894668852" fill="#fffe18" stroke="none" /><line stroke="#e1ed5e" stroke-width="0.3" x1="15.007084014347285" x2="10.007500721073583" y1="101.09737516637583" y2="101.16192664675087" /><path d="M 14.007167355692545 101.11028546245083 a86.0,86.0 0 0,1 10.666146001902534,-42.60595125391555" fill="none" id="id82" stroke="none" /><text fill="#e1ed5e" style="font-size:6.75px; font-family:Arial;" text-anchor="middle"><textPath startOffset="22.20632615414155" xlink:href="#id82">October</textPath></text><path d="M 79.01574976396665 99.18683210126434 l -22.682621162294872 -0.8789820546786811 a43.69964564138908,43.69964564138908 0 0,0 0.03559729801899419,-0.7514026993150394 l 22.66413025604238 1.2692958606167297" fill="#fdff18" stroke="none" /><path d="M 79.03285615573316 98.82574320788736 l -17.9119739120335 -1.003153180164835 a38.94004252303331,38.94004252303331 0 0,0 0.04324089418572173,-0.6689174941803119 l 17.892052426843364 1.3113297385981586" fill="#ffc212" stroke="none" /><path d="M 79.05617556472873 98.46500227214037 l -23.734355260098333 -1.739519040997557 a44.79801559177888,44.79801559177888 0 0,0 0.0629849778194995,-0.7685762644965181 l 23.70089579845934 2.1478092227018535" fill="#efff19" stroke="none" /><path d="M 79.08570108090925 98.10471618934814 l -23.834296712897196 -2.1598982051936084 a44.93196314670446,44.93196314670446 0 0,0 0.07643327963525984,-0.7696726951122076 l 23.793586307579705 2.5698464310102462" fill="#eeff19" stroke="none" /><path d="M 79.21141760316559 97.0276538004421 l -8.99905466193229 -1.2866825362792114 a30.09057406094968,30.09057406094968 0 0,0 0.07772553837308205,-0.5121141846673766 l 8.975573230119904 1.4413958333386798" fill="#ff4406" stroke="none" /><path d="M 80.2630227832202 92.82701384747504 l -14.007518770292913 -5.090735884577246 a35.90389794472006,35.90389794472006 0 0,0 0.21609942643421234,-0.5790390249684031 l 13.917814755357075 5.33109804657499" fill="#ff980e" stroke="none" /><path d="M 80.38941819471856 92.48833698450439 l -22.16926933919519 -8.491746049622295 a44.73997165131112,44.73997165131112 0 0,0 0.2816625157339818,-0.7168003801437601 l 22.01981327357952 8.872095434661817" fill="#f0ff19" stroke="none" /><path d="M 80.52162464483688 92.15188598940014 l -13.72459303905257 -5.529833415548103 a35.796739900779585,35.796739900779585 0 0,0 0.2351987517372833,-0.5695524331294796 l 13.627372600429084 5.765260419130893" fill="#ff960d" stroke="none" /><line stroke="#e1ed5e" stroke-width="0.3" x1="26.266209847984243" x2="21.928928074336255" y1="57.711370442889674" y2="55.22380399835377" /><path d="M 25.398753493254645 57.213857153982495 a86.0,86.0 0 0,1 29.58750427330803,-30.492523968695096" fill="none" id="id83" stroke="none" /><text fill="#e1ed5e" style="font-size:6.75px; font-family:Arial;" text-anchor="middle"><textPath startOffset="21.46611528233685" xlink:href="#id83">November</textPath></text><path d="M 81.96595687620814 89.24020034530311 l -15.160866019448553 -9.045552339051351 a38.654287739192064,38.654287739192064 0 0,0 0.3458347616520421,-0.5684614170280554 l 15.002915459510293 9.30518152928648" fill="#ffbe11" stroke="none" /><path d="M 82.15384107792192 88.93136811851018 l -15.08639146864262 -9.356955427527327 a38.75251594613749,38.75251594613749 0 0,0 0.35647222175390675,-0.5638534478254611 l 14.923091650642752 9.615256523067004" fill="#ffbf11" stroke="none" /><path d="M 82.34701348167596 88.62581576622439 l -14.998157504016202 -9.663623004571361 a38.84181431608788,38.84181431608788 0 0,0 0.3669688880530827,-0.5589187927931145 l 14.829591980605198 9.920359861342144" fill="#ffc011" stroke="none" /><path d="M 82.95767976084542 87.72973835380427 l -14.511940302866218 -10.448419112618128 a38.88199858256556,38.88199858256556 0 0,0 0.3957398474898177,-0.539788707234726 l 14.329937842862767 10.696670263524355" fill="#ffc111" stroke="none" /><path d="M 83.17141714833178 87.43820079747577 l -14.279845675621798 -10.659278657110038 a38.819489723600284,38.819489723600284 0 0,0 0.40432173289401624,-0.5320400064277282 l 14.094248002503672 10.90350343941879" fill="#ffc011" stroke="none" /><path d="M 85.05521093208273 85.24692304244772 l -12.64005051286497 -12.477903643616514 a38.76144578313253,38.76144578313253 0 0,0 0.47282355920924407,-0.4707931045831673 l 12.423391153488412 12.693632598849794" fill="#ffbf11" stroke="none" /><path d="M 85.31137513191541 84.99185889309783 l -12.488974666365047 -12.760642725691383 a38.85520907158044,38.85520907158044 0 0,0 0.4820206207661484,-0.4637034552726011 l 12.267470801986471 12.973729267726293" fill="#ffc111" stroke="none" /><line stroke="#e1ed5e" stroke-width="0.3" x1="56.76296977257108" x2="54.21961505331056" y1="26.818313649435495" y2="22.513508569990535" /><path d="M 56.25429882871898 25.957352633546506 a86.0,86.0 0 0,1 42.26535254187918,-11.944610805530505" fill="none" id="id84" stroke="none" /><text fill="#e1ed5e" style="font-size:6.75px; font-family:Arial;" text-anchor="middle"><textPath startOffset="22.20632615414155" xlink:href="#id84">December</textPath></text></svg>