<?xml version="1.0" encoding="utf-8" ?>
<svg baseProfile="full" height="200mm" version="1.1" viewBox="0,0,200,200" width="200mm" xmlns="http://www.w3.org/2000/svg" xmlns:ev="http://www.w3.org/2001/xml-events" xmlns:xlink="http://www.w3.org/1999/xlink"><defs /><rect fill="#1a1a1a" height="200" width="200" x="0" y="0" /><text alignment-baseline="middle" fill="#e1ed5e" style="dominant-baseline: central; font-size:9.0px; font-family:Arial;" text-anchor="middle" x="100.0" y="100.0">2018</text><line stroke="#e1ed5e" stroke-width="0.3" x1="100.0" x2="100.0" y1="15.0" y2="10.0" /><path d="M 100.0 14.0 a86.0,86.0 0 0,1 42.46469731375804,11.215312516191453" fill="none" id="id25" stroke="none" /><text fill="#e1ed5e" style="font-size:6.75px; font-family:Arial;" text-anchor="middle"><textPath startOffset="22.20632615414155" xlink:href="#id25">January</textPath></text><line stroke="#e1ed5e" stroke-width="0.3" x1="143.23703022742887" x2="145.7803849466894" y1="26.81831364943548" y2="22.513508569990506" /><path d="M 143.74570117128098 25.957352633546492 a86.0,86.0 0 0,1 28.547481713284135,27.462654790039103" fill="none" id="id26" stroke="none" /><text fill="#e1ed5e" style="font-size:6.75px; font-family:Arial;" text-anchor="middle"><textPath startOffset="19.985693538727396" xlink:href="#id26">February</textPath></text><line stroke="#e1ed5e" stroke-width="0.3" x1="172.23445277983987" x2="176.4835382374775" y1="55.19839476539836" y2="52.563006222186495" /><path d="M 173.08426987136738 54.67131705675599 a86.0,86.0 0 0,1 12.851231095245387,41.99856678651699" fill="none" id="id27" stroke="none" /><text fill="#e1ed5e" style="font-size:6.75px; font-family:Arial;" text-anchor="middle"><textPath startOffset="22.20632615414155" xlink:href="#id27">March</textPath></text><path d="M 118.56541770881063 90.18545643968196 l 7.644090722544152 -4.041021998650138 a29.64650112866817,29.64650112866817 0 0,0 0.23461756320917207,0.453206454849617 l -7.71251771891344 3.9088428215401767" fill="#ff3905" stroke="none" /><path d="M 118.89224826269711 90.83032412892265 l 11.825779781593472 -5.739844512527644 a34.1451467268623,34.1451467268623 0 0,0 0.25209167714623704,0.530969363463022 l -11.922829652581465 5.535432733424082" fill="#ff7b0b" stroke="none" /><path d="M 119.04729006885535 91.15688171328212 l 18.324954915002603 -8.507758496160635 a41.203611738148986,41.203611738148986 0 0,0 0.2931297203057761,0.6458724828769279 l -18.468686952271725 8.191064004441644" fill="#ffdd14" stroke="none" /><path d="M 120.08093135843002 93.85539295169968 l 27.0389967388341 -8.273720325758777 a49.276523702031604,49.276523702031604 0 0,0 0.24120647844782273,0.813228335162488 l -27.177409114393626 7.80706260384976" fill="#baff1f" stroke="none" /><path d="M 120.18372546131832 94.20196356495316 l 14.215174591267074 -4.083492929423511 a35.79006772009029,35.79006772009029 0 0,0 0.16499771607764302,0.5935845731798901 l -14.283359077911081 3.8381970528246696" fill="#ff920d" stroke="none" /><path d="M 120.37134235888165 94.90015583598534 l 23.20861509825636 -5.810138486632488 a44.92483069977426,44.92483069977426 0 0,0 0.18134057605603027,0.7517737606238843 l -23.305188474573207 5.4097794943491975" fill="#f0ff19" stroke="none" /><path d="M 120.78858239683441 97.02765380044208 l 13.646320002256088 -1.9511473472493022 a34.78510158013544,34.78510158013544 0 0,0 0.0796479455786903,0.5934697078847614 l -13.677883946892615 1.7159592972998765" fill="#ff840c" stroke="none" /><line stroke="#e1ed5e" stroke-width="0.3" x1="184.98032266829074" x2="189.97916517819016" y1="98.17113171792111" y2="98.06355123074" /><path d="M 185.9800911702706 98.14961562048488 a86.0,86.0 0 0,1 -9.607161424134198,41.387399972396054" fill="none" id="id28" stroke="none" /><text fill="#e1ed5e" style="font-size:6.75px; font-family:Arial;" text-anchor="middle"><textPath startOffset="21.466115282336823" xlink:href="#id28">April</textPath></text><line stroke="#e1ed5e" stroke-width="0.3" x1="174.80103733775053" x2="179.2010983576182" y1="140.37084112569926" y2="142.7455964860345" /><path d="M 175.68104954172406 140.8457921977663 a86.0,86.0 0 0,1 -30.038265399797805,32.042727171017184" fill="none" id="id29" stroke="none" /><text fill="#e1ed5e" style="font-size:6.75px; font-family:Arial;" text-anchor="middle"><textPath startOffset="22.206326154141568" xlink:href="#id29">May</textPath></text><line stroke="#e1ed5e" stroke-width="0.3" x1="143.8653032363475" x2="146.44561519142675" y1="172.8068346515853" y2="177.08958963109032" /><path d="M 144.38136562736335 173.6633856474863 a86.0,86.0 0 0,1 -40.68145358897372,12.25698825130547" fill="none" id="id30" stroke="none" /><text fill="#e1ed5e" style="font-size:6.75px; font-family:Arial;" text-anchor="middle"><textPath startOffset="21.466115282336833" xlink:href="#id30">June</textPath></text><line stroke="#e1ed5e" stroke-width="0.3" x1="102.19456741930631" x2="102.32365962044197" y1="184.97166512339345" y2="189.96999836594603" /><path d="M 102.22038585953345 185.97133177190398 a86.0,86.0 0 0,1 -42.740103519485714,-10.115201625700543" fill="none" id="id31" stroke="none" /><text fill="#e1ed5e" style="font-size:6.75px; font-family:Arial;" text-anchor="middle"><textPath startOffset="22.20632615414155" xlink:href="#id31">July</textPath></text><path d="M 99.81925306533755 120.99922214144158 l -0.04263669226236081 4.953541114628996 a25.95372460496614,25.95372460496614 0 0,0 -0.44670106045996455,-0.007690363859277847 l 0.1278974426149933 -4.952073273490558" fill="#ff0000" stroke="none" /><path d="M 99.45781275523022 120.99299961872073 l -0.16204422394473791 6.27420575512105 a27.27629796839729,27.27629796839729 0 0,0 -0.4692557779828677,-0.016162117800509336 l 0.27002035360224863 -6.270486838894447" fill="#ff1502" stroke="none" /><path d="M 99.09653310690486 120.98055641714683 l -0.28837521147551337 6.696728391387274 a27.70293453724605,27.70293453724605 0 0,0 -0.476242376566946,-0.024616291034242017 l 0.4036056564559483 -6.69077229359083" fill="#ff1b02" stroke="none" /><path d="M 98.73552117531835 120.96189622390904 l -0.6744838516304142 11.181255254423712 a32.20158013544018,32.20158013544018 0 0,0 -0.5530042361238664,-0.03813840986475731 l 0.8668508485332107 -11.16798850004267" fill="#ff5f08" stroke="none" /><path d="M 97.65516085044442 120.86867818915974 l -0.7325637433374556 6.519695398148327 a27.5607223476298,27.5607223476298 0 0,0 -0.470989878640908,-0.05703031512208201 l 0.8446810450297529 -6.506119554300897" fill="#ff1902" stroke="none" /><path d="M 97.2962882734958 120.8252237178851 l -1.4141083680158504 10.892109109331773 a31.98352144469526,31.98352144469526 0 0,0 -0.5453516467861063,-0.07558076898902814 l 1.6013886059887878 -10.86615377485014" fill="#ff5b08" stroke="none" /><path d="M 96.93821686468263 120.77559828337769 l -0.9676064084524397 6.565651827704012 a27.636568848758465,27.636568848758465 0 0,0 -0.47003767836621785,-0.07341021854771408 l 1.0804799504271747 -6.548023301809192" fill="#ff1a02" stroke="none" /><path d="M 96.58105272829116 120.7198165907248 l -1.0295430384784647 6.2393307747239 a27.323702031602707,27.323702031602707 0 0,0 -0.463398313416502,-0.08056773666025291 l 1.1367903233670167 -6.220684459542641" fill="#ff1502" stroke="none" /><path d="M 96.22490169976321 120.6578951692458 l -1.1615031564836913 6.355916730402265 a27.46117381489842,27.46117381489842 0 0,0 -0.46426695457927103,-0.0889778668097797 l 1.2707377256346573 -6.334981665244017" fill="#ff1702" stroke="none" /><path d="M 95.86986931433489 120.58985236759428 l -2.8099805613080395 14.008536125491908 a35.28758465011287,35.28758465011287 0 0,0 -0.5945261311782495,-0.12458873125770371 l 3.050698153915676 -13.958091413507663" fill="#ff8b0c" stroke="none" /><path d="M 95.51606077576429 120.51570834832081 l -4.329076311976556 19.807152281211764 a41.27471783295711,41.27471783295711 0 0,0 -0.6927860178863081,-0.15767584215329153 l 4.669382479255727 -19.729699705480787" fill="#ffde14" stroke="none" /><path d="M 95.16358092515715 120.4354850818985 l -1.5044211027389274 6.356681364075877 a27.532279909706546,27.532279909706546 0 0,0 -0.4602436393253799,-0.11311668887406638 l 1.6136180268075178 -6.329843416887781" fill="#ff1802" stroke="none" /><path d="M 94.46302465271185 120.25689768951611 l -1.8473249578536992 6.7583961140191455 a28.006320541760722,28.006320541760722 0 0,0 -0.46392981012143136,-0.13111119840993585 l 1.9633859360797445 -6.725596122270688" fill="#ff2003" stroke="none" /><path d="M 92.06813273071674 119.44442032107085 l -5.548726110047137 13.602315705417281 a35.690519187358916,35.690519187358916 0 0,0 -0.5668479416351256,-0.2369424855762126 l 5.782045511179724 -13.504788176821096" fill="#ff910d" stroke="none" /><path d="M 91.7346041902142 119.30500536409082 l -5.630917506531272 13.1518072661007 a35.306546275395036,35.306546275395036 0 0,0 -0.5566317867153788,-0.244011017395693 l 5.856469967904394 -13.052931695410557" fill="#ff8c0c" stroke="none" /><path d="M 91.40352486487194 119.15986991738527 l -6.040818757483889 13.46380926700234 a35.7568848758465,35.7568848758465 0 0,0 -0.5593943358750237,-0.25679050304064943 l 6.271681089126332 -13.357831693627615" fill="#ff920d" stroke="none" /><path d="M 90.7491055286396 118.85261126421891 l -3.326563181236366 6.779279851896326 a28.551467268623025,28.551467268623025 0 0,0 -0.43934738465614753,-0.22029789936868477 l 3.4427644735752745 -6.721014111618339" fill="#ff2803" stroke="none" /><path d="M 90.42595943632237 118.69057910512821 l -2.876534535046259 5.6156119162360385 a27.309480812641084,27.309480812641084 0 0,0 -0.41654643578890715,-0.2179174080043988 l 2.9727718733616615 -5.565265089286924" fill="#ff1502" stroke="none" /><line stroke="#e1ed5e" stroke-width="0.3" x1="58.666819895761336" x2="56.23545636021788" y1="174.27360380694188" y2="178.64263932499728" /><path d="M 58.180547188652646 175.14741091055294 a86.0,86.0 0 0,1 -31.652253787137756,-30.449443065178592" fill="none" id="id32" stroke="none" /><text fill="#e1ed5e" style="font-size:6.75px; font-family:Arial;" text-anchor="middle"><textPath startOffset="22.20632615414155" xlink:href="#id32">August</textPath></text><path d="M 84.67929136418377 114.36230785411682 l -10.855915216213807 10.17681362394418 a35.88013544018059,35.88013544018059 0 0,0 -0.41852228846057055,-0.4542232849680872 l 11.029483912670106 -9.988439084174749" fill="#ff940d" stroke="none" /><line stroke="#e1ed5e" stroke-width="0.3" x1="26.63291911575756" x2="22.317208475507996" y1="142.92168965132927" y2="145.44649492493687" /><path d="M 25.769776987707644 143.4266507060508 a86.0,86.0 0 0,1 -11.730757126820373,-40.83630448921669" fill="none" id="id33" stroke="none" /><text fill="#e1ed5e" style="font-size:6.75px; font-family:Arial;" text-anchor="middle"><textPath startOffset="21.46611528233685" xlink:href="#id33">September</textPath></text><line stroke="#e1ed5e" stroke-width="0.3" x1="15.007084014347285" x2="10.007500721073583" y1="101.09737516637583" y2="101.16192664675087" /><path d="M 14.007167355692545 101.11028546245083 a86.0,86.0 0 0,1 10.666146001902534,-42.60595125391555" fill="none" id="id34" stroke="none" /><text fill="#e1ed5e" style="font-size:6.75px; font-family:Arial;" text-anchor="middle"><textPath startOffset="22.20632615414155" xlink:href="#id34">October</textPath></text><path d="M 80.38941819471856 92.48833698450439 l -16.157702841823305 -6.189067721570881 a38.30248306997743,38.30248306997743 0 0,0 0.24113501511420674,-0.6136623116122419 l 16.04877427682741 6.466279038078887" fill="#ffb610" stroke="none" /><path d="M 80.52162464483688 92.15188598940014 l -13.555718108344905 -5.46179130805403 a35.61467268623025,35.61467268623025 0 0,0 0.23400249806410417,-0.5666556099738764 l 13.459693923394601 5.694321488481218" fill="#ff900d" stroke="none" /><path d="M 80.803312248108 91.48605970444005 l -8.31567580042455 -3.688092872952489 a30.096839729119637,30.096839729119637 0 0,0 0.21411419629789624,-0.47177224963017866 l 8.250959287163301 3.830687131424739" fill="#ff3f05" stroke="none" /><path d="M 80.95270993114464 91.15688171328213 l -13.7200683091913 -6.3698398313581786 a36.12663656884876,36.12663656884876 0 0,0 0.2667209040027114,-0.5617822461407459 l 13.608389211346836 6.605064493139457" fill="#ff970d" stroke="none" /><path d="M 81.26839172434947 90.50648371742162 l -13.243204767344798 -6.711894581723587 a35.8469525959368,35.8469525959368 0 0,0 0.28368692244767896,-0.5479928384350662 l 13.125708411737005 6.938860142418989" fill="#ff930d" stroke="none" /><path d="M 81.43458229118936 90.18545643968196 l -16.775929365320316 -8.868536765677907 a39.97584650112867,39.97584650112867 0 0,0 0.32683471767282785,-0.6055750942567173 l 16.620786548429017 9.155992843267098" fill="#ffcc13" stroke="none" /><path d="M 81.6062741919709 89.86733742301443 l -16.579265722677256 -9.133120015779545 a39.92844243792325,39.92844243792325 0 0,0 0.3368104034749112,-0.5991481254671127 l 16.419597677909913 9.417151651181442" fill="#ffcc13" stroke="none" /><line stroke="#e1ed5e" stroke-width="0.3" x1="26.266209847984243" x2="21.928928074336255" y1="57.711370442889674" y2="55.22380399835377" /><path d="M 25.398753493254645 57.213857153982495 a86.0,86.0 0 0,1 29.58750427330803,-30.492523968695096" fill="none" id="id35" stroke="none" /><text fill="#e1ed5e" style="font-size:6.75px; font-family:Arial;" text-anchor="middle"><textPath startOffset="21.46611528233685" xlink:href="#id35">November</textPath></text><path d="M 81.78341655067845 89.55222093294921 l -16.329131575001316 -9.365266518117082 a39.82415349887133,39.82415349887133 0 0,0 0.34616733064893906,-0.5917121798679357 l 16.165504569882053 9.644958110338909" fill="#ffca12" stroke="none" /><path d="M 81.96595687620814 89.24020034530311 l -16.039306976916468 -9.569663801242836 a39.67720090293454,39.67720090293454 0 0,0 0.35498662942310705,-0.5835046813220738 l 15.872204549207142 9.844336255771983" fill="#ffc812" stroke="none" /><path d="M 82.54541684631803 88.32363383020206 l -11.93058189375824 -7.981046673171143 a35.353950338600455,35.353950338600455 0 0,0 0.34272377766197165,-0.5029048538260135 l 11.791433650427528 8.185229550267572" fill="#ff8c0c" stroke="none" /><path d="M 82.7489923806493 88.02491185347247 l -15.405188745406639 -10.693780746650765 a39.75304740406321,39.75304740406321 0 0,0 0.39504568178886623,-0.5587641011777972 l 15.218830443813893 10.957371348160347" fill="#ffc912" stroke="none" /><path d="M 82.95767976084542 87.72973835380427 l -14.099346202370556 -10.15135641835381 a38.37358916478556,38.37358916478556 0 0,0 0.39056527126459095,-0.5327305910788267 l 13.922518318592331 10.392549453104138" fill="#ffb610" stroke="none" /><path d="M 83.39014120810768 87.1503855733568 l -11.98684391821214 -9.273186754396917 a36.15507900677201,36.15507900677201 0 0,0 0.38504456598414966,-0.48896749691198765 l 11.825445271634019 9.478146645261953" fill="#ff980e" stroke="none" /><path d="M 83.6137871275137 86.86637796730984 l -19.064230506725593 -15.280065001463901 a45.432054176072235,45.432054176072235 0 0,0 0.49434728034759684,-0.6060113134257653 l 18.798384734301603 15.60596048449775" fill="#eaff1a" stroke="none" /><path d="M 83.84228863543731 86.58626213691792 l -10.785181152372884 -8.95359432531235 a35.01738148984199,35.01738148984199 0 0,0 0.3890087354786938,-0.4604636431353772 l 10.629461803407066 9.137916918076842" fill="#ff870c" stroke="none" /><path d="M 85.05521093208273 85.24692304244772 l -10.572679218702651 -10.43705263769049 a35.85643340857788,35.85643340857788 0 0,0 0.43738736061725575,-0.4355090802895198 l 10.391456057918083 10.61749756863012" fill="#ff930d" stroke="none" /><path d="M 85.31137513191541 84.99185889309783 l -44.06587460425377 -45.02442332070654 a84.0,84.0 0 0,0 1.0420670255502897,-1.0024676529507457 l 43.28432433509105 45.776274060419595" fill="#4dd2ff" stroke="none" /><path d="M 85.83668400450813 84.49514656593479 l -10.000643890270558 -10.9478965105544 a35.827990970654625,35.827990970654625 0 0,0 0.45892075750556394,-0.4120235872961153 l 9.810712145169022 11.118419106619795" fill="#ff930d" stroke="none" /><path d="M 88.39885842347998 82.49532879139004 l -10.464596329520095 -15.789766625193092 a39.942663656884875,39.942663656884875 0 0,0 0.5763782936211278,-0.37489247517646906 l 10.19125101011468 15.967558024529096" fill="#ffcc13" stroke="none" /><path d="M 88.70189139769569 82.29822771554957 l -13.116517503758708 -20.550838568606892 a45.37990970654627,45.37990970654627 0 0,0 0.6620731048172742,-0.41459011749787555 l 12.76082524656919 20.773573027427695" fill="#ebff1a" stroke="none" /><line stroke="#e1ed5e" stroke-width="0.3" x1="56.762969772571076" x2="54.21961505331055" y1="26.818313649435495" y2="22.513508569990535" /><path d="M 56.25429882871897 25.957352633546506 a86.0,86.0 0 0,1 42.265352541879196,-11.944610805530505" fill="none" id="id36" stroke="none" /><text fill="#e1ed5e" style="font-size:6.75px; font-family:Arial;" text-anchor="middle"><textPath startOffset="22.20632615414155" xlink:href="#id36">December</textPath></text><path d="M 89.94658935756843 81.56283822128135 l -16.010567061479623 -29.362116557304745 a54.44356659142212,54.44356659142212 0 0,0 0.8266476615400481,-0.44156655217322965 l 15.502774353411269 29.633361835979724" fill="#7dff26" stroke="none" /><path d="M 90.26544431104013 81.39251694778311 l -17.880379151482284 -34.1781240622774 a59.57268623024831,59.57268623024831 0 0,0 0.9127089057498886,-0.4675249513313199 l 17.28940975814363 34.480841538921226" fill="#45ff2d" stroke="none" /></svg>