<?xml version="1.0" encoding="utf-8" ?>
<svg baseProfile="full" height="200mm" version="1.1" viewBox="0,0,200,200" width="200mm" xmlns="http://www.w3.org/2000/svg" xmlns:ev="http://www.w3.org/2001/xml-events" xmlns:xlink="http://www.w3.org/1999/xlink"><defs /><rect fill="#1a1a1a" height="200" width="200" x="0" y="0" /><text alignment-baseline="middle" fill="#e1ed5e" style="dominant-baseline: central; font-size:9.0px; font-family:Arial;" text-anchor="middle" x="100.0" y="100.0">2025</text><line stroke="#e1ed5e" stroke-width="0.3" x1="100.0" x2="100.0" y1="15.0" y2="10.0" /><path d="M 100.0 14.0 a86.0,86.0 0 0,1 42.46469731375804,11.215312516191453" fill="none" id="id109" stroke="none" /><text fill="#e1ed5e" style="font-size:6.75px; font-family:Arial;" text-anchor="middle"><textPath startOffset="22.20632615414155" xlink:href="#id109">January</textPath></text><path d="M 100.0 79.0 l 0.0 -12.325519333920838 a33.32551933392084,33.32551933392084 0 0,0 0.573644033372934,0.004937535301125602 l -0.21216355410040566 12.323693175228271" fill="#ff8a0c" stroke="none" /><path d="M 100.72285384407766 79.0124445844662 l 0.5575694282234744 -16.188638088767565 a37.198237152122,37.198237152122 0 0,0 0.6397373507830773,0.027548436047983797 l -0.8361476113958832 16.176641926195384" fill="#ffbe11" stroke="none" /><path d="M 101.08401301168833 79.027996857942 l 2.013626394918347 -38.956893160707025 a60.00889918971123,60.00889918971123 0 0,0 1.0311184873812225,0.06219988302128252 l -2.6839069311391817 38.916460008305435" fill="#37ff2e" stroke="none" /><path d="M 101.44485096284872 79.0497635885617 l 0.6680185614671499 -9.686221727929926 a30.70922963787995,30.70922963787995 0 0,0 0.5270432208865092,0.04090869750066315 l -0.8346519717160003 9.673287768240797" fill="#ff6609" stroke="none" /><path d="M 102.16513564639614 79.11191278185805 l 3.96662142734212 -38.26787225714253 a59.47290127657165,59.47290127657165 0 0,0 1.017364113210643,0.11431271211266199 l -4.624752244062488 38.19392359155926" fill="#3cff2e" stroke="none" /><path d="M 102.88285421437855 79.19881850522331 l 1.6582335700534514 -11.964953787595123 a33.07931528324926,33.07931528324926 0 0,0 0.5633423453081134,0.08302201788598074 l -1.8639448957902205 11.934637285548174" fill="#ff870c" stroke="none" /><path d="M 103.59715602781102 79.31037775812273 l 4.047311759718055 -23.278765434767827 a44.62798452359603,44.62798452359603 0 0,0 0.7557109062826181,0.13810133774059896 l -4.447417787103574 23.205648615676488" fill="#e2ff1b" stroke="none" /><path d="M 103.95276090670814 79.375362276772 l 2.7184878787867763 -14.184472316504795 a35.44262549693793,35.44262549693793 0 0,0 0.59819319108532,0.11999192662235024 l -2.9622474793392217 14.135576433805237" fill="#ffa70f" stroke="none" /><path d="M 104.66035177308747 79.52364482259891 l 2.1349599948863522 -9.380450505321717 a30.62033813660183,30.62033813660183 0 0,0 0.5129290311264108,0.12139372959528377 l -2.2961127129752867 9.342310863585565" fill="#ff6509" stroke="none" /><path d="M 105.01212808612495 79.60689891045804 l 4.365632045086038 -17.762669685485744 a39.29128692871981,39.29128692871981 0 0,0 0.6553994553931816,0.16707591425733362 l -4.670740389164244 17.684890775059543" fill="#ffda14" stroke="none" /><path d="M 105.36241919743992 79.69619591428918 l 2.3819962456086556 -9.018986267769991 a30.328237744199996,30.328237744199996 0 0,0 0.5035962151203648,0.13765186904963175 l -2.5368903499527313 8.976647857894067" fill="#ff6108" stroke="none" /><path d="M 105.71112130821622 79.79150937346287 l 5.150597951604931 -18.225109362731992 a39.938935306469006,39.938935306469006 0 0,0 0.6599619640502827,0.19266099465490968 l -5.46355013337864 18.13375003915838" fill="#ffe215" stroke="none" /><path d="M 106.0581310904928 79.89281104454417 l 15.67831041225094 -52.036964082231 a75.3475394868829,75.3475394868829 0 0,0 1.2386225124347008,0.3848460439189054 l -16.57171829739636 51.759377903429574" fill="#42ffd7" stroke="none" /><path d="M 106.74666289553966 80.11325718540242 l 3.1635220168008007 -9.324928443961086 a30.846936682835832,30.846936682835832 0 0,0 0.501362600446315,0.1749155667830013 l -3.3235666213103894 9.269092024005879" fill="#ff6809" stroke="none" /><path d="M 107.08798089147638 80.2323363322302 l 6.819937395308792 -19.020117397301455 a41.205850931922186,41.205850931922186 0 0,0 0.6656072817946932,0.245148779175908 l -7.146327002876062 18.89990535031922" fill="#fff216" stroke="none" /><path d="M 107.4271985657038 80.35727306442388 l 6.824080881134804 -18.04766038616265 a40.294717548762776,40.294717548762776 0 0,0 0.6466665797864956,0.2508965863890645 l -7.1337306259209665 17.92752109588304" fill="#ffe615" stroke="none" /><path d="M 110.05341064243156 81.56283822128135 l 2.7748378525101534 -5.088833652185141 a26.79620160513203,26.79620160513203 0 0,0 0.40306069483002266,0.2243028402883525 l -2.862022636412211 5.040315414336608" fill="#ff2e04" stroke="none" /><path d="M 110.36928655335952 81.73862282372117 l 5.822053652345777 -10.253233637522731 a32.790890922929464,32.790890922929464 0 0,0 0.48843322981263537,0.2829320528910086 l -5.997683614623741 10.151497427241672" fill="#ff830c" stroke="none" /><line stroke="#e1ed5e" stroke-width="0.3" x1="143.23703022742887" x2="145.7803849466894" y1="26.81831364943548" y2="22.513508569990506" /><path d="M 143.74570117128098 25.957352633546492 a86.0,86.0 0 0,1 28.547481713284135,27.462654790039103" fill="none" id="id110" stroke="none" /><text fill="#e1ed5e" style="font-size:6.75px; font-family:Arial;" text-anchor="middle"><textPath startOffset="19.985693538727396" xlink:href="#id110">February</textPath></text><path d="M 110.99172775467656 82.1063720568725 l 23.594100190890536 -38.40925283916768 a66.07718122821004,66.07718122821004 0 0,0 0.9640372758833603,0.6036800537172106 l -24.25175661914616 37.99742844412753" fill="#36ff70" stroke="none" /><path d="M 111.2981086023043 82.29822771554956 l 4.874111160314903 -7.636712381344582 a30.059599085968866,30.059599085968866 0 0,0 0.4337642721311085,0.2821323485322729 l -5.004842458230291 7.55168110865278" fill="#ff5d08" stroke="none" /><path d="M 111.60114157652 82.49532879139004 l 4.992508517304823 -7.533070734907863 a30.037272596999966,30.037272596999966 0 0,0 0.4285250410901053,0.2893420206386039 l -5.12143825280147 7.44601680197059" fill="#ff5c08" stroke="none" /><path d="M 112.19680574252982 82.90503203632743 l 12.695777252063431 -17.794323364613245 a42.859110321292405,42.859110321292405 0 0,0 0.59687369287484,0.433654121721179 l -13.000196261292059 17.57315000807539" fill="#f7ff18" stroke="none" /><path d="M 112.48926042617603 83.11751280151076 l 8.400016184274548 -11.354808920542144 a35.12416218818298,35.12416218818298 0 0,0 0.4829636632310575,0.3637582182588473 l -8.594226001263989 11.20853411277745" fill="#ffa30f" stroke="none" /><path d="M 112.77801427241765 83.33499621200491 l 8.392915756648609 -10.945986590325607 a34.79331930079879,34.79331930079879 0 0,0 0.4721411094605099,0.3685136249121121 l -8.580089421268548 10.79989457619027" fill="#ff9e0e" stroke="none" /><path d="M 113.06298171725822 83.55741782278167 l 13.974822536432894 -17.590330671883486 a43.46587185201139,43.46587185201139 0 0,0 0.5818147074300832,0.4704536975743277 l -14.275540642427469 17.347170877045027" fill="#f0ff19" stroke="none" /><path d="M 113.6212207817346 84.01681056812373 l 15.416672925910405 -18.089979432278547 a44.76807017754617,44.76807017754617 0 0,0 0.5822113137192723,0.5048879140517984 l -15.725778038276442 17.821926524807076" fill="#e0ff1b" stroke="none" /><path d="M 113.89432698308785 84.25364557470407 l 14.066130213968483 -15.941057959202285 a42.25966481520731,42.25966481520731 0 0,0 0.5413040715793859,0.4859881400928481 l -14.33844527314386 15.69657081034014" fill="#ffff18" stroke="none" /><path d="M 114.16331599549186 84.49514656593476 l 6.114187233545598 -6.693317931671634 a30.06552758868942,30.06552758868942 0 0,0 0.37910069881111846,0.3523327836582304 l -6.228495816151564 6.5870805619387625" fill="#ff5d08" stroke="none" /><path d="M 114.42810811169701 84.74124197986012 l 8.689868882511908 -9.190158923018824 a33.648037089825095,33.648037089825095 0 0,0 0.4174227372119181,0.401560342474264 l -8.846774863336245 9.039215493782258" fill="#ff8f0d" stroke="none" /><path d="M 114.68862486808459 84.99185889309783 l 11.328164268769418 -11.574581647684822 a37.19562428618133,37.19562428618133 0 0,0 0.45372320631174023,0.45177477467107746 l -11.525723275248481 11.377871022363626" fill="#ffbe11" stroke="none" /><path d="M 114.94478906791727 85.2469230424477 l 15.637958533071872 -15.437354428286547 a42.97402236338658,42.97402236338658 0 0,0 0.5151474838707704,0.530904764871075 l -15.901370280645752 15.165885467865357" fill="#f6ff19" stroke="none" /><path d="M 115.68641384162765 86.03803664274999 l 6.345409585307223 -5.647841311039242 a29.494841627716802,29.494841627716802 0 0,0 0.3342862995180658,0.3821470275790223 l -6.441687748403137 5.537778727257272" fill="#ff5507" stroke="none" /><path d="M 115.9244219780498 86.31012108654704 l 15.440603290371973 -13.273950519976264 a41.361974176818514,41.361974176818514 0 0,0 0.45949093241293765,0.5438923330762112 l -15.666804836272028 13.006199237270947" fill="#fff417" stroke="none" /><path d="M 116.15771136456269 86.58626213691792 l 21.810020250770297 -18.106146831783203 a49.34624377996322,49.34624377996322 0 0,0 0.5369376720993678,0.6582220977688326 l -22.118456414946074 17.728040564406268" fill="#aaff21" stroke="none" /><path d="M 116.38621287248628 86.86637796730983 l 25.384037005092694 -20.3454178389496 a53.531298186782585,53.531298186782585 0 0,0 0.5700979238086503,0.7239664688863895 l -25.730489009495308 19.90545897611017" fill="#7bff26" stroke="none" /><path d="M 116.82858285166822 87.43820079747576 l 9.614464065703324 -7.17677585200097 a32.99766772754458,32.99766772754458 0 0,0 0.335849299677562,0.4580980673251601 l -9.736575977894512 7.010215341004316" fill="#ff860c" stroke="none" /><path d="M 117.04232023915458 87.72973835380427 l 17.932584478861436 -12.911240984816388 a43.09700726024917,43.09700726024917 0 0,0 0.42827626378259226,0.6057664027730413 l -18.15217336244791 12.600648081711554" fill="#f4ff19" stroke="none" /><path d="M 117.45458315368197 88.32363383020206 l 14.628553669611456 -9.785873869173063 a38.59994062058355,38.59994062058355 0 0,0 0.36468371876705163,0.5554383231940363 l -14.794834023736433 9.532617482001351" fill="#ffd113" stroke="none" /><line stroke="#e1ed5e" stroke-width="0.3" x1="172.23445277983987" x2="176.4835382374775" y1="55.19839476539836" y2="52.563006222186495" /><path d="M 173.08426987136738 54.67131705675599 a86.0,86.0 0 0,1 12.851231095245387,41.99856678651699" fill="none" id="id111" stroke="none" /><text fill="#e1ed5e" style="font-size:6.75px; font-family:Arial;" text-anchor="middle"><textPath startOffset="22.20632615414155" xlink:href="#id111">March</textPath></text><path d="M 118.03404312379186 89.2402003453031 l 31.431843219361195 -18.75343945318565 a57.6012603538567,57.6012603538567 0 0,0 0.5006929912339253,0.8558466240365067 l -31.74999588506545 18.209613416795246" fill="#50ff2b" stroke="none" /><path d="M 118.3937258080291 89.86733742301442 l 19.272022597026574 -10.61649522178214 a43.00274586896885,43.00274586896885 0 0,0 0.3515820560508844,0.6514281538019306 l -19.45191275229592 10.283186084647749" fill="#f6ff19" stroke="none" /><path d="M 118.73160827565052 90.50648371742162 l 22.116451184961065 -11.209015603332457 a45.79474629457854,45.79474629457854 0 0,0 0.3503079738839551,0.7061994992677383 l -22.30611917179843 10.826656515565768" fill="#d4ff1c" stroke="none" /><path d="M 119.04729006885535 91.15688171328212 l 12.873915061928539 -5.976994800533038 a35.19373650126525,35.19373650126525 0 0,0 0.2503744138424529,0.5516668325156316 l -12.97489179273434 5.7545059591753445" fill="#ffa40f" stroke="none" /><path d="M 119.196687751892 91.48605970444005 l 12.3096221198826 -5.459451606658298 a34.46597224784556,34.46597224784556 0 0,0 0.23586097172951195,0.5443996417745135 l -12.401773801454793 5.246752820297182" fill="#ff9a0e" stroke="none" /><path d="M 119.47837535516314 92.15188598940014 l 8.714121307916832 -3.511043209699766 a30.394856815804538,30.394856815804538 0 0,0 0.19135219626054858,0.4869704677013137 l -8.77326705405908 3.360523737102668" fill="#ff6209" stroke="none" /><path d="M 119.61058180528143 92.48833698450437 l 15.018551477433569 -5.752725686546049 a37.08262233918862,37.08262233918862 0 0,0 0.22319396714288425,0.5980488668839223 l -15.115350033078078 5.493353682632794" fill="#ffbd11" stroke="none" /><path d="M 119.85752413597 93.16781622104841 l 14.95715596105161 -5.146162111480875 a36.81769575256975,36.81769575256975 0 0,0 0.2010293634322502,0.601052209162085 l -15.043522618255631 4.887936799396476" fill="#ffb911" stroke="none" /><path d="M 119.97218684219823 93.5106431181261 l 24.703337747941507 -8.026600997000044 a46.974626454559726,46.974626454559726 0 0,0 0.2432491918557296,0.7711664120185997 l -24.837842423565444 7.600184418555025" fill="#c5ff1e" stroke="none" /><path d="M 120.08093135843002 93.85539295169968 l 24.66761612029457 -7.548096508676024 a46.79660919505709,46.79660919505709 0 0,0 0.22906740287715033,0.7723014069959006 l -24.793889420283424 7.1223657149335935" fill="#c8ff1d" stroke="none" /><path d="M 120.28053869075195 94.5502522615342 l 16.47207416278399 -4.426344402646858 a38.05642846539389,38.05642846539389 0 0,0 0.16455539526539015,0.6340990643278952 l -16.545825889919684 4.1421489127701125" fill="#ffca12" stroke="none" /><path d="M 120.45610955862082 95.25157060432595 l 24.3973510925712 -5.663300676629551 a46.0460319190106,46.0460319190106 0 0,0 0.17257529372902253,0.7736212031726719 l -24.49122077330226 5.2425013039069155" fill="#d0ff1d" stroke="none" /><path d="M 120.53481517161879 95.60439243477599 l 2.643089613787367 -0.5657701130899886 a23.70296476621071,23.70296476621071 0 0,0 0.0819679042963925,0.39970461165791127 l -2.652436813998756 0.5201898452686655" fill="#ff0000" stroke="none" /><path d="M 120.6074358757038 95.95851677861258 l 15.822192302480728 -3.103012189470531 a37.123599285044364,37.123599285044364 0 0,0 0.11758330153834244,0.6281346985462568 l -15.87326132792893 2.8301994134617114" fill="#ffbd11" stroke="none" /><path d="M 120.67395015179393 96.31383870115 l 39.41244998921945 -7.027232182356556 a61.034025606944304,61.034025606944304 0 0,0 0.1755110090633527,1.0358759106004771 l -39.52757285980303 6.347770483440241" fill="#30ff33" stroke="none" /><path d="M 120.78858239683441 97.02765380044208 l 13.215649393883021 -1.889570173701677 a34.35005109890534,34.35005109890534 0 0,0 0.07865180425729235,0.5860472979942525 l -13.24621719719815 1.6618045336427603" fill="#ff980e" stroke="none" /><path d="M 120.83666639777658 97.38593545837742 l 3.5312232018727467 -0.4430097014729519 a24.5589036088441,24.5589036088441 0 0,0 0.04901214194597822,0.4199061009824689 l -3.538325696822314 0.3821598621656303" fill="#ff0d01" stroke="none" /><path d="M 120.87857604477298 97.74499172005257 l 21.682035753762307 -2.341786625965364 a42.80813240580168,42.80813240580168 0 0,0 0.07282045398623653,0.7332920338672042 l -21.719133333430772 1.9682190613937247" fill="#f8ff18" stroke="none" /><path d="M 120.91429891909075 98.10471618934814 l 2.7367995225288606 -0.24801270404115489 a23.74801417898089,23.74801417898089 0 0,0 0.033389160804588966,0.4074323334590185 l -2.7406631671529444 0.20086645337436757" fill="#ff0100" stroke="none" /><path d="M 120.94382443527127 98.46500227214037 l 15.796445661437746 -1.157740233809931 a36.83881491727641,36.83881491727641 0 0,0 0.040907590093743215,0.6328223126222636 l -15.814033842535904 0.8856588569346322" fill="#ffba11" stroke="none" /><path d="M 120.96714384426684 98.82574320788733 l 46.34976123947955 -2.5958004749007086 a67.42239273305778,67.42239273305778 0 0,0 0.05492161256794032,1.1593084371813969 l -46.38757646028098 1.7975809310963118" fill="#38ff7f" stroke="none" /><line stroke="#e1ed5e" stroke-width="0.3" x1="184.98032266829074" x2="189.97916517819016" y1="98.17113171792111" y2="98.06355123074" /><path d="M 185.9800911702706 98.14961562048488 a86.0,86.0 0 0,1 -9.607161424134198,41.387399972396054" fill="none" id="id112" stroke="none" /><text fill="#e1ed5e" style="font-size:6.75px; font-family:Arial;" text-anchor="middle"><textPath startOffset="21.466115282336823" xlink:href="#id112">April</textPath></text><path d="M 120.99513854157772 99.54816195383933 l 11.812068047690389 -0.2542084557916047 a32.81480315122788,32.81480315122788 0 0,0 0.007292688225730752,0.5648267399072452 l -11.814693743033835 0.05084545782389687" fill="#ff830c" stroke="none" /><path d="M 120.99980553446 99.90962569577887 l 9.073678595908188 -0.03904928493198305 a30.07376262134381,30.07376262134381 0 0,0 -0.0022278968583270254,0.5176847686841951 l -9.073006401760358 -0.11714496195589674" fill="#ff5d08" stroke="none" /><path d="M 120.99824983174949 100.27111621757518 l 14.6422714102901 0.18905181495006432 a35.643491818597596,35.643491818597596 0 0,0 -0.01320156405011913,0.6134248068591853 l -14.636847783554973 -0.4410664375993645" fill="#ffaa0f" stroke="none" /><path d="M 120.9764740272857 100.99374915477107 l 43.426033505492924 2.0572849390707435 a64.47473757644457,64.47473757644457 0 0,0 -0.06206046295185143,1.1081312558661964 l -43.38418669165355 -2.8044879112723633" fill="#34ff5d" stroke="none" /><path d="M 120.95626037817324 101.35467743843564 l 8.194431574483007 0.5297133827521395 a29.2115348806877,29.2115348806877 0 0,0 -0.03675567991640501,0.5015020499356919 l -8.184099335902264 -0.6706885691846016" fill="#ff5107" stroke="none" /><path d="M 120.92983693683757 101.71520430193887 l 6.6205401030284845 0.5425545789077256 a27.642734130379008,27.642734130379008 0 0,0 -0.042945493381384946,0.47389994087333753 l -6.610220013370024 -0.6564359083296336" fill="#ff3a05" stroke="none" /><path d="M 120.89721153311464 102.0752229133903 l 22.161906807919532 2.200815010143142 a43.270916013307165,43.270916013307165 0 0,0 -0.07998463674180302,0.7405583985998511 l -22.12073986967668 -2.5819697306277845" fill="#f2ff19" stroke="none" /><path d="M 120.81339534386255 102.79330883721812 l 18.861318544928356 2.531325951518533 a40.03042165392269,40.03042165392269 0 0,0 -0.0975330720061212,0.6821460784471288 l -18.814951421905633 -2.855617501946071" fill="#ffe315" stroke="none" /><path d="M 120.70491114924044 103.5080841355445 l 19.133388375436613 3.241817158029345 a40.40607969713065,40.40607969713065 0 0,0 -0.12209092894805791,0.6847507676470476 l -19.07475100414937 -3.570686676409611" fill="#ffe815" stroke="none" /><path d="M 120.64145759157962 103.86396538481128 l 34.98613766289371 6.549209244448432 a56.59384736572486,56.59384736572486 0 0,0 -0.1874875121142149,0.9559947850191829 l -34.86822021780383 -7.150467756535559" fill="#5aff2a" stroke="none" /><path d="M 120.49622156327973 104.57218783832717 l 20.251421417114305 4.517579126781839 a41.749182889460755,41.749182889460755 0 0,0 -0.162502599154589,0.700056944069816 l -20.170658252029163 -4.86550472820022" fill="#fff917" stroke="none" /><path d="M 120.41448212921028 104.9243191809786 l 6.643136474685814 1.6024371403155155 a27.833671561464133,27.833671561464133 0 0,0 -0.11635625927256558,0.46478541637913734 l -6.614568901118187 -1.7165503960920487" fill="#ff3d05" stroke="none" /><path d="M 120.32669344350535 105.2749913415812 l 22.11645312644755 5.739452856547762 a43.849044137269416,43.849044137269416 0 0,0 -0.19588396100435998,0.7289570895193487 l -22.014381089101413 -6.119300879242659" fill="#ebff1a" stroke="none" /><path d="M 120.13307415673323 105.97154293290107 l 15.145841491778096 4.492311607207767 a36.79801816907173,36.79801816907173 0 0,0 -0.185345007005747,0.6057182068851159 l -15.066269712266216 -4.752356786644939" fill="#ffb911" stroke="none" /><path d="M 119.79798401119884 107.00284435728193 l 23.246412025639728 8.222605149530287 a45.6577960797572,45.6577960797572 0 0,0 -0.2684585767533658,0.738682704854397 l -23.101429187881138 -8.621535651390815" fill="#d5ff1c" stroke="none" /><path d="M 119.67450827220406 107.3425965602758 l 11.493356701794166 4.289361656059451 a33.26767588792392,33.26767588792392 0 0,0 -0.20484289509227274,0.534780160285542 l -11.417819527108387 -4.486565383178136" fill="#ff890c" stroke="none" /><path d="M 119.54520255179757 107.68017299344265 l 16.739846021443977 6.577824557589878 a38.985833890372895,38.985833890372895 0 0,0 -0.25080401140880615,0.6224749880293855 l -16.624139395777778 -6.864998913462077" fill="#ffd614" stroke="none" /><path d="M 119.41010516605496 108.01547362559984 l 10.12113199888316 4.179558323060391 a31.950160762047286,31.950160762047286 0 0,0 -0.21429279971820722,0.5065248774641392 l -10.047688217972643 -4.353157726190694" fill="#ff770b" stroke="none" /><path d="M 119.26925614724726 108.34839909993367 l 23.72580497682514 10.279197463573322 a46.856831250048266,46.856831250048266 0 0,0 -0.32701363623508894,0.7373294206314221 l -23.545350255858775 -10.686075220697433" fill="#c7ff1e" stroke="none" /><path d="M 119.12269723197855 108.67885076344098 l 22.412612345346695 10.171981253713197 a45.61289082510788,45.61289082510788 0 0,0 -0.33063998966166613,0.712169122616877 l -22.234197738845197 -10.556270443608904" fill="#d6ff1c" stroke="none" /><path d="M 118.97047184881838 109.00673069616215 l 9.019832349979714 4.282402754566112 a30.984805905677685,30.984805905677685 0 0,0 -0.232897652696971,0.47983814656184476 l -8.944781440668029 -4.437029857093233" fill="#ff6a09" stroke="none" /><path d="M 118.81262510543309 109.33194174019688 l 14.333656188559676 7.110163718566909 a37.00025399287962,37.00025399287962 0 0,0 -0.2879347964648713,0.5681226698064096 l -14.209142722308535 -7.355840600076013" fill="#ffbc11" stroke="none" /><path d="M 118.64920377521936 109.65438752849418 l 4.8443183389193285 2.5078243081596825 a26.45496131328048,26.45496131328048 0 0,0 -0.212833302804106,0.4026004005810306 l -4.8004325278903295 -2.5908397238268472" fill="#ff2904" stroke="none" /><line stroke="#e1ed5e" stroke-width="0.3" x1="174.80103733775053" x2="179.2010983576182" y1="140.37084112569926" y2="142.7455964860345" /><path d="M 175.68104954172406 140.8457921977663 a86.0,86.0 0 0,1 -30.038265399797805,32.042727171017184" fill="none" id="id113" stroke="none" /><text fill="#e1ed5e" style="font-size:6.75px; font-family:Arial;" text-anchor="middle"><textPath startOffset="22.206326154141568" xlink:href="#id113">May</textPath></text><path d="M 118.48025628344425 109.97397251340804 l 28.589659137187105 15.430114714235136 a53.4877984738117,53.4877984738117 0 0,0 -0.44426351715887163,0.806467328705032 l -28.319819210576725 -15.919952561337974" fill="#7bff26" stroke="none" /><path d="M 118.12598468904814 110.60418214915192 l 11.932580502091445 6.98087631233905 a34.824583593261295,34.824583593261295 0 0,0 -0.3071513751103686,0.5148033719990651 l -11.81064825128285 -7.18524177822422" fill="#ff9f0e" stroke="none" /><path d="M 117.94076556474637 110.91462005526583 l 34.57715487891212 21.035696984803785 a61.47320332215822,61.47320332215822 0 0,0 -0.5577532831310474,0.8992758849188315 l -34.209936956113104 -21.62776920108789" fill="#30ff38" stroke="none" /><path d="M 117.55443506779139 111.5257021239791 l 11.909312246521964 7.819288112934888 a35.24685876880384,35.24685876880384 0 0,0 -0.3373575788836413,0.5043038071536626 l -11.772951562227602 -8.023128834294358" fill="#ffa40f" stroke="none" /><path d="M 117.14729908036423 112.12312394758627 l 25.178030589783337 17.800843396123838 a51.835097697159824,51.835097697159824 0 0,0 -0.521362861801191,0.7241274153573405 l -24.867887935606543 -18.23160441693231" fill="#8eff24" stroke="none" /><path d="M 116.71984013943494 112.70617746262583 l 11.525254684333074 8.7585724564257 a35.47563770661591,35.47563770661591 0 0,0 -0.3736652007402418,0.48301264253272147 l -11.372782666374764 -8.955663093071674" fill="#ffa70f" stroke="none" /><path d="M 116.498646956653 112.99209946851258 l 24.18603474809871 19.04564477449402 a51.78475047344788,51.78475047344788 0 0,0 -0.5575049767026422,0.6955731787454844 l -23.85461185934121 -19.459145786817754" fill="#8eff24" stroke="none" /><path d="M 115.80600337817218 113.82643327865902 l 12.046101940712436 10.537428138298047 a37.00456071674044,37.00456071674044 0 0,0 -0.42351041385330046,0.475818439567255 l -11.862932677210797 -10.743220747606168" fill="#ffbc11" stroke="none" /><path d="M 115.56566222782051 114.09645910891815 l 16.482769648401696 14.927003101425065 a43.23729113161551,43.23729113161551 0 0,0 -0.5043395129154253,0.5473609330061598 l -16.22338372749055 -15.20851528923256" fill="#f3ff19" stroke="none" /><path d="M 115.07121518719521 114.62390073753431 l 13.833044275341507 13.422478802663747 a40.27475164902303,40.27475164902303 0 0,0 -0.4870547978490203,0.4933839387751941 l -13.599948852436953 -13.658603235419605" fill="#ffe615" stroke="none" /><path d="M 114.81725581225074 114.88116024355365 l 18.06990478950672 18.14783737053947 a46.609870369242145,46.609870369242145 0 0,0 -0.5734124871262746,0.5612048059835779 l -17.75484235000465 -18.45619227944562" fill="#caff1d" stroke="none" /><path d="M 114.29624159901734 115.38237550388516 l 9.679414291187257 10.41479218530757 a35.21826140157733,35.21826140157733 0 0,0 -0.44760808738451163,0.4088793751404333 l -9.498706654335882 -10.579864327034587" fill="#ffa40f" stroke="none" /><path d="M 113.75828350139079 115.86535959552629 l 15.71708400308444 18.124149678760542 a44.989821406966094,44.989821406966094 0 0,0 -0.5894406224613987,0.502334086102814 l -15.402777904045992 -18.392008155086305" fill="#ddff1b" stroke="none" /><path d="M 113.20401910651253 116.32954008644616 l 19.123448942419706 23.650157090603322 a51.414408260946786,51.414408260946786 0 0,0 -0.6929744297443864,0.550540797589601 l -18.71351701995797 -23.97583180219805" fill="#92ff23" stroke="none" /><path d="M 112.92097659922987 116.55440617244103 l 23.41810661424298 30.003370542812714 a59.06060905089897,59.06060905089897 0 0,0 -0.8067996197323838,0.6186195447100972 l -22.8981782660171 -30.402029429350183" fill="#41ff2d" stroke="none" /><path d="M 112.34349029814194 116.9893568818739 l 7.053164286134988 9.707847805549166 a32.99955980288093,32.99955980288093 0 0,0 -0.4624223163335384,0.32992604462998554 l -6.885014641952566 -9.82781811202337" fill="#ff860c" stroke="none" /><path d="M 111.45004920935366 117.60387380957326 l 4.310853082320985 6.627719434672391 a28.906334119052296,28.906334119052296 0 0,0 -0.4194421924850926,0.26770785246446227 l -4.196129087788962 -6.700941715960662" fill="#ff4c07" stroke="none" /><path d="M 111.1453310114006 117.79835938074945 l 8.71035409973891 13.909861666930905 a37.41202364536416,37.41202364536416 0 0,0 -0.5487467359712597,0.3370850644282058 l -8.46962816383534 -14.057735198187489" fill="#ffc112" stroke="none" /><line stroke="#e1ed5e" stroke-width="0.3" x1="143.8653032363475" x2="146.44561519142675" y1="172.8068346515853" y2="177.08958963109032" /><path d="M 144.38136562736335 173.6633856474863 a86.0,86.0 0 0,1 -40.68145358897372,12.25698825130547" fill="none" id="id114" stroke="none" /><text fill="#e1ed5e" style="font-size:6.75px; font-family:Arial;" text-anchor="middle"><textPath startOffset="21.466115282336833" xlink:href="#id114">June</textPath></text><path d="M 110.8373102113329 117.98757091392108 l 15.703618074437506 26.06458043654502 a51.429689021758435,51.429689021758435 0 0,0 -0.7622176955519105,0.4503316497052104 l -15.252632507857212 -26.331030658543984" fill="#92ff23" stroke="none" /><path d="M 110.5260780823613 118.17145234162733 l 6.352207630394923 10.965987266735999 a33.67294040520445,33.67294040520445 0 0,0 -0.504053825607857,0.2862149171769112 l -6.162505037865867 -11.073705349707538" fill="#ff8f0d" stroke="none" /><path d="M 110.21172684928248 118.3499491758327 l 7.780828561822661 13.981749684711286 a37.00095676371883,37.00095676371883 0 0,0 -0.5592028388494661,0.30492197437114726 l -7.539002911104546 -14.113612310842205" fill="#ffbc11" stroke="none" /><path d="M 109.57404056367764 118.69057910512821 l 7.2947214771676 14.240859740676308 a37.00047023006091,37.00047023006091 0 0,0 -0.5693598747021208,0.2854888608927553 l -7.048507694782718 -14.364316442478366" fill="#ffbc11" stroke="none" /><path d="M 109.2508944713604 118.85261126421891 l 7.0577396411406195 14.383130438945026 a37.021427216881605,37.021427216881605 0 0,0 -0.5745149591682436,0.2758020936173296 l -6.809112013972143 -14.502486809061915" fill="#ffbc11" stroke="none" /><path d="M 108.92500713936063 119.00905698771935 l 6.799745783070785 14.482538005191623 a36.99938904415443,36.99938904415443 0 0,0 -0.5788325446693827,0.26571363131420384 l -6.549445242633983 -14.5974387068399" fill="#ffbc11" stroke="none" /><path d="M 108.59647513512805 119.15986991738527 l 13.561153499436712 30.22517170056716 a54.128022708336374,54.128022708336374 0 0,0 -0.8533652019231328,0.3740902264315385 l -13.038867622855825 -30.45412648029315" fill="#74ff27" stroke="none" /><path d="M 107.93186726928326 119.44442032107085 l 4.032787620701656 9.886098052371969 a31.67699914277403,31.67699914277403 0 0,0 -0.5066493517284603,0.20160623310371426 l -3.8620171929313294 -9.954051129881751" fill="#ff730a" stroke="none" /><path d="M 107.2578585660854 119.70592522655815 l 5.529112532064358 15.012179850847168 a36.99801954200622,36.99801954200622 0 0,0 -0.5995096355039778,0.21496282576056128 l -5.269883335930645 -15.105130217647691" fill="#ffbc11" stroke="none" /><path d="M 106.57524785965236 119.94407469862006 l 5.976963592031673 18.129355865333807 a40.08920212770522,40.08920212770522 0 0,0 -0.6572312659477983,0.2104246966771705 l -5.664010980992934 -18.229553408670686" fill="#ffe415" stroke="none" /><path d="M 106.2309692047433 120.05430185196036 l 4.1505219401964535 13.358406549100069 a34.98834721856345,34.98834721856345 0 0,0 -0.5766829797770869,0.17374985120421915 l -3.91996398597912 -13.427871769410013" fill="#ffa10e" stroke="none" /><path d="M 105.53697534728816 120.25689768951611 l 4.220957414602017 15.442276177240796 a37.00875932201063,37.00875932201063 0 0,0 -0.615948337272943,0.16267755414110524 l -3.954518634517576 -15.512645080685484" fill="#ffbc11" stroke="none" /><path d="M 105.18746579009965 120.34920634021253 l 6.6674768834240385 26.15494122936403 a47.991409720547765,47.991409720547765 0 0,0 -0.802248892521001,0.1971732591630806 l -6.216274706159826 -26.26583574684114" fill="#baff1f" stroke="none" /><path d="M 104.83641907484287 120.43548508189849 l 3.687281550083481 15.5799954353498 a37.010381100870354,37.010381100870354 0 0,0 -0.621210171492763,0.1413854125450741 l -3.418551229197856 -15.641157581472557" fill="#ffbc11" stroke="none" /><path d="M 104.13013068566511 120.58985236759428 l 3.1470111101710914 15.688727328289627 a37.00124507996056,37.00124507996056 0 0,0 -0.6255543002169232,0.119888970468356 l -2.876489195382464 -15.740573497106451" fill="#ffbc11" stroke="none" /><path d="M 103.7750983002368 120.6578951692458 l 6.8699457115787474 37.59335705756352 a59.21592140636544,59.21592140636544 0 0,0 -1.004276729243205,0.1746063822700251 l -6.2218200108634925 -37.70604201835455" fill="#3fff2d" stroke="none" /><path d="M 103.06178313531738 120.77559828337769 l 2.332485265196568 15.82697883225438 a36.99792944318068,36.99792944318068 0 0,0 -0.6308524151852358,0.08743039640437494 l -2.059704258824502 -15.864783794151357" fill="#ffbc11" stroke="none" /><path d="M 102.70371172650421 120.8252237178851 l 2.059845779551365 15.865873851485782 a36.999028648852274,36.999028648852274 0 0,0 -0.6322827026575916,0.07656062988626045 l -1.7864356538423931 -15.898980010097393" fill="#ffbc11" stroke="none" /><path d="M 102.34483914955558 120.86867818915974 l 1.3396738231316738 11.922874069496352 a32.99790198449099,32.99790198449099 0 0,0 -0.5649985682869645,0.05856441174271248 l -1.1342426582391065 -11.944167849694823" fill="#ff860c" stroke="none" /><path d="M 101.62511606390274 120.93702456842531 l 1.2383971569289065 15.954769186036708 a37.00275874022964,37.00275874022964 0 0,0 -0.6354558455066535,0.04382475558733379 l -0.9635785506433229 -15.973722286140328" fill="#ffbc11" stroke="none" /><path d="M 101.26447882468166 120.96189622390904 l 1.8313685609987016 30.359510158700335 a51.41469657718852,51.41469657718852 0 0,0 -0.8838723296793185,0.04568610349490927 l -1.3085081629059037 -30.386536068957447" fill="#92ff23" stroke="none" /><line stroke="#e1ed5e" stroke-width="0.3" x1="102.19456741930631" x2="102.32365962044197" y1="184.97166512339345" y2="189.96999836594603" /><path d="M 102.22038585953345 185.97133177190398 a86.0,86.0 0 0,1 -42.740103519485714,-10.115201625700543" fill="none" id="id115" stroke="none" /><text fill="#e1ed5e" style="font-size:6.75px; font-family:Arial;" text-anchor="middle"><textPath startOffset="22.20632615414155" xlink:href="#id115">July</textPath></text><path d="M 100.54218724476979 120.99299961872073 l 0.41348682189918345 16.00983567616231 a37.0151743583891,37.0151743583891 0 0,0 -0.6370845761320535,0.010967988736235378 l -0.13784255587446204 -16.014581142177708" fill="#ffbc11" stroke="none" /><path d="M 100.18074693466247 120.99922214144158 l 0.13771274047038387 15.999499157452993 a37.00009181499365,37.00009181499365 0 0,0 -0.6369193502656676,0.0 l 0.13771274047037285 -15.999499157452993" fill="#ffbc11" stroke="none" /><path d="M 99.81925306533755 120.99922214144158 l -0.13770095316964404 15.99812970603234 a36.99872231284543,36.99872231284543 0 0,0 -0.6368014126823771,-0.010963113820654435 l 0.413062055744689 -15.993389114932526" fill="#ffbc11" stroke="none" /><path d="M 99.09653310690486 120.98055641714683 l -1.3253342004777386 30.77727493637038 a51.8057975590941,51.8057975590941 0 0,0 -0.8905957640089678,-0.04603362825194978 l 1.8549180329001953 -30.749901501356227" fill="#8eff24" stroke="none" /><path d="M 98.73552117531835 120.96189622390904 l -1.753461300518006 29.068002640022744 a50.120841402898776,50.120841402898776 0 0,0 -0.860735327189453,-0.05936134761556234 l 2.253559388486389 -29.033512947890898" fill="#a1ff22" stroke="none" /><path d="M 98.01472825383883 120.90594882070398 l -1.5122917450916502 15.925222270449003 a36.9968662770393,36.9968662770393 0 0,0 -0.6334698638554815,-0.06566174149062014 l 1.7861942055527251 -15.896831160502623" fill="#ffbc11" stroke="none" /><path d="M 97.65516085044442 120.86867818915974 l -0.6046307828384494 5.381113341060852 a26.414975454505672,26.414975454505672 0 0,0 -0.4514100148282261,-0.054659466290878034 l 0.697168220718065 -5.369908346044625" fill="#ff2803" stroke="none" /><path d="M 97.2962882734958 120.8252237178851 l -1.171919219081469 9.026657567601049 a30.102414047865643,30.102414047865643 0 0,0 -0.5132768479426942,-0.07113549413556412 l 1.3271246582109941 -9.005147507972879" fill="#ff5d08" stroke="none" /><path d="M 96.93821686468263 120.77559828337769 l -2.3327611282611076 15.828850689259609 a36.999821518517024,36.999821518517024 0 0,0 -0.6292861571095303,-0.0982815558170409 l 2.6048831489791553 -15.786350826095461" fill="#ffbc11" stroke="none" /><path d="M 96.58105272829116 120.7198165907248 l -2.604862612770238 15.786226370686116 a36.99969538016127,36.99969538016127 0 0,0 -0.6274990268983466,-0.1090987491537784 l 2.8762106111406345 -15.739049043011331" fill="#ffbc11" stroke="none" /><path d="M 96.22490169976321 120.6578951692458 l -5.468790070593346 29.926026555081584 a51.42161616699002,51.42161616699002 0 0,0 -0.8693494785878647,-0.16661289664055745 l 5.983107163752905 -29.82745646009256" fill="#92ff23" stroke="none" /><path d="M 95.16358092515715 120.4354850818985 l -3.6846919163371683 15.569053368301601 a36.99913676744292,36.99913676744292 0 0,0 -0.6184964490260736,-0.15201137922676594 l 3.9521416501064524 -15.503320730760805" fill="#ffbc11" stroke="none" /><path d="M 94.81253420990036 120.34920634021253 l -3.9552842549645892 15.51564842935036 a37.011858721609215,37.011858721609215 0 0,0 -0.615999921548255,-0.16269117801705765 l 4.221774619324333 -15.445265902029721" fill="#ffbc11" stroke="none" /><path d="M 94.46302465271185 120.25689768951611 l -3.19988862120119 11.706719346197945 a33.13616764216522,33.13616764216522 0 0,0 -0.5489066633890336,-0.15512650595420505 l 3.4009264526948373 -11.649904046905219" fill="#ff880c" stroke="none" /><path d="M 94.11515582081647 120.15858648285463 l -8.522833026039178 29.195040922591957 a51.413633411047144,51.413633411047144 0 0,0 -0.8474069132627868,-0.2553167515811708 l 9.024114913742212 -29.044008801905058" fill="#92ff23" stroke="none" /><path d="M 93.76903079525671 120.05430185196036 l -7.8357263344449715 25.21919399323822 a47.40845229953655,47.40845229953655 0 0,0 -0.7772246756668932,-0.24884279720223818 l 8.268672355202805 -25.080578349376278" fill="#c0ff1e" stroke="none" /><path d="M 93.08242187328487 119.8279376855182 l -5.006325061808581 14.349689955164335 a36.19792395144274,36.19792395144274 0 0,0 -0.5865450222137465,-0.21031417669353028 l 5.252589644652054 -14.261388237430847" fill="#ffb110" stroke="none" /><path d="M 92.40401165467489 119.57807347666478 l -4.666070718748036 12.026437012003223 a33.89989934674061,33.89989934674061 0 0,0 -0.5422029388034549,-0.2157537391432669 l 4.8723947335933495 -11.94433642845389" fill="#ff920d" stroke="none" /><path d="M 91.7346041902142 119.30500536409082 l -5.39685159961759 12.605113109824535 a34.7118519427452,34.7118519427452 0 0,0 -0.5472560248849706,-0.23990095893748387 l 5.6130282991603035 -12.510347597592597" fill="#ff9d0e" stroke="none" /><path d="M 91.40352486487194 119.15986991738527 l -5.8154836694010275 12.96158121333789 a35.20642241590133,35.20642241590133 0 0,0 -0.5507826913407102,-0.2528373194094378 l 6.037734356509157 -12.859556823594378" fill="#ffa40f" stroke="none" /><path d="M 91.07499286063937 119.00905698771935 l -14.783121234577564 31.486046970779235 a55.783786845056625,55.783786845056625 0 0,0 -0.8656775935132713,-0.41557785202709896 l 15.322911496091077 -31.226914842252576" fill="#63ff29" stroke="none" /><path d="M 90.7491055286396 118.85261126421891 l -7.2044744033295665 14.682164596026823 a37.3545225749043,37.3545225749043 0 0,0 -0.5748080000217349,-0.2882206640292362 l 7.456136311034062 -14.555976091088285" fill="#ffc011" stroke="none" /><path d="M 90.10565033884886 118.52300852407294 l -7.4700711099956525 13.984566503563638 a36.8546542908064,36.8546542908064 0 0,0 -0.5569917403985465,-0.30371630719933834 l 7.70968566226284 -13.853909544604534" fill="#ffba11" stroke="none" /><line stroke="#e1ed5e" stroke-width="0.3" x1="58.666819895761336" x2="56.23545636021788" y1="174.27360380694188" y2="178.64263932499728" /><path d="M 58.180547188652646 175.14741091055294 a86.0,86.0 0 0,1 -31.652253787137756,-30.449443065178592" fill="none" id="id116" stroke="none" /><text fill="#e1ed5e" style="font-size:6.75px; font-family:Arial;" text-anchor="middle"><textPath startOffset="22.20632615414155" xlink:href="#id116">August</textPath></text><path d="M 89.7882731507175 118.34994917583269 l -8.853431105155455 15.909161418938051 a39.20672017106764,39.20672017106764 0 0,0 -0.5868895633690614,-0.3332512109576797 l 9.125969435445723 -15.75440704218574" fill="#ffd914" stroke="none" /><path d="M 89.4739219176387 118.17145234162733 l -9.653254694584609 16.664673798893617 a40.25867801854663,40.25867801854663 0 0,0 -0.5966568604426259,-0.35251539007698085 l 9.938679426055618 -16.496039836522886" fill="#ffe615" stroke="none" /><path d="M 88.24862548938628 117.40417183066458 l -9.672787883707072 14.325716728503483 a38.28551373921281,38.28551373921281 0 0,0 -0.5430036517095371,-0.3734828630174625 l 9.9179484200395 -14.157093076120919" fill="#ffcd13" stroke="none" /><path d="M 87.65650970185807 116.9893568818739 l -11.89891209212607 16.377447476878157 a41.24363837935381,41.24363837935381 0 0,0 -0.5707629136981879,-0.42223675853980003 l 12.179059976242822 -16.170200769598587" fill="#fff216" stroke="none" /><path d="M 87.36589467227662 116.77436683061367 l -9.563519485854764 12.697534165354089 a36.8961718296154,36.8961718296154 0 0,0 -0.5040215107849793,-0.386462201890132 l 9.78066972513323 -12.53103262163659" fill="#ffba11" stroke="none" /><path d="M 87.07902340077011 116.55440617244103 l -16.230808045165954 20.794975273201516 a47.37935037888701,47.37935037888701 0 0,0 -0.6385890535553795,-0.5073337655561835 l 16.586354591438692 -20.5125075936402" fill="#c1ff1e" stroke="none" /><path d="M 86.51685102203217 116.09983520530335 l -10.37076753484115 12.383431239711605 a37.1524669487475,37.1524669487475 0 0,0 -0.4867583946633477,-0.41482606392996246 l 10.582391406081554 -12.203080785558692" fill="#ffbe11" stroke="none" /><path d="M 85.97065885151581 115.62618273729859 l -18.23554200474943 20.311139964736444 a48.29610592876015,48.29610592876015 0 0,0 -0.6138215443515522,-0.5607114271967941 l 18.58246309856784 -19.994235770953075" fill="#b6ff1f" stroke="none" /><path d="M 85.70375840098266 115.38237550388516 l -13.64562899612621 14.682333657507904 a41.04430373772833,41.04430373772833 0 0,0 -0.5133746568704897,-0.48542778130148795 l 13.896339487387516 -14.445271239460485" fill="#fff016" stroke="none" /><path d="M 85.18274418774928 114.88116024355367 l -15.760057776739787 15.828028360651233 a43.33620162229371,43.33620162229371 0 0,0 -0.5240778417364331,-0.5308880867669332 l 16.030176243531752 -15.554399779903635" fill="#f1ff19" stroke="none" /><path d="M 84.19399662182784 113.82643327865904 l -13.696907811358171 11.981484341526672 a39.19783642686936,39.19783642686936 0 0,0 -0.4398697029814831,-0.5116678394250126 l 13.901120023910433 -11.743939402940129" fill="#ffd814" stroke="none" /><path d="M 83.95833913139862 113.55231037782056 l -13.925263997683544 11.764336706499114 a39.22944309486891,39.22944309486891 0 0,0 -0.4313445396454343,-0.5195822850730516 l 14.125704537222514 -11.5228931643123" fill="#ffd914" stroke="none" /><path d="M 83.72743513129214 113.27417163493432 l -14.106546987842039 11.507265597261075 a39.20471997714064,39.20471997714064 0 0,0 -0.4220707118922124,-0.5265981094242735 l 14.302535611789112 -11.26273965425854" fill="#ffd814" stroke="none" /><path d="M 83.50135304334701 112.99209946851258 l -20.354438201861 16.028398355274444 a46.907773126008784,46.907773126008784 0 0,0 -0.4940799826168875,-0.6386649801842329 l 20.627325001695954 -15.67565538097696" fill="#c6ff1e" stroke="none" /><path d="M 83.06392112726016 112.41649034213515 l -18.2492281964082 13.379210580841251 a43.62824795540023,43.62824795540023 0 0,0 -0.43881750435371975,-0.6094791334837865 l 18.47682549313753 -13.063097841906325" fill="#eeff19" stroke="none" /><path d="M 82.6465618267979 111.8261652097733 l -7.831574586381512 5.337126509848263 a30.477261201643746,30.477261201643746 0 0,0 -0.29170642176744876,-0.4360615212952901 l 7.922284113559691 -5.201528074347152" fill="#ff6309" stroke="none" /><path d="M 82.44556493220864 111.52570212397912 l -16.397718351978703 10.766237506815477 a40.616244217586086,40.616244217586086 0 0,0 -0.37868871836635937,-0.5877333004780851 l 16.58061193372211 -10.482382606415944" fill="#ffeb16" stroke="none" /><path d="M 82.24976979558568 111.22182372390057 l -22.072384840691072 13.954321098705043 a47.11346874471742,47.11346874471742 0 0,0 -0.42746579732224915,-0.6892109733564359 l 22.30931527768128 -13.572313793983342" fill="#c4ff1e" stroke="none" /><line stroke="#e1ed5e" stroke-width="0.3" x1="26.63291911575756" x2="22.317208475507996" y1="142.92168965132927" y2="145.44649492493687" /><path d="M 25.769776987707644 143.4266507060508 a86.0,86.0 0 0,1 -11.730757126820373,-40.83630448921669" fill="none" id="id117" stroke="none" /><text fill="#e1ed5e" style="font-size:6.75px; font-family:Arial;" text-anchor="middle"><textPath startOffset="21.46611528233685" xlink:href="#id117">September</textPath></text><path d="M 81.69416730710424 110.29060199501025 l -13.916043788562067 7.822887402920626 a36.96414238360305,36.96414238360305 0 0,0 -0.30701992552825813,-0.557330344799491 l 14.048640123541842 -7.582186539723313" fill="#ffbb11" stroke="none" /><path d="M 81.51974371655577 109.97397251340807 l -13.022382969570103 7.0283056579645224 a35.79795724510399,35.79795724510399 0 0,0 -0.287998813677766,-0.5447852202916218 l 13.141434291472756 -6.803105422586775" fill="#ffac0f" stroke="none" /><path d="M 81.35079622478065 109.6543875284942 l -13.700164524272491 7.092350918338294 a36.4271173438523,36.4271173438523 0 0,0 -0.2834746653420999,-0.5593224079684406 l 13.820217859400858 -6.855474298667168" fill="#ffb410" stroke="none" /><path d="M 81.02952815118164 109.00673069616217 l -16.876599346453485 8.012609627841224 a39.68211761414878,39.68211761414878 0 0,0 -0.2876488361152791,-0.6195700025505129 l 17.01202279940859 -7.720919558011884" fill="#ffdf14" stroke="none" /><path d="M 80.87730276802145 108.67885076344099 l -27.700899506020793 12.572074425975547 a51.42033676366735,51.42033676366735 0 0,0 -0.3588623228016846,-0.8091398010314126 l 27.913202913553757 -12.09338628845144" fill="#92ff23" stroke="none" /><path d="M 80.20201598880116 107.00284435728193 l -17.160273288938505 6.069846450168037 a39.20214315073019,39.20214315073019 0 0,0 -0.2195491181524755,-0.6381125060152636 l 17.262213238034207 -5.773561241063477" fill="#ffd814" stroke="none" /><path d="M 80.0844068197444 106.66101706037122 l -17.261649292688194 5.7733726225504896 a39.201548498481614,39.201548498481614 0 0,0 -0.2085293685448911,-0.6417874045881652 l 17.358470912249334 -5.475386317984521" fill="#ffd814" stroke="none" /><path d="M 79.97269907076064 106.31721596034903 l -27.774381781782722 8.760879386624817 a50.1233461502488,50.1233461502488 0 0,0 -0.2524622902430591,-0.8250613718846744 l 27.92107084453191 -8.281491042188094" fill="#a1ff22" stroke="none" /><path d="M 79.76711848015287 105.62410040840567 l -19.118272386937466 5.314274362448712 a40.843131080061816,40.843131080061816 0 0,0 -0.18245584261169714,-0.6789860655975963 l 19.206916305890935 -4.984397363675576" fill="#ffed16" stroke="none" /><path d="M 79.4281124754447 104.21870165774334 l -15.571242601018199 3.193213403273225 a36.8952888611251,36.8952888611251 0 0,0 -0.12222893899764858,-0.6232427266355581 l 15.623901472991514 -2.9247069495697122" fill="#ffba11" stroke="none" /><path d="M 79.35854240842038 103.8639653848113 l -27.853277910585994 5.213977802804829 a49.33708973928832,49.33708973928832 0 0,0 -0.14907685088516914,-0.8361021491240701 l 27.938901203810353 -4.733756902947545" fill="#aaff21" stroke="none" /><path d="M 79.23777060512086 103.15116336523772 l -15.679862568756363 2.3797930154270373 a36.85942952856004,36.85942952856004 0 0,0 -0.08980703289597938,-0.6281101789054543 l 15.718503652668941 -2.109537364541182" fill="#ffba11" stroke="none" /><path d="M 79.18660465613746 102.79330883721812 l -15.428784529949926 2.0706549538421153 a36.5671128989769,36.5671128989769 0 0,0 -0.07835547103114632,-0.6245701987538526 l 15.46214151022792 -1.8047670008008543" fill="#ffb610" stroke="none" /><path d="M 79.1416061653843 102.43462659150553 l -15.4676720710587 1.805412537104911 a36.5726810063953,36.5726810063953 0 0,0 -0.06760320498116472,-0.6259217177253829 l 15.496457577540916 -1.538894497494746" fill="#ffb610" stroke="none" /><path d="M 79.10278846688536 102.07522291339032 l -17.217798060248676 1.7098342999559917 a38.30248835794462,38.30248835794462 0 0,0 -0.059506387917645946,-0.6566480320839014 l 17.244679044443398 -1.4132048793235241" fill="#ffcd13" stroke="none" /><path d="M 79.07016306316243 101.71520430193888 l -18.960625137998704 1.5538270031577093 a40.02418681519529,40.02418681519529 0 0,0 -0.05036079772947598,-0.6871330731785745 l 18.984562494392513 -1.2272207934823742" fill="#ffe315" stroke="none" /><line stroke="#e1ed5e" stroke-width="0.3" x1="15.007084014347285" x2="10.007500721073583" y1="101.09737516637583" y2="101.16192664675087" /><path d="M 14.007167355692545 101.11028546245083 a86.0,86.0 0 0,1 10.666146001902534,-42.60595125391555" fill="none" id="id118" stroke="none" /><text fill="#e1ed5e" style="font-size:6.75px; font-family:Arial;" text-anchor="middle"><textPath startOffset="22.20632615414155" xlink:href="#id118">October</textPath></text><path d="M 79.00175016825051 100.2711162175752 l -10.094659950075235 0.13033591110218146 a31.095501322736567,31.095501322736567 0 0,0 -0.0023035883662878053,-0.535272809460683 l 10.095407835731026 0.043446376562176967" fill="#ff6b09" stroke="none" /><path d="M 79.05617556472873 98.46500227214037 l -9.1377124589612 -0.6697137815344961 a30.162221648259333,30.162221648259333 0 0,0 0.04240738872931411,-0.5174775564743858 l 9.124830586412388 0.8269052552166603" fill="#ff5e08" stroke="none" /><path d="M 79.08570108090925 98.10471618934814 l -37.89808712194427 -3.4343790941674643 a59.05338312509063,59.05338312509063 0 0,0 0.10045507540080051,-1.011568900227675 l 37.83335492086124 4.0862235250995695" fill="#41ff2d" stroke="none" /><path d="M 79.21141760316559 97.0276538004421 l -19.332634023764154 -2.764175073175236 a40.52924479164432,40.52924479164432 0 0,0 0.10468917491916951,-0.6897708601243743 l 19.28218895540568 3.0965450456917023" fill="#ffe915" stroke="none" /><path d="M 79.26566170972629 96.67025291283419 l -17.988902647664137 -2.8888549686906013 a39.21938806593861,39.21938806593861 0 0,0 0.11278027798181016,-0.6656355847741492 l 17.936510508162105 3.1980763417805784" fill="#ffd914" stroke="none" /><path d="M 79.32604984820605 96.31383870115002 l -10.947097576487396 -1.9518653728436484 a32.11974477147935,32.11974477147935 0 0,0 0.10173436055595028,-0.5434690220768343 l 10.911877492021583 2.1400124723830554" fill="#ff7a0b" stroke="none" /><path d="M 79.46518482838121 95.60439243477599 l -19.52943674432635 -4.180399929606837 a40.971846262228766,40.971846262228766 0 0,0 0.1535578226536662,-0.6883696092932007 l 19.454584534670648 4.515947708449998" fill="#ffef16" stroke="none" /><path d="M 79.54389044137918 95.25157060432595 l -15.990593186958288 -3.7118594093185515 a37.41575373674153,37.41575373674153 0 0,0 0.15102993668545406,-0.6261165919850515 l 15.924330450012018 3.986561232963" fill="#ffc112" stroke="none" /><path d="M 79.71946130924805 94.55025226153421 l -11.89908709787156 -3.197500026515745 a33.32121261006,33.32121261006 0 0,0 0.15361591435356248,-0.5526381765932425 l 11.842284412951637 3.40184950652793" fill="#ff8a0c" stroke="none" /><path d="M 79.81627453868168 94.20196356495316 l -19.794352218076916 -5.686183930142702 a41.59487964084033,41.59487964084033 0 0,0 0.20360515892508127,-0.686455378349044 l 19.693541162040127 6.026068695238285" fill="#fff717" stroke="none" /><path d="M 79.91906864156998 93.8553929516997 l -19.828374730528292 -6.067326706656767 a41.735884302810994,41.735884302810994 0 0,0 0.21612135942930458,-0.6851637698781196 l 19.720997887330785 6.4077406429613015" fill="#fff917" stroke="none" /><path d="M 80.14247586403 93.16781622104843 l -17.874935943556217 -6.150054083638036 a39.90334627038057,39.90334627038057 0 0,0 0.22905835515589304,-0.6475788153555493 l 17.766424507590514 6.456830525420196" fill="#ffe115" stroke="none" /><path d="M 80.38941819471856 92.48833698450439 l -17.48230343560272 -6.696444473030478 a39.72093218819157,39.72093218819157 0 0,0 0.25006492571385136,-0.6363879600564264 l 17.36444496000718 6.996381437982668" fill="#ffdf14" stroke="none" /><path d="M 80.803312248108 91.48605970444005 l -20.31376163369655 -9.009374740206567 a43.22201037080386,43.22201037080386 0 0,0 0.3074889621706706,-0.67751116893659 l 20.15567035456253 9.357707917985229" fill="#f3ff19" stroke="none" /><path d="M 81.10775173730289 90.83032412892265 l -18.774279819074824 -9.112417868959735 a41.868870169308565,41.868870169308565 0 0,0 0.3202768934120462,-0.6456586735577352 l 18.614642912709364 9.434236131016432" fill="#fffa17" stroke="none" /><path d="M 81.6062741919709 89.86733742301443 l -17.613838286007383 -9.703041238105001 a41.10960736647998,41.10960736647998 0 0,0 0.34677394354477764,-0.6168721514897283 l 17.444206701170174 10.004796899529513" fill="#fff116" stroke="none" /><line stroke="#e1ed5e" stroke-width="0.3" x1="26.266209847984243" x2="21.928928074336255" y1="57.711370442889674" y2="55.22380399835377" /><path d="M 25.398753493254645 57.213857153982495 a86.0,86.0 0 0,1 29.58750427330803,-30.492523968695096" fill="none" id="id119" stroke="none" /><text fill="#e1ed5e" style="font-size:6.75px; font-family:Arial;" text-anchor="middle"><textPath startOffset="21.46611528233685" xlink:href="#id119">November</textPath></text><path d="M 81.78341655067845 89.55222093294921 l -33.16314896360153 -19.020100805582583 a59.23033721845189,59.23033721845189 0 0,0 0.5148535731946969,-0.8800516488275483 l 32.8308357159365 19.588131866764023" fill="#3fff2d" stroke="none" /><path d="M 81.96595687620814 89.24020034530311 l -7.1124775430943465 -4.243576045976256 a29.282226419206665,29.282226419206665 0 0,0 0.26198417786547107,-0.43063310430943946 l 7.038377566942659 4.36537692349277" fill="#ff5207" stroke="none" /><path d="M 82.34701348167596 88.62581576622439 l -17.66345361095865 -11.38092839799362 a42.01245165768968,42.01245165768968 0 0,0 0.39692436979754064,-0.6045430466173972 l 17.464932605803188 11.683289508588684" fill="#fffc17" stroke="none" /><path d="M 83.17141714833178 87.43820079747576 l -8.954092942299999 -6.683837764197829 a32.17360584938737,32.17360584938737 0 0,0 0.3351019851908269,-0.4409549322979496 l 8.837715016885063 6.836977472376804" fill="#ff7a0b" stroke="none" /><path d="M 83.39014120810768 87.1503855733568 l -49.82957637567698 -38.54884327992962 a84.0,84.0 0 0,0 0.8945836776241158,-1.1360304241878092 l 49.15863861745889 39.40086609807048" fill="#4dd2ff" stroke="none" /><path d="M 83.84228863543731 86.58626213691792 l -15.40365331518984 -12.787737263144505 a41.019959035067316,41.019959035067316 0 0,0 0.4556914799082929,-0.5393949797197203 l 15.181251221794424 13.05099119249334" fill="#fff016" stroke="none" /><path d="M 84.07557802195018 86.31012108654704 l -11.938831113858194 -10.263553210419213 a36.74408501210328,36.74408501210328 0 0,0 0.4164471999175234,-0.47607113968332826 l 11.760392050362828 10.467539906305484" fill="#ffb811" stroke="none" /><path d="M 84.31358615837235 86.03803664274999 l -17.686716391919195 -15.742367163534293 a44.677881253180274,44.677881253180274 0 0,0 0.5162558099945419,-0.5700625596424481 l 17.41311694130861 16.044482510446297" fill="#e1ff1b" stroke="none" /><path d="M 84.80347519578584 85.50635884689758 l -11.578775290870725 -11.043223119785347 a37.000650427711996,37.000650427711996 0 0,0 0.44354218947064794,-0.45710921470867255 l 11.386968837696958 11.240896530044145" fill="#ffbc11" stroke="none" /><path d="M 85.05521093208273 85.24692304244772 l -13.584508272275778 -13.410245876378907 a40.08857143592643,40.08857143592643 0 0,0 0.4890122297295047,-0.4869122558074714 l 13.35166024237896 13.642093982836489" fill="#ffe415" stroke="none" /><path d="M 85.57189188830299 84.74124197986013 l -10.994789197805432 -11.627777290894464 a37.00283081929007,37.00283081929007 0 0,0 0.4665741846771778,-0.4336298555658562 l 10.793007129333397 11.815311732534967" fill="#ffbc11" stroke="none" /><path d="M 85.83668400450813 84.49514656593479 l -12.999952013954008 -14.231296589753017 a40.27507600479497,40.27507600479497 0 0,0 0.5158834723346185,-0.4631652750976486 l 12.753057554023417 14.452960873619944" fill="#ffe615" stroke="none" /><path d="M 86.37877921826538 84.01681056812374 l -22.45033417180548 -26.34330282334622 a55.61195036498605,55.61195036498605 0 0,0 0.7339253761266635,-0.6146413959421912 l 21.993551258719705 26.725845376682226" fill="#64ff29" stroke="none" /><path d="M 86.65592168130627 83.78471172551755 l -3.480594445251481 -4.2295047247474455 a26.477522059195785,26.477522059195785 0 0,0 0.3544162602511145,-0.28657996779093264 l 3.407274786435866 4.288790789802513" fill="#ff2904" stroke="none" /><path d="M 86.93701828274178 83.55741782278169 l -7.859756695662242 -9.893200354910483 a33.6353151356588,33.6353151356588 0 0,0 0.4564271338388659,-0.3562486176884657 l 7.688297006663951 10.027027361822173" fill="#ff8f0d" stroke="none" /><path d="M 87.22198572758235 83.33499621200491 l -3.312079825216174 -4.319593143084381 a26.443230446195127,26.443230446195127 0 0,0 0.36359926182819474,-0.2738554258057688 l 3.2372344096295893 4.375965158396004" fill="#ff2903" stroke="none" /><path d="M 87.51073957382395 83.11751280151077 l -8.610784182202805 -11.639716745781897 a35.47855690856342,35.47855690856342 0 0,0 0.4940890541389651,-0.3589767104539024 l 8.409149811710057 11.786212691052466" fill="#ffa70f" stroke="none" /><path d="M 87.80319425747018 82.90503203632743 l -10.485204525132454 -14.695998217359133 a39.053029594460895,39.053029594460895 0 0,0 0.550589807992268,-0.38572334637521477 l 10.230683577556526 14.87430640649829" fill="#ffd714" stroke="none" /><path d="M 88.09926311788651 82.69761687909137 l -6.297933267291442 -9.15651319242008 a32.11331171533577,32.11331171533577 0 0,0 0.45814273509400355,-0.3093400198405779 l 6.139385837790899 9.263565124559324" fill="#ff7a0b" stroke="none" /><path d="M 88.70189139769569 82.29822771554957 l -32.57369073030482 -51.03615800385972 a81.54531155744829,81.54531155744829 0 0,0 1.1897105559543142,-0.7449966409943386 l 31.690361021978266 51.589298986176985" fill="#4ae9ff" stroke="none" /><path d="M 89.00827224532344 82.1063720568725 l -13.334065224982467 -21.70676052304134 a46.475100545998885,46.475100545998885 0 0,0 0.6852597193042904,-0.412861313457508 l 12.958443439460527 21.933068445957467" fill="#cbff1d" stroke="none" /><line stroke="#e1ed5e" stroke-width="0.3" x1="56.762969772571076" x2="54.21961505331055" y1="26.818313649435495" y2="22.513508569990535" /><path d="M 56.25429882871897 25.957352633546506 a86.0,86.0 0 0,1 42.265352541879196,-11.944610805530505" fill="none" id="id120" stroke="none" /><text fill="#e1ed5e" style="font-size:6.75px; font-family:Arial;" text-anchor="middle"><textPath startOffset="22.20632615414155" xlink:href="#id120">December</textPath></text></svg>