<?xml version="1.0" encoding="utf-8" ?>
<svg baseProfile="full" height="200mm" version="1.1" viewBox="0,0,200,200" width="200mm" xmlns="http://www.w3.org/2000/svg" xmlns:ev="http://www.w3.org/2001/xml-events" xmlns:xlink="http://www.w3.org/1999/xlink"><defs /><rect fill="#1a1a1a" height="200" width="200" x="0" y="0" /><text alignment-baseline="middle" fill="#e1ed5e" style="dominant-baseline: central; font-size:9.0px; font-family:Arial;" text-anchor="middle" x="100.0" y="100.0">2026</text><line stroke="#e1ed5e" stroke-width="0.3" x1="100.0" x2="100.0" y1="15.0" y2="10.0" /><path d="M 100.0 14.0 a86.0,86.0 0 0,1 42.46469731375804,11.215312516191453" fill="none" id="id121" stroke="none" /><text fill="#e1ed5e" style="font-size:6.75px; font-family:Arial;" text-anchor="middle"><textPath startOffset="22.20632615414155" xlink:href="#id121">January</textPath></text><path d="M 100.0 79.0 l 0.0 -33.12276794866937 a54.12276794866937,54.12276794866937 0 0,0 0.9316344808400401,0.008018872104092837 l -0.5701540015675117 33.11786045317383" fill="#7cff26" stroke="none" /><path d="M 100.36148047927253 79.00311137660856 l 0.12217314366717602 -7.096526748862949 a28.09757833168193,28.09757833168193 0 0,0 0.4835103059331272,0.012487644707900916 l -0.24431008479517105 7.093372312012688" fill="#ff2f04" stroke="none" /><path d="M 100.72285384407766 79.0124445844662 l 0.6419532920632365 -18.638664512537392 a39.649716320633715,39.649716320633715 0 0,0 0.681898025826629,0.029363963402694933 l -0.962692150279197 18.624852822610503" fill="#ffd113" stroke="none" /><path d="M 101.80526077348638 79.07773832637324 l 0.7274289772748059 -8.430615473979358 a29.461940095928313,29.461940095928313 0 0,0 0.5048862832236686,0.04794503620498992 l -0.8724403875887187 8.41684489325919" fill="#ff4306" stroke="none" /><path d="M 102.16513564639614 79.11191278185805 l 1.796133767548646 -17.32815163542034 a38.420991235031636,38.420991235031636 0 0,0 0.6572428255135413,0.0738488894245931 l -2.0941432965719127 17.294666792525145" fill="#ffc111" stroke="none" /><path d="M 102.88285421437855 79.19881850522331 l 2.6263094914668734 -18.950087770995182 a40.13121345010269,40.13121345010269 0 0,0 0.6834365134664508,0.10072077648256778 l -2.95211498536198 18.902072510351648" fill="#ffd814" stroke="none" /><path d="M 103.2404852339499 79.25152402106235 l 0.6215883175189931 -3.9799626734020395 a25.02820989003175,25.02820989003175 0 0,0 0.42508721382859427,0.07014303256951496 l -0.6900047374864625 3.9686733778929" fill="#ff0000" stroke="none" /><path d="M 103.59715602781102 79.31037775812273 l 6.975881550186623 -40.122906251934346 a61.72481466506319,61.72481466506319 0 0,0 1.045221202091223,0.19100749379638127 l -7.665497873380747 39.99688327678722" fill="#30ff35" stroke="none" /><path d="M 104.307194497241 79.44645832069477 l 2.286422646246054 -10.910601596056997 a32.14759865195856,32.14759865195856 0 0,0 0.5406265888062572,0.11816003259821853 l -2.4738919592058393 10.869628065362908" fill="#ff6a09" stroke="none" /><path d="M 105.71112130821622 79.79150937346287 l 7.504516680442383 -26.554322139022915 a48.59437976962049,48.59437976962049 0 0,0 0.8029869116057667,0.23441389884865257 l -7.9604938097715765 26.42120991125556" fill="#bcff1f" stroke="none" /><path d="M 106.0581310904928 79.89281104454417 l 3.418685436361588 -11.346759094741849 a32.85058446098325,32.85058446098325 0 0,0 0.5400239176634954,0.16778805991978232 l -3.6134947267358015 11.286230899939545" fill="#ff740a" stroke="none" /><path d="M 106.74666289553966 80.11325718540242 l 5.405991579240026 -15.9349245484463 a37.82695947934417,37.82695947934417 0 0,0 0.6148105715175954,0.21449533628046583 l -5.679484154820895 15.839508358993626" fill="#ffb911" stroke="none" /><path d="M 107.08798089147638 80.2323363322302 l 5.215978817036307 -14.546838730530041 a36.453703506662094,36.453703506662094 0 0,0 0.5888447866907615,0.21687650440378495 l -5.465605929499644 14.454898958319932" fill="#ffa60f" stroke="none" /><path d="M 109.41281617654863 81.2277094730956 l 9.010631586397146 -17.970200500905843 a41.102725875575544,41.102725875575544 0 0,0 0.6297319515228912,0.3225731644917212 l -9.318624025508793 17.81243481110162" fill="#ffe415" stroke="none" /><path d="M 109.73455568895987 81.39251694778311 l 11.466653978867198 -21.918367555222734 a45.736592120923035,45.736592120923035 0 0,0 0.6944447120319298,0.37094831502406905 l -11.84224373742744 21.71774051369691" fill="#dfff1b" stroke="none" /><path d="M 110.05341064243156 81.56283822128135 l 9.517116587430017 -17.453640802136228 a40.87976572771244,40.87976572771244 0 0,0 0.6149015827506175,0.3421920650609006 l -9.816142259252668 17.287233339515147" fill="#ffe215" stroke="none" /><path d="M 110.36928655335952 81.73862282372117 l 7.183801134992877 -12.65141062602636 a35.548717798330465,35.548717798330465 0 0,0 0.5295121468564623,0.30672761310342056 l -7.400510014314668 12.52587885553289" fill="#ff9a0e" stroke="none" /><line stroke="#e1ed5e" stroke-width="0.3" x1="143.23703022742887" x2="145.7803849466894" y1="26.81831364943548" y2="22.513508569990506" /><path d="M 143.74570117128098 25.957352633546492 a86.0,86.0 0 0,1 28.547481713284135,27.462654790039103" fill="none" id="id122" stroke="none" /><text fill="#e1ed5e" style="font-size:6.75px; font-family:Arial;" text-anchor="middle"><textPath startOffset="19.985693538727396" xlink:href="#id122">February</textPath></text><path d="M 110.68208982089419 81.91981866633111 l 10.531897735287332 -17.825970763622706 a41.70473625941857,41.70473625941857 0 0,0 0.6149223030621304,0.3704838071823233 l -10.8371821045671 17.64204034698177" fill="#ffec16" stroke="none" /><path d="M 111.2981086023043 82.29822771554956 l 7.704895156112728 -12.071958619804327 a35.321228798010225,35.321228798010225 0 0,0 0.5096903340769035,0.33151677124263224 l -7.911552515973911 11.937542924402168" fill="#ff970d" stroke="none" /><path d="M 111.60114157652 82.49532879139004 l 10.984136190669028 -16.573687275518203 a40.88311740552369,40.88311740552369 0 0,0 0.5832566691771952,0.39381750663011156 l -11.267797554252766 16.382157856589423" fill="#ffe215" stroke="none" /><path d="M 111.90073688211348 82.69761687909136 l 11.828714040334232 -17.197669705742392 a41.87290873730372,41.87290873730372 0 0,0 0.5903459224843475,0.4135750452228203 l -12.12299110240223 16.991509817755638" fill="#ffee16" stroke="none" /><path d="M 112.77801427241765 83.33499621200491 l 12.00142031711222 -15.652174960996895 a40.72370833889135,40.72370833889135 0 0,0 0.5526157671317365,0.4313253716923731 l -12.269068639403388 15.443271200081297" fill="#ffe014" stroke="none" /><path d="M 113.34407831869373 83.78471172551755 l 8.916689571233238 -10.835270027534738 a35.032477667159576,35.032477667159576 0 0,0 0.462332721290539,0.3871903581035528 l -9.101879829482895 10.680178512037365" fill="#ff930d" stroke="none" /><path d="M 113.89432698308785 84.25364557470407 l 13.15157267151304 -14.904595579746276 a40.87739502877278,40.87739502877278 0 0,0 0.5235985770684846,0.4700919723036962 l -13.406182236177514 14.676004598673282" fill="#ffe215" stroke="none" /><path d="M 114.16331599549186 84.49514656593476 l 10.003915621783927 -10.951478137738807 a35.83284197883681,35.83284197883681 0 0,0 0.45182162177243085,0.41991895613827823 l -10.190945127351204 10.777654595525888" fill="#ff9e0e" stroke="none" /><path d="M 114.42810811169701 84.74124197986012 l 8.880438921867428 -9.391700392898509 a33.92541031128172,33.92541031128172 0 0,0 0.42086370730537787,0.4048705529778952 l -9.040785872785223 9.237446753158311" fill="#ff830c" stroke="none" /><path d="M 114.94478906791727 85.2469230424477 l 17.557627690885727 -17.33239802438959 a45.6714878231456,45.6714878231456 0 0,0 0.5474831245206688,0.564229484943854 l -17.853375079109504 17.02760434389562" fill="#dfff1b" stroke="none" /><path d="M 115.19652480421416 85.50635884689758 l 8.32983267709303 -7.944553589890051 a32.510953225993134,32.510953225993134 0 0,0 0.38275095387406194,0.40829203105435496 l -8.465350952937555 7.799992141957641" fill="#ff6f0a" stroke="none" /><path d="M 115.4437574822437 85.77008943001954 l 12.901499343224959 -11.88746858294236 a38.543106754895945,38.543106754895945 0 0,0 0.4453680935471683,0.49178657261650405 l -13.104211077388163 11.663629223056306" fill="#ffc312" stroke="none" /><path d="M 115.9244219780498 86.31012108654704 l 10.653468529719628 -9.15855497808181 a35.04903986044148,35.04903986044148 0 0,0 0.3893604289003794,0.4608799372168392 l -10.809539572107125 8.973816091235864" fill="#ff930d" stroke="none" /><path d="M 116.38621287248628 86.86637796730983 l 11.602109965623077 -9.29914241051118 a35.86886025307179,35.86886025307179 0 0,0 0.3819963918735647,0.485096625338473 l -11.760460438090606 9.098053391219668" fill="#ff9e0e" stroke="none" /><path d="M 117.45458315368197 88.32363383020206 l 13.39814493940223 -8.962783294855424 a37.11960831434092,37.11960831434092 0 0,0 0.35069786589338975,0.5341369097532367 l -13.550439440653543 8.730828321124513" fill="#ffaf10" stroke="none" /><line stroke="#e1ed5e" stroke-width="0.3" x1="172.23445277983987" x2="176.4835382374775" y1="55.19839476539836" y2="52.563006222186495" /><path d="M 173.08426987136738 54.67131705675599 a86.0,86.0 0 0,1 12.851231095245387,41.99856678651699" fill="none" id="id123" stroke="none" /><text fill="#e1ed5e" style="font-size:6.75px; font-family:Arial;" text-anchor="middle"><textPath startOffset="22.20632615414155" xlink:href="#id123">March</textPath></text><path d="M 118.3937258080291 89.86733742301442 l 20.39325241214164 -11.234153846597437 a44.28284683182752,44.28284683182752 0 0,0 0.36204791164638334,0.6708197947323961 l -20.58360842300649 10.881453068532581" fill="#f1ff19" stroke="none" /><path d="M 118.73160827565052 90.50648371742162 l 8.90084068879972 -4.511106294999746 a30.978729627170935,30.978729627170935 0 0,0 0.2369725107632672,0.47772212144013376 l -8.977173212516394 4.357224585060663" fill="#ff5908" stroke="none" /><path d="M 118.89224826269711 90.83032412892265 l 15.000570457873339 -7.28078347623406 a37.6741393207993,37.6741393207993 0 0,0 0.27814602884543027,0.5858464728296168 l -15.123674680560526 7.021494587763903" fill="#ffb711" stroke="none" /><path d="M 119.47837535516314 92.15188598940014 l 18.37769605890165 -7.404634693220479 a40.81333710845837,40.81333710845837 0 0,0 0.25694221031384507,0.6538898992221251 l -18.502431819097193 7.087195789102569" fill="#ffe115" stroke="none" /><path d="M 119.85752413597 93.16781622104841 l 17.92448780305526 -6.167102906460478 a39.9557490292721,39.9557490292721 0 0,0 0.21816353871772906,0.6522812123866722 l -18.02798863554476 5.8576485911514915" fill="#ffd513" stroke="none" /><path d="M 119.97218684219823 93.5106431181261 l 10.92047995137436 -3.548279028518101 a32.48247213942149,32.48247213942149 0 0,0 0.16820431994352908,0.5332536601963827 l -10.979939755086095 3.3597752018952995" fill="#ff6f0a" stroke="none" /><path d="M 120.37134235888165 94.90015583598534 l 10.790774951011462 -2.7014062053263914 a32.123777215026934,32.123777215026934 0 0,0 0.12966869712205362,0.5375604632496923 l -10.835676448394336 2.515260510417293" fill="#ff6909" stroke="none" /><path d="M 120.45610955862082 95.25157060432595 l 12.11045722873502 -2.8111724243158482 a33.43245207866309,33.43245207866309 0 0,0 0.1253010302321991,0.5616999494679537 l -12.157052645969259 2.6022943052979306" fill="#ff7c0b" stroke="none" /><path d="M 120.53481517161879 95.60439243477599 l 20.147209473253355 -4.312638104538839 a41.60361368740615,41.60361368740615 0 0,0 0.14387065325999557,0.7015643999182668 l -20.21845942242835 3.9651980484571596" fill="#ffeb16" stroke="none" /><path d="M 120.6074358757038 95.95851677861258 l 7.339126195411756 -1.4393326543537566 a28.47893386801007,28.47893386801007 0 0,0 0.09020265095474671,0.48186616827608914 l -7.362814570276362 1.3127884086151047" fill="#ff3405" stroke="none" /><path d="M 120.87857604477298 97.74499172005257 l 19.864202830234476 -2.1454500422191485 a40.979727474726815,40.979727474726815 0 0,0 0.06971017400743745,0.70197193893919 l -19.898190129924142 1.8032025725755234" fill="#ffe315" stroke="none" /><path d="M 120.91429891909075 98.10471618934814 l 19.8917909404448 -1.8026226688327105 a40.97330206311794,40.97330206311794 0 0,0 0.05760751871587228,0.7029576428277909 l -19.919872942980167 1.4599511087971506" fill="#ffe315" stroke="none" /><line stroke="#e1ed5e" stroke-width="0.3" x1="184.98032266829074" x2="189.97916517819016" y1="98.17113171792111" y2="98.06355123074" /><path d="M 185.9800911702706 98.14961562048488 a86.0,86.0 0 0,1 -9.607161424134198,41.387399972396054" fill="none" id="id124" stroke="none" /><text fill="#e1ed5e" style="font-size:6.75px; font-family:Arial;" text-anchor="middle"><textPath startOffset="21.466115282336823" xlink:href="#id124">April</textPath></text><path d="M 120.99513854157772 99.54816195383933 l 9.64600429737567 -0.20759242556806215 a30.648237845334407,30.648237845334407 0 0,0 0.006811195613273169,0.5275346064489294 l -9.64814850010666 0.0415215610586701" fill="#ff5407" stroke="none" /><path d="M 120.9904718944345 100.63252640178507 l 36.93535118262476 1.1130090309407492 a57.952117071783256,57.952117071783256 0 0,0 -0.03862885884582578,0.9968392033350552 l -36.91072019092773 -1.7486254812898105" fill="#52ff2b" stroke="none" /><path d="M 120.95626037817324 101.35467743843564 l 9.795784848101084 0.6332298075143978 a30.816230477093104,30.816230477093104 0 0,0 -0.03877480277131995,0.5290513770904293 l -9.783433486665427 -0.8017543211015973" fill="#ff5708" stroke="none" /><path d="M 120.92983693683757 101.71520430193887 l 8.719645560220492 0.7145766888393235 a29.748876415866526,29.748876415866526 0 0,0 -0.04621757635100178,0.5100071037847831 l -8.706053387592416 -0.8645651811726771" fill="#ff4706" stroke="none" /><path d="M 120.89721153311464 102.0752229133903 l 9.80327665614648 0.9735262674113929 a30.851496667526536,30.851496667526536 0 0,0 -0.057027814089587986,0.5280067322699113 l -9.785066540555839 -1.1421293215660957" fill="#ff5708" stroke="none" /><path d="M 120.81339534386255 102.79330883721812 l 19.5533870603904 2.624206573265364 a40.72869498148856,40.72869498148856 0 0,0 -0.09923439664682136,0.6940451390216409 l -19.505318612726978 -2.960397184267414" fill="#ffe015" stroke="none" /><path d="M 120.76222939487914 103.15116336523771 l 34.293067508058435 5.204790678195192 a55.6857942840593,55.6857942840593 0 0,0 -0.1519910493028796,0.9464484090958176 l -34.19839470439427 -5.7943183169842145" fill="#6aff28" stroke="none" /><path d="M 120.70491114924044 103.5080841355445 l 15.972166129984618 2.7062034802760193 a37.19980333709289,37.19980333709289 0 0,0 -0.11240285076290779,0.6304148801944386 l -15.923216836882522 -2.980737111203676" fill="#ffb010" stroke="none" /><path d="M 120.5718875245553 104.21870165774334 l 9.634228255000618 1.9757027478365727 a30.834721928822454,30.834721928822454 0 0,0 -0.11110185120994502,0.5190308611420927 l -9.598792365066231 -2.1412474283948346" fill="#ff5708" stroke="none" /><path d="M 120.32669344350535 105.2749913415812 l 19.19844493879823 4.982198954564439 a40.834379105253845,40.834379105253845 0 0,0 -0.18241674548823814,0.6788405706567172 l -19.109840116968215 -5.311930458396705" fill="#ffe115" stroke="none" /><path d="M 120.13307415673323 105.97154293290107 l 35.245422145696594 10.453920245501157 a57.76308244322909,57.76308244322909 0 0,0 -0.2909422695245087,0.9508161706131484 l -35.06025310366595 -11.059063388666361" fill="#54ff2b" stroke="none" /><path d="M 120.02730092923936 106.31721596034902 l 9.412056081227808 2.9688469308026013 a30.869186986510762,30.869186986510762 0 0,0 -0.16420606624865142,0.505374306797787 l -9.35955776396291 -3.1304201375781835" fill="#ff5708" stroke="none" /><path d="M 119.9155931802556 106.66101706037122 l 7.787777608582206 2.604718777072213 a29.211823182970207,29.211823182970207 0 0,0 -0.16359896434201873,0.4754951693556198 l -7.741787813296956 -2.738386649517133" fill="#ff3f05" stroke="none" /><path d="M 119.67450827220406 107.3425965602758 l 17.85978696970756 6.665336106839448 a40.06301906887977,40.06301906887977 0 0,0 -0.24668464487431307,0.644015765674675 l -17.742408045239742 -6.971775439347267" fill="#ffd714" stroke="none" /><path d="M 119.54520255179757 107.68017299344265 l 15.239605784754803 5.988313933744411 a37.373927086798986,37.373927086798986 0 0,0 -0.24043427830292244,0.5967381608762045 l -15.134268892194488 -6.249751462463429" fill="#ffb310" stroke="none" /><path d="M 119.41010516605496 108.01547362559984 l 58.230315498164885 24.046420876799505 a84.0,84.0 0 0,0 -0.5633960752307643,1.331701897335346 l -57.80776844174181 -25.045197299801014" fill="#4dd2ff" stroke="none" /><path d="M 119.26925614724726 108.34839909993367 l 39.54646803510281 17.133494704048132 a64.09848924063411,64.09848924063411 0 0,0 -0.44734309778435766,1.0086405903749096 l -39.245683852587185 -17.81168363091573" fill="#33ff53" stroke="none" /><path d="M 119.12269723197855 108.67885076344098 l 7.467838536740152 3.3892842311730424 a29.200967016791346,29.200967016791346 0 0,0 -0.21167278060850045,0.4559243381361254 l -7.40839113929182 -3.5173286365879988" fill="#ff3f05" stroke="none" /><line stroke="#e1ed5e" stroke-width="0.3" x1="174.80103733775053" x2="179.2010983576182" y1="140.37084112569926" y2="142.7455964860345" /><path d="M 175.68104954172406 140.8457921977663 a86.0,86.0 0 0,1 -30.038265399797805,32.042727171017184" fill="none" id="id125" stroke="none" /><text fill="#e1ed5e" style="font-size:6.75px; font-family:Arial;" text-anchor="middle"><textPath startOffset="22.206326154141568" xlink:href="#id125">May</textPath></text><line stroke="#e1ed5e" stroke-width="0.3" x1="143.8653032363475" x2="146.44561519142675" y1="172.8068346515853" y2="177.08958963109032" /><path d="M 144.38136562736335 173.6633856474863 a86.0,86.0 0 0,1 -40.68145358897372,12.25698825130547" fill="none" id="id126" stroke="none" /><text fill="#e1ed5e" style="font-size:6.75px; font-family:Arial;" text-anchor="middle"><textPath startOffset="21.466115282336833" xlink:href="#id126">June</textPath></text><line stroke="#e1ed5e" stroke-width="0.3" x1="102.19456741930631" x2="102.32365962044197" y1="184.97166512339345" y2="189.96999836594603" /><path d="M 102.22038585953345 185.97133177190398 a86.0,86.0 0 0,1 -42.740103519485714,-10.115201625700543" fill="none" id="id127" stroke="none" /><text fill="#e1ed5e" style="font-size:6.75px; font-family:Arial;" text-anchor="middle"><textPath startOffset="22.20632615414155" xlink:href="#id127">July</textPath></text><line stroke="#e1ed5e" stroke-width="0.3" x1="58.666819895761336" x2="56.23545636021788" y1="174.27360380694188" y2="178.64263932499728" /><path d="M 58.180547188652646 175.14741091055294 a86.0,86.0 0 0,1 -31.652253787137756,-30.449443065178592" fill="none" id="id128" stroke="none" /><text fill="#e1ed5e" style="font-size:6.75px; font-family:Arial;" text-anchor="middle"><textPath startOffset="22.20632615414155" xlink:href="#id128">August</textPath></text><line stroke="#e1ed5e" stroke-width="0.3" x1="26.63291911575756" x2="22.317208475507996" y1="142.92168965132927" y2="145.44649492493687" /><path d="M 25.769776987707644 143.4266507060508 a86.0,86.0 0 0,1 -11.730757126820373,-40.83630448921669" fill="none" id="id129" stroke="none" /><text fill="#e1ed5e" style="font-size:6.75px; font-family:Arial;" text-anchor="middle"><textPath startOffset="21.46611528233685" xlink:href="#id129">September</textPath></text><line stroke="#e1ed5e" stroke-width="0.3" x1="15.007084014347285" x2="10.007500721073583" y1="101.09737516637583" y2="101.16192664675087" /><path d="M 14.007167355692545 101.11028546245083 a86.0,86.0 0 0,1 10.666146001902534,-42.60595125391555" fill="none" id="id130" stroke="none" /><text fill="#e1ed5e" style="font-size:6.75px; font-family:Arial;" text-anchor="middle"><textPath startOffset="22.20632615414155" xlink:href="#id130">October</textPath></text><line stroke="#e1ed5e" stroke-width="0.3" x1="26.266209847984243" x2="21.928928074336255" y1="57.711370442889674" y2="55.22380399835377" /><path d="M 25.398753493254645 57.213857153982495 a86.0,86.0 0 0,1 29.58750427330803,-30.492523968695096" fill="none" id="id131" stroke="none" /><text fill="#e1ed5e" style="font-size:6.75px; font-family:Arial;" text-anchor="middle"><textPath startOffset="21.46611528233685" xlink:href="#id131">November</textPath></text><line stroke="#e1ed5e" stroke-width="0.3" x1="56.762969772571076" x2="54.21961505331055" y1="26.818313649435495" y2="22.513508569990535" /><path d="M 56.25429882871897 25.957352633546506 a86.0,86.0 0 0,1 42.265352541879196,-11.944610805530505" fill="none" id="id132" stroke="none" /><text fill="#e1ed5e" style="font-size:6.75px; font-family:Arial;" text-anchor="middle"><textPath startOffset="22.20632615414155" xlink:href="#id132">December</textPath></text></svg>