<?xml version="1.0" encoding="utf-8" ?>
<svg baseProfile="full" height="200mm" version="1.1" viewBox="0,0,200,200" width="200mm" xmlns="http://www.w3.org/2000/svg" xmlns:ev="http://www.w3.org/2001/xml-events" xmlns:xlink="http://www.w3.org/1999/xlink"><defs /><rect fill="#1a1a1a" height="200" width="200" x="0" y="0" /><text alignment-baseline="middle" fill="#e1ed5e" style="dominant-baseline: central; font-size:9.0px; font-family:Arial;" text-anchor="middle" x="100.0" y="100.0">2024</text><line stroke="#e1ed5e" stroke-width="0.3" x1="100.0" x2="100.0" y1="15.0" y2="10.0" /><path d="M 100.0 14.0 a86.0,86.0 0 0,1 42.35913384403234,11.155469271406648" fill="none" id="id97" stroke="none" /><text fill="#e1ed5e" style="font-size:6.75px; font-family:Arial;" text-anchor="middle"><textPath startOffset="22.145653131862478" xlink:href="#id97">January</textPath></text><path d="M 100.72087961077811 79.0123766808444 l 0.6503721005010094 -18.934874087879557 a39.94604023517745,39.94604023517745 0 0,0 0.6851206980339728,0.029422030666505335 l -0.9753185591358184 18.92091948878722" fill="#ffde14" stroke="none" /><path d="M 101.08105385017728 79.02784411241856 l 0.4117990422418578 -7.988791406493531 a28.999397889069915,28.999397889069915 0 0,0 0.49693319595903607,0.029894267074912998 l -0.5488765903333562 7.980545161593927" fill="#ff4906" stroke="none" /><path d="M 101.80034050326958 79.07731436759882 l 0.7254860833020352 -8.431247991168254 a29.462403485159737,29.462403485159737 0 0,0 0.5035271178357498,0.04768454157421605 l -0.870112764522798 8.417551694088855" fill="#ff4f07" stroke="none" /><path d="M 102.87502721639298 79.19773525538626 l 1.2978048407214187 -9.390269326701922 a30.479528228377134,30.479528228377134 0 0,0 0.51768011961829,0.07608115028990216 l -1.4588100659473906 9.36660710311314" fill="#ff5e08" stroke="none" /><line stroke="#e1ed5e" stroke-width="0.3" x1="143.13028292997686" x2="145.6673583964461" y1="26.7553504044142" y2="22.446841604673864" /><path d="M 143.63769802327073 25.89364864446614 a86.0,86.0 0 0,1 29.32050498858742,28.57503671076993" fill="none" id="id98" stroke="none" /><text fill="#e1ed5e" style="font-size:6.75px; font-family:Arial;" text-anchor="middle"><textPath startOffset="20.669276256404974" xlink:href="#id98">February</textPath></text><path d="M 114.39649973595853 84.71141617570332 l 2.3965271927110954 -2.5450288295740733 a24.49578522348941,24.49578522348941 0 0,0 0.30366318447658186,0.290902461589432 l -2.4398628630529893 2.5035142376790613" fill="#ff0601" stroke="none" /><path d="M 114.65682725009322 84.96080404539774 l 6.587629730243072 -6.759488441733466 a30.438620103421407,30.438620103421407 0 0,0 0.3710729850747827,0.36790144015734016 l -6.702694635447817 6.645406991347466" fill="#ff5d08" stroke="none" /><path d="M 115.6541949942343 86.00192230759917 l 7.037290853733758 -6.29278887549754 a30.44047956364667,30.44047956364667 0 0,0 0.34497606399726427,0.39251943444626763 l -7.144277981689612 6.171057163239974" fill="#ff5d08" stroke="none" /><path d="M 115.8921839302757 86.27271002978787 l 7.355355723910102 -6.353381089670146 a30.719398597435713,30.719398597435713 0 0,0 0.34128584278922597,0.4020338646546655 l -7.46333613020644 6.226180442565928" fill="#ff6109" stroke="none" /><path d="M 116.35404254752997 86.82634096563983 l 14.803727506144979 -11.924834978064041 a40.0092618828363,40.0092618828363 0 0,0 0.4262578556401701,0.538562875855833 l -15.006251792426708 11.66895215829353" fill="#ffdf14" stroke="none" /><path d="M 117.01052211995028 87.68569379921539 l 7.615392774533241 -5.512957086417703 a30.4014308989162,30.4014308989162 0 0,0 0.30239999513658666,0.4253634637485207 l -7.7089078681997885 5.381416395959678" fill="#ff5d08" stroke="none" /><path d="M 117.62189284568427 88.57770195909679 l 7.862569778405738 -5.096422737489491 a30.369820075086775,30.369820075086775 0 0,0 0.27981061395400847,0.4399087604433593 l -7.948898083985636 4.96070030236746" fill="#ff5c08" stroke="none" /><line stroke="#e1ed5e" stroke-width="0.3" x1="172.87174338648825" x2="177.1583165268699" y1="56.24261187166439" y2="53.66864786411523" /><path d="M 173.72905801456457 55.72781907015455 a86.0,86.0 0 0,1 12.242430191666344,42.057860355516425" fill="none" id="id99" stroke="none" /><text fill="#e1ed5e" style="font-size:6.75px; font-family:Arial;" text-anchor="middle"><textPath startOffset="22.145653131862474" xlink:href="#id99">March</textPath></text><path d="M 119.31412917781788 91.75594674310238 l 3.5674429291747605 -1.5227292531954741 a24.878834029893035,24.878834029893035 0 0,0 0.16428815704821043,0.3942317699121165 l -3.593056930759454 1.4612649738420798" fill="#ff0c01" stroke="none" /><path d="M 119.71291397450082 92.76114493625339 l 5.372631332215906 -1.9729046438878715 a26.723418573351278,26.723418573351278 0 0,0 0.15443569209078287,0.43198411674541476 l -5.405707194350631 1.8803855707615398" fill="#ff2703" stroke="none" /><line stroke="#e1ed5e" stroke-width="0.3" x1="184.99686870605535" x2="189.99668451229388" y1="99.2704041080226" y2="99.22748670261217" /><path d="M 185.99683186730306 99.26182062694052 a86.0,86.0 0 0,1 -10.086455211305974,41.156179273409016" fill="none" id="id100" stroke="none" /><text fill="#e1ed5e" style="font-size:6.75px; font-family:Arial;" text-anchor="middle"><textPath startOffset="21.40746469413373" xlink:href="#id100">April</textPath></text><path d="M 119.58574465831526 107.57618678355244 l 5.632791904282779 2.1788849147285503 a27.039526811645533,27.039526811645533 0 0,0 -0.17117478679186485,0.43147228236233226 l -5.594558442524789 -2.2752582143044466" fill="#ff2c04" stroke="none" /><path d="M 118.5362547648365 109.86951160357373 l 5.025679330765153 2.675891171118397 a26.69366720974711,26.69366720974711 0 0,0 -0.2188304259989764,0.40262333645356524 l -4.979003555150838 -2.7617693410465654" fill="#ff2703" stroke="none" /><line stroke="#e1ed5e" stroke-width="0.3" x1="174.33088141563837" x2="178.70328620479359" y1="141.23008692659167" y2="143.65538615756765" /><path d="M 175.20536237346943 141.71514677278685 a86.0,86.0 0 0,1 -30.301960400862466,31.631185727798858" fill="none" id="id101" stroke="none" /><text fill="#e1ed5e" style="font-size:6.75px; font-family:Arial;" text-anchor="middle"><textPath startOffset="22.145653131862474" xlink:href="#id101">May</textPath></text><path d="M 118.36410011445183 110.18625677009912 l 12.426370074612251 6.892698009235094 a35.2099950414394,35.2099950414394 0 0,0 -0.2977200160534452,0.5260427413854796 l -12.306216693537428 -7.104997520719696" fill="#ffa00e" stroke="none" /><path d="M 118.18653347947321 110.5 l 10.76190083262374 6.213386342707371 a33.42677268541475,33.42677268541475 0 0,0 -0.29117311950850566,0.49447561344958013 l -10.65365400298547 -6.3972131244505" fill="#ff870c" stroke="none" /><path d="M 117.81537515405839 111.11811171558189 l 6.628551250031284 4.13670622555032 a28.813451866543883,28.813451866543883 0 0,0 -0.2654711037792962,0.41736466871937833 l -6.556562454626099 -4.24988456894837" fill="#ff4606" stroke="none" /><path d="M 117.01052211995028 112.31430620078461 l 8.591416215573105 6.219522788949087 a31.60636112488489,31.60636112488489 0 0,0 -0.32193032442462316,0.43676031359100115 l -8.483383871564653 -6.366089411808965" fill="#ff6e0a" stroke="none" /><path d="M 116.79662413953412 112.60449989151573 l 15.101732088335815 11.332621298651516 a39.88095912729334,39.88095912729334 0 0,0 -0.41561281172485487,0.5440505118983283 l -14.904967299256656 -11.59019272379072" fill="#ffdd14" stroke="none" /><path d="M 116.57777611688842 112.89097897827486 l 8.521108447132644 6.626065467954019 a31.794166607636182,31.794166607636182 0 0,0 -0.338734399043015,0.427979847611072 l -8.406107617448066 -6.771365259479774" fill="#ff700a" stroke="none" /><path d="M 116.1254893667686 113.45245675266167 l 4.454870619139871 3.7164115134504887 a26.801515902812213,26.801515902812213 0 0,0 -0.29775901744650546,0.3507593738475836 l -4.390417038186251 -3.7923376697476288" fill="#ff2803" stroke="none" /><path d="M 115.6541949942343 113.99807769240083 l 14.102303948372507 12.610367149756142 a39.918148331798534,39.918148331798534 0 0,0 -0.46115402682996204,0.5068890577812323 l -13.883752220700664 -12.850593783095047" fill="#ffde14" stroke="none" /><path d="M 115.16444852881244 114.52719865689866 l 6.139039692722469 5.8810611549320555 a29.501452149890202,29.501452149890202 0 0,0 -0.35347403553001294,0.3626954998167198 l -6.037178856041649 -5.985579346816512" fill="#ff5007" stroke="none" /><path d="M 114.39649973595853 115.28858382429668 l 4.042227514939831 4.292705541797545 a26.896348374300487,26.896348374300487 0 0,0 -0.33885585905751836,0.3136399243194006 l -3.9679418845683454 -4.361463212249325" fill="#ff2a04" stroke="none" /><path d="M 114.13192950727249 115.5334660781643 l 6.51187939681289 7.157696170465308 a30.676631012254727,30.676631012254727 0 0,0 -0.3925658862965432,0.3510348362077491 l -6.388048483692969 -7.268426536556444" fill="#ff6108" stroke="none" /><path d="M 113.86319453409587 115.77377054828091 l 9.94173802256521 11.311872890002045 a36.059768364383366,36.059768364383366 0 0,0 -0.4684687983239044,0.40465219033476624 l -9.74608974447845 -11.48086921280153" fill="#ffab0f" stroke="none" /><path d="M 112.45986205192187 116.90419585922612 l 3.2954600790793576 4.470924508704789 a26.55420769285259,26.55420769285259 0 0,0 -0.3692539476565058,0.26731138205086385 l -3.2182251210488837 -4.52683666212873" fill="#ff2503" stroke="none" /><path d="M 111.8722381534696 117.32195027204791 l 7.413315812342175 10.816249319834407 a34.112913508535804,34.112913508535804 0 0,0 -0.48587138353471127,0.32691595059305073 l -7.2265481407104595 -10.941914944484578" fill="#ff910d" stroke="none" /><path d="M 111.5731344415666 117.5232005979908 l 5.164747962164027 7.820086687493233 a30.371679535312033,30.371679535312033 0 0,0 -0.43751759199607804,0.2835936171942751 l -5.0297447379109395 -7.9075941463914035" fill="#ff5c08" stroke="none" /><line stroke="#e1ed5e" stroke-width="0.3" x1="143.1302829299769" x2="145.66735839644613" y1="173.24464959558577" y2="177.55315839532614" /><path d="M 143.63769802327073 174.10635135553383 a86.0,86.0 0 0,1 -40.68552437913181,11.842963189579606" fill="none" id="id102" stroke="none" /><text fill="#e1ed5e" style="font-size:6.75px; font-family:Arial;" text-anchor="middle"><textPath startOffset="21.407464694133747" xlink:href="#id102">June</textPath></text><path d="M 110.65571695917076 118.09573695890943 l 2.882448051132206 4.895026954157072 a26.680650988170292,26.680650988170292 0 0,0 -0.39666191432831743,0.2290128630147272 l -2.7979936689434903 -4.943786714447971" fill="#ff2703" stroke="none" /><path d="M 110.34350942703117 118.27599006163325 l 6.651073657567142 11.75180985935226 a34.503400155840474,34.503400155840474 0 0,0 -0.5179713060716489,0.2873099520426399 l -6.448358163339399 -11.864252726828044" fill="#ff960d" stroke="none" /><path d="M 109.71004243097381 118.62028667847754 l 5.217333665052354 10.00492523396768 a32.2835765389247,32.2835765389247 0 0,0 -0.49358941011308405,0.25203026976752774 l -5.044817033225687 -10.093013455408046" fill="#ff770b" stroke="none" /><path d="M 109.3889696526874 118.78422872680471 l 6.750786899884735 13.506095972634823 a36.099263299567895,36.099263299567895 0 0,0 -0.5566845918454758,0.272302329692261 l -6.517942058777191 -13.619992052424307" fill="#ffac0f" stroke="none" /><path d="M 109.06512990194946 118.94263497670748 l 2.698990400997646 5.639851885712205 a27.252397818233334,27.252397818233334 0 0,0 -0.42372454579603447,0.19832448253911367 l -2.601777141330105 -5.685352599821853" fill="#ff2f04" stroke="none" /><path d="M 108.4095320186766 119.2426549942271 l 6.0370872912145686 13.814037173159672 a36.075610965502584,36.075610965502584 0 0,0 -0.5695908208551254,0.24312445145922873 l -5.799061395189012 -13.915636274278306" fill="#ffab0f" stroke="none" /><path d="M 108.07796709384702 119.3841803445677 l 14.32074589417417 34.36457686152793 a58.22912711624283,58.22912711624283 0 0,0 -0.9259693918687629,0.3765836905071485 l -13.728722041114965 -34.60534780861437" fill="#4bff2c" stroke="none" /><path d="M 107.74402155503746 119.51999308798841 l 5.806960188273321 14.637333061603373 a36.7471364312531,36.7471364312531 0 0,0 -0.5883526924819918,0.22758746070740296 l -5.5548352332977995 -14.734860410448817" fill="#ffb410" stroke="none" /><path d="M 107.06938296918513 119.77432235084164 l 5.575508222105389 15.595688808239586 a37.56236098321173,37.56236098321173 0 0,0 -0.6090365287211845,0.21185451958457235 l -5.3069659213391835 -15.689101760392749" fill="#ffbf11" stroke="none" /><path d="M 106.72888874123015 119.89276391827305 l 5.980700851813807 17.680879367489226 a39.6650014167316,39.6650014167316 0 0,0 -0.6468743379238563,0.2126404434325355 l -5.676303776242216 -17.78094073232378" fill="#ffdb14" stroke="none" /><path d="M 106.38641147887787 120.00534299687104 l 5.675455542090279 17.77828365092411 a39.662212226393706,39.662212226393706 0 0,0 -0.6503835381520124,0.20149048264041475 l -5.369431371066642 -17.873090721371167" fill="#ffdb14" stroke="none" /><path d="M 106.0420521117495 120.11202640906438 l 6.593025033387098 21.94603607096485 a43.9149837075866,43.9149837075866 0 0,0 -0.7238443769907602,0.210700548721025 l -6.2153206440147315 -22.055980313988396" fill="#eeff19" stroke="none" /><path d="M 105.69591212413111 120.21278271476187 l 2.565621677361952 9.104486228482822 a30.459074165899267,30.459074165899267 0 0,0 -0.5044872621528239,0.1375002466549609 l -2.408953014274433 -9.147186969281925" fill="#ff5d08" stroke="none" /><path d="M 104.9986988182912 120.39639698878246 l 3.634670512856522 14.830696026808397 a36.26958985620174,36.26958985620174 0 0,0 -0.6059920417896872,0.14301247183158372 l -3.3795463173269558 -14.890904642286205" fill="#ffae10" stroke="none" /><path d="M 104.64783097203109 120.47920084513623 l 4.13616460427352 18.22470442001573 a39.68817029113835,39.68817029113835 0 0,0 -0.6656983424837514,0.14508585536149302 l -3.8227038451706328 -18.29302173351094" fill="#ffdb14" stroke="none" /><path d="M 104.29559338865022 120.5559693870025 l 3.941755408060014 18.86272655908753 a40.27018134164483,40.27018134164483 0 0,0 -0.6778881253608124,0.13559661043636592 l -3.6173707971682427 -18.927612566186756" fill="#ffe215" stroke="none" /><path d="M 103.94208987418118 120.62667999033965 l 4.238856610299758 22.179488955398334 a43.58091308351632,43.58091308351632 0 0,0 -0.7360302928977874,0.1341292378250565 l -3.8574915838509134 -22.248986367154753" fill="#f2ff19" stroke="none" /><path d="M 102.875027216393 120.80226474461374 l 3.0726407875303803 22.232098104273533 a43.44342459446058,43.44342459446058 0 0,0 -0.7396184659778764,0.0957584180983855 l -2.6905444996617285 -22.281568118572313" fill="#f3ff19" stroke="none" /><path d="M 102.15924093988457 120.88869738790638 l 1.9265149320867785 18.63728437447796 a39.73659063540413,39.73659063540413 0 0,0 -0.6791180823160693,0.06431318847174015 l -1.606297286385694 -18.667609318454883" fill="#ffdc14" stroke="none" /><path d="M 101.80034050326958 120.92268563240118 l 1.6023374810002349 18.621590377540656 a39.690401643408656,39.690401643408656 0 0,0 -0.6793314743078573,0.052584552503943865 l -1.2824370119171415 -18.646352697039656" fill="#ffdb14" stroke="none" /><path d="M 101.44090949804482 120.95050786540614 l 1.2877292948011558 18.723301328676783 a39.76753205355246,39.76753205355246 0 0,0 -0.6814557624392419,0.04099468646440883 l -0.9661291802294488 -18.742647992965885" fill="#ffdc14" stroke="none" /><path d="M 101.08105385017728 120.97215588758144 l 0.5784828888798407 11.222413501322755 a32.237313168520224,32.237313168520224 0 0,0 -0.5529071309878396,0.023744211217578394 l -0.38574999729117143 -11.230690280966165" fill="#ff770a" stroke="none" /><path d="M 100.72087961077811 120.9876233191556 l 1.2811366534672313 37.29889582299486 a58.32089147835942,58.32089147835942 0 0,0 -1.0008606095393213,0.025778619004737054 l -0.6406627298571661 -37.31539215934964" fill="#4aff2c" stroke="none" /><line stroke="#e1ed5e" stroke-width="0.3" x1="101.45913802915013" x2="101.54496967792366" y1="184.9874750549273" y2="189.98673829345242" /><path d="M 101.47630435890484 185.9873277026323 a86.0,86.0 0 0,1 -42.54439059252881,-10.42667462771756" fill="none" id="id103" stroke="none" /><text fill="#e1ed5e" style="font-size:6.75px; font-family:Arial;" text-anchor="middle"><textPath startOffset="22.145653131862474" xlink:href="#id103">July</textPath></text><path d="M 100.0 121.0 l 2.289333056228277e-15 18.69382305022313 a39.69382305022313,39.69382305022313 0 0,0 -0.6813972557051297,-0.005848975922706157 l 0.32090433085627523 -18.69106847249486" fill="#ffdb14" stroke="none" /><path d="M 99.63950707515114 120.99690560180557 l -0.34610653244701345 20.158970368156968 a41.16194127647517,41.16194127647517 0 0,0 -0.7063912191925494,-0.018194132064237707 l 0.6921110657103068 -20.150058518742682" fill="#ffee16" stroke="none" /><path d="M 99.27912038922189 120.98762331915562 l -0.8735360940557761 25.432050266951364 a46.44704788552808,46.44704788552808 0 0,0 -0.7966204830717379,-0.034210311190079445 l 1.3099823377283528 -25.413307387335454" fill="#cfff1d" stroke="none" /><path d="M 98.55909050195518 120.95050786540614 l -2.232761583178469 32.46386339560524 a53.54055394205567,53.54055394205567 0 0,0 -0.9163873868420841,-0.07093417938046533 l 2.789717964795789 -32.42075144922972" fill="#7dff26" stroke="none" /><path d="M 98.19965949673042 120.92268563240118 l -2.151672801382312 25.00569949148612 a46.09810157965573,46.09810157965573 0 0,0 -0.7878394659076362,-0.07460921653505793 l 2.5806118306749637 -24.96507851944588" fill="#d3ff1c" stroke="none" /><path d="M 97.48249496171623 120.84855314841334 l -3.9795933025176806 32.95674138279818 a54.196143833675706,54.196143833675706 0 0,0 -0.9226820661207406,-0.11945966619783542 l 4.544753190529215 -32.883570120399945" fill="#76ff27" stroke="none" /><path d="M 96.76829788921471 120.74984581791261 l -4.531588297873153 29.09604761444926 a50.44682120847205,50.44682120847205 0 0,0 -0.8545271049196833,-0.14061210992883105 l 5.0303929058459 -29.01396950602476" fill="#a0ff22" stroke="none" /><path d="M 96.41257539226777 120.69131181640829 l -3.256679916042867 18.783664326725575 a40.06389282425444,40.06389282425444 0 0,0 -0.6766319630236233,-0.12330488345950516 l 3.5786466126175474 -18.7249912693347" fill="#ffe015" stroke="none" /><path d="M 96.05791012581884 120.62667999033965 l -7.138185943260113 37.35000516540746 a59.025998795778136,59.025998795778136 0 0,0 -0.9936141913977622,-0.19875066606793731 l 7.778296620188833 -37.22196510267666" fill="#43ff2d" stroke="none" /><path d="M 95.70440661134978 120.55596938700252 l -0.8976411770573152 4.295537981983239 a25.388326131614363,25.388326131614363 0 0,0 -0.4258439353659558,-0.09281070369283996 l 0.9712475290424074 -4.27949582015668" fill="#ff1302" stroke="none" /><path d="M 94.6519064749342 120.30758222061772 l -4.76318249595018 18.086579771830966 a39.70326910816746,39.70326910816746 0 0,0 -0.6575969256912192,-0.17923096630077776 l 5.072960822576094 -18.002148311386044" fill="#ffdb14" stroke="none" /><path d="M 94.30408787586889 120.21278271476187 l -7.3610596015332534 26.12180367844072 a48.13915669051498,48.13915669051498 0 0,0 -0.7934708143245117,-0.23096778988231487 l 7.808390428239371 -25.99159219425589" fill="#bbff1f" stroke="none" /><path d="M 93.61358852112213 120.00534299687104 l -9.268767676103595 29.034282731707698 a51.4778547141744,51.4778547141744 0 0,0 -0.839523559727507,-0.2759680691391598 l 9.765813973478846 -28.870893741166515" fill="#94ff23" stroke="none" /><path d="M 93.27111125876986 119.89276391827306 l -9.572591385572338 28.29966549342479 a50.87483176312247,50.87483176312247 0 0,0 -0.8248850744535137,-0.2869378484206422 l 10.056982232070872 -28.131169212435555" fill="#9bff22" stroke="none" /><path d="M 91.59046798132341 119.24265499422711 l -9.847058923119434 22.531997873911635 a45.589743748671815,45.589743748671815 0 0,0 -0.7144273159492376,-0.3195542512754943 l 10.232399641924307 -22.359639871726287" fill="#d9ff1c" stroke="none" /><path d="M 91.26138138417905 119.09545874513695 l -18.82032707199128 41.12581118056166 a66.22761386980235,66.22761386980235 0 0,0 -1.0297173038976914,-0.4819596916988218 l 19.52353308976046 -40.796675257292314" fill="#36ff70" stroke="none" /><path d="M 90.93487009805054 118.94263497670748 l -8.668590669626639 18.11402049317761 a41.0813894595169,41.0813894595169 0 0,0 -0.6335136629779905,-0.30988327833702944 l 8.9782645818667 -17.96254346474336" fill="#ffed16" stroke="none" /><path d="M 90.28995756902619 118.62028667847754 l -8.684562353029571 16.65379341440287 a39.78218460012751,39.78218460012751 0 0,0 -0.6028160034382941,-0.3209655680844694 l 8.969167172254428 -16.502257378595825" fill="#ffdc14" stroke="none" /><line stroke="#e1ed5e" stroke-width="0.3" x1="58.13341422392154" x2="55.67067388415222" y1="173.97424548756322" y2="178.32567169271397" /><path d="M 57.64086615596768 174.84453072859336 a86.0,86.0 0 0,1 -31.369924170532247,-30.572349798747897" fill="none" id="id104" stroke="none" /><text fill="#e1ed5e" style="font-size:6.75px; font-family:Arial;" text-anchor="middle"><textPath startOffset="22.145653131862474" xlink:href="#id104">August</textPath></text><path d="M 88.4268655584334 117.5232005979908 l -16.631369724526788 25.182013513599493 a51.17840723949847,51.17840723949847 0 0,0 -0.7289357892674795,-0.4904605303898313 l 17.061201801891272 -24.89280330915254" fill="#97ff23" stroke="none" /><path d="M 87.83215693770417 117.11559508785305 l -32.56807190544949 45.81107174639889 a77.2079496351916,77.2079496351916 0 0,0 -1.073627973503205,-0.777223856987939 l 33.34968088932665 -45.24524711803789" fill="#44ffe9" stroke="none" /><path d="M 87.54013794807813 116.9041958592261 l -9.977620461054565 13.536558412913788 a37.81640043918679,37.81640043918679 0 0,0 -0.5192498112758617,-0.3896547386859416 l 10.208523261241194 -13.363284646963832" fill="#ffc212" stroke="none" /><path d="M 86.96720088162412 116.46651593811092 l -29.122125212817412 36.79485386162225 a67.9250407310335,67.9250407310335 0 0,0 -0.9080906123250055,-0.7314935169273956 l 29.74946659549768 -36.28951205090144" fill="#38ff84" stroke="none" /><path d="M 86.68645165197938 116.24036423190432 l -36.52532898355108 44.55496242451343 a78.6128834029893,78.6128834029893 0 0,0 -1.0362887519755242,-0.8645089337846255 l 37.28479206968849 -43.92139130681693" fill="#46fff8" stroke="none" /><path d="M 86.40962598614128 116.0094264158162 l -25.26844945570292 29.76616992220565 a60.0450945668343,60.0450945668343 0 0,0 -0.7800730446386595,-0.673808516732625 l 25.775701980104444 -29.328017273008303" fill="#38ff2e" stroke="none" /><path d="M 86.13680546590413 115.77377054828092 l -41.58958360228758 47.321311644842766 a84.0,84.0 0 0,0 -1.0749398927065164,-0.9612178804664708 l 42.39578852181747 -46.600398234492914" fill="#4dd2ff" stroke="none" /><path d="M 85.86807049272751 115.53346607816431 l -26.342829566046298 28.955384277601024 a60.14535666218035,60.14535666218035 0 0,0 -0.7577462269769552,-0.7013585951955601 l 26.83600556433722 -28.498907936273085" fill="#37ff2e" stroke="none" /><path d="M 85.60350026404147 115.28858382429668 l -25.359795803567458 26.931224326805022 a57.99202734291988,57.99202734291988 0 0,0 -0.7189009675149071,-0.6886908646814858 l 25.81836925694768 -26.491921331817956" fill="#4dff2c" stroke="none" /><path d="M 85.34317274990678 115.03919595460226 l -5.366426455309239 5.506426299514721 a28.688905220655947,28.688905220655947 0 0,0 -0.34974245424350586,-0.3467532204598977 l 5.4601608296827076 -5.413493068826164" fill="#ff4406" stroke="none" /><path d="M 85.08716467003676 114.78537596483092 l -4.8789173063116635 4.837217408965776 a27.870408018700857,27.870408018700857 0 0,0 -0.3339315483246406,-0.342643186344854 l 4.961235655787114 -4.7527515305531844" fill="#ff3805" stroke="none" /><path d="M 84.58840730492382 114.26474011684316 l -10.194173042977765 9.435574378413529 a34.89068853155769,34.89068853155769 0 0,0 -0.40307434556979765,-0.44304931401367764 l 10.354645089389443 -9.259187488842176" fill="#ff9b0e" stroke="none" /><path d="M 84.3458050057657 113.99807769240083 l -12.758537626104992 11.408763018310193 a38.115494616419916,38.115494616419916 0 0,0 -0.43195552430732237,-0.49148609367980955 l 12.952504214370908 -11.188064646819083" fill="#ffc612" stroke="none" /><path d="M 84.1078160697243 113.72728997021213 l -11.624571922513345 10.04102836086157 a36.360759191046256,36.360759191046256 0 0,0 -0.40396013306094425,-0.47586402100248487 l 11.795226619081403 -9.839997557409532" fill="#ffaf10" stroke="none" /><path d="M 83.8745106332314 113.45245675266167 l -11.792842121025643 9.838008324323805 a36.35765389247007,36.35765389247007 0 0,0 -0.39569797343547825,-0.48268718800078475 l 11.959986913699751 -9.634118854624525" fill="#ffaf10" stroke="none" /><path d="M 83.64595745247003 113.17365903436017 l -4.555603500462863 3.669671705721447 a26.84978749025997,26.84978749025997 0 0,0 -0.28605708531959095,-0.36142378255359986 l 4.617927016424015 -3.5909279792531668" fill="#ff2904" stroke="none" /><path d="M 83.4222238831116 112.89097897827486 l -15.792278175074516 12.280171027678547 a41.00496564425869,41.00496564425869 0 0,0 -0.4273264595190989,-0.5593840528741294 l 16.00075661194791 -12.007266061563547" fill="#ffec16" stroke="none" /><path d="M 83.20337586046588 112.60449989151573 l -16.13065470930809 12.104744015495418 a41.16737090033293,41.16737090033293 0 0,0 -0.41931511879164773,-0.5688814904411684 l 16.336071847683566 -11.82605621578537" fill="#ffee16" stroke="none" /><path d="M 82.98947788004972 112.3143062007846 l -23.067184372216666 16.698862594951297 a49.47713129560104,49.47713129560104 0 0,0 -0.4921440807477059,-0.6922622824634043 l 23.35044355149433 -16.300423085778387" fill="#abff21" stroke="none" /><path d="M 82.78059297857968 112.02048342749411 l -4.376985543180343 3.055475842967841 a26.337971063257065,26.337971063257065 0 0,0 -0.2556166101977513,-0.3729522734734651 l 4.42879189019342 -2.9798888344243246" fill="#ff2203" stroke="none" /><path d="M 82.576782715395 111.72311816256416 l -24.113929576972783 16.224927989871627 a50.06423726712474,50.06423726712474 0 0,0 -0.4736447823358034,-0.7171585688361228 l 24.388898798229313 -15.808589542696444" fill="#a4ff21" stroke="none" /><path d="M 82.37810715431573 111.42229804090323 l -16.136789320442947 10.459671878353557 a40.230202946801725,40.230202946801725 0 0,0 -0.3706586920241011,-0.5827370286342324 l 16.31396570409294 -10.181121175040653" fill="#ffe215" stroke="none" /><path d="M 82.18462484594161 111.11811171558189 l -7.962858740473684 4.969412784541693 a30.38627629808033,30.38627629808033 0 0,0 -0.2723652685813405,-0.44488819718303796 l 8.04699197351043 -4.831987471234098" fill="#ff5c08" stroke="none" /><path d="M 81.99639281039703 110.81064883170644 l -5.77154492117145 3.4656468952086357 a27.732119961748246,27.732119961748246 0 0,0 -0.24156827689708335,-0.4102357460409509 l 5.830186908198303 -3.3660599808741263" fill="#ff3605" stroke="none" /><line stroke="#e1ed5e" stroke-width="0.3" x1="26.387840678322732" x2="22.057713659400548" y1="142.50000000000003" y2="145.00000000000006" /><path d="M 25.521815274538298 143.00000000000003 a86.0,86.0 0 0,1 -11.493303480769221,-40.785679425670985" fill="none" id="id105" stroke="none" /><text fill="#e1ed5e" style="font-size:6.75px; font-family:Arial;" text-anchor="middle"><textPath startOffset="21.40746469413373" xlink:href="#id105">September</textPath></text><path d="M 81.81346652052679 110.50000000000001 l -26.76507120796637 15.452821066798904 a51.90564213359778,51.90564213359778 0 0,0 -0.43889096238416775,-0.7754782768130519 l 27.026395535371915 -14.99108601988673" fill="#8fff24" stroke="none" /><path d="M 81.63589988554817 110.18625677009913 l -17.107706617742867 9.489356476482856 a40.56326946235036,40.56326946235036 0 0,0 -0.3325312129881001,-0.6118199781270174 l 17.2680831803463 -9.19428166488125" fill="#ffe615" stroke="none" /><path d="M 81.4637452351635 109.86951160357371 l -32.445569107012375 17.27543804553639 a57.75807005737763,57.75807005737763 0 0,0 -0.45846686810211623,-0.8791706707082896 l 32.73734404408944 -16.715921131723597" fill="#50ff2b" stroke="none" /><path d="M 81.29705330413844 109.54985784667822 l -4.443953680096931 2.2691144134811045 a25.989749946872564,25.989749946872564 0 0,0 -0.19947762628772256,-0.39908887733981907 l 4.482251219596391 -2.1924936799775323" fill="#ff1c02" stroke="none" /><path d="M 81.1358732173502 109.22738970284198 l -30.453565047348558 14.896364712263653 a54.901641637741726,54.901641637741726 0 0,0 -0.4068492481373505,-0.8501584512712143 l 30.70479355344582 -14.371393758927333" fill="#6eff28" stroke="none" /><path d="M 80.9802524753101 108.90220220490708 l -13.860858259753867 6.487581541327382 a36.30398987036906,36.30398987036906 0 0,0 -0.2593410699190494,-0.5667070413844432 l 13.970183794527973 -6.24868551772825" fill="#ffae10" stroke="none" /><path d="M 80.83023694016515 108.57439118712176 l -8.299677715510631 3.712340274509287 a30.092091095841894,30.092091095841894 0 0,0 -0.2068703987380218,-0.4733599566055717 l 8.36218199626562 -3.5693182481278662" fill="#ff5808" stroke="none" /><path d="M 80.68587082218212 108.24405325689762 l -48.56377503358027 20.728987781268625 a73.80275731387688,73.80275731387688 0 0,0 -0.4873588114943139,-1.1694837308406159 l 48.91245968961107 -19.89227154098673" fill="#40ffc5" stroke="none" /><path d="M 80.41425534168474 107.57618678355246 l -8.740886008610238 3.3811624837484167 a30.372051427357086,30.372051427357086 0 0,0 -0.18392347672237072,-0.48787887342963054 l 8.797640169147044 -3.230615330124641" fill="#ff5c08" stroke="none" /><path d="M 80.28708602549918 107.23885506374661 l -9.04537816946589 3.321588155370582 a30.635964617128284,30.635964617128284 0 0,0 -0.17704645030830762,-0.4952304316698095 l 9.10106478981814 -3.165822767319851" fill="#ff6008" stroke="none" /><path d="M 80.16572619554312 106.89939002012753 l -28.93781489289232 10.06607417265036 a51.6385864560459,51.6385864560459 0 0,0 -0.2840480735747145,-0.8397376574886148 l 29.106348388039404 -9.567834840687585" fill="#92ff23" stroke="none" /><path d="M 79.94057633289273 106.21446072829308 l -41.1744288569674 12.75594331062957 a64.10507721187221,64.10507721187221 0 0,0 -0.3166292626127069,-1.053955837151081 l 41.38733443958374 -12.047249869887764" fill="#33ff57" stroke="none" /><path d="M 79.83685265289637 105.86919833188381 l -18.260113736142454 5.315252982842025 a40.01798275129277,40.01798275129277 0 0,0 -0.18633422369309777,-0.6612344245754851 l 18.348666451910127 -5.001010634363544" fill="#ffdf14" stroke="none" /><path d="M 79.73907114497094 105.5222062557868 l -9.13851564390942 2.49074307592152 a30.471867252249062,30.471867252249062 0 0,0 -0.13322085491801203,-0.5058612853475228 l 9.179925979632165 -2.3335012862011943" fill="#ff5e08" stroke="none" /><path d="M 79.48165901384964 104.47187691870673 l -9.549978171411245 2.081373293665083 a30.774159701069628,30.774159701069628 0 0,0 -0.10806461827682828,-0.5171283182868097 l 9.584300500512441 -1.9171285240928644" fill="#ff6209" stroke="none" /><path d="M 79.34024301695615 103.76489593502545 l -19.60123164296906 3.5719973567295042 a40.92404193525536,40.92404193525536 0 0,0 -0.12001498054943607,-0.6922145150691683 l 19.659661441010734 -3.2349898087397433" fill="#ffeb16" stroke="none" /><path d="M 79.2786578344484 103.40968896794605 l -24.884930898035314 4.0948059094449105 a46.21958011617199,46.21958011617199 0 0,0 -0.12210444470671532,-0.7839981268355537 l 24.951556834880297 -3.6670196006779063" fill="#d1ff1c" stroke="none" /><path d="M 79.13060592940153 102.33845913500099 l -14.477301343966698 1.6222118123523492 a35.56790394559751,35.56790394559751 0 0,0 -0.06278176684310521,-0.6073566431793499 l 14.503015503291468 -1.373450646890068" fill="#ffa40f" stroke="none" /><path d="M 79.03789590574601 101.26102812881392 l -40.04408548881669 2.408952744770929 a61.116478359424804,61.116478359424804 0 0,0 -0.054010699826795114,-1.0477931475654074 l 40.079537778100054 -1.7211878038287909" fill="#30ff32" stroke="none" /><path d="M 79.00696218219943 100.54070618675478 l -33.78950410326499 0.870297766077439 a54.8007101367146,54.8007101367146 0 0,0 -0.016149425862987343,-0.9406230940887995 l 33.799464960726645 -0.29012775601958707" fill="#6fff27" stroke="none" /><line stroke="#e1ed5e" stroke-width="0.3" x1="15.003131293944662" x2="10.003315487706104" y1="100.72959589197737" y2="100.7725132973878" /><path d="M 14.003168132696942 100.73817937305945 a86.0,86.0 0 0,1 10.791469493833604,-42.45332614584628" fill="none" id="id106" stroke="none" /><text fill="#e1ed5e" style="font-size:6.75px; font-family:Arial;" text-anchor="middle"><textPath startOffset="22.145653131862435" xlink:href="#id106">October</textPath></text><path d="M 79.00077361379809 99.81974689727619 l -5.62125728146685 -0.048251733066652945 a26.621464369200254,26.621464369200254 0 0,0 0.007845178723450995,-0.45694233015705793 l 5.619600671144732 0.1447409791927633" fill="#ff2603" stroke="none" /><path d="M 79.00696218219943 99.45929381324524 l -16.76961469012737 -0.4319257884991219 a37.77517620599278,37.77517620599278 0 0,0 0.022260934728489876,-0.6481028258097624 l 16.759729068402027 0.7197348788730229" fill="#ffc212" stroke="none" /><path d="M 79.06263194458094 98.37931529534042 l -29.348670539643663 -2.271772713733377 a50.43646401501735,50.43646401501735 0 0,0 0.07422897079237274,-0.8626531580470526 l 29.305347946153546 2.7752469191561104" fill="#a0ff22" stroke="none" /><path d="M 79.0935383218832 98.0201363427161 l -28.05706172751754 -2.6570329164129927 a49.18259279591982,49.18259279591982 0 0,0 0.08681338316634803,-0.8398407313818019 l 28.007315951869526 3.138278170077707" fill="#aeff20" stroke="none" /><path d="M 79.22317932658666 96.9465228501225 l -9.636102367770379 -1.4161752106528305 a30.739610930084297,30.739610930084297 0 0,0 0.08120894031672758,-0.521419652196438 l 9.610371935315383 1.5813830447807184" fill="#ff6109" stroke="none" /><path d="M 79.34024301695615 96.23510406497455 l -9.376045888230774 -1.708627893357306 a30.530458843947013,30.530458843947013 0 0,0 0.09838615944270651,-0.5147979602379807 l 9.345333436505909 1.8693284186286012" fill="#ff5e08" stroke="none" /><path d="M 79.56144815229197 95.17655741523228 l -7.82637495254327 -1.8470031786860617 a29.041365906354038,29.041365906354038 0 0,0 0.11867197341759464,-0.4842221484540124 l 7.793515452609378 1.9810811517481919" fill="#ff4906" stroke="none" /><path d="M 79.64726062577567 94.8264132398404 l -14.644507467810024 -3.722576531416316 a36.11023411489693,36.11023411489693 0 0,0 0.15787139725483795,-0.5994634097198113 l 14.578446589750461 3.973420445508912" fill="#ffac0f" stroke="none" /><path d="M 79.83685265289637 94.1308016681162 l -14.383631896085053 -4.186865615652989 a35.980611142594036,35.980611142594036 0 0,0 0.1777162569632505,-0.5915596203505873 l 14.309639319118173 4.4331628395943" fill="#ffaa0f" stroke="none" /><path d="M 79.94057633289273 93.78553927170692 l -8.982744765428642 -2.782877290167261 a30.4039411702203,30.4039411702203 0 0,0 0.15873070150898355,-0.49722166169899223 l 8.933649348142401 2.936667985557645" fill="#ff5d08" stroke="none" /><path d="M 80.05021161711548 93.44210830539832 l -22.80977150460172 -7.49802495319309 a45.01054048310547,45.01054048310547 0 0,0 0.24758921946218704,-0.731953533618737 l 22.677696863567167 7.8884801612859885" fill="#e0ff1b" stroke="none" /><path d="M 80.9802524753101 91.09779779509293 l -2.803044890919979 -1.3119665429842857 a24.094885598923284,24.094885598923284 0 0,0 0.17855542744169717,-0.3731121695686584 l 2.7801102055183766 1.3598912146180313" fill="#ff0000" stroke="none" /><line stroke="#e1ed5e" stroke-width="0.3" x1="26.387840678322718" x2="22.05771365940052" y1="57.49999999999999" y2="54.99999999999999" /><path d="M 25.521815274538284 56.99999999999999 a86.0,86.0 0 0,1 29.574782752854787,-30.34633250058573" fill="none" id="id107" stroke="none" /><text fill="#e1ed5e" style="font-size:6.75px; font-family:Arial;" text-anchor="middle"><textPath startOffset="21.40746469413373" xlink:href="#id107">November</textPath></text><path d="M 82.18462484594161 88.88188828441811 l -8.130938734688543 -5.074307132074385 a30.584401785081816,30.584401785081816 0 0,0 0.2817876503628039,-0.44301699005500494 l 8.04263339269985 5.213137796808062" fill="#ff5f08" stroke="none" /><path d="M 82.576782715395 88.27688183743585 l -4.655514636894697 -3.132438016719642 a26.61123733796132,26.61123733796132 0 0,0 0.25826872788190747,-0.3768217924341453 l 4.601056172197476 3.211894544223822" fill="#ff2603" stroke="none" /><path d="M 83.64595745247003 86.82634096563983 l -19.09692432937136 -15.383130439397826 a45.52209658567684,45.52209658567684 0 0,0 0.495439046170607,-0.6043550790660729 l 18.830038463962126 15.708687800162393" fill="#daff1c" stroke="none" /><path d="M 84.10781606972428 86.27271002978789 l -4.283034754793946 -3.699583410908384 a26.659620493022597,26.659620493022597 0 0,0 0.30212831982867383,-0.3437665670343225 l 4.218895371006679 3.7725622557540066" fill="#ff2603" stroke="none" /><path d="M 84.58840730492382 85.73525988315684 l -10.572271256835592 -9.785536440481765 a35.405889176170575,35.405889176170575 0 0,0 0.4166837600605067,-0.442503713454484 l 10.402731663038812 9.96558161388076" fill="#ffa20f" stroke="none" /><path d="M 85.08716467003674 85.21462403516908 l -27.971548980372187 -27.732477348725936 a60.389057519302966,60.389057519302966 0 0,0 0.7361946028893884,-0.729902379135692 l 27.491362457352825 28.2085597380903" fill="#35ff2f" stroke="none" /><path d="M 85.86807049272753 84.46653392183569 l -6.8469834134282745 -7.526034186309013 a31.174594460579442,31.174594460579442 0 0,0 0.3989382764835929,-0.35673306680711464 l 6.716780110121289 7.642462782999528" fill="#ff6809" stroke="none" /><path d="M 86.13680546590413 84.22622945171909 l -6.4071365224941665 -7.290145220769252 a30.705545618757526,30.705545618757526 0 0,0 0.3989096633273816,-0.3445686662348908 l 6.281047379403936 7.399058019468853" fill="#ff6108" stroke="none" /><path d="M 86.40962598614128 83.9905735841838 l -14.608039549740996 -17.208233858201925 a43.57250832329815,43.57250832329815 0 0,0 0.5743804108967987,-0.47916856731732504 l 14.310484804682288 17.456464609431134" fill="#f2ff19" stroke="none" /><path d="M 86.96720088162412 83.53348406188908 l -12.298232819692464 -15.538415416112166 a40.81637918821279,40.81637918821279 0 0,0 0.5531397910934441,-0.43012484719037897 l 12.029683083963775 15.747241314923349" fill="#ffea15" stroke="none" /><path d="M 87.83215693770416 82.88440491214696 l -9.38955696490879 -13.207587757578013 a37.20506570092796,37.20506570092796 0 0,0 0.5237142883046132,-0.3655932469379692 l 9.16144758543041 13.36682582032111" fill="#ffba11" stroke="none" /><path d="M 88.4268655584334 82.4767994020092 l -13.87707317090266 -21.01165748263845 a46.180605829850535,46.180605829850535 0 0,0 0.6652522273621302,-0.43120845642674177 l 13.514335311283503 21.2467797807691" fill="#d2ff1c" stroke="none" /><path d="M 88.72937992617638 82.28071324371311 l -10.153647494873855 -15.963220337963762 a39.91879914287738,39.91879914287738 0 0,0 0.5813619387395684,-0.3628128471165746 l 9.878121427344588 16.135168981921872" fill="#ffde14" stroke="none" /><path d="M 89.03521579738668 82.08984904055464 l -9.762896823217813 -15.946958250545961 a39.698118403343486,39.698118403343486 0 0,0 0.5842565726084743,-0.3508292847965597 l 9.487707494051904 16.112201535878445" fill="#ffdb14" stroke="none" /><line stroke="#e1ed5e" stroke-width="0.3" x1="56.869717070023135" x2="54.33264160355391" y1="26.7553504044142" y2="22.446841604673864" /><path d="M 56.362301976729285 25.89364864446614 a86.0,86.0 0 0,1 42.16139366436587,-11.88097634709845" fill="none" id="id108" stroke="none" /><text fill="#e1ed5e" style="font-size:6.75px; font-family:Arial;" text-anchor="middle"><textPath startOffset="22.145653131862474" xlink:href="#id108">December</textPath></text><path d="M 89.65649057296885 81.72400993836675 l -6.963642979772384 -12.304089901874942 a35.13799674151731,35.13799674151731 0 0,0 0.5274979852054886,-0.2925942403670832 l 6.7514008064107935 12.421817057675172" fill="#ff9f0e" stroke="none" /><path d="M 90.28995756902619 81.37971332152246 l -11.724255472257587 -22.482805769083658 a46.35615746971736,46.35615746971736 0 0,0 0.7087476318802298,-0.36189159086486306 l 11.336580618663774 22.680755311621354" fill="#d0ff1d" stroke="none" /><path d="M 90.61103034731259 81.2157712731953 l -8.475004967637908 -16.955687116035126 a39.955765212155555,39.955765212155555 0 0,0 0.6161554784213517,-0.30139252044065473 l 8.182689239954504 17.098673386572994" fill="#ffde14" stroke="none" /><path d="M 90.93487009805054 81.0573650232925 l -4.261468314553709 -8.904829784075817 a30.871985903520578,30.871985903520578 0 0,0 0.48000246774755856,-0.22466539165129015 l 4.107977132934629 8.976671407297651" fill="#ff6309" stroke="none" /><path d="M 91.26138138417902 80.90454125486306 l -16.468538676712033 -35.9867291066464 a60.575970461146134,60.575970461146134 0 0,0 0.9492733327512921,-0.42459788747031907 l 15.848351941105124 36.26413074502656" fill="#33ff2f" stroke="none" /><path d="M 92.592206182469 80.34994680014964 l -8.040784473099809 -21.329136117560534 a43.79443490118297,43.79443490118297 0 0,0 0.7057386603684493,-0.2591570115863241 l 7.673456661077232 21.464023978155577" fill="#efff19" stroke="none" /><path d="M 92.93061703081487 80.22567764915836 l -6.317212539611541 -17.670367790451834 a39.76563540412269,39.76563540412269 0 0,0 0.6447604440984094,-0.22428115177002048 l 6.012946323468127 17.77620737479044" fill="#ffdc14" stroke="none" /><path d="M 93.61358852112211 79.99465700312896 l -8.807741104737111 -27.590123563235363 a49.96189257632641,49.96189257632641 0 0,0 0.8192783670533362,-0.2538145323657382 l 8.33282210481216 27.737254683407745" fill="#a5ff21" stroke="none" /><path d="M 93.95794788825049 79.88797359093562 l -1.362484463192745 -4.53526765391269 a25.73550595027272,25.73550595027272 0 0,0 0.42419465290381114,-0.12347688118118945 l 1.2844297979073096 4.5579882293964005" fill="#ff1902" stroke="none" /><path d="M 95.00130118170881 79.60360301121753 l -4.456346901275803 -18.183416089314203 a39.72152900757951,39.72152900757951 0 0,0 0.663667015859394,-0.15662360867122083 l 4.143547731676503 18.25723584163166" fill="#ffdb14" stroke="none" /><path d="M 96.05791012581881 79.37332000966035 l -5.959063495273761 -31.18033826782237 a52.744667776439755,52.744667776439755 0 0,0 0.8907953166996647,-0.16233258065595177 l 5.422933445023058 31.278039022409683" fill="#86ff25" stroke="none" /><path d="M 96.41257539226777 79.30868818359171 l -2.547237920672997 -14.691791424305952 a35.91097435715803,35.91097435715803 0 0,0 0.6083019745773965,-0.10009585843066204 l 2.294658443042527 14.733353281232283" fill="#ffa90f" stroke="none" /><path d="M 97.48249496171623 79.15144685158666 l -3.0074305645323474 -24.905839317628274 a46.08675887228164,46.08675887228164 0 0,0 0.7862491007390165,-0.08810085169649333 l 2.5794455621925314 24.953795929831738" fill="#d3ff1c" stroke="none" /><path d="M 97.84075906011542 79.11130261209362 l -0.9591315522973163 -9.278727714472899 a30.328168166040946,30.328168166040946 0 0,0 0.5183234665011794,-0.04908577117653829 l 0.7997085224111213 9.29382524115462" fill="#ff5c08" stroke="none" /><path d="M 98.5590905019552 79.04949213459386 l -1.9516938999053777 -28.37720096669195 a49.44423744421619,49.44423744421619 0 0,0 0.8472756237525582,-0.05096999755397542 l 1.4642739240203357 28.40652294207062" fill="#abff21" stroke="none" /><path d="M 98.9189461498227 79.02784411241856 l -0.6927432433109078 -13.43903385238623 a34.45687646100446,34.45687646100446 0 0,0 0.5909752034006566,-0.025379018043822095 l 0.4619422793094311 13.44894543885588" fill="#ff950d" stroke="none" /><path d="M 99.63950707515114 79.00309439819443 l -0.16032991141682748 -9.338413552988335 a30.33978979244882,30.33978979244882 0 0,0 0.5208228362656774,-0.004470637654918493 l 2.2875887348063137e-15 9.33978979244882" fill="#ff5c08" stroke="none" /></svg>