<?xml version="1.0" encoding="utf-8" ?>
<svg baseProfile="full" height="200mm" version="1.1" viewBox="0,0,200,200" width="200mm" xmlns="http://www.w3.org/2000/svg" xmlns:ev="http://www.w3.org/2001/xml-events" xmlns:xlink="http://www.w3.org/1999/xlink"><defs /><rect fill="#1a1a1a" height="200" width="200" x="0" y="0" /><text alignment-baseline="middle" fill="#e1ed5e" style="dominant-baseline: central; font-size:9.0px; font-family:Arial;" text-anchor="middle" x="100.0" y="100.0">2024</text><line stroke="#e1ed5e" stroke-width="0.3" x1="100.0" x2="100.0" y1="15.0" y2="10.0" /><path d="M 100.0 14.0 a86.0,86.0 0 0,1 42.35913384403234,11.155469271406648" fill="none" id="id97" stroke="none" /><text fill="#e1ed5e" style="font-size:6.75px; font-family:Arial;" text-anchor="middle"><textPath startOffset="22.145653131862478" xlink:href="#id97">January</textPath></text><path d="M 100.72087961077811 79.0123766808444 l 1.0932562855128671 -31.82896390546648 a52.84773386916723,52.84773386916723 0 0,0 0.9063996357284158,0.03892470035577342 l -1.6394816818421192 31.805506636684875" fill="#88ff25" stroke="none" /><path d="M 101.08105385017728 79.02784411241856 l 0.6922220232883303 -13.428922323193477 a34.44675150703282,34.44675150703282 0 0,0 0.5902789562140655,0.03550971621388475 l -0.9226453316348581 13.415060629154901" fill="#ff8e0d" stroke="none" /><path d="M 101.80034050326958 79.07731436759882 l 1.219520671337332 -14.172678769525609 a35.22505023442733,35.22505023442733 0 0,0 0.6020136147105153,0.05701131522428106 l -1.4626338494328601 14.149655698796145" fill="#ff990e" stroke="none" /><path d="M 102.87502721639298 79.19773525538626 l 2.181571593238284 -15.784765299998638 a36.93480687653494,36.93480687653494 0 0,0 0.6273199210518458,0.09219442544671519 l -2.452216619897812 15.74498980125304" fill="#ffb010" stroke="none" /><line stroke="#e1ed5e" stroke-width="0.3" x1="143.13028292997686" x2="145.6673583964461" y1="26.7553504044142" y2="22.446841604673864" /><path d="M 143.63769802327073 25.89364864446614 a86.0,86.0 0 0,1 29.32050498858742,28.57503671076993" fill="none" id="id98" stroke="none" /><text fill="#e1ed5e" style="font-size:6.75px; font-family:Arial;" text-anchor="middle"><textPath startOffset="20.669276256404974" xlink:href="#id98">February</textPath></text><path d="M 114.39649973595853 84.71141617570332 l 4.02849140486746 -4.278118268910881 a26.876311676713552,26.876311676713552 0 0,0 0.3331734956146631,0.3191726721094692 l -4.101337386347435 4.208333466495832" fill="#ff2103" stroke="none" /><path d="M 114.65682725009322 84.96080404539774 l 11.073610943138075 -11.362500359538746 a36.86604152712659,36.86604152712659 0 0,0 0.4494287858937497,0.44558753730119466 l -11.267031649161787 11.170732812008893" fill="#ffaf10" stroke="none" /><path d="M 115.6541949942343 86.00192230759917 l 11.829478006359684 -10.577992177468033 a36.86916722482697,36.86916722482697 0 0,0 0.41783113716997083,0.475415133895488 l -12.009320207488244 10.373364765761249" fill="#ffaf10" stroke="none" /><path d="M 115.8921839302757 86.27271002978787 l 12.36413565580876 -10.679845899277932 a37.338021879883904,37.338021879883904 0 0,0 0.41481730916511,0.48865374715321525 l -12.545647528480982 10.466025369675165" fill="#ffb610" stroke="none" /><path d="M 116.35404254752997 86.82634096563983 l 24.884628557475462 -20.045295275472803 a52.954007590980126,52.954007590980126 0 0,0 0.5641709109601879,0.7128115159886103 l -25.225065899077208 19.615163815569513" fill="#87ff25" stroke="none" /><path d="M 117.01052211995028 87.68569379921539 l 12.801250255037376 -9.26711798037761 a36.803527573119,36.803527573119 0 0,0 0.36608101099337326,0.5149387875431934 l -12.958446364560709 9.046001966124912" fill="#ffaf10" stroke="none" /><path d="M 117.62189284568427 88.57770195909679 l 13.21674749563192 -8.566936046455508 a36.75039071221255,36.75039071221255 0 0,0 0.33859763945949234,0.532331728803381 l -13.361862826717301 8.338790642973455" fill="#ffae10" stroke="none" /><line stroke="#e1ed5e" stroke-width="0.3" x1="172.87174338648825" x2="177.1583165268699" y1="56.24261187166439" y2="53.66864786411523" /><path d="M 173.72905801456457 55.72781907015455 a86.0,86.0 0 0,1 12.242430191666344,42.057860355516425" fill="none" id="id99" stroke="none" /><text fill="#e1ed5e" style="font-size:6.75px; font-family:Arial;" text-anchor="middle"><textPath startOffset="22.145653131862474" xlink:href="#id99">March</textPath></text><path d="M 119.31412917781788 91.75594674310238 l 5.9967661628232625 -2.559662885151211 a27.52020540299174,27.52020540299174 0 0,0 0.1817305353543996,0.4360871281721023 l -6.039822542714146 2.456343247537831" fill="#ff2a04" stroke="none" /><path d="M 119.71291397450082 92.76114493625339 l 9.031234533528844 -3.3163944163447288 a30.62089752176825,30.62089752176825 0 0,0 0.1769593769687445,0.4949868720420255 l -9.086834080541532 3.1608725879217867" fill="#ff5808" stroke="none" /><line stroke="#e1ed5e" stroke-width="0.3" x1="184.99686870605535" x2="189.99668451229388" y1="99.2704041080226" y2="99.22748670261217" /><path d="M 185.99683186730306 99.26182062694052 a86.0,86.0 0 0,1 -10.086455211305974,41.156179273409016" fill="none" id="id100" stroke="none" /><text fill="#e1ed5e" style="font-size:6.75px; font-family:Arial;" text-anchor="middle"><textPath startOffset="21.40746469413373" xlink:href="#id100">April</textPath></text><path d="M 119.58574465831526 107.57618678355244 l 9.468556768654908 3.6626411658820204 a31.152266130832775,31.152266130832775 0 0,0 -0.19721064463051585,0.4970996519968762 l -9.404287449058268 -3.8246418350924607" fill="#ff6008" stroke="none" /><path d="M 118.5362547648365 109.86951160357373 l 8.448018469886037 4.498093998681659 a30.570886358562177,30.570886358562177 0 0,0 -0.2506152501432131,0.4611038328796074 l -8.369557870127485 -4.64245266503587" fill="#ff5708" stroke="none" /><line stroke="#e1ed5e" stroke-width="0.3" x1="174.33088141563837" x2="178.70328620479359" y1="141.23008692659167" y2="143.65538615756765" /><path d="M 175.20536237346943 141.71514677278685 a86.0,86.0 0 0,1 -30.301960400862466,31.631185727798858" fill="none" id="id101" stroke="none" /><text fill="#e1ed5e" style="font-size:6.75px; font-family:Arial;" text-anchor="middle"><textPath startOffset="22.145653131862474" xlink:href="#id101">May</textPath></text><path d="M 118.36410011445183 110.18625677009912 l 20.88836095477278 11.586421706794294 a44.886581826300514,44.886581826300514 0 0,0 -0.3795409185994637,0.6706124362568353 l -20.686386671151936 -11.943290913150252" fill="#e6ff1a" stroke="none" /><path d="M 118.18653347947321 110.5 l 18.0904373362089 10.444518865818258 a41.88903773163653,41.88903773163653 0 0,0 -0.36488601230869233,0.6196562206019196 l -17.90847761377044 -10.753526254713728" fill="#fff216" stroke="none" /><path d="M 117.81537515405839 111.11811171558189 l 11.142398808864078 6.953680944984012 a34.13418173699486,34.13418173699486 0 0,0 -0.3144933465207217,0.494435776686993 l -11.021387770717466 -7.143930396349677" fill="#ff8a0c" stroke="none" /><path d="M 117.01052211995028 112.31430620078461 l 14.441916822534257 10.454834050647527 a38.82897968296495,38.82897968296495 0 0,0 -0.3954971588479416,0.5365678534058751 l -14.260317644102487 -10.701208213322278" fill="#ffca12" stroke="none" /><path d="M 116.79662413953412 112.60449989151573 l 25.385565455507827 19.049801577502528 a52.73833444965394,52.73833444965394 0 0,0 -0.5496038196159111,0.7194490423968591 l -25.05480965853761 -19.482771533140262" fill="#89ff24" stroke="none" /><path d="M 116.57777611688842 112.89097897827486 l 14.323731541048927 11.138220282635336 a39.14467515070328,39.14467515070328 0 0,0 -0.41704656632587667,0.526924712716301 l -14.13041854408149 -11.38246493926632" fill="#ffce13" stroke="none" /><path d="M 116.1254893667686 113.45245675266167 l 7.4885058903502335 6.24717795167142 a30.752176825184193,30.752176825184193 0 0,0 -0.341650001776476,0.4024628430259785 l -7.380161325066642 -6.374807577146956" fill="#ff5a08" stroke="none" /><path d="M 115.6541949942343 113.99807769240083 l 23.705556280619156 21.19765460184357 a52.80084840366153,52.80084840366153 0 0,0 -0.6099812962013165,0.6704762975205819 l -23.33817728357596 -21.601468474921823" fill="#89ff24" stroke="none" /><path d="M 115.16444852881244 114.52719865689866 l 10.319544343786632 9.885890043810473 a35.2906898861353,35.2906898861353 0 0,0 -0.42283825580216,0.43386930047022576 l -10.148319286833663 -10.061582036348437" fill="#ff9a0e" stroke="none" /><path d="M 114.39649973595853 115.28858382429668 l 6.794865023848253 7.2159111865512795 a30.91158740790355,30.91158740790355 0 0,0 -0.3894421785503492,0.3604618664320655 l -6.669993073983936 -7.331490799115724" fill="#ff5c08" stroke="none" /><path d="M 114.13192950727249 115.5334660781643 l 10.946276870707162 12.03187578637598 a37.266130832775175,37.266130832775175 0 0,0 -0.47689107951153936,0.42643894395554355 l -10.738120764372244 -12.218010260214912" fill="#ffb510" stroke="none" /><path d="M 113.86319453409587 115.77377054828091 l 16.71176788444481 19.014924115580428 a46.31502567537397,46.31502567537397 0 0,0 -0.6016994952167727,0.5197336931166251 l -16.382888909465184 -19.299001941161773" fill="#d5ff1c" stroke="none" /><path d="M 112.45986205192187 116.90419585922612 l 5.539571027623819 7.515492004392111 a30.336459031033712,30.336459031033712 0 0,0 -0.4218486721463801,0.305385906592037 l -5.409741345103471 -7.609478682357225" fill="#ff5407" stroke="none" /><path d="M 111.8722381534696 117.32195027204791 l 12.461564852015718 18.181795537468467 a43.04242018307658,43.04242018307658 0 0,0 -0.6130546498117461,0.4124905281530718 l -12.14761391410697 -18.39303573967866" fill="#feff18" stroke="none" /><path d="M 111.5731344415666 117.5232005979908 l 8.681788730445138 13.145334674983046 a36.753516409912926,36.753516409912926 0 0,0 -0.5294507990036394,0.3431836112710805 l -8.45485229918449 -13.29243212795802" fill="#ffae10" stroke="none" /><line stroke="#e1ed5e" stroke-width="0.3" x1="143.1302829299769" x2="145.66735839644613" y1="173.24464959558577" y2="177.55315839532614" /><path d="M 143.63769802327073 174.10635135553383 a86.0,86.0 0 0,1 -40.68552437913181,11.842963189579606" fill="none" id="id102" stroke="none" /><text fill="#e1ed5e" style="font-size:6.75px; font-family:Arial;" text-anchor="middle"><textPath startOffset="21.407464694133747" xlink:href="#id102">June</textPath></text><path d="M 110.65571695917076 118.09573695890943 l 4.845310011202899 8.228395684969605 a30.54900647465952,30.54900647465952 0 0,0 -0.4541728533700074,0.26221681915179523 l -4.703344689972493 -8.310359401397573" fill="#ff5708" stroke="none" /><path d="M 110.34350942703117 118.27599006163325 l 11.1802583105009 19.75444516299482 a43.698816700156286,43.698816700156286 0 0,0 -0.6560145683536089,0.3638802226370372 l -10.839499553991196 -19.943458301065004" fill="#f5ff19" stroke="none" /><path d="M 109.71004243097381 118.62028667847754 l 4.392173691706393 8.422572183656062 a30.49899531145345,30.49899531145345 0 0,0 -0.4663046266472755,0.23809846491810677 l -4.246941843345535 -8.496728600247005" fill="#ff5608" stroke="none" /><path d="M 109.3889696526874 118.78422872680471 l 5.680756364988353 11.36531811780325 a33.70596115204287,33.70596115204287 0 0,0 -0.519777621802854,0.2542492812125609 l -5.484818493923429 -11.461161149113035" fill="#ff840c" stroke="none" /><path d="M 108.4095320186766 119.2426549942271 l 5.079389883424815 11.62263808388384 a33.68408126814021,33.68408126814021 0 0,0 -0.5318314225535237,0.22700720963688828 l -4.8791233857008605 -11.708119943180133" fill="#ff840c" stroke="none" /><path d="M 107.74402155503746 119.51999308798841 l 4.886047089648556 12.31603046810789 a34.24983255190891,34.24983255190891 0 0,0 -0.5483687480430381,0.21212081204545963 l -4.673906079111988 -12.398091168291389" fill="#ff8b0c" stroke="none" /><path d="M 107.06938296918513 119.77432235084164 l 4.690825225366865 13.121073013329173 a34.93436034829203,34.93436034829203 0 0,0 -0.5664260978996523,0.19703239985073287 l -4.46489335542219 -13.199663845748496" fill="#ff950d" stroke="none" /><path d="M 106.72888874123015 119.89276391827305 l 5.030767008588079 14.872568752174669 a36.70037954900647,36.70037954900647 0 0,0 -0.5985259769158485,0.19674737684872978 l -4.774718294024495 -14.956737050425417" fill="#ffad10" stroke="none" /><path d="M 106.38641147887787 120.00534299687104 l 4.774718294024495 14.956737050425417 a36.70037954900647,36.70037954900647 0 0,0 -0.6018152130889071,0.18644389138472653 l -4.517262448063964 -15.036497529616788" fill="#ffad10" stroke="none" /><path d="M 106.0420521117495 120.11202640906438 l 5.545180221931597 18.45810148668468 a40.2730520205403,40.2730520205403 0 0,0 -0.6638149394164155,0.19322685432153058 l -5.227505270133574 -18.550572035308726" fill="#ffdd14" stroke="none" /><path d="M 105.69591212413111 120.21278271476187 l 4.312734237620742 15.304372355435534 a36.900424201830766,36.900424201830766 0 0,0 -0.6111739928950595,0.1665781895335761 l -4.049378843790987 -15.376151039113253" fill="#ffb010" stroke="none" /><path d="M 104.9986988182912 120.39639698878246 l 3.057922474239316 12.477367213499429 a33.84661754855995,33.84661754855995 0 0,0 -0.5655090382120591,0.13345859321676729 l -2.843281282287377 -12.52802195036242" fill="#ff860c" stroke="none" /><path d="M 104.64783097203109 120.47920084513623 l 3.4797335401229947 15.332348031708754 a36.722259432909134,36.722259432909134 0 0,0 -0.6159504723301455,0.13424353860474886 l -3.2160206511737135 -15.389823028447221" fill="#ffad10" stroke="none" /><path d="M 104.29559338865022 120.5559693870025 l 3.3157620471146876 15.867121714816559 a37.20986827416834,37.20986827416834 0 0,0 -0.6263723432308853,0.12529201122675682 l -3.0428932183528437 -15.921703122706177" fill="#ffb410" stroke="none" /><path d="M 103.94208987418118 120.62667999033965 l 3.565102042944828 18.654120357416648 a39.991739227506145,39.991739227506145 0 0,0 -0.6754133737561955,0.12308281590163998 l -3.2443539356375757 -18.712571347249654" fill="#ffd914" stroke="none" /><path d="M 102.875027216393 120.80226474461374 l 2.584250853582983 18.69835183340364 a39.8760884125921,39.8760884125921 0 0,0 -0.6788850468450448,0.08789526106622976 l -2.2628879848471626 -18.739958690670264" fill="#ffd814" stroke="none" /><path d="M 102.15924093988457 120.88869738790638 l 1.620756427749924 15.679348206774108 a36.76289350301407,36.76289350301407 0 0,0 -0.6282961204505684,0.05950029584368266 l -1.3513607439143405 -15.704860258122975" fill="#ffae10" stroke="none" /><path d="M 101.80034050326958 120.92268563240118 l 1.3478771647608827 15.664375787895807 a36.722259432909134,36.722259432909134 0 0,0 -0.6285294581950052,0.04865215516240414 l -1.0787787117906418 -15.685205710053266" fill="#ffad10" stroke="none" /><path d="M 101.44090949804482 120.95050786540614 l 1.0832825592951354 15.750690664309946 a36.7878990846171,36.7878990846171 0 0,0 -0.6303968218466848,0.03792310738889492 l -0.8127413853159855 -15.766965749523534" fill="#ffae10" stroke="none" /><path d="M 101.08105385017728 120.97215588758144 l 0.4869046588727324 9.445820304505682 a30.458361241348513,30.458361241348513 0 0,0 -0.5223960520689463,0.022433934207708648 l -0.32468284620295645 -9.452786807139221" fill="#ff5607" stroke="none" /><path d="M 100.72087961077811 120.9876233191556 l 1.077268927917278 31.36350943280826 a52.38200491181067,52.38200491181067 0 0,0 -0.8989417691665459,0.023153551207750117 l -0.5387138446799883 -31.377380701366057" fill="#8dff24" stroke="none" /><line stroke="#e1ed5e" stroke-width="0.3" x1="101.45913802915013" x2="101.54496967792366" y1="184.9874750549273" y2="189.98673829345242" /><path d="M 101.47630435890484 185.9873277026323 a86.0,86.0 0 0,1 -42.54439059252881,-10.42667462771756" fill="none" id="id103" stroke="none" /><text fill="#e1ed5e" style="font-size:6.75px; font-family:Arial;" text-anchor="middle"><textPath startOffset="22.145653131862474" xlink:href="#id103">July</textPath></text><path d="M 100.0 121.0 l 1.925804256556032e-15 15.72538513060951 a36.72538513060951,36.72538513060951 0 0,0 -0.6304400715206651,-0.005411569782765942 l 0.269947146671811 -15.72306795902118" fill="#ffad10" stroke="none" /><path d="M 99.63950707515114 120.99690560180557 l -0.29114156585991785 16.957536622072933 a37.960035722259434,37.960035722259434 0 0,0 -0.6514424510333929,-0.016778846713157543 l 0.5821973309640547 -16.95004005800973" fill="#ffbe11" stroke="none" /><path d="M 99.27912038922189 120.98762331915562 l -0.7346673654830231 21.389038753629308 a42.40165215449878,42.40165215449878 0 0,0 -0.7272372768578288,-0.031230697777691788 l 1.1017304029416906 -21.37327548742579" fill="#fff817" stroke="none" /><path d="M 98.55909050195518 120.95050786540614 l -1.877675471516321 27.3009892627269 a48.36548336682295,48.36548336682295 0 0,0 -0.8278121097485129,-0.0640778927442193 l 2.3460565760400702 -27.26473360298763" fill="#bcff1f" stroke="none" /><path d="M 98.19965949673042 120.92268563240118 l -1.8095853864076066 21.030125188004053 a42.107836570663096,42.107836570663096 0 0,0 -0.7196438538154003,-0.0681510211672126 l 2.1703288036080224 -20.995962411331657" fill="#fff417" stroke="none" /><path d="M 97.48249496171623 120.84855314841334 l -2.7638784196444273 22.888878175589312 a44.05514623799955,44.05514623799955 0 0,0 -0.7500329447585329,-0.09710678088167062 l 3.1563891862937545 -22.838059798507246" fill="#f1ff19" stroke="none" /><path d="M 96.76829788921471 120.74984581791261 l -3.8110851862397648 24.469900783704947 a45.764902880107165,45.764902880107165 0 0,0 -0.775219310716465,-0.12756204257284687 l 4.230582000009293 -24.40087274263643" fill="#dcff1b" stroke="none" /><path d="M 96.41257539226777 120.69131181640829 l -2.739759717537256 15.802205987942385 a37.03795490064746,37.03795490064746 0 0,0 -0.6255274354077172,-0.1139919361465028 l 3.010621886496031 -15.752845877864516" fill="#ffb210" stroke="none" /><path d="M 96.05791012581884 120.62667999033965 l -6.002467725366282 31.407447540548432 a52.97588747488278,52.97588747488278 0 0,0 -0.8917696383089315,-0.17837890312711055 l 6.5407338492061715 -31.29977924075846" fill="#87ff25" stroke="none" /><path d="M 95.70440661134978 120.55596938700252 l -0.7576509883977823 3.625634252228619 a24.703951774949765,24.703951774949765 0 0,0 -0.4143647749126524,-0.09030887409989637 l 0.8197781799295711 -3.612093919995004" fill="#ff0000" stroke="none" /><path d="M 94.6519064749342 120.30758222061772 l -4.007189522241762 15.215951313327322 a36.734762223710646,36.734762223710646 0 0,0 -0.6084301682689581,-0.16583034793048196 l 4.267801091445415 -15.144920471252695" fill="#ffae10" stroke="none" /><path d="M 94.30408787586889 120.21278271476187 l -6.1906006296651634 21.96825770383139 a43.82384460817147,43.82384460817147 0 0,0 -0.7223421442887077,-0.21026327067523634 l 6.566802786335478 -21.858750738853637" fill="#f4ff19" stroke="none" /><path d="M 93.61358852112213 120.00534299687104 l -7.794682462870961 24.416731796434092 a46.6307211431123,46.6307211431123 0 0,0 -0.7604743675525991,-0.2499830295548026 l 8.212679568071303 -24.27932784547727" fill="#d1ff1c" stroke="none" /><path d="M 93.27111125876986 119.89276391827306 l -8.050429069287457 23.79966307584711 a46.124358115650814,46.124358115650814 0 0,0 -0.7478608431670217,-0.2601448224754923 l 8.457795684499501 -23.65795982080303" fill="#d7ff1c" stroke="none" /><path d="M 91.59046798132341 119.24265499422711 l -6.314815663350954 14.449534039722515 a36.76914489841482,36.76914489841482 0 0,0 -0.5762015606917819,-0.2577276291094621 l 6.561930626898371 -14.339002659703198" fill="#ffae10" stroke="none" /><path d="M 91.26138138417905 119.09545874513695 l -15.824072944865332 34.578455175014696 a59.027238222817594,59.027238222817594 0 0,0 -0.9177647366069582,-0.42956023739024946 l 16.41532639534378 -34.30171870605392" fill="#45ff2d" stroke="none" /><path d="M 90.93487009805054 118.94263497670748 l -7.291502863754544 15.236436617418656 a37.89127037285108,37.89127037285108 0 0,0 -0.5843190263184586,-0.28581971637217185 l 7.551982139335071 -15.109023150949263" fill="#ffbd11" stroke="none" /><path d="M 90.28995756902619 118.62028667847754 l -7.3058367922263345 14.009905359783282 a36.80040187541862,36.80040187541862 0 0,0 -0.5576333076336852,-0.2969083274939771 l 7.545258915646581 -13.882426564566732" fill="#ffae10" stroke="none" /><line stroke="#e1ed5e" stroke-width="0.3" x1="58.13341422392154" x2="55.67067388415222" y1="173.97424548756322" y2="178.32567169271397" /><path d="M 57.64086615596768 174.84453072859336 a86.0,86.0 0 0,1 -31.369924170532247,-30.572349798747897" fill="none" id="id104" stroke="none" /><text fill="#e1ed5e" style="font-size:6.75px; font-family:Arial;" text-anchor="middle"><textPath startOffset="22.145653131862474" xlink:href="#id104">August</textPath></text><path d="M 88.4268655584334 117.5232005979908 l -13.985603710810333 21.175986552814955 a46.37753962938156,46.37753962938156 0 0,0 -0.6605568691464878,-0.44445214127818183 l 14.347056868053826 -20.93278473747965" fill="#d4ff1c" stroke="none" /><path d="M 87.83215693770417 117.11559508785305 l -36.503529186887484 51.346785263559134 a84.0,84.0 0 0,0 -1.1680759585041844,-0.8455969145077384 l 37.37958615576562 -50.712587577678335" fill="#4dd2ff" stroke="none" /><path d="M 87.54013794807813 116.9041958592261 l -11.1894883813754 15.180689992802074 a39.85889707524001,39.85889707524001 0 0,0 -0.5472949446170883,-0.41070032958685454 l 11.448436314903255 -14.986370635951205" fill="#ffd714" stroke="none" /><path d="M 86.96720088162412 116.46651593811092 l -24.474931380002747 30.923276265705955 a60.43692788568877,60.43692788568877 0 0,0 -0.8079819498096055,-0.6508530647253865 l 25.002164100167615 -30.49857490718716" fill="#37ff2e" stroke="none" /><path d="M 86.68645165197938 116.24036423190432 l -30.6963638736345 37.444572766884576 a69.4186202277294,69.4186202277294 0 0,0 -0.9150883698144713,-0.7633992643449096 l 31.334626577610862 -36.912111318627794" fill="#3aff93" stroke="none" /><line stroke="#e1ed5e" stroke-width="0.3" x1="26.387840678322732" x2="22.057713659400548" y1="142.50000000000003" y2="145.00000000000006" /><path d="M 25.521815274538298 143.00000000000003 a86.0,86.0 0 0,1 -11.493303480769221,-40.785679425670985" fill="none" id="id105" stroke="none" /><text fill="#e1ed5e" style="font-size:6.75px; font-family:Arial;" text-anchor="middle"><textPath startOffset="21.40746469413373" xlink:href="#id105">September</textPath></text><line stroke="#e1ed5e" stroke-width="0.3" x1="15.003131293944662" x2="10.003315487706104" y1="100.72959589197737" y2="100.7725132973878" /><path d="M 14.003168132696942 100.73817937305945 a86.0,86.0 0 0,1 10.791469493833604,-42.45332614584628" fill="none" id="id106" stroke="none" /><text fill="#e1ed5e" style="font-size:6.75px; font-family:Arial;" text-anchor="middle"><textPath startOffset="22.145653131862435" xlink:href="#id106">October</textPath></text><line stroke="#e1ed5e" stroke-width="0.3" x1="26.387840678322718" x2="22.05771365940052" y1="57.49999999999999" y2="54.99999999999999" /><path d="M 25.521815274538284 56.99999999999999 a86.0,86.0 0 0,1 29.574782752854787,-30.34633250058573" fill="none" id="id107" stroke="none" /><text fill="#e1ed5e" style="font-size:6.75px; font-family:Arial;" text-anchor="middle"><textPath startOffset="21.40746469413373" xlink:href="#id107">November</textPath></text><line stroke="#e1ed5e" stroke-width="0.3" x1="56.869717070023135" x2="54.33264160355391" y1="26.7553504044142" y2="22.446841604673864" /><path d="M 56.362301976729285 25.89364864446614 a86.0,86.0 0 0,1 42.16139366436587,-11.88097634709845" fill="none" id="id108" stroke="none" /><text fill="#e1ed5e" style="font-size:6.75px; font-family:Arial;" text-anchor="middle"><textPath startOffset="22.145653131862474" xlink:href="#id108">December</textPath></text></svg>