<?xml version="1.0" encoding="utf-8" ?>
<svg baseProfile="full" height="200mm" version="1.1" viewBox="0,0,200,200" width="200mm" xmlns="http://www.w3.org/2000/svg" xmlns:ev="http://www.w3.org/2001/xml-events" xmlns:xlink="http://www.w3.org/1999/xlink"><defs /><rect fill="#1a1a1a" height="200" width="200" x="0" y="0" /><text alignment-baseline="middle" fill="#e1ed5e" style="dominant-baseline: central; font-size:9.0px; font-family:Arial;" text-anchor="middle" x="100.0" y="100.0">2017</text><line stroke="#e1ed5e" stroke-width="0.3" x1="100.0" x2="100.0" y1="15.0" y2="10.0" /><path d="M 100.0 14.0 a86.0,86.0 0 0,1 42.46469731375804,11.215312516191453" fill="none" id="id13" stroke="none" /><text fill="#e1ed5e" style="font-size:6.75px; font-family:Arial;" text-anchor="middle"><textPath startOffset="22.20632615414155" xlink:href="#id13">January</textPath></text><path d="M 104.66035177308747 79.52364482259891 l 3.0599636859900334 -13.444672487195371 a34.78849506101104,34.78849506101104 0 0,0 0.5827508823183297,0.13791830591887477 l -3.2909382552708863 13.390008269135627" fill="#ff0000" stroke="none" /><path d="M 106.0581310904928 79.89281104454417 l 6.251737836557346 -20.749777794822513 a42.67112144102266,42.67112144102266 0 0,0 0.7014616802037295,0.21794755857979406 l -6.607984889471794 20.6390901013602" fill="#ff8b0c" stroke="none" /><line stroke="#e1ed5e" stroke-width="0.3" x1="143.23703022742887" x2="145.7803849466894" y1="26.81831364943548" y2="22.513508569990506" /><path d="M 143.74570117128098 25.957352633546492 a86.0,86.0 0 0,1 28.547481713284135,27.462654790039103" fill="none" id="id14" stroke="none" /><text fill="#e1ed5e" style="font-size:6.75px; font-family:Arial;" text-anchor="middle"><textPath startOffset="19.985693538727396" xlink:href="#id14">February</textPath></text><path d="M 117.65298651832404 88.62581576622439 l 29.264364053909638 -18.855634874469388 a55.81289947704823,55.81289947704823 0 0,0 0.5134053310697262,0.8120839391953636 l -29.584596981225317 18.349103287559817" fill="#a8ff21" stroke="none" /><line stroke="#e1ed5e" stroke-width="0.3" x1="172.23445277983987" x2="176.4835382374775" y1="55.19839476539836" y2="52.563006222186495" /><path d="M 173.08426987136738 54.67131705675599 a86.0,86.0 0 0,1 12.851231095245387,41.99856678651699" fill="none" id="id15" stroke="none" /><text fill="#e1ed5e" style="font-size:6.75px; font-family:Arial;" text-anchor="middle"><textPath startOffset="22.20632615414155" xlink:href="#id15">March</textPath></text><path d="M 117.84615892207809 88.93136811851018 l 32.14589927858342 -19.93768671273587 a58.82684485764091,58.82684485764091 0 0,0 0.5263159421627626,0.8651250234565139 l -32.4843310190324 19.381393916072277" fill="#7fff26" stroke="none" /><path d="M 118.03404312379186 89.2402003453031 l 35.041162234723984 -20.90689717914377 a61.8041836141778,61.8041836141778 0 0,0 0.5372264664775085,0.9182941757277863 l -35.39584837567182 20.300623591062088" fill="#58ff2a" stroke="none" /><path d="M 118.21658344932153 89.55222093294921 l 35.17356583503513 -20.173137617553625 a61.54793724578733,61.54793724578733 0 0,0 0.5191784179668611,0.9235604740783844 l -35.51560189429442 19.564693633540447" fill="#5bff2a" stroke="none" /><path d="M 118.56541770881063 90.18545643968196 l 33.17179515083829 -17.536154240545027 a58.52178965717606,58.52178965717606 0 0,0 0.4631318759814538,0.894623372480759 l -33.46873645997986 16.96255814580392" fill="#83ff25" stroke="none" /><path d="M 118.73160827565052 90.50648371742162 l 42.94882408815628 -21.767237217347088 a69.1499128413713,69.1499128413713 0 0,0 0.5289638620528974,1.0663588680862588 l -43.31714796316259 21.02471876076188" fill="#36ff6c" stroke="none" /><path d="M 119.04729006885535 91.15688171328212 l 42.278122058702756 -19.62853681305189 a67.61243463102846,67.61243463102846 0 0,0 0.4810067180163244,1.0598345432923475 l -42.60973109368243 18.89788026091748" fill="#33ff56" stroke="none" /><path d="M 119.196687751892 91.48605970444005 l 27.25015001619534 -12.085738606654822 a50.809994189424756,50.809994189424756 0 0,0 0.3477080094218927,0.802558025532473 l -27.454148735459913 11.614881436535745" fill="#f1ff19" stroke="none" /><path d="M 119.61058180528143 92.48833698450437 l 41.51153371100537 -15.900632402934686 a65.45264381173736,65.45264381173736 0 0,0 0.39394827848767117,1.0555855275855064 l -41.77908657799467 15.183723738319847" fill="#30ff36" stroke="none" /><path d="M 119.97218684219823 93.5106431181261 l 59.91656052659467 -19.46807064562169 a84.0,84.0 0 0,0 0.4349780649271753,1.3789993342943234 l -60.24279407529006 18.433821144900946" fill="#4dd2ff" stroke="none" /><line stroke="#e1ed5e" stroke-width="0.3" x1="184.98032266829074" x2="189.97916517819016" y1="98.17113171792111" y2="98.06355123074" /><path d="M 185.9800911702706 98.14961562048488 a86.0,86.0 0 0,1 -9.607161424134198,41.387399972396054" fill="none" id="id16" stroke="none" /><text fill="#e1ed5e" style="font-size:6.75px; font-family:Arial;" text-anchor="middle"><textPath startOffset="21.466115282336823" xlink:href="#id16">April</textPath></text><path d="M 119.79798401119884 107.00284435728193 l 39.0322834108063 13.806304999568603 a62.4020918070889,62.4020918070889 0 0,0 -0.36691163812857086,1.0095832458516243 l -38.78884751167251 -14.476136042426358" fill="#50ff2b" stroke="none" /><path d="M 119.54520255179757 107.68017299344265 l 40.532729754425056 15.92709902010274 a64.54968041836142,64.54968041836142 0 0,0 -0.4152615750019721,1.0306451738009974 l -40.252565565165696 -16.62244356174655" fill="#35ff2f" stroke="none" /><path d="M 119.41010516605496 108.01547362559984 l 42.51952148519884 17.558591265840427 a67.00232423009878,67.00232423009878 0 0,0 -0.4493910297925809,1.062227646465483 l -42.21097947421395 -18.287893437972073" fill="#32ff4d" stroke="none" /><path d="M 119.12269723197855 108.67885076344098 l 40.80101350135108 18.517571181496393 a65.80650784427658,65.80650784427658 0 0,0 -0.477020041477507,1.0274587316474528 l -40.47621884303374 -19.217149980422676" fill="#31ff3b" stroke="none" /><path d="M 118.97047184881838 109.00673069616215 l 39.50620052653402 18.756608259758952 a64.73271353864033,64.73271353864033 0 0,0 -0.48656419155080805,1.002466350147713 l -39.1774830783685 -19.433863565871942" fill="#33ff2f" stroke="none" /><line stroke="#e1ed5e" stroke-width="0.3" x1="174.80103733775053" x2="179.2010983576182" y1="140.37084112569926" y2="142.7455964860345" /><path d="M 175.68104954172406 140.8457921977663 a86.0,86.0 0 0,1 -30.038265399797805,32.042727171017184" fill="none" id="id17" stroke="none" /><text fill="#e1ed5e" style="font-size:6.75px; font-family:Arial;" text-anchor="middle"><textPath startOffset="22.206326154141568" xlink:href="#id17">May</textPath></text><path d="M 115.56566222782051 114.09645910891815 l 36.95601154147277 33.46782795993004 a70.85822196397444,70.85822196397444 0 0,0 -0.8265226663386651,0.8970271141014811 l -36.37444246713839 -34.09900632883286" fill="#38ff85" stroke="none" /><path d="M 115.32070863581623 114.36230785411682 l 27.35650066116403 25.645190026554907 a58.49738524113887,58.49738524113887 0 0,0 -0.6949863990059525,0.7286904608387338 l -26.911007710779113 -26.11228760397615" fill="#83ff25" stroke="none" /><path d="M 115.07121518719521 114.62390073753431 l 30.66786495383939 29.757641128904805 a63.73213248111563,63.73213248111563 0 0,0 -0.7707320251800915,0.7807474723643163 l -30.151092303603765 -30.281129095249785" fill="#40ff2d" stroke="none" /><line stroke="#e1ed5e" stroke-width="0.3" x1="143.8653032363475" x2="146.44561519142675" y1="172.8068346515853" y2="177.08958963109032" /><path d="M 144.38136562736335 173.6633856474863 a86.0,86.0 0 0,1 -40.68145358897372,12.25698825130547" fill="none" id="id18" stroke="none" /><text fill="#e1ed5e" style="font-size:6.75px; font-family:Arial;" text-anchor="middle"><textPath startOffset="21.466115282336833" xlink:href="#id18">June</textPath></text><line stroke="#e1ed5e" stroke-width="0.3" x1="102.19456741930631" x2="102.32365962044197" y1="184.97166512339345" y2="189.96999836594603" /><path d="M 102.22038585953345 185.97133177190398 a86.0,86.0 0 0,1 -42.740103519485714,-10.115201625700543" fill="none" id="id19" stroke="none" /><text fill="#e1ed5e" style="font-size:6.75px; font-family:Arial;" text-anchor="middle"><textPath startOffset="22.20632615414155" xlink:href="#id19">July</textPath></text><line stroke="#e1ed5e" stroke-width="0.3" x1="58.666819895761336" x2="56.23545636021788" y1="174.27360380694188" y2="178.64263932499728" /><path d="M 58.180547188652646 175.14741091055294 a86.0,86.0 0 0,1 -31.652253787137756,-30.449443065178592" fill="none" id="id20" stroke="none" /><text fill="#e1ed5e" style="font-size:6.75px; font-family:Arial;" text-anchor="middle"><textPath startOffset="22.20632615414155" xlink:href="#id20">August</textPath></text><line stroke="#e1ed5e" stroke-width="0.3" x1="26.63291911575756" x2="22.317208475507996" y1="142.92168965132927" y2="145.44649492493687" /><path d="M 25.769776987707644 143.4266507060508 a86.0,86.0 0 0,1 -11.730757126820373,-40.83630448921669" fill="none" id="id21" stroke="none" /><text fill="#e1ed5e" style="font-size:6.75px; font-family:Arial;" text-anchor="middle"><textPath startOffset="21.46611528233685" xlink:href="#id21">September</textPath></text><line stroke="#e1ed5e" stroke-width="0.3" x1="15.007084014347285" x2="10.007500721073583" y1="101.09737516637583" y2="101.16192664675087" /><path d="M 14.007167355692545 101.11028546245083 a86.0,86.0 0 0,1 10.666146001902534,-42.60595125391555" fill="none" id="id22" stroke="none" /><text fill="#e1ed5e" style="font-size:6.75px; font-family:Arial;" text-anchor="middle"><textPath startOffset="22.20632615414155" xlink:href="#id22">October</textPath></text><line stroke="#e1ed5e" stroke-width="0.3" x1="26.266209847984243" x2="21.928928074336255" y1="57.711370442889674" y2="55.22380399835377" /><path d="M 25.398753493254645 57.213857153982495 a86.0,86.0 0 0,1 29.58750427330803,-30.492523968695096" fill="none" id="id23" stroke="none" /><text fill="#e1ed5e" style="font-size:6.75px; font-family:Arial;" text-anchor="middle"><textPath startOffset="21.46611528233685" xlink:href="#id23">November</textPath></text><line stroke="#e1ed5e" stroke-width="0.3" x1="56.762969772571076" x2="54.21961505331055" y1="26.818313649435495" y2="22.513508569990535" /><path d="M 56.25429882871897 25.957352633546506 a86.0,86.0 0 0,1 42.265352541879196,-11.944610805530505" fill="none" id="id24" stroke="none" /><text fill="#e1ed5e" style="font-size:6.75px; font-family:Arial;" text-anchor="middle"><textPath startOffset="22.20632615414155" xlink:href="#id24">December</textPath></text></svg>