<?xml version="1.0" encoding="utf-8" ?>
<svg baseProfile="full" height="200mm" version="1.1" viewBox="0,0,200,200" width="200mm" xmlns="http://www.w3.org/2000/svg" xmlns:ev="http://www.w3.org/2001/xml-events" xmlns:xlink="http://www.w3.org/1999/xlink"><defs /><rect fill="#1a1a1a" height="200" width="200" x="0" y="0" /><text alignment-baseline="middle" fill="#e1ed5e" style="dominant-baseline: central; font-size:9.0px; font-family:Arial;" text-anchor="middle" x="100.0" y="100.0">2024</text><line stroke="#e1ed5e" stroke-width="0.3" x1="100.0" x2="100.0" y1="15.0" y2="10.0" /><path d="M 100.0 14.0 a86.0,86.0 0 0,1 42.35913384403234,11.155469271406648" fill="none" id="id97" stroke="none" /><text fill="#e1ed5e" style="font-size:6.75px; font-family:Arial;" text-anchor="middle"><textPath startOffset="22.145653131862478" xlink:href="#id97">January</textPath></text><path d="M 100.72087961077811 79.0123766808444 l 1.8112055780580791 -52.73127420652881 a73.76237054085155,73.76237054085155 0 0,0 1.2651097955157375,0.05432925805186315 l -2.716141134174653 52.69241238005112" fill="#3fffbf" stroke="none" /><path d="M 101.08105385017728 79.02784411241856 l 1.1468092216330708 -22.24779252713514 a43.27733026467204,43.27733026467204 0 0,0 0.74159960573195,0.04461279072655997 l -1.5285531794974831 22.22482775858389" fill="#ffed16" stroke="none" /><path d="M 101.80034050326958 79.07731436759882 l 2.0203886972825575 -23.479979199340246 a44.56674338319908,44.56674338319908 0 0,0 0.7616677932732493,0.07213073192599558 l -2.42315605394082 23.441836711909065" fill="#fffe18" stroke="none" /><path d="M 102.87502721639298 79.19773525538626 l 3.614225402557475 -26.150734588535475 a47.39930955120829,47.39930955120829 0 0,0 0.8050544632593337,0.11831528252611286 l -4.0626049714244905 26.084838232710478" fill="#dbff1b" stroke="none" /><line stroke="#e1ed5e" stroke-width="0.3" x1="143.13028292997686" x2="145.6673583964461" y1="26.7553504044142" y2="22.446841604673864" /><path d="M 143.63769802327073 25.89364864446614 a86.0,86.0 0 0,1 29.32050498858742,28.57503671076993" fill="none" id="id98" stroke="none" /><text fill="#e1ed5e" style="font-size:6.75px; font-family:Arial;" text-anchor="middle"><textPath startOffset="20.669276256404974" xlink:href="#id98">February</textPath></text><path d="M 114.39649973595853 84.71141617570332 l 6.6740307833968515 -7.087589410573178 a30.735327963176065,30.735327963176065 0 0,0 0.38101197736990405,0.3650008554807529 l -6.794715246632068 6.9719764247868445" fill="#ff3805" stroke="none" /><path d="M 114.65682725009322 84.96080404539774 l 18.34573116590658 -18.82433634692448 a47.28538550057537,47.28538550057537 0 0,0 0.5764495594246101,0.5715226697185685 l -18.666172645461153 18.50663366697725" fill="#dcff1b" stroke="none" /><path d="M 115.6541949942343 86.00192230759917 l 19.597981584512798 -17.524635980022772 a47.29056386651324,47.29056386651324 0 0,0 0.5359348085423778,0.6097954319253555 l -19.895927457013762 17.18562827028612" fill="#dcff1b" stroke="none" /><path d="M 115.8921839302757 86.27271002978787 l 20.483752770890472 -17.693377776006603 a48.067318757192176,48.067318757192176 0 0,0 0.5340174658899706,0.6290712320505775 l -20.78446480028756 17.339139761506473" fill="#d2ff1c" stroke="none" /><path d="M 116.35404254752997 86.82634096563983 l 41.22654371939806 -33.20918534644026 a73.93843498273878,73.93843498273878 0 0,0 0.7877385700697688,0.9952819498943579 l -41.790548720109385 32.49658345263122" fill="#3fffc1" stroke="none" /><path d="M 117.01052211995028 87.68569379921539 l 21.207923682015938 -15.352901237341852 a47.18181818181819,47.18181818181819 0 0,0 0.469312830575543,0.6601472698604651 l -21.46835161112144 14.986576740771882" fill="#deff1b" stroke="none" /><path d="M 117.62189284568427 88.57770195909679 l 21.89628095908344 -14.192904774316453 a47.09378596087457,47.09378596087457 0 0,0 0.433895924656489,0.682156461757504 l -22.13669457536582 13.814934637880278" fill="#dfff1b" stroke="none" /><line stroke="#e1ed5e" stroke-width="0.3" x1="172.87174338648825" x2="177.1583165268699" y1="56.24261187166439" y2="53.66864786411523" /><path d="M 173.72905801456457 55.72781907015455 a86.0,86.0 0 0,1 12.242430191666344,42.057860355516425" fill="none" id="id99" stroke="none" /><text fill="#e1ed5e" style="font-size:6.75px; font-family:Arial;" text-anchor="middle"><textPath startOffset="22.145653131862474" xlink:href="#id99">March</textPath></text><path d="M 119.31412917781788 91.75594674310238 l 9.93488577961403 -4.240611974491635 a31.802071346375143,31.802071346375143 0 0,0 0.21000597075948,0.5039378798334619 l -10.006217594909993 4.069441585216896" fill="#ff4906" stroke="none" /><path d="M 119.71291397450082 92.76114493625339 l 14.96211142861587 -5.49429456342563 a36.93901035673188,36.93901035673188 0 0,0 0.21347200074466668,0.5971191791425596 l -15.05422359940448 5.236640427902153" fill="#ff950d" stroke="none" /><line stroke="#e1ed5e" stroke-width="0.3" x1="184.99686870605535" x2="189.99668451229388" y1="99.2704041080226" y2="99.22748670261217" /><path d="M 185.99683186730306 99.26182062694052 a86.0,86.0 0 0,1 -10.086455211305974,41.156179273409016" fill="none" id="id100" stroke="none" /><text fill="#e1ed5e" style="font-size:6.75px; font-family:Arial;" text-anchor="middle"><textPath startOffset="21.40746469413373" xlink:href="#id100">April</textPath></text><path d="M 119.58574465831526 107.57618678355244 l 15.686626331631102 6.067924052189303 a37.81933256616801,37.81933256616801 0 0,0 -0.23941677063062744,0.6034866605992775 l -15.58015088603435 -6.336311730002144" fill="#ffa10e" stroke="none" /><path d="M 118.5362547648365 109.86951160357373 l 13.995893167005427 7.4520247896127065 a36.85615650172612,36.85615650172612 0 0,0 -0.3021408922417625,0.55590521088692 l -13.865906925148325 -7.69118483397423" fill="#ff940d" stroke="none" /><line stroke="#e1ed5e" stroke-width="0.3" x1="174.33088141563837" x2="178.70328620479359" y1="141.23008692659167" y2="143.65538615756765" /><path d="M 175.20536237346943 141.71514677278685 a86.0,86.0 0 0,1 -30.301960400862466,31.631185727798858" fill="none" id="id101" stroke="none" /><text fill="#e1ed5e" style="font-size:6.75px; font-family:Arial;" text-anchor="middle"><textPath startOffset="22.145653131862474" xlink:href="#id101">May</textPath></text><path d="M 118.36410011445183 110.18625677009912 l 34.60589834160141 19.19530845892589 a60.57307249712313,60.57307249712313 0 0,0 -0.5121788882681072,0.9049710195365432 l -34.271286088311925 -19.786536248561557" fill="#40ff2d" stroke="none" /><path d="M 118.18653347947321 110.5 l 29.970558090576887 17.303509781357874 a55.60701956271576,55.60701956271576 0 0,0 -0.4843802752071024,0.8225836029445425 l -29.66910410524002 -17.815444552595967" fill="#77ff27" stroke="none" /><path d="M 117.81537515405839 111.11811171558189 l 18.459692519485447 11.520213405114687 a42.75949367088607,42.75949367088607 0 0,0 -0.39396216858815175,0.6193739643974961 l -18.259212659271405 -11.835401044190855" fill="#ffe615" stroke="none" /><path d="M 117.01052211995028 112.31430620078461 l 23.926027824805946 17.320599022507494 a50.537399309551205,50.537399309551205 0 0,0 -0.514754649895168,0.6983635440757636 l -23.625171155326946 -17.72876887585214" fill="#b3ff20" stroke="none" /><path d="M 116.79662413953412 112.60449989151573 l 42.056449493546616 31.559943752700327 a73.58112773302648,73.58112773302648 0 0,0 -0.7668135384958665,1.0037835369363788 l -41.50848397769644 -32.27724820287758" fill="#3fffbd" stroke="none" /><path d="M 116.57777611688842 112.89097897827486 l 23.730229416045677 18.452769924926564 a51.06041426927503,51.06041426927503 0 0,0 -0.5439966065421639,0.6873219413989614 l -23.409966378861952 -18.857411810240208" fill="#adff20" stroke="none" /><path d="M 116.1254893667686 113.45245675266167 l 12.406261751845646 10.349744797379033 a37.15650172612198,37.15650172612198 0 0,0 -0.41280065970293056,0.4862781391575574 l -12.2267665286356 -10.561189718986146" fill="#ff980e" stroke="none" /><path d="M 115.6541949942343 113.99807769240083 l 39.27316616916154 35.118307358824424 a73.68469505178365,73.68469505178365 0 0,0 -0.8512417348727463,0.9356637822286787 l -38.66452673344691 -35.787308716610774" fill="#3fffbe" stroke="none" /><path d="M 115.16444852881244 114.52719865689866 l 17.096463588787728 16.378025380406214 a44.675489067894134,44.675489067894134 0 0,0 -0.5352829864059468,0.5492474999098161 l -16.81279380123097 -16.66909557238377" fill="#feff18" stroke="none" /><path d="M 114.39649973595853 115.28858382429668 l 11.257101922420965 11.954652138791246 a37.42059838895282,37.42059838895282 0 0,0 -0.47144648920635407,0.43636383212199104 l -11.050225661900644 -12.146133717045617" fill="#ff9c0e" stroke="none" /><path d="M 114.13192950727249 115.5334660781643 l 18.134775889161446 19.933295447336924 a47.9482163406214,47.9482163406214 0 0,0 -0.6135886967697031,0.5486747962271311 l -17.789922165568363 -20.24166577344744" fill="#d4ff1c" stroke="none" /><path d="M 113.86319453409587 115.77377054828091 l 27.686506460211028 31.502162009829142 a62.93958573072497,62.93958573072497 0 0,0 -0.817676691550797,0.7062896513183462 l -27.141650288897377 -31.972795793612207" fill="#30ff3a" stroke="none" /><path d="M 112.45986205192187 116.90419585922612 l 9.177447299627808 12.450969841733126 a36.467779056386654,36.467779056386654 0 0,0 -0.5071087616167336,0.36710763629796167 l -8.962357527637106 -12.606678249404165" fill="#ff8e0d" stroke="none" /><path d="M 111.8722381534696 117.32195027204791 l 20.64516442337685 30.12191188192057 a57.51783659378596,57.51783659378596 0 0,0 -0.8192284964681616,0.5512134934299365 l -20.12503963881169 -30.471875049407625" fill="#61ff29" stroke="none" /><path d="M 111.5731344415666 117.5232005979908 l 14.38318204475481 21.777970823739995 a47.09896432681243,47.09896432681243 0 0,0 -0.6784815911750152,0.4397835702176171 l -14.007214821322785 -22.021668235661508" fill="#dfff1b" stroke="none" /><line stroke="#e1ed5e" stroke-width="0.3" x1="143.1302829299769" x2="145.66735839644613" y1="173.24464959558577" y2="177.55315839532614" /><path d="M 143.63769802327073 174.10635135553383 a86.0,86.0 0 0,1 -40.68552437913181,11.842963189579606" fill="none" id="id102" stroke="none" /><text fill="#e1ed5e" style="font-size:6.75px; font-family:Arial;" text-anchor="middle"><textPath startOffset="21.407464694133747" xlink:href="#id102">June</textPath></text><path d="M 110.65571695917076 118.09573695890943 l 8.027260063356898 13.632042514253236 a36.8199079401611,36.8199079401611 0 0,0 -0.5474025043621435,0.31604298324856006 l -7.792065091134355 -13.767832394777967" fill="#ff930d" stroke="none" /><path d="M 110.34350942703117 118.27599006163325 l 18.522414629072898 32.72733186608106 a58.60529344073648,58.60529344073648 0 0,0 -0.8797933029528425,0.4880065144841283 l -17.957877137963962 -33.04047129599833" fill="#55ff2b" stroke="none" /><path d="M 109.71004243097381 118.62028667847754 l 7.276545852637532 13.953736120966608 a36.73705408515535,36.73705408515535 0 0,0 -0.5616794295799628,0.2867975188679127 l -7.035939201343987 -14.076591591507357" fill="#ff920d" stroke="none" /><path d="M 109.3889696526874 118.78422872680471 l 9.411350066950744 18.829004547376577 a42.05005753739931,42.05005753739931 0 0,0 -0.6484514357822396,0.3171900915569241 l -9.086738381906434 -18.987788389030722" fill="#ffdd14" stroke="none" /><path d="M 108.4095320186766 119.2426549942271 l 8.415061876982481 19.255308392217717 a42.013808975834294,42.013808975834294 0 0,0 -0.6633478768988744,0.28314376354513476 l -8.083278924913175 -19.396926805422254" fill="#ffdc14" stroke="none" /><path d="M 107.74402155503746 119.51999308798841 l 8.094749475210543 20.404056559259292 a42.95109321058688,42.95109321058688 0 0,0 -0.6876832806488171,0.2660106660743989 l -7.743293932068196 -20.540007113471734" fill="#ffe915" stroke="none" /><path d="M 107.06938296918513 119.77432235084164 l 7.771324003771317 21.737776353785648 a44.08515535097814,44.08515535097814 0 0,0 -0.7147971874050751,0.24864356667747822 l -7.39702104432122 -21.867978353031717" fill="#fff817" stroke="none" /><path d="M 106.72888874123015 119.89276391827305 l 8.334508009337256 24.639491984584634 a47.01093210586882,47.01093210586882 0 0,0 -0.7666750156307709,0.25202130573861636 l -7.910310256058751 -24.778934211725268" fill="#e0ff1b" stroke="none" /><path d="M 106.38641147887787 120.00534299687104 l 7.910310256058751 24.778934211725268 a47.01093210586882,47.01093210586882 0 0,0 -0.7708883251472392,0.23882317368782188 l -7.4837812980398875 -24.911073973219736" fill="#e0ff1b" stroke="none" /><path d="M 106.0420521117495 120.11202640906438 l 9.186740092318125 30.579669942041185 a52.92980437284235,52.92980437284235 0 0,0 -0.872434372869506,0.25395293094752425 l -8.660445707067012 -30.73286656729123" fill="#96ff23" stroke="none" /><path d="M 105.69591212413111 120.21278271476187 l 7.144937935752494 25.354864130361733 a47.342347525891824,47.342347525891824 0 0,0 -0.7841213806151666,0.213715769119564 l -6.708635154202632 -25.47378039362544" fill="#dcff1b" stroke="none" /><path d="M 104.9986988182912 120.39639698878246 l 5.06608223159054 20.67134430968993 a42.28308400460299,42.28308400460299 0 0,0 -0.7064654579967056,0.1667239244815115 l -4.710484619853956 -20.755264377817667" fill="#ffe015" stroke="none" /><path d="M 104.64783097203109 120.47920084513623 l 5.76489966858039 25.401211635139386 a47.047180667433835,47.047180667433835 0 0,0 -0.7891326296752288,0.1719877837503996 l -5.328004622286025 -25.496430877023506" fill="#dfff1b" stroke="none" /><path d="M 104.29559338865022 120.5559693870025 l 5.493246912758513 26.287175055316876 a47.85500575373993,47.85500575373993 0 0,0 -0.8055672723277743,0.16113601569281838 l -5.04118315489978 -26.377600467672558" fill="#d5ff1c" stroke="none" /><path d="M 103.94208987418118 120.62667999033965 l 5.906330283295616 30.904415819818443 a52.46375143843498,52.46375143843498 0 0,0 -0.8860509706106501,0.16146800275605244 l -5.374944579133909 -31.00125199650586" fill="#9cff22" stroke="none" /><path d="M 102.875027216393 120.80226474461374 l 4.281347039239833 30.97769442529731 a52.27215189873418,52.27215189873418 0 0,0 -0.8899263619662707,0.11521878450299584 l -3.7489428553827873 -31.0466248060007" fill="#9eff22" stroke="none" /><path d="M 102.15924093988457 120.88869738790638 l 2.685118870583066 25.976089329412744 a47.114499424626004,47.114499424626004 0 0,0 -0.8052102102092724,0.07625424408071764 l -2.2388090969887786 -26.018355328998645" fill="#deff1b" stroke="none" /><path d="M 101.80034050326958 120.92268563240118 l 2.2330378262648343 25.951284415003613 a47.047180667433835,47.047180667433835 0 0,0 -0.8052483542993731,0.06233131536929293 l -1.7872204771902251 -25.985793497367958" fill="#dfff1b" stroke="none" /><path d="M 101.44090949804482 120.95050786540614 l 1.794682033854439 26.094282893679036 a47.15592635212889,47.15592635212889 0 0,0 -0.808063163249481,0.04861107330324234 l -1.3464745184724927 -26.121245944806972" fill="#deff1b" stroke="none" /><path d="M 101.08105385017728 120.97215588758144 l 0.8066584622644549 15.648958667389799 a36.669735327963174,36.669735327963174 0 0,0 -0.6289282871770489,0.027008886763245754 l -0.5379044144865766 -15.660500122578876" fill="#ff910d" stroke="none" /><path d="M 100.72087961077811 120.9876233191556 l 1.7847192073513645 51.960152422568385 a72.99079401611047,72.99079401611047 0 0,0 -1.2526147789910016,0.032262913376294 l -0.892491114289619 -51.98313305329472" fill="#3effb6" stroke="none" /><line stroke="#e1ed5e" stroke-width="0.3" x1="101.45913802915013" x2="101.54496967792366" y1="184.9874750549273" y2="189.98673829345242" /><path d="M 101.47630435890484 185.9873277026323 a86.0,86.0 0 0,1 -42.54439059252881,-10.42667462771756" fill="none" id="id103" stroke="none" /><text fill="#e1ed5e" style="font-size:6.75px; font-family:Arial;" text-anchor="middle"><textPath startOffset="22.145653131862474" xlink:href="#id103">July</textPath></text><path d="M 100.0 121.0 l 3.190493810045627e-15 26.052359033371687 a47.05235903337169,47.05235903337169 0 0,0 -0.8077163109037366,-0.006933273087465167 l 0.4472233860548813 -26.048520158478656" fill="#dfff1b" stroke="none" /><path d="M 99.63950707515114 120.99690560180557 l -0.48233633328041864 28.093673301511668 a49.09781357882623,49.09781357882623 0 0,0 -0.8425808724783626,-0.021701894434921157 l 0.9645305198295252 -28.081253689726697" fill="#c5ff1e" stroke="none" /><path d="M 99.27912038922189 120.98762331915562 l -1.2171287263679984 35.435374864275474 a56.45627157652474,56.45627157652474 0 0,0 -0.9682902225898707,-0.04158254845441593 l 1.8252447095587079 -35.40925974739523" fill="#6dff28" stroke="none" /><path d="M 98.55909050195518 120.95050786540614 l -3.110758504532896 45.229745938261715 a66.33659378596087,66.33659378596087 0 0,0 -1.1354013613178449,-0.08788724614607045 l 3.886728860625977 -45.169680925120595" fill="#35ff66" stroke="none" /><path d="M 98.19965949673042 120.92268563240118 l -2.9979531691384604 34.84076016988456 a55.969505178365935,55.969505178365935 0 0,0 -0.9565466593161992,-0.09058596315505658 l 3.595599391839675 -34.784162451224326" fill="#73ff27" stroke="none" /><path d="M 97.48249496171623 120.84855314841334 l -4.578937324276119 37.920169658728454 a59.195627157652474,59.195627157652474 0 0,0 -1.0077975979021132,-0.1304795758592458 l 5.229212744069026 -37.835978486668814" fill="#4fff2b" stroke="none" /><path d="M 96.76829788921471 120.74984581791261 l -6.313852332011802 40.539461223571024 a62.02819332566168,62.02819332566168 0 0,0 -1.0507058957576987,-0.17289325530644067 l 7.008835730822565 -40.42510196976892" fill="#30ff2f" stroke="none" /><path d="M 96.41257539226777 120.69131181640829 l -4.538979696434504 26.17962870211843 a47.57019562715765,47.57019562715765 0 0,0 -0.8034045765302001,-0.14640707665834995 l 4.9877190065157615 -26.09785345152871" fill="#d9ff1c" stroke="none" /><path d="M 96.05791012581884 120.62667999033965 l -9.944331599426281 52.032945002755554 a73.9746835443038,73.9746835443038 0 0,0 -1.2452528864117427,-0.24908545262341023 l 10.83608097136898 -51.85457015346928" fill="#3fffc2" stroke="none" /><path d="M 95.70440661134978 120.55596938700252 l -1.2552058603198673 6.00661443126697 a27.136363636363637,27.136363636363637 0 0,0 -0.4551641499531938,-0.09920090799603874 l 1.3581324268921975 -5.984182065137212" fill="#ff0000" stroke="none" /><path d="M 94.6519064749342 120.30758222061772 l -6.638739800718712 25.2083763517811 a47.06789413118527,47.06789413118527 0 0,0 -0.7795756665553784,-0.21247681453867096 l 7.070496868208785 -25.090699043098287" fill="#dfff1b" stroke="none" /><path d="M 94.30408787586889 120.21278271476187 l -10.256012739702134 36.394971079202165 a58.81242807825086,58.81242807825086 0 0,0 -0.9693968155625425,-0.28217728486969235 l 10.879269567646285 -36.213550100029956" fill="#53ff2b" stroke="none" /><path d="M 93.61358852112213 120.00534299687104 l -12.913506689166176 40.451375778647666 a63.462600690448795,63.462600690448795 0 0,0 -1.034976083153301,-0.3402171957696265 l 13.606005509967222 -40.223737661476015" fill="#31ff41" stroke="none" /><path d="M 93.27111125876986 119.89276391827306 l -13.337203937697135 39.4290735759688 a62.623705408515534,62.623705408515534 0 0,0 -1.015381439273928,-0.35320237271178184 l 14.012091149016085 -39.194312770688434" fill="#30ff36" stroke="none" /><path d="M 91.59046798132341 119.24265499422711 l -10.46180068244864 23.938647323493928 a47.12485615650172,47.12485615650172 0 0,0 -0.7384837406409916,-0.33031438405474683 l 10.871197825945266 -23.755529188529326" fill="#deff1b" stroke="none" /><path d="M 91.26138138417905 119.09545874513695 l -26.215855847462862 57.28637623541087 a84.0,84.0 0 0,0 -1.3060451445140404,-0.6112950737178937 l 27.19538970584839 -56.82790493012245" fill="#4dd2ff" stroke="none" /><path d="M 90.93487009805054 118.94263497670748 l -12.07988541594647 25.24231450290825 a48.98388952819333,48.98388952819333 0 0,0 -0.7553776464278312,-0.36949305932443355 l 12.511423311636369 -25.031227693486596" fill="#c7ff1e" stroke="none" /><path d="M 90.28995756902619 118.62028667847754 l -12.10363253869126 23.210311316711483 a47.17663981588032,47.17663981588032 0 0,0 -0.714863543953434,-0.3806245723059636 l 12.500284898431255 -22.999116276682948" fill="#deff1b" stroke="none" /><line stroke="#e1ed5e" stroke-width="0.3" x1="58.13341422392154" x2="55.67067388415222" y1="173.97424548756322" y2="178.32567169271397" /><path d="M 57.64086615596768 174.84453072859336 a86.0,86.0 0 0,1 -31.369924170532247,-30.572349798747897" fill="none" id="id104" stroke="none" /><text fill="#e1ed5e" style="font-size:6.75px; font-family:Arial;" text-anchor="middle"><textPath startOffset="22.145653131862474" xlink:href="#id104">August</textPath></text><path d="M 88.4268655584334 117.5232005979908 l -23.170050599477033 35.08240974562402 a63.043153049482164,63.043153049482164 0 0,0 -0.897925766055659,-0.6041645285559563 l 23.768872653629696 -34.679495543010944" fill="#31ff3c" stroke="none" /><path d="M 87.83215693770417 117.11559508785305 l -30.24758159896537 42.547011527366394 a73.20310701956271,73.20310701956271 0 0,0 -1.0179379690161916,-0.7369085884300237 l 30.973500578355512 -42.021502167563305" fill="#3effb9" stroke="none" /><path d="M 87.54013794807813 116.9041958592261 l -9.278838582147966 12.588526589231344 a36.638665132336016,36.638665132336016 0 0,0 -0.5030785514861148,-0.3775195238610899 l 9.493570122544847 -12.42738803810624" fill="#ff900d" stroke="none" /><line stroke="#e1ed5e" stroke-width="0.3" x1="26.387840678322732" x2="22.057713659400534" y1="142.50000000000003" y2="145.00000000000006" /><path d="M 25.521815274538284 143.00000000000003 a86.0,86.0 0 0,1 -11.493303480769212,-40.785679425670985" fill="none" id="id105" stroke="none" /><text fill="#e1ed5e" style="font-size:6.75px; font-family:Arial;" text-anchor="middle"><textPath startOffset="21.40746469413373" xlink:href="#id105">September</textPath></text><line stroke="#e1ed5e" stroke-width="0.3" x1="15.003131293944662" x2="10.003315487706104" y1="100.72959589197737" y2="100.7725132973878" /><path d="M 14.003168132696942 100.73817937305945 a86.0,86.0 0 0,1 10.791469493833604,-42.45332614584628" fill="none" id="id106" stroke="none" /><text fill="#e1ed5e" style="font-size:6.75px; font-family:Arial;" text-anchor="middle"><textPath startOffset="22.145653131862435" xlink:href="#id106">October</textPath></text><line stroke="#e1ed5e" stroke-width="0.3" x1="26.387840678322718" x2="22.05771365940052" y1="57.49999999999999" y2="54.99999999999999" /><path d="M 25.521815274538284 56.99999999999999 a86.0,86.0 0 0,1 29.574782752854787,-30.34633250058573" fill="none" id="id107" stroke="none" /><text fill="#e1ed5e" style="font-size:6.75px; font-family:Arial;" text-anchor="middle"><textPath startOffset="21.40746469413373" xlink:href="#id107">November</textPath></text><line stroke="#e1ed5e" stroke-width="0.3" x1="56.869717070023135" x2="54.33264160355391" y1="26.7553504044142" y2="22.446841604673864" /><path d="M 56.362301976729285 25.89364864446614 a86.0,86.0 0 0,1 42.16139366436587,-11.88097634709845" fill="none" id="id108" stroke="none" /><text fill="#e1ed5e" style="font-size:6.75px; font-family:Arial;" text-anchor="middle"><textPath startOffset="22.145653131862474" xlink:href="#id108">December</textPath></text></svg>