<?xml version="1.0" encoding="utf-8" ?>
<svg baseProfile="full" height="200mm" version="1.1" viewBox="0,0,200,200" width="200mm" xmlns="http://www.w3.org/2000/svg" xmlns:ev="http://www.w3.org/2001/xml-events" xmlns:xlink="http://www.w3.org/1999/xlink"><defs /><rect fill="#1a1a1a" height="200" width="200" x="0" y="0" /><text alignment-baseline="middle" fill="#e1ed5e" style="dominant-baseline: central; font-size:9.0px; font-family:Arial;" text-anchor="middle" x="100.0" y="100.0">2026</text><line stroke="#e1ed5e" stroke-width="0.3" x1="100.0" x2="100.0" y1="15.0" y2="10.0" /><path d="M 100.0 14.0 a86.0,86.0 0 0,1 42.46469731375804,11.215312516191453" fill="none" id="id121" stroke="none" /><text fill="#e1ed5e" style="font-size:6.75px; font-family:Arial;" text-anchor="middle"><textPath startOffset="22.20632615414155" xlink:href="#id121">January</textPath></text><path d="M 100.0 79.0 l 0.0 -51.2398742125235 a72.2398742125235,72.2398742125235 0 0,0 1.2434906834728647,0.010703116896670509 l -0.8820102042003364 51.23228247223539" fill="#3dffad" stroke="none" /><path d="M 100.36148047927253 79.00311137660856 l 0.1889979884336976 -10.978102389300883 a31.979729154656127,31.979729154656127 0 0,0 0.5503153490559463,0.014213021877687953 l -0.3779399726845116 10.973222575280836" fill="#ff4a06" stroke="none" /><path d="M 100.72285384407766 79.0124445844662 l 0.9930814353018774 -28.833424386267463 a49.8505211837801,49.8505211837801 0 0,0 0.8573320350329532,0.03691852087436049 l -1.489254302724162 28.81205813886891" fill="#bdff1f" stroke="none" /><path d="M 101.80526077348638 79.07773832637324 l 1.1253096163904097 -13.041895444556609 a34.09035364379004,34.09035364379004 0 0,0 0.5842029373813129,0.05547710824102547 l -1.3496376808619668 13.020592791800405" fill="#ff6a09" stroke="none" /><path d="M 102.16513564639614 79.11191278185805 l 2.778562119587466 -26.806102422069486 a47.94972234578468,47.94972234578468 0 0,0 0.8202446106699819,0.09216403923033449 l -3.2395734337671733 26.75430242936855" fill="#d5ff1c" stroke="none" /><path d="M 102.88285421437855 79.19881850522331 l 4.062817702749544 -29.31518631555309 a50.595382011411274,50.595382011411274 0 0,0 0.8616418121115553,0.1269836051421078 l -4.566828495289755 29.24090822625001" fill="#b3ff20" stroke="none" /><path d="M 103.2404852339499 79.25152402106235 l 0.9615774639065697 -6.156876353802783 a27.231513271678786,27.231513271678786 0 0,0 0.4625088312690204,0.0763179200879764 l -1.0674155013144655 6.139412170775182" fill="#ff0000" stroke="none" /><path d="M 103.59715602781102 79.31037775812273 l 10.791468083433088 -62.06886672563182 a84.0,84.0 0 0,0 1.4224195155883965,0.2599380745970459 l -11.858282720124386 61.87391316968404" fill="#4dd2ff" stroke="none" /><path d="M 104.307194497241 79.44645832069477 l 3.5370235051572556 -16.87835552364752 a38.24498247197363,38.24498247197363 0 0,0 0.643166372599918,0.14057125773316143 l -3.8270326019107013 16.81497076781849" fill="#ffa60f" stroke="none" /><path d="M 105.71112130821622 79.79150937346287 l 11.609249907120148 -41.078696330903185 a63.68763258430395,63.68763258430395 0 0,0 1.0523919769899848,0.30722207657150574 l -12.314632101833562 40.87277592541298" fill="#31ff44" stroke="none" /><path d="M 106.0581310904928 79.89281104454417 l 5.288598223518665 -17.55307737672739 a39.332479280315134,39.332479280315134 0 0,0 0.6465784369103518,0.20089506773060264 l -5.589962033139735 17.45944217411427" fill="#ffb610" stroke="none" /><path d="M 106.74666289553966 80.11325718540242 l 8.362897960203476 -24.65082419180014 a47.03077401130851,47.03077401130851 0 0,0 0.7644023587091854,0.2666849735198731 l -8.785982322975936 24.50321836510806" fill="#e0ff1b" stroke="none" /><path d="M 107.08798089147638 80.2323363322302 l 8.068954227929018 -22.50349934212452 a44.906390463083554,44.906390463083554 0 0,0 0.7253829205159884,0.2671646513843278 l -8.455119474217582 22.361271422933868" fill="#fcff18" stroke="none" /><path d="M 109.41281617654863 81.2277094730956 l 13.939162022264773 -27.79933170643225 a52.09828100083987,52.09828100083987 0 0,0 0.7981940726987723,0.4088660060622929 l -14.4156165825523 27.555273175057458" fill="#a1ff22" stroke="none" /><path d="M 109.73455568895987 81.39251694778311 l 17.738550969720233 -33.90702124333141 a59.26672549488772,59.26672549488772 0 0,0 0.8998804285757991,0.4806849601123921 l -18.319576444824342 33.59665755671726" fill="#4eff2b" stroke="none" /><path d="M 110.05341064243156 81.56283822128135 l 14.72267829674016 -27.000230193260634 a51.75336870520638,51.75336870520638 0 0,0 0.7784591658737093,0.4332116829888633 l -15.185261551685905 26.74280311271159" fill="#a5ff21" stroke="none" /><path d="M 110.36928655335952 81.73862282372117 l 11.1131131038101 -19.571332024339963 a43.506406200569444,43.506406200569444 0 0,0 0.6480450484870868,0.3753895204972835 l -11.448354884762514 19.37713834645263" fill="#ffef16" stroke="none" /><line stroke="#e1ed5e" stroke-width="0.3" x1="143.23703022742887" x2="145.7803849466894" y1="26.81831364943548" y2="22.513508569990506" /><path d="M 143.74570117128098 25.957352633546492 a86.0,86.0 0 0,1 28.547481713284135,27.462654790039103" fill="none" id="id122" stroke="none" /><text fill="#e1ed5e" style="font-size:6.75px; font-family:Arial;" text-anchor="middle"><textPath startOffset="19.985693538727396" xlink:href="#id122">February</textPath></text><path d="M 110.68208982089419 81.91981866633111 l 16.29251263093679 -27.57621286541189 a53.02957202067713,53.02957202067713 0 0,0 0.781903195706926,0.4710879266388527 l -16.764777892861353 27.291678329314422" fill="#96ff23" stroke="none" /><path d="M 111.2981086023043 82.29822771554956 l 11.91922907021899 -18.67493810107171 a43.154487913450254,43.154487913450254 0 0,0 0.622725372531865,0.40503790452789 l -12.238921468535136 18.467001272384294" fill="#ffeb16" stroke="none" /><path d="M 111.60114157652 82.49532879139004 l 16.992111215322463 -25.63896992399061 a51.75855364475356,51.75855364475356 0 0,0 0.7384104617273972,0.4985780399516141 l -17.4309263714564 25.342679971740328" fill="#a5ff21" stroke="none" /><path d="M 111.90073688211348 82.69761687909136 l 18.298646431418952 -26.604251004516875 a53.28972952400529,53.28972952400529 0 0,0 0.7513061662889389,0.5263379822994715 l -18.75388373729154 26.28532817945347" fill="#93ff23" stroke="none" /><path d="M 112.77801427241765 83.33499621200491 l 18.565817578212343 -24.213419524502932 a51.51195286141217,51.51195286141217 0 0,0 0.6990109326506904,0.5455891204615546 l -18.979861066022462 23.890252014818156" fill="#a8ff21" stroke="none" /><path d="M 113.34407831869373 83.78471172551755 l 13.793836696563456 -16.761819970178852 a42.70779904836387,42.70779904836387 0 0,0 0.5636259342532679,0.47202051092298075 l -14.080320167775842 16.521898301862052" fill="#ffe515" stroke="none" /><path d="M 113.89432698308785 84.25364557470407 l 20.345066886605466 -23.05693787059887 a51.749701308941304,51.749701308941304 0 0,0 0.6628619546330773,0.5951240077143862 l -20.738939828834532 22.703314854115185" fill="#a5ff21" stroke="none" /><path d="M 114.16331599549186 84.49514656593476 l 15.47574100350812 -16.9415902405427 a43.94593731984192,43.94593731984192 0 0,0 0.5541208448352362,0.5149949350030667 l -15.765069732138203 16.67269071946499" fill="#fff517" stroke="none" /><path d="M 114.42810811169701 84.74124197986012 l 13.737758088745863 -14.528663411209855 a40.995200869736976,40.995200869736976 0 0,0 0.5085684170495832,0.4892424142634703 l -13.985809749407865 14.290037910184083" fill="#ffcd13" stroke="none" /><path d="M 114.94478906791727 85.2469230424477 l 27.161094620639805 -26.812671451474856 a59.166011205732296,59.166011205732296 0 0,0 0.7092475902202438,0.7309419863452433 l -27.61860647456316 26.3411652695795" fill="#4fff2b" stroke="none" /><path d="M 115.19652480421416 85.50635884689758 l 12.885987645931667 -12.289973085929002 a38.807080503663784,38.807080503663784 0 0,0 0.4568751637823159,0.4873625700234057 l -13.095630131684446 12.066341099027541" fill="#ffae10" stroke="none" /><path d="M 115.4437574822437 85.77008943001954 l 19.958211358551583 -18.389537850195307 a48.1386311920182,48.1386311920182 0 0,0 0.5562449995610708,0.6142196215504964 l -20.27179999872869 18.04326544137526" fill="#d2ff1c" stroke="none" /><path d="M 115.9244219780498 86.31012108654704 l 16.48057880415882 -14.167994829799404 a42.73342023744334,42.73342023744334 0 0,0 0.47472635194239843,0.5619262643003999 l -16.72201576958834 13.882209615869899" fill="#ffe515" stroke="none" /><path d="M 116.38621287248628 86.86637796730983 l 17.948097096223325 -14.385479140431473 a44.00165645068305,44.00165645068305 0 0,0 0.4686090910619783,0.5950859576504447 l -18.193060267879265 14.07440078882799" fill="#fff617" stroke="none" /><path d="M 117.45458315368197 88.32363383020206 l 20.726506384974623 -13.865142228880307 a45.936524135361644,45.936524135361644 0 0,0 0.43399814040083995,0.6610089427314232 l -20.962101160733386 13.50631522217121" fill="#efff19" stroke="none" /><line stroke="#e1ed5e" stroke-width="0.3" x1="172.23445277983987" x2="176.4835382374775" y1="55.19839476539836" y2="52.563006222186495" /><path d="M 173.08426987136738 54.67131705675599 a86.0,86.0 0 0,1 12.851231095245387,41.99856678651699" fill="none" id="id123" stroke="none" /><text fill="#e1ed5e" style="font-size:6.75px; font-family:Arial;" text-anchor="middle"><textPath startOffset="22.20632615414155" xlink:href="#id123">March</textPath></text><path d="M 118.3937258080291 89.86733742301442 l 31.54771636240496 -17.378880619997055 a57.017827520366396,57.017827520366396 0 0,0 0.4661666278764492,0.863735963014211 l -31.842191089499874 16.833263673650386" fill="#67ff28" stroke="none" /><path d="M 118.73160827565052 90.50648371742162 l 13.76931897680159 -6.97853873424234 a36.43677906657438,36.43677906657438 0 0,0 0.278723986536859,0.5618905488901094 l -13.887402976291856 6.7404885968532815" fill="#ff8c0c" stroke="none" /><path d="M 118.89224826269711 90.83032412892265 l 23.205407970996685 -11.263141717775424 a46.794366060345226,46.794366060345226 0 0,0 0.345480144382188,0.7276692924904106 l -23.39584630922063 10.862030009644474" fill="#e3ff1b" stroke="none" /><path d="M 119.47837535516314 92.15188598940014 l 28.429714443956637 -11.454735632549905 a51.650605732620114,51.650605732620114 0 0,0 0.3251687252556952,0.8275189379274067 l -28.62267671909403 10.963667689726714" fill="#a6ff21" stroke="none" /><path d="M 119.85752413597 93.16781622104841 l 27.728615608930713 -9.540313106453944 a50.323944103019514,50.323944103019514 0 0,0 0.27477521994906623,0.8215429335975759 l -27.88872812265155 9.061597069934054" fill="#b7ff1f" stroke="none" /><path d="M 119.97218684219823 93.5106431181261 l 16.893637026832057 -5.489075411027251 a38.76302116370678,38.76302116370678 0 0,0 0.20072695162524187,0.6363592902379575 l -16.985619462225504 5.197465954362874" fill="#ffae10" stroke="none" /><path d="M 120.37134235888165 94.90015583598534 l 16.69298749435248 -4.178989943484341 a38.20813146260661,38.20813146260661 0 0,0 0.1542283957786497,0.639376269840898 l -16.76244869039195 3.891028441984037" fill="#ffa60f" stroke="none" /><path d="M 120.45610955862082 95.25157060432595 l 18.734494231224325 -4.348794811921671 a40.23261007809326,40.23261007809326 0 0,0 0.15078724946211097,0.6759496729302588 l -18.806575867688473 4.025666969441448" fill="#ffc212" stroke="none" /><path d="M 120.53481517161879 95.60439243477599 l 31.167095719255425 -6.671514721932628 a52.87313860068057,52.87313860068057 0 0,0 0.1828421215412085,0.8916031196927138 l -31.27731713671163 6.1340359460765015" fill="#98ff23" stroke="none" /><path d="M 120.6074358757038 95.95851677861258 l 11.35339605873252 -2.2266020845044396 a32.56967410557284,32.56967410557284 0 0,0 0.10315944264876088,0.5510818676004727 l -11.390041225291139 2.0308421394414045" fill="#ff5307" stroke="none" /><path d="M 120.87857604477298 97.74499172005257 l 30.72929339512392 -3.3189433462482927 a51.908006365652454,51.908006365652454 0 0,0 0.08830015178506079,0.8891704781940544 l -30.78187067259121 2.789497337349803" fill="#a3ff21" stroke="none" /><path d="M 120.91429891909075 98.10471618934814 l 30.77197132889833 -2.7886002446043197 a51.8980664571547,51.8980664571547 0 0,0 0.0729674857579837,0.8903881461113884 l -30.81541329847581 2.2584981812851623" fill="#a3ff21" stroke="none" /><line stroke="#e1ed5e" stroke-width="0.3" x1="184.98032266829074" x2="189.97916517819016" y1="98.17113171792111" y2="98.06355123074" /><path d="M 185.9800911702706 98.14961562048488 a86.0,86.0 0 0,1 -9.607161424134198,41.387399972396054" fill="none" id="id124" stroke="none" /><text fill="#e1ed5e" style="font-size:6.75px; font-family:Arial;" text-anchor="middle"><textPath startOffset="21.466115282336823" xlink:href="#id124">April</textPath></text><path d="M 120.99513854157772 99.54816195383933 l 14.922063506798388 -0.32113891538486206 a35.925518734834604,35.925518734834604 0 0,0 0.007984006677516652,0.618370115857727 l -14.92538052059362 0.06423254146667232" fill="#ff850c" stroke="none" /><path d="M 120.9904718944345 100.63252640178507 l 57.13781986837555 1.7217897619905205 a78.16375616853242,78.16375616853242 0 0,0 -0.05210123212847922,1.3445012946153923 l -57.09971650339587 -2.705068303619919" fill="#45fff0" stroke="none" /><path d="M 120.95626037817324 101.35467743843564 l 15.153769280619773 0.9795864806631198 a36.18539802189437,36.18539802189437 0 0,0 -0.04553060675424369,0.6212289549261691 l -15.134662115201193 -1.2402885720860592" fill="#ff890c" stroke="none" /><path d="M 120.92983693683757 101.71520430193887 l 13.489015844807621 1.1054275327494 a34.53423505380454,34.53423505380454 0 0,0 -0.053652064804416665,0.5920460643622852 l -13.467989183726129 -1.337454985660256" fill="#ff700a" stroke="none" /><path d="M 120.89721153311464 102.0752229133903 l 15.1653588706705 1.5060143392017222 a36.2399537028859,36.2399537028859 0 0,0 -0.06698817125973634,0.6202272693115269 l -15.137188397909712 -1.7668379303980406" fill="#ff8a0c" stroke="none" /><path d="M 120.81339534386255 102.79330883721812 l 30.248471231506443 4.0595645548154256 a51.519667039762844,51.519667039762844 0 0,0 -0.12552631692372337,0.8779307682019426 l -30.174110863566117 -4.579640794997777" fill="#a8ff21" stroke="none" /><path d="M 120.76222939487914 103.15116336523771 l 53.05029060969771 8.051646531066867 a74.65782650867087,74.65782650867087 0 0,0 -0.2037740780322052,1.268901378424089 l -52.90383477730422 -8.96362713918416" fill="#40ffc9" stroke="none" /><path d="M 120.70491114924044 103.5080841355445 l 24.708435740341496 4.186411176074646 a46.06058329867339,46.06058329867339 0 0,0 -0.1391765656301416,0.780576091728026 l -24.632712732372166 -4.6111060185358905" fill="#edff1a" stroke="none" /><path d="M 120.5718875245553 104.21870165774334 l 14.903846341766954 3.056349651616297 a36.21400371276198,36.21400371276198 0 0,0 -0.1304841620267963,0.6095785645749003 l -14.849028141015715 -3.3124420356073663" fill="#ff890c" stroke="none" /><path d="M 120.32669344350535 105.2749913415812 l 29.69938699762555 7.707304176066103 a51.68315703602117,51.68315703602117 0 0,0 -0.2308807801085313,0.8591932725422357 l -29.56231814117524 -8.217388381783886" fill="#a6ff21" stroke="none" /><line stroke="#e1ed5e" stroke-width="0.3" x1="174.80103733775053" x2="179.2010983576182" y1="140.37084112569926" y2="142.7455964860345" /><path d="M 175.68104954172406 140.8457921977663 a86.0,86.0 0 0,1 -30.038265399797805,32.042727171017184" fill="none" id="id125" stroke="none" /><text fill="#e1ed5e" style="font-size:6.75px; font-family:Arial;" text-anchor="middle"><textPath startOffset="22.206326154141568" xlink:href="#id125">May</textPath></text><line stroke="#e1ed5e" stroke-width="0.3" x1="143.8653032363475" x2="146.44561519142675" y1="172.8068346515853" y2="177.08958963109032" /><path d="M 144.38136562736335 173.6633856474863 a86.0,86.0 0 0,1 -40.68145358897372,12.25698825130547" fill="none" id="id126" stroke="none" /><text fill="#e1ed5e" style="font-size:6.75px; font-family:Arial;" text-anchor="middle"><textPath startOffset="21.466115282336833" xlink:href="#id126">June</textPath></text><line stroke="#e1ed5e" stroke-width="0.3" x1="102.19456741930631" x2="102.32365962044197" y1="184.97166512339345" y2="189.96999836594603" /><path d="M 102.22038585953345 185.97133177190398 a86.0,86.0 0 0,1 -42.740103519485714,-10.115201625700543" fill="none" id="id127" stroke="none" /><text fill="#e1ed5e" style="font-size:6.75px; font-family:Arial;" text-anchor="middle"><textPath startOffset="22.20632615414155" xlink:href="#id127">July</textPath></text><line stroke="#e1ed5e" stroke-width="0.3" x1="58.666819895761336" x2="56.23545636021788" y1="174.27360380694188" y2="178.64263932499728" /><path d="M 58.180547188652646 175.14741091055294 a86.0,86.0 0 0,1 -31.652253787137756,-30.449443065178592" fill="none" id="id128" stroke="none" /><text fill="#e1ed5e" style="font-size:6.75px; font-family:Arial;" text-anchor="middle"><textPath startOffset="22.20632615414155" xlink:href="#id128">August</textPath></text><line stroke="#e1ed5e" stroke-width="0.3" x1="26.63291911575756" x2="22.317208475507996" y1="142.92168965132927" y2="145.44649492493687" /><path d="M 25.769776987707644 143.4266507060508 a86.0,86.0 0 0,1 -11.730757126820373,-40.83630448921669" fill="none" id="id129" stroke="none" /><text fill="#e1ed5e" style="font-size:6.75px; font-family:Arial;" text-anchor="middle"><textPath startOffset="21.46611528233685" xlink:href="#id129">September</textPath></text><line stroke="#e1ed5e" stroke-width="0.3" x1="15.007084014347285" x2="10.007500721073583" y1="101.09737516637583" y2="101.16192664675087" /><path d="M 14.007167355692545 101.11028546245083 a86.0,86.0 0 0,1 10.666146001902534,-42.60595125391555" fill="none" id="id130" stroke="none" /><text fill="#e1ed5e" style="font-size:6.75px; font-family:Arial;" text-anchor="middle"><textPath startOffset="22.20632615414155" xlink:href="#id130">October</textPath></text><line stroke="#e1ed5e" stroke-width="0.3" x1="26.266209847984243" x2="21.928928074336255" y1="57.711370442889674" y2="55.22380399835377" /><path d="M 25.398753493254645 57.213857153982495 a86.0,86.0 0 0,1 29.58750427330803,-30.492523968695096" fill="none" id="id131" stroke="none" /><text fill="#e1ed5e" style="font-size:6.75px; font-family:Arial;" text-anchor="middle"><textPath startOffset="21.46611528233685" xlink:href="#id131">November</textPath></text><line stroke="#e1ed5e" stroke-width="0.3" x1="56.762969772571076" x2="54.21961505331055" y1="26.818313649435495" y2="22.513508569990535" /><path d="M 56.25429882871897 25.957352633546506 a86.0,86.0 0 0,1 42.265352541879196,-11.944610805530505" fill="none" id="id132" stroke="none" /><text fill="#e1ed5e" style="font-size:6.75px; font-family:Arial;" text-anchor="middle"><textPath startOffset="22.20632615414155" xlink:href="#id132">December</textPath></text></svg>